G04 #@! TF.FileFunction,Legend,Bot*
%FSLAX46Y46*%
G04 Gerber Fmt 4.6, Leading zero omitted, Abs format (unit mm)*
G04 Created by KiCad (PCBNEW (2015-10-27 BZR 6284, Git 48df08c)-product) date Wed 09 Dec 2015 03:30:12 AM CET*
%MOMM*%
G01*
G04 APERTURE LIST*
%ADD10C,0.100000*%
%ADD11C,0.150000*%
%ADD12C,0.400000*%
%ADD13C,0.254000*%
%ADD14C,0.099060*%
%ADD15C,0.127000*%
%ADD16C,0.071120*%
%ADD17C,0.119380*%
%ADD18C,0.190500*%
%ADD19C,0.109220*%
%ADD20C,0.114300*%
%ADD21C,0.304800*%
G04 APERTURE END LIST*
D10*
D11*
X128283018Y-115570000D02*
X128848703Y-115004315D01*
X138430000Y-125716982D02*
X138995685Y-125151297D01*
X148576982Y-115570000D02*
X148011297Y-116135685D01*
X138430000Y-105423018D02*
X137864315Y-105988703D01*
X128283018Y-115570000D02*
X128848703Y-116135685D01*
X138430000Y-105423018D02*
X138995685Y-105988703D01*
X148576982Y-115570000D02*
X148011297Y-115004315D01*
X138430000Y-125716982D02*
X137864315Y-125151297D01*
X128848703Y-115004315D02*
X127947142Y-114102753D01*
D12*
X157540000Y-77500000D02*
X152540000Y-77500000D01*
X157540000Y-77500000D02*
X157540000Y-82500000D01*
X116740000Y-77500000D02*
X121740000Y-77500000D01*
X116740000Y-77500000D02*
X116740000Y-82500000D01*
X116740000Y-100300000D02*
X116740000Y-95300000D01*
X116740000Y-100300000D02*
X121740000Y-100300000D01*
X157540000Y-100300000D02*
X157540000Y-95300000D01*
X157540000Y-100300000D02*
X152540000Y-100300000D01*
D13*
X76835000Y-98044000D02*
X76835000Y-92710000D01*
X76835000Y-92710000D02*
X73152000Y-92710000D01*
X73152000Y-92710000D02*
X73152000Y-98044000D01*
X73152000Y-98044000D02*
X76835000Y-98044000D01*
X74097039Y-97452180D02*
G75*
G03X74097039Y-97452180I-325279J0D01*
G01*
D14*
X92265500Y-104902000D02*
G75*
G03X92265500Y-104902000I-127000J0D01*
G01*
X90995500Y-104902000D02*
X92011500Y-104902000D01*
X92011500Y-104902000D02*
X92011500Y-103378000D01*
X92011500Y-103378000D02*
X90995500Y-103378000D01*
X89979500Y-103378000D02*
X88963500Y-103378000D01*
X88963500Y-103378000D02*
X88963500Y-104902000D01*
X88963500Y-104902000D02*
X89979500Y-104902000D01*
X159291232Y-119158137D02*
G75*
G03X159291232Y-119158137I-127000J0D01*
G01*
X159972455Y-118349914D02*
X159254035Y-119068334D01*
X159254035Y-119068334D02*
X160331666Y-120145965D01*
X160331666Y-120145965D02*
X161050086Y-119427545D01*
X161768507Y-118709124D02*
X162486927Y-117990704D01*
X162486927Y-117990704D02*
X161409296Y-116913073D01*
X161409296Y-116913073D02*
X160690876Y-117631493D01*
D15*
X118999000Y-125857000D02*
X116713000Y-125857000D01*
X116713000Y-125857000D02*
X116713000Y-124206000D01*
X118999000Y-122428000D02*
X118999000Y-120777000D01*
X118999000Y-120777000D02*
X116713000Y-120777000D01*
X116713000Y-120777000D02*
X116713000Y-122428000D01*
X118999000Y-124206000D02*
X118999000Y-125857000D01*
X124206000Y-125857000D02*
X121920000Y-125857000D01*
X121920000Y-125857000D02*
X121920000Y-124206000D01*
X124206000Y-122428000D02*
X124206000Y-120777000D01*
X124206000Y-120777000D02*
X121920000Y-120777000D01*
X121920000Y-120777000D02*
X121920000Y-122428000D01*
X124206000Y-124206000D02*
X124206000Y-125857000D01*
D16*
X128401112Y-112622296D02*
X128760322Y-112981507D01*
X128760322Y-112981507D02*
X128221507Y-113520322D01*
X128221507Y-113520322D02*
X127862296Y-113161112D01*
X128041902Y-112263086D02*
X127682691Y-111903876D01*
X127682691Y-111903876D02*
X127143876Y-112442691D01*
X127143876Y-112442691D02*
X127503086Y-112801902D01*
X131703112Y-109320296D02*
X132062322Y-109679507D01*
X132062322Y-109679507D02*
X131523507Y-110218322D01*
X131523507Y-110218322D02*
X131164296Y-109859112D01*
X131343902Y-108961086D02*
X130984691Y-108601876D01*
X130984691Y-108601876D02*
X130445876Y-109140691D01*
X130445876Y-109140691D02*
X130805086Y-109499902D01*
X146457704Y-110621112D02*
X146098493Y-110980322D01*
X146098493Y-110980322D02*
X145559678Y-110441507D01*
X145559678Y-110441507D02*
X145918888Y-110082296D01*
X146816914Y-110261902D02*
X147176124Y-109902691D01*
X147176124Y-109902691D02*
X146637309Y-109363876D01*
X146637309Y-109363876D02*
X146278098Y-109723086D01*
X148458888Y-118517704D02*
X148099678Y-118158493D01*
X148099678Y-118158493D02*
X148638493Y-117619678D01*
X148638493Y-117619678D02*
X148997704Y-117978888D01*
X148818098Y-118876914D02*
X149177309Y-119236124D01*
X149177309Y-119236124D02*
X149716124Y-118697309D01*
X149716124Y-118697309D02*
X149356914Y-118338098D01*
X141101914Y-126593098D02*
X141461124Y-126952309D01*
X141461124Y-126952309D02*
X140922309Y-127491124D01*
X140922309Y-127491124D02*
X140563098Y-127131914D01*
X140742704Y-126233888D02*
X140383493Y-125874678D01*
X140383493Y-125874678D02*
X139844678Y-126413493D01*
X139844678Y-126413493D02*
X140203888Y-126772704D01*
X144911112Y-122782296D02*
X145270322Y-123141507D01*
X145270322Y-123141507D02*
X144731507Y-123680322D01*
X144731507Y-123680322D02*
X144372296Y-123321112D01*
X144551902Y-122423086D02*
X144192691Y-122063876D01*
X144192691Y-122063876D02*
X143653876Y-122602691D01*
X143653876Y-122602691D02*
X144013086Y-122961902D01*
D14*
X170370500Y-89027000D02*
G75*
G03X170370500Y-89027000I-127000J0D01*
G01*
X169100500Y-89027000D02*
X170116500Y-89027000D01*
X170116500Y-89027000D02*
X170116500Y-87503000D01*
X170116500Y-87503000D02*
X169100500Y-87503000D01*
X168084500Y-87503000D02*
X167068500Y-87503000D01*
X167068500Y-87503000D02*
X167068500Y-89027000D01*
X167068500Y-89027000D02*
X168084500Y-89027000D01*
X170370500Y-96647000D02*
G75*
G03X170370500Y-96647000I-127000J0D01*
G01*
X169100500Y-96647000D02*
X170116500Y-96647000D01*
X170116500Y-96647000D02*
X170116500Y-95123000D01*
X170116500Y-95123000D02*
X169100500Y-95123000D01*
X168084500Y-95123000D02*
X167068500Y-95123000D01*
X167068500Y-95123000D02*
X167068500Y-96647000D01*
X167068500Y-96647000D02*
X168084500Y-96647000D01*
X170370500Y-91567000D02*
G75*
G03X170370500Y-91567000I-127000J0D01*
G01*
X169100500Y-91567000D02*
X170116500Y-91567000D01*
X170116500Y-91567000D02*
X170116500Y-90043000D01*
X170116500Y-90043000D02*
X169100500Y-90043000D01*
X168084500Y-90043000D02*
X167068500Y-90043000D01*
X167068500Y-90043000D02*
X167068500Y-91567000D01*
X167068500Y-91567000D02*
X168084500Y-91567000D01*
D17*
X70111620Y-52085240D02*
X69413120Y-52085240D01*
X71112380Y-52085240D02*
X71810880Y-52085240D01*
X70111620Y-50784760D02*
X69413120Y-50784760D01*
X71810880Y-50784760D02*
X71112380Y-50784760D01*
X69413120Y-50800000D02*
X69413120Y-52070000D01*
X71810880Y-52070000D02*
X71810880Y-50800000D01*
X68841620Y-60975240D02*
X68143120Y-60975240D01*
X69842380Y-60975240D02*
X70540880Y-60975240D01*
X68841620Y-59674760D02*
X68143120Y-59674760D01*
X70540880Y-59674760D02*
X69842380Y-59674760D01*
X68143120Y-59690000D02*
X68143120Y-60960000D01*
X70540880Y-60960000D02*
X70540880Y-59690000D01*
D15*
X107061000Y-118237000D02*
X107061000Y-120523000D01*
X107061000Y-120523000D02*
X105410000Y-120523000D01*
X103632000Y-118237000D02*
X101981000Y-118237000D01*
X101981000Y-118237000D02*
X101981000Y-120523000D01*
X101981000Y-120523000D02*
X103632000Y-120523000D01*
X105410000Y-118237000D02*
X107061000Y-118237000D01*
D17*
X134610218Y-124820204D02*
X135104132Y-124326290D01*
X133902574Y-125527848D02*
X133408660Y-126021762D01*
X135529796Y-125739782D02*
X136023710Y-125245868D01*
X134328238Y-126941340D02*
X134822152Y-126447426D01*
X136012934Y-125235092D02*
X135114908Y-124337066D01*
X133419436Y-126032538D02*
X134317462Y-126930564D01*
D16*
X135386112Y-105637296D02*
X135745322Y-105996507D01*
X135745322Y-105996507D02*
X135206507Y-106535322D01*
X135206507Y-106535322D02*
X134847296Y-106176112D01*
X135026902Y-105278086D02*
X134667691Y-104918876D01*
X134667691Y-104918876D02*
X134128876Y-105457691D01*
X134128876Y-105457691D02*
X134488086Y-105816902D01*
X143281902Y-107446914D02*
X142922691Y-107806124D01*
X142922691Y-107806124D02*
X142383876Y-107267309D01*
X142383876Y-107267309D02*
X142743086Y-106908098D01*
X143641112Y-107087704D02*
X144000322Y-106728493D01*
X144000322Y-106728493D02*
X143461507Y-106189678D01*
X143461507Y-106189678D02*
X143102296Y-106548888D01*
X133757704Y-124591112D02*
X133398493Y-124950322D01*
X133398493Y-124950322D02*
X132859678Y-124411507D01*
X132859678Y-124411507D02*
X133218888Y-124052296D01*
X134116914Y-124231902D02*
X134476124Y-123872691D01*
X134476124Y-123872691D02*
X133937309Y-123333876D01*
X133937309Y-123333876D02*
X133578098Y-123693086D01*
X129798914Y-120116098D02*
X130158124Y-120475309D01*
X130158124Y-120475309D02*
X129619309Y-121014124D01*
X129619309Y-121014124D02*
X129260098Y-120654914D01*
X129439704Y-119756888D02*
X129080493Y-119397678D01*
X129080493Y-119397678D02*
X128541678Y-119936493D01*
X128541678Y-119936493D02*
X128900888Y-120295704D01*
D17*
X127171574Y-120979152D02*
X126677660Y-120485238D01*
X127879218Y-121686796D02*
X128373132Y-122180710D01*
X128091152Y-120059574D02*
X127597238Y-119565660D01*
X129292710Y-121261132D02*
X128798796Y-120767218D01*
X127586462Y-119576436D02*
X126688436Y-120474462D01*
X128383908Y-122169934D02*
X129281934Y-121271908D01*
X94241620Y-115585240D02*
X93543120Y-115585240D01*
X95242380Y-115585240D02*
X95940880Y-115585240D01*
X94241620Y-114284760D02*
X93543120Y-114284760D01*
X95940880Y-114284760D02*
X95242380Y-114284760D01*
X93543120Y-114300000D02*
X93543120Y-115570000D01*
X95940880Y-115570000D02*
X95940880Y-114300000D01*
X99202240Y-116578380D02*
X99202240Y-117276880D01*
X99202240Y-115577620D02*
X99202240Y-114879120D01*
X97901760Y-116578380D02*
X97901760Y-117276880D01*
X97901760Y-114879120D02*
X97901760Y-115577620D01*
X97917000Y-117276880D02*
X99187000Y-117276880D01*
X99187000Y-114879120D02*
X97917000Y-114879120D01*
X104790240Y-116578380D02*
X104790240Y-117276880D01*
X104790240Y-115577620D02*
X104790240Y-114879120D01*
X103489760Y-116578380D02*
X103489760Y-117276880D01*
X103489760Y-114879120D02*
X103489760Y-115577620D01*
X103505000Y-117276880D02*
X104775000Y-117276880D01*
X104775000Y-114879120D02*
X103505000Y-114879120D01*
X109212380Y-114284760D02*
X109910880Y-114284760D01*
X108211620Y-114284760D02*
X107513120Y-114284760D01*
X109212380Y-115585240D02*
X109910880Y-115585240D01*
X107513120Y-115585240D02*
X108211620Y-115585240D01*
X109910880Y-115570000D02*
X109910880Y-114300000D01*
X107513120Y-114300000D02*
X107513120Y-115570000D01*
D15*
X72395080Y-48828960D02*
X72395080Y-50231040D01*
X72494140Y-50231040D02*
X72494140Y-48828960D01*
X72595740Y-48828960D02*
X72595740Y-50231040D01*
X72694800Y-48828960D02*
X72694800Y-50231040D01*
X72296020Y-48828960D02*
X74094340Y-48828960D01*
X74094340Y-48828960D02*
X74094340Y-50231040D01*
X74094340Y-50231040D02*
X72296020Y-50231040D01*
X72296020Y-50231040D02*
X72296020Y-48828960D01*
X73030080Y-50733960D02*
X73030080Y-52136040D01*
X73129140Y-52136040D02*
X73129140Y-50733960D01*
X73230740Y-50733960D02*
X73230740Y-52136040D01*
X73329800Y-50733960D02*
X73329800Y-52136040D01*
X72931020Y-50733960D02*
X74729340Y-50733960D01*
X74729340Y-50733960D02*
X74729340Y-52136040D01*
X74729340Y-52136040D02*
X72931020Y-52136040D01*
X72931020Y-52136040D02*
X72931020Y-50733960D01*
X124980700Y-71081900D02*
X124980700Y-69888100D01*
X124853700Y-69888100D02*
X124853700Y-71081900D01*
X124726700Y-71081900D02*
X124726700Y-69888100D01*
X123456700Y-71081900D02*
X123456700Y-69888100D01*
X123456700Y-69888100D02*
X125463300Y-69888100D01*
X125463300Y-69888100D02*
X125463300Y-71081900D01*
X125463300Y-71081900D02*
X123456700Y-71081900D01*
D14*
X80835500Y-51968106D02*
G75*
G03X80835500Y-51968106I-127000J0D01*
G01*
X79565500Y-51968106D02*
X80581500Y-51968106D01*
X80581500Y-51968106D02*
X80581500Y-50444106D01*
X80581500Y-50444106D02*
X79565500Y-50444106D01*
X78549500Y-50444106D02*
X77533500Y-50444106D01*
X77533500Y-50444106D02*
X77533500Y-51968106D01*
X77533500Y-51968106D02*
X78549500Y-51968106D01*
X80835500Y-53873106D02*
G75*
G03X80835500Y-53873106I-127000J0D01*
G01*
X79565500Y-53873106D02*
X80581500Y-53873106D01*
X80581500Y-53873106D02*
X80581500Y-52349106D01*
X80581500Y-52349106D02*
X79565500Y-52349106D01*
X78549500Y-52349106D02*
X77533500Y-52349106D01*
X77533500Y-52349106D02*
X77533500Y-53873106D01*
X77533500Y-53873106D02*
X78549500Y-53873106D01*
X80835500Y-57683106D02*
G75*
G03X80835500Y-57683106I-127000J0D01*
G01*
X79565500Y-57683106D02*
X80581500Y-57683106D01*
X80581500Y-57683106D02*
X80581500Y-56159106D01*
X80581500Y-56159106D02*
X79565500Y-56159106D01*
X78549500Y-56159106D02*
X77533500Y-56159106D01*
X77533500Y-56159106D02*
X77533500Y-57683106D01*
X77533500Y-57683106D02*
X78549500Y-57683106D01*
X80835500Y-55778106D02*
G75*
G03X80835500Y-55778106I-127000J0D01*
G01*
X79565500Y-55778106D02*
X80581500Y-55778106D01*
X80581500Y-55778106D02*
X80581500Y-54254106D01*
X80581500Y-54254106D02*
X79565500Y-54254106D01*
X78549500Y-54254106D02*
X77533500Y-54254106D01*
X77533500Y-54254106D02*
X77533500Y-55778106D01*
X77533500Y-55778106D02*
X78549500Y-55778106D01*
X158496000Y-84963000D02*
G75*
G03X158496000Y-84963000I-127000J0D01*
G01*
X159512000Y-84963000D02*
X158496000Y-84963000D01*
X158496000Y-84963000D02*
X158496000Y-86487000D01*
X158496000Y-86487000D02*
X159512000Y-86487000D01*
X160528000Y-86487000D02*
X161544000Y-86487000D01*
X161544000Y-86487000D02*
X161544000Y-84963000D01*
X161544000Y-84963000D02*
X160528000Y-84963000D01*
X158496000Y-86868000D02*
G75*
G03X158496000Y-86868000I-127000J0D01*
G01*
X159512000Y-86868000D02*
X158496000Y-86868000D01*
X158496000Y-86868000D02*
X158496000Y-88392000D01*
X158496000Y-88392000D02*
X159512000Y-88392000D01*
X160528000Y-88392000D02*
X161544000Y-88392000D01*
X161544000Y-88392000D02*
X161544000Y-86868000D01*
X161544000Y-86868000D02*
X160528000Y-86868000D01*
X158496000Y-88773000D02*
G75*
G03X158496000Y-88773000I-127000J0D01*
G01*
X159512000Y-88773000D02*
X158496000Y-88773000D01*
X158496000Y-88773000D02*
X158496000Y-90297000D01*
X158496000Y-90297000D02*
X159512000Y-90297000D01*
X160528000Y-90297000D02*
X161544000Y-90297000D01*
X161544000Y-90297000D02*
X161544000Y-88773000D01*
X161544000Y-88773000D02*
X160528000Y-88773000D01*
X158496000Y-83058000D02*
G75*
G03X158496000Y-83058000I-127000J0D01*
G01*
X159512000Y-83058000D02*
X158496000Y-83058000D01*
X158496000Y-83058000D02*
X158496000Y-84582000D01*
X158496000Y-84582000D02*
X159512000Y-84582000D01*
X160528000Y-84582000D02*
X161544000Y-84582000D01*
X161544000Y-84582000D02*
X161544000Y-83058000D01*
X161544000Y-83058000D02*
X160528000Y-83058000D01*
X123380500Y-120142000D02*
G75*
G03X123380500Y-120142000I-127000J0D01*
G01*
X122110500Y-120142000D02*
X123126500Y-120142000D01*
X123126500Y-120142000D02*
X123126500Y-118618000D01*
X123126500Y-118618000D02*
X122110500Y-118618000D01*
X121094500Y-118618000D02*
X120078500Y-118618000D01*
X120078500Y-118618000D02*
X120078500Y-120142000D01*
X120078500Y-120142000D02*
X121094500Y-120142000D01*
D11*
X119105000Y-76895000D02*
X125305000Y-76895000D01*
X119805000Y-71695000D02*
X125305000Y-71695000D01*
D14*
X110045500Y-127127000D02*
G75*
G03X110045500Y-127127000I-127000J0D01*
G01*
X108775500Y-127127000D02*
X109791500Y-127127000D01*
X109791500Y-127127000D02*
X109791500Y-125603000D01*
X109791500Y-125603000D02*
X108775500Y-125603000D01*
X107759500Y-125603000D02*
X106743500Y-125603000D01*
X106743500Y-125603000D02*
X106743500Y-127127000D01*
X106743500Y-127127000D02*
X107759500Y-127127000D01*
X95313500Y-122428000D02*
G75*
G03X95313500Y-122428000I-127000J0D01*
G01*
X96329500Y-122428000D02*
X95313500Y-122428000D01*
X95313500Y-122428000D02*
X95313500Y-123952000D01*
X95313500Y-123952000D02*
X96329500Y-123952000D01*
X97345500Y-123952000D02*
X98361500Y-123952000D01*
X98361500Y-123952000D02*
X98361500Y-122428000D01*
X98361500Y-122428000D02*
X97345500Y-122428000D01*
X91503500Y-125603000D02*
G75*
G03X91503500Y-125603000I-127000J0D01*
G01*
X92519500Y-125603000D02*
X91503500Y-125603000D01*
X91503500Y-125603000D02*
X91503500Y-127127000D01*
X91503500Y-127127000D02*
X92519500Y-127127000D01*
X93535500Y-127127000D02*
X94551500Y-127127000D01*
X94551500Y-127127000D02*
X94551500Y-125603000D01*
X94551500Y-125603000D02*
X93535500Y-125603000D01*
X90805000Y-125476000D02*
G75*
G03X90805000Y-125476000I-127000J0D01*
G01*
X90678000Y-124333000D02*
X90678000Y-125349000D01*
X90678000Y-125349000D02*
X92202000Y-125349000D01*
X92202000Y-125349000D02*
X92202000Y-124333000D01*
X92202000Y-123317000D02*
X92202000Y-122301000D01*
X92202000Y-122301000D02*
X90678000Y-122301000D01*
X90678000Y-122301000D02*
X90678000Y-123317000D01*
X111950500Y-120142000D02*
G75*
G03X111950500Y-120142000I-127000J0D01*
G01*
X110680500Y-120142000D02*
X111696500Y-120142000D01*
X111696500Y-120142000D02*
X111696500Y-118618000D01*
X111696500Y-118618000D02*
X110680500Y-118618000D01*
X109664500Y-118618000D02*
X108648500Y-118618000D01*
X108648500Y-118618000D02*
X108648500Y-120142000D01*
X108648500Y-120142000D02*
X109664500Y-120142000D01*
X170370500Y-83947000D02*
G75*
G03X170370500Y-83947000I-127000J0D01*
G01*
X169100500Y-83947000D02*
X170116500Y-83947000D01*
X170116500Y-83947000D02*
X170116500Y-82423000D01*
X170116500Y-82423000D02*
X169100500Y-82423000D01*
X168084500Y-82423000D02*
X167068500Y-82423000D01*
X167068500Y-82423000D02*
X167068500Y-83947000D01*
X167068500Y-83947000D02*
X168084500Y-83947000D01*
X170370500Y-86487000D02*
G75*
G03X170370500Y-86487000I-127000J0D01*
G01*
X169100500Y-86487000D02*
X170116500Y-86487000D01*
X170116500Y-86487000D02*
X170116500Y-84963000D01*
X170116500Y-84963000D02*
X169100500Y-84963000D01*
X168084500Y-84963000D02*
X167068500Y-84963000D01*
X167068500Y-84963000D02*
X167068500Y-86487000D01*
X167068500Y-86487000D02*
X168084500Y-86487000D01*
X80200500Y-104267000D02*
G75*
G03X80200500Y-104267000I-127000J0D01*
G01*
X78930500Y-104267000D02*
X79946500Y-104267000D01*
X79946500Y-104267000D02*
X79946500Y-102743000D01*
X79946500Y-102743000D02*
X78930500Y-102743000D01*
X77914500Y-102743000D02*
X76898500Y-102743000D01*
X76898500Y-102743000D02*
X76898500Y-104267000D01*
X76898500Y-104267000D02*
X77914500Y-104267000D01*
X82804000Y-104076500D02*
G75*
G03X82804000Y-104076500I-127000J0D01*
G01*
X82677000Y-105219500D02*
X82677000Y-104203500D01*
X82677000Y-104203500D02*
X81153000Y-104203500D01*
X81153000Y-104203500D02*
X81153000Y-105219500D01*
X81153000Y-106235500D02*
X81153000Y-107251500D01*
X81153000Y-107251500D02*
X82677000Y-107251500D01*
X82677000Y-107251500D02*
X82677000Y-106235500D01*
X85344000Y-104076500D02*
G75*
G03X85344000Y-104076500I-127000J0D01*
G01*
X85217000Y-105219500D02*
X85217000Y-104203500D01*
X85217000Y-104203500D02*
X83693000Y-104203500D01*
X83693000Y-104203500D02*
X83693000Y-105219500D01*
X83693000Y-106235500D02*
X83693000Y-107251500D01*
X83693000Y-107251500D02*
X85217000Y-107251500D01*
X85217000Y-107251500D02*
X85217000Y-106235500D01*
X87884000Y-104076500D02*
G75*
G03X87884000Y-104076500I-127000J0D01*
G01*
X87757000Y-105219500D02*
X87757000Y-104203500D01*
X87757000Y-104203500D02*
X86233000Y-104203500D01*
X86233000Y-104203500D02*
X86233000Y-105219500D01*
X86233000Y-106235500D02*
X86233000Y-107251500D01*
X86233000Y-107251500D02*
X87757000Y-107251500D01*
X87757000Y-107251500D02*
X87757000Y-106235500D01*
X81280000Y-104203500D02*
G75*
G03X81280000Y-104203500I-127000J0D01*
G01*
X81153000Y-103060500D02*
X81153000Y-104076500D01*
X81153000Y-104076500D02*
X82677000Y-104076500D01*
X82677000Y-104076500D02*
X82677000Y-103060500D01*
X82677000Y-102044500D02*
X82677000Y-101028500D01*
X82677000Y-101028500D02*
X81153000Y-101028500D01*
X81153000Y-101028500D02*
X81153000Y-102044500D01*
X83820000Y-104203500D02*
G75*
G03X83820000Y-104203500I-127000J0D01*
G01*
X83693000Y-103060500D02*
X83693000Y-104076500D01*
X83693000Y-104076500D02*
X85217000Y-104076500D01*
X85217000Y-104076500D02*
X85217000Y-103060500D01*
X85217000Y-102044500D02*
X85217000Y-101028500D01*
X85217000Y-101028500D02*
X83693000Y-101028500D01*
X83693000Y-101028500D02*
X83693000Y-102044500D01*
X86360000Y-104203500D02*
G75*
G03X86360000Y-104203500I-127000J0D01*
G01*
X86233000Y-103060500D02*
X86233000Y-104076500D01*
X86233000Y-104076500D02*
X87757000Y-104076500D01*
X87757000Y-104076500D02*
X87757000Y-103060500D01*
X87757000Y-102044500D02*
X87757000Y-101028500D01*
X87757000Y-101028500D02*
X86233000Y-101028500D01*
X86233000Y-101028500D02*
X86233000Y-102044500D01*
X170370500Y-94107000D02*
G75*
G03X170370500Y-94107000I-127000J0D01*
G01*
X169100500Y-94107000D02*
X170116500Y-94107000D01*
X170116500Y-94107000D02*
X170116500Y-92583000D01*
X170116500Y-92583000D02*
X169100500Y-92583000D01*
X168084500Y-92583000D02*
X167068500Y-92583000D01*
X167068500Y-92583000D02*
X167068500Y-94107000D01*
X167068500Y-94107000D02*
X168084500Y-94107000D01*
X144746768Y-126332863D02*
G75*
G03X144746768Y-126332863I-127000J0D01*
G01*
X143811545Y-127141086D02*
X144529965Y-126422666D01*
X144529965Y-126422666D02*
X143452334Y-125345035D01*
X143452334Y-125345035D02*
X142733914Y-126063455D01*
X142015493Y-126781876D02*
X141297073Y-127500296D01*
X141297073Y-127500296D02*
X142374704Y-128577927D01*
X142374704Y-128577927D02*
X143093124Y-127859507D01*
X146016768Y-127602863D02*
G75*
G03X146016768Y-127602863I-127000J0D01*
G01*
X145081545Y-128411086D02*
X145799965Y-127692666D01*
X145799965Y-127692666D02*
X144722334Y-126615035D01*
X144722334Y-126615035D02*
X144003914Y-127333455D01*
X143285493Y-128051876D02*
X142567073Y-128770296D01*
X142567073Y-128770296D02*
X143644704Y-129847927D01*
X143644704Y-129847927D02*
X144363124Y-129129507D01*
X147286768Y-128872863D02*
G75*
G03X147286768Y-128872863I-127000J0D01*
G01*
X146351545Y-129681086D02*
X147069965Y-128962666D01*
X147069965Y-128962666D02*
X145992334Y-127885035D01*
X145992334Y-127885035D02*
X145273914Y-128603455D01*
X144555493Y-129321876D02*
X143837073Y-130040296D01*
X143837073Y-130040296D02*
X144914704Y-131117927D01*
X144914704Y-131117927D02*
X145633124Y-130399507D01*
X148556768Y-130142863D02*
G75*
G03X148556768Y-130142863I-127000J0D01*
G01*
X147621545Y-130951086D02*
X148339965Y-130232666D01*
X148339965Y-130232666D02*
X147262334Y-129155035D01*
X147262334Y-129155035D02*
X146543914Y-129873455D01*
X145825493Y-130591876D02*
X145107073Y-131310296D01*
X145107073Y-131310296D02*
X146184704Y-132387927D01*
X146184704Y-132387927D02*
X146903124Y-131669507D01*
X157590270Y-117811099D02*
G75*
G03X157590270Y-117811099I-127000J0D01*
G01*
X158271493Y-117002876D02*
X157553073Y-117721296D01*
X157553073Y-117721296D02*
X158630704Y-118798927D01*
X158630704Y-118798927D02*
X159349124Y-118080507D01*
X160067545Y-117362086D02*
X160785965Y-116643666D01*
X160785965Y-116643666D02*
X159708334Y-115566035D01*
X159708334Y-115566035D02*
X158989914Y-116284455D01*
X119734761Y-107442000D02*
G75*
G03X119734761Y-107442000I-127000J0D01*
G01*
X120750761Y-107442000D02*
X119734761Y-107442000D01*
X119734761Y-107442000D02*
X119734761Y-108966000D01*
X119734761Y-108966000D02*
X120750761Y-108966000D01*
X121766761Y-108966000D02*
X122782761Y-108966000D01*
X122782761Y-108966000D02*
X122782761Y-107442000D01*
X122782761Y-107442000D02*
X121766761Y-107442000D01*
X119734761Y-109220000D02*
G75*
G03X119734761Y-109220000I-127000J0D01*
G01*
X120750761Y-109220000D02*
X119734761Y-109220000D01*
X119734761Y-109220000D02*
X119734761Y-110744000D01*
X119734761Y-110744000D02*
X120750761Y-110744000D01*
X121766761Y-110744000D02*
X122782761Y-110744000D01*
X122782761Y-110744000D02*
X122782761Y-109220000D01*
X122782761Y-109220000D02*
X121766761Y-109220000D01*
X119734761Y-110998000D02*
G75*
G03X119734761Y-110998000I-127000J0D01*
G01*
X120750761Y-110998000D02*
X119734761Y-110998000D01*
X119734761Y-110998000D02*
X119734761Y-112522000D01*
X119734761Y-112522000D02*
X120750761Y-112522000D01*
X121766761Y-112522000D02*
X122782761Y-112522000D01*
X122782761Y-112522000D02*
X122782761Y-110998000D01*
X122782761Y-110998000D02*
X121766761Y-110998000D01*
X119734761Y-112776000D02*
G75*
G03X119734761Y-112776000I-127000J0D01*
G01*
X120750761Y-112776000D02*
X119734761Y-112776000D01*
X119734761Y-112776000D02*
X119734761Y-114300000D01*
X119734761Y-114300000D02*
X120750761Y-114300000D01*
X121766761Y-114300000D02*
X122782761Y-114300000D01*
X122782761Y-114300000D02*
X122782761Y-112776000D01*
X122782761Y-112776000D02*
X121766761Y-112776000D01*
X93154500Y-112268000D02*
G75*
G03X93154500Y-112268000I-127000J0D01*
G01*
X94170500Y-112268000D02*
X93154500Y-112268000D01*
X93154500Y-112268000D02*
X93154500Y-113792000D01*
X93154500Y-113792000D02*
X94170500Y-113792000D01*
X95186500Y-113792000D02*
X96202500Y-113792000D01*
X96202500Y-113792000D02*
X96202500Y-112268000D01*
X96202500Y-112268000D02*
X95186500Y-112268000D01*
X99695000Y-117538500D02*
G75*
G03X99695000Y-117538500I-127000J0D01*
G01*
X99568000Y-116395500D02*
X99568000Y-117411500D01*
X99568000Y-117411500D02*
X101092000Y-117411500D01*
X101092000Y-117411500D02*
X101092000Y-116395500D01*
X101092000Y-115379500D02*
X101092000Y-114363500D01*
X101092000Y-114363500D02*
X99568000Y-114363500D01*
X99568000Y-114363500D02*
X99568000Y-115379500D01*
X101727000Y-117538500D02*
G75*
G03X101727000Y-117538500I-127000J0D01*
G01*
X101600000Y-116395500D02*
X101600000Y-117411500D01*
X101600000Y-117411500D02*
X103124000Y-117411500D01*
X103124000Y-117411500D02*
X103124000Y-116395500D01*
X103124000Y-115379500D02*
X103124000Y-114363500D01*
X103124000Y-114363500D02*
X101600000Y-114363500D01*
X101600000Y-114363500D02*
X101600000Y-115379500D01*
X110680500Y-113792000D02*
G75*
G03X110680500Y-113792000I-127000J0D01*
G01*
X109410500Y-113792000D02*
X110426500Y-113792000D01*
X110426500Y-113792000D02*
X110426500Y-112268000D01*
X110426500Y-112268000D02*
X109410500Y-112268000D01*
X108394500Y-112268000D02*
X107378500Y-112268000D01*
X107378500Y-112268000D02*
X107378500Y-113792000D01*
X107378500Y-113792000D02*
X108394500Y-113792000D01*
X137350500Y-67437000D02*
G75*
G03X137350500Y-67437000I-127000J0D01*
G01*
X136080500Y-67437000D02*
X137096500Y-67437000D01*
X137096500Y-67437000D02*
X137096500Y-65913000D01*
X137096500Y-65913000D02*
X136080500Y-65913000D01*
X135064500Y-65913000D02*
X134048500Y-65913000D01*
X134048500Y-65913000D02*
X134048500Y-67437000D01*
X134048500Y-67437000D02*
X135064500Y-67437000D01*
X122936000Y-67818000D02*
G75*
G03X122936000Y-67818000I-127000J0D01*
G01*
X123952000Y-67818000D02*
X122936000Y-67818000D01*
X122936000Y-67818000D02*
X122936000Y-69342000D01*
X122936000Y-69342000D02*
X123952000Y-69342000D01*
X124968000Y-69342000D02*
X125984000Y-69342000D01*
X125984000Y-69342000D02*
X125984000Y-67818000D01*
X125984000Y-67818000D02*
X124968000Y-67818000D01*
X126238000Y-67437000D02*
G75*
G03X126238000Y-67437000I-127000J0D01*
G01*
X124968000Y-67437000D02*
X125984000Y-67437000D01*
X125984000Y-67437000D02*
X125984000Y-65913000D01*
X125984000Y-65913000D02*
X124968000Y-65913000D01*
X123952000Y-65913000D02*
X122936000Y-65913000D01*
X122936000Y-65913000D02*
X122936000Y-67437000D01*
X122936000Y-67437000D02*
X123952000Y-67437000D01*
D15*
X64782700Y-53174900D02*
X63588900Y-53174900D01*
X63588900Y-53174900D02*
X63588900Y-58585100D01*
X63588900Y-58585100D02*
X64795400Y-58585100D01*
X70789800Y-57607200D02*
X73698100Y-57607200D01*
X73698100Y-58750200D02*
X70789800Y-58750200D01*
X73698100Y-57607200D02*
X73698100Y-58750200D01*
X73698100Y-53009800D02*
X73698100Y-54152800D01*
X73698100Y-54152800D02*
X70789800Y-54152800D01*
X70789800Y-53009800D02*
X73698100Y-53009800D01*
X70789800Y-59232800D02*
X64795400Y-59232800D01*
X64795400Y-59232800D02*
X64795400Y-52527200D01*
X64795400Y-52527200D02*
X70789800Y-52527200D01*
X70789800Y-59232800D02*
X70789800Y-52527200D01*
X106865420Y-123850400D02*
X106865420Y-121259600D01*
X106624120Y-121259600D02*
X106624120Y-123850400D01*
X106751120Y-123850400D02*
X106751120Y-121259600D01*
X106497120Y-123850400D02*
X106497120Y-121259600D01*
X102890320Y-123850400D02*
X102890320Y-121259600D01*
X102890320Y-121259600D02*
X108097320Y-121259600D01*
X108097320Y-121259600D02*
X108097320Y-123850400D01*
X108097320Y-123850400D02*
X102890320Y-123850400D01*
X96418400Y-119354600D02*
X96418400Y-121945400D01*
X96659700Y-121945400D02*
X96659700Y-119354600D01*
X96532700Y-119354600D02*
X96532700Y-121945400D01*
X96786700Y-119354600D02*
X96786700Y-121945400D01*
X100393500Y-119354600D02*
X100393500Y-121945400D01*
X100393500Y-121945400D02*
X95186500Y-121945400D01*
X95186500Y-121945400D02*
X95186500Y-119354600D01*
X95186500Y-119354600D02*
X100393500Y-119354600D01*
X85471000Y-95377000D02*
X85471000Y-97663000D01*
X85471000Y-97663000D02*
X83820000Y-97663000D01*
X82042000Y-95377000D02*
X80391000Y-95377000D01*
X80391000Y-95377000D02*
X80391000Y-97663000D01*
X80391000Y-97663000D02*
X82042000Y-97663000D01*
X83820000Y-95377000D02*
X85471000Y-95377000D01*
X73406000Y-100838000D02*
X73406000Y-98552000D01*
X73406000Y-98552000D02*
X75057000Y-98552000D01*
X76835000Y-100838000D02*
X78486000Y-100838000D01*
X78486000Y-100838000D02*
X78486000Y-98552000D01*
X78486000Y-98552000D02*
X76835000Y-98552000D01*
X75057000Y-100838000D02*
X73406000Y-100838000D01*
X80391000Y-93853000D02*
X80391000Y-91567000D01*
X80391000Y-91567000D02*
X82042000Y-91567000D01*
X83820000Y-93853000D02*
X85471000Y-93853000D01*
X85471000Y-93853000D02*
X85471000Y-91567000D01*
X85471000Y-91567000D02*
X83820000Y-91567000D01*
X82042000Y-93853000D02*
X80391000Y-93853000D01*
X69977000Y-112014000D02*
X72263000Y-112014000D01*
X72263000Y-112014000D02*
X72263000Y-113665000D01*
X69977000Y-115443000D02*
X69977000Y-117094000D01*
X69977000Y-117094000D02*
X72263000Y-117094000D01*
X72263000Y-117094000D02*
X72263000Y-115443000D01*
X69977000Y-113665000D02*
X69977000Y-112014000D01*
X102870000Y-142748000D02*
X102870000Y-140462000D01*
X102870000Y-140462000D02*
X104521000Y-140462000D01*
X106299000Y-142748000D02*
X107950000Y-142748000D01*
X107950000Y-142748000D02*
X107950000Y-140462000D01*
X107950000Y-140462000D02*
X106299000Y-140462000D01*
X104521000Y-142748000D02*
X102870000Y-142748000D01*
X113665000Y-140843000D02*
X113665000Y-138557000D01*
X113665000Y-138557000D02*
X115316000Y-138557000D01*
X117094000Y-140843000D02*
X118745000Y-140843000D01*
X118745000Y-140843000D02*
X118745000Y-138557000D01*
X118745000Y-138557000D02*
X117094000Y-138557000D01*
X115316000Y-140843000D02*
X113665000Y-140843000D01*
X123825000Y-151765000D02*
X123825000Y-149479000D01*
X123825000Y-149479000D02*
X125476000Y-149479000D01*
X127254000Y-151765000D02*
X128905000Y-151765000D01*
X128905000Y-151765000D02*
X128905000Y-149479000D01*
X128905000Y-149479000D02*
X127254000Y-149479000D01*
X125476000Y-151765000D02*
X123825000Y-151765000D01*
X113665000Y-144907000D02*
X113665000Y-142621000D01*
X113665000Y-142621000D02*
X115316000Y-142621000D01*
X117094000Y-144907000D02*
X118745000Y-144907000D01*
X118745000Y-144907000D02*
X118745000Y-142621000D01*
X118745000Y-142621000D02*
X117094000Y-142621000D01*
X115316000Y-144907000D02*
X113665000Y-144907000D01*
X141605000Y-136525000D02*
X141605000Y-134239000D01*
X141605000Y-134239000D02*
X143256000Y-134239000D01*
X145034000Y-136525000D02*
X146685000Y-136525000D01*
X146685000Y-136525000D02*
X146685000Y-134239000D01*
X146685000Y-134239000D02*
X145034000Y-134239000D01*
X143256000Y-136525000D02*
X141605000Y-136525000D01*
X122428000Y-146304000D02*
X120142000Y-146304000D01*
X120142000Y-146304000D02*
X120142000Y-144653000D01*
X122428000Y-142875000D02*
X122428000Y-141224000D01*
X122428000Y-141224000D02*
X120142000Y-141224000D01*
X120142000Y-141224000D02*
X120142000Y-142875000D01*
X122428000Y-144653000D02*
X122428000Y-146304000D01*
X134874000Y-143383000D02*
X134874000Y-141097000D01*
X134874000Y-141097000D02*
X136525000Y-141097000D01*
X138303000Y-143383000D02*
X139954000Y-143383000D01*
X139954000Y-143383000D02*
X139954000Y-141097000D01*
X139954000Y-141097000D02*
X138303000Y-141097000D01*
X136525000Y-143383000D02*
X134874000Y-143383000D01*
D12*
X81200000Y-69185000D02*
X86200000Y-69185000D01*
X81200000Y-69185000D02*
X81200000Y-64185000D01*
X122000000Y-69185000D02*
X117000000Y-69185000D01*
X122000000Y-69185000D02*
X122000000Y-64185000D01*
X122000000Y-46385000D02*
X122000000Y-51385000D01*
X122000000Y-46385000D02*
X117000000Y-46385000D01*
X81200000Y-46385000D02*
X81200000Y-51385000D01*
X81200000Y-46385000D02*
X86200000Y-46385000D01*
D15*
X85598000Y-115189000D02*
X83312000Y-115189000D01*
X83312000Y-115189000D02*
X83312000Y-113538000D01*
X85598000Y-111760000D02*
X85598000Y-110109000D01*
X85598000Y-110109000D02*
X83312000Y-110109000D01*
X83312000Y-110109000D02*
X83312000Y-111760000D01*
X85598000Y-113538000D02*
X85598000Y-115189000D01*
D11*
X132118230Y-123262311D02*
X132825337Y-122555204D01*
X131444795Y-122454189D02*
X131444795Y-122521533D01*
X131512138Y-122656220D01*
X131579482Y-122723563D01*
X131714169Y-122790907D01*
X131848856Y-122790907D01*
X131949871Y-122757235D01*
X132118230Y-122656220D01*
X132219246Y-122555204D01*
X132320261Y-122386846D01*
X132353933Y-122285831D01*
X132353933Y-122151144D01*
X132286588Y-122016456D01*
X132219245Y-121949113D01*
X132084558Y-121881769D01*
X132017215Y-121881769D01*
X130704016Y-121848098D02*
X131108078Y-122252159D01*
X130906047Y-122050129D02*
X131613154Y-121343022D01*
X131579482Y-121511381D01*
X131579482Y-121646067D01*
X131613154Y-121747083D01*
D18*
X76138919Y-94361001D02*
X76138919Y-93998144D01*
X75122919Y-93998144D01*
X76138919Y-94615001D02*
X75122919Y-94615001D01*
X75122919Y-94796429D01*
X75171300Y-94905286D01*
X75268062Y-94977858D01*
X75364824Y-95014143D01*
X75558348Y-95050429D01*
X75703490Y-95050429D01*
X75897014Y-95014143D01*
X75993776Y-94977858D01*
X76090538Y-94905286D01*
X76138919Y-94796429D01*
X76138919Y-94615001D01*
X76138919Y-95812429D02*
X75655110Y-95558429D01*
X76138919Y-95377001D02*
X75122919Y-95377001D01*
X75122919Y-95667286D01*
X75171300Y-95739858D01*
X75219681Y-95776143D01*
X75316443Y-95812429D01*
X75461586Y-95812429D01*
X75558348Y-95776143D01*
X75606729Y-95739858D01*
X75655110Y-95667286D01*
X75655110Y-95377001D01*
X76138919Y-96538143D02*
X76138919Y-96102715D01*
X76138919Y-96320429D02*
X75122919Y-96320429D01*
X75268062Y-96247858D01*
X75364824Y-96175286D01*
X75413205Y-96102715D01*
X74525414Y-92642510D02*
X73763414Y-92642510D01*
X73763414Y-92932795D01*
X73799700Y-93005367D01*
X73835986Y-93041652D01*
X73908557Y-93077938D01*
X74017414Y-93077938D01*
X74089986Y-93041652D01*
X74126271Y-93005367D01*
X74162557Y-92932795D01*
X74162557Y-92642510D01*
X74452843Y-93839938D02*
X74489129Y-93803652D01*
X74525414Y-93694795D01*
X74525414Y-93622224D01*
X74489129Y-93513367D01*
X74416557Y-93440795D01*
X74343986Y-93404510D01*
X74198843Y-93368224D01*
X74089986Y-93368224D01*
X73944843Y-93404510D01*
X73872271Y-93440795D01*
X73799700Y-93513367D01*
X73763414Y-93622224D01*
X73763414Y-93694795D01*
X73799700Y-93803652D01*
X73835986Y-93839938D01*
X74307700Y-94130224D02*
X74307700Y-94493081D01*
X74525414Y-94057652D02*
X73763414Y-94311652D01*
X74525414Y-94565652D01*
X74525414Y-94855938D02*
X74525414Y-95001081D01*
X74489129Y-95073653D01*
X74452843Y-95109938D01*
X74343986Y-95182510D01*
X74198843Y-95218795D01*
X73908557Y-95218795D01*
X73835986Y-95182510D01*
X73799700Y-95146224D01*
X73763414Y-95073653D01*
X73763414Y-94928510D01*
X73799700Y-94855938D01*
X73835986Y-94819653D01*
X73908557Y-94783367D01*
X74089986Y-94783367D01*
X74162557Y-94819653D01*
X74198843Y-94855938D01*
X74235129Y-94928510D01*
X74235129Y-95073653D01*
X74198843Y-95146224D01*
X74162557Y-95182510D01*
X74089986Y-95218795D01*
X73763414Y-95908224D02*
X73763414Y-95545367D01*
X74126271Y-95509081D01*
X74089986Y-95545367D01*
X74053700Y-95617938D01*
X74053700Y-95799367D01*
X74089986Y-95871938D01*
X74126271Y-95908224D01*
X74198843Y-95944509D01*
X74380271Y-95944509D01*
X74452843Y-95908224D01*
X74489129Y-95871938D01*
X74525414Y-95799367D01*
X74525414Y-95617938D01*
X74489129Y-95545367D01*
X74452843Y-95509081D01*
X73763414Y-96633938D02*
X73763414Y-96271081D01*
X74126271Y-96234795D01*
X74089986Y-96271081D01*
X74053700Y-96343652D01*
X74053700Y-96525081D01*
X74089986Y-96597652D01*
X74126271Y-96633938D01*
X74198843Y-96670223D01*
X74380271Y-96670223D01*
X74452843Y-96633938D01*
X74489129Y-96597652D01*
X74525414Y-96525081D01*
X74525414Y-96343652D01*
X74489129Y-96271081D01*
X74452843Y-96234795D01*
X74525414Y-97395937D02*
X74525414Y-96960509D01*
X74525414Y-97178223D02*
X73763414Y-97178223D01*
X73872271Y-97105652D01*
X73944843Y-97033080D01*
X73981129Y-96960509D01*
D19*
X90809172Y-104048862D02*
X90975966Y-103810586D01*
X91095104Y-104048862D02*
X91095104Y-103548482D01*
X90904483Y-103548482D01*
X90856828Y-103572310D01*
X90833000Y-103596138D01*
X90809172Y-103643793D01*
X90809172Y-103715276D01*
X90833000Y-103762931D01*
X90856828Y-103786759D01*
X90904483Y-103810586D01*
X91095104Y-103810586D01*
X90380275Y-103715276D02*
X90380275Y-104048862D01*
X90499413Y-103524655D02*
X90618552Y-103882069D01*
X90308792Y-103882069D01*
X90142000Y-103596138D02*
X90118172Y-103572310D01*
X90070517Y-103548482D01*
X89951379Y-103548482D01*
X89903723Y-103572310D01*
X89879896Y-103596138D01*
X89856068Y-103643793D01*
X89856068Y-103691448D01*
X89879896Y-103762931D01*
X90165827Y-104048862D01*
X89856068Y-104048862D01*
X90332620Y-104747362D02*
X90499414Y-104509086D01*
X90618552Y-104747362D02*
X90618552Y-104246982D01*
X90427931Y-104246982D01*
X90380276Y-104270810D01*
X90356448Y-104294638D01*
X90332620Y-104342293D01*
X90332620Y-104413776D01*
X90356448Y-104461431D01*
X90380276Y-104485259D01*
X90427931Y-104509086D01*
X90618552Y-104509086D01*
X161482506Y-118686631D02*
X161431960Y-118400203D01*
X161684690Y-118484446D02*
X161330868Y-118130624D01*
X161196079Y-118265414D01*
X161179230Y-118315960D01*
X161179230Y-118349658D01*
X161196079Y-118400204D01*
X161246625Y-118450750D01*
X161297171Y-118467598D01*
X161330869Y-118467598D01*
X161381414Y-118450749D01*
X161516203Y-118315960D01*
X161027593Y-118501295D02*
X160993895Y-118501295D01*
X160943349Y-118518143D01*
X160859105Y-118602387D01*
X160842256Y-118652933D01*
X160842257Y-118686631D01*
X160859105Y-118737177D01*
X160892803Y-118770874D01*
X160960198Y-118804571D01*
X161364565Y-118804571D01*
X161145532Y-119023604D01*
X160488434Y-118973058D02*
X160555829Y-118905663D01*
X160606376Y-118888814D01*
X160640073Y-118888814D01*
X160724316Y-118905663D01*
X160808560Y-118956209D01*
X160943349Y-119090998D01*
X160960198Y-119141544D01*
X160960198Y-119175242D01*
X160943349Y-119225788D01*
X160875954Y-119293182D01*
X160825408Y-119310032D01*
X160791711Y-119310031D01*
X160741165Y-119293183D01*
X160656922Y-119208939D01*
X160640073Y-119158393D01*
X160640073Y-119124696D01*
X160656922Y-119074149D01*
X160724316Y-119006755D01*
X160774862Y-118989907D01*
X160808560Y-118989907D01*
X160859106Y-119006755D01*
X160651618Y-118529690D02*
X160601073Y-118243262D01*
X160853803Y-118327505D02*
X160499981Y-117973683D01*
X160365191Y-118108473D01*
X160348343Y-118159019D01*
X160348343Y-118192717D01*
X160365191Y-118243263D01*
X160415737Y-118293809D01*
X160466284Y-118310657D01*
X160499981Y-118310657D01*
X160550527Y-118293808D01*
X160685316Y-118159019D01*
D15*
X118128143Y-123190000D02*
X118164429Y-123153714D01*
X118200714Y-123044857D01*
X118200714Y-122972286D01*
X118164429Y-122863429D01*
X118091857Y-122790857D01*
X118019286Y-122754572D01*
X117874143Y-122718286D01*
X117765286Y-122718286D01*
X117620143Y-122754572D01*
X117547571Y-122790857D01*
X117475000Y-122863429D01*
X117438714Y-122972286D01*
X117438714Y-123044857D01*
X117475000Y-123153714D01*
X117511286Y-123190000D01*
X117438714Y-123879429D02*
X117438714Y-123516572D01*
X117801571Y-123480286D01*
X117765286Y-123516572D01*
X117729000Y-123589143D01*
X117729000Y-123770572D01*
X117765286Y-123843143D01*
X117801571Y-123879429D01*
X117874143Y-123915714D01*
X118055571Y-123915714D01*
X118128143Y-123879429D01*
X118164429Y-123843143D01*
X118200714Y-123770572D01*
X118200714Y-123589143D01*
X118164429Y-123516572D01*
X118128143Y-123480286D01*
X123335143Y-123190000D02*
X123371429Y-123153714D01*
X123407714Y-123044857D01*
X123407714Y-122972286D01*
X123371429Y-122863429D01*
X123298857Y-122790857D01*
X123226286Y-122754572D01*
X123081143Y-122718286D01*
X122972286Y-122718286D01*
X122827143Y-122754572D01*
X122754571Y-122790857D01*
X122682000Y-122863429D01*
X122645714Y-122972286D01*
X122645714Y-123044857D01*
X122682000Y-123153714D01*
X122718286Y-123190000D01*
X122899714Y-123843143D02*
X123407714Y-123843143D01*
X122609429Y-123661714D02*
X123153714Y-123480286D01*
X123153714Y-123952000D01*
D16*
X128002132Y-112939171D02*
X128000592Y-112961237D01*
X128019579Y-113003829D01*
X128040106Y-113024356D01*
X128082698Y-113043342D01*
X128126829Y-113040263D01*
X128160698Y-113026921D01*
X128218171Y-112989974D01*
X128253580Y-112954566D01*
X128290527Y-112897093D01*
X128303868Y-112863224D01*
X128306948Y-112819093D01*
X128287961Y-112776501D01*
X128267434Y-112755974D01*
X128224842Y-112736987D01*
X128202777Y-112738526D01*
X127773263Y-112757514D02*
X127896421Y-112880672D01*
X127834842Y-112819093D02*
X128082697Y-112571238D01*
X128067816Y-112627172D01*
X128064737Y-112671303D01*
X128073461Y-112703632D01*
X127826119Y-112314659D02*
X127928750Y-112417291D01*
X127820987Y-112545580D01*
X127822527Y-112523514D01*
X127813803Y-112491185D01*
X127762488Y-112439869D01*
X127730159Y-112431145D01*
X127708093Y-112432685D01*
X127674224Y-112446027D01*
X127615211Y-112505040D01*
X127601869Y-112538909D01*
X127600330Y-112560974D01*
X127609053Y-112593304D01*
X127660369Y-112644619D01*
X127692698Y-112653343D01*
X127714764Y-112651803D01*
X131201500Y-109534540D02*
X131199961Y-109556605D01*
X131218947Y-109599198D01*
X131239474Y-109619724D01*
X131282066Y-109638711D01*
X131326198Y-109635631D01*
X131360067Y-109622290D01*
X131417540Y-109585343D01*
X131452948Y-109549934D01*
X131489895Y-109492461D01*
X131503237Y-109458592D01*
X131506316Y-109414461D01*
X131487329Y-109371869D01*
X131466802Y-109351343D01*
X131424211Y-109332355D01*
X131402145Y-109333895D01*
X131353908Y-109238448D02*
X131210224Y-109094764D01*
X131054737Y-109434988D01*
X146594973Y-110122066D02*
X146617039Y-110123606D01*
X146659631Y-110104619D01*
X146680158Y-110084092D01*
X146699144Y-110041500D01*
X146696065Y-109997369D01*
X146682723Y-109963500D01*
X146645776Y-109906027D01*
X146610368Y-109870618D01*
X146552895Y-109833671D01*
X146519026Y-109820330D01*
X146474895Y-109817250D01*
X146432303Y-109836237D01*
X146411776Y-109856764D01*
X146392789Y-109899356D01*
X146394328Y-109921421D01*
X146413316Y-110350935D02*
X146536474Y-110227777D01*
X146474895Y-110289356D02*
X146227040Y-110041501D01*
X146282974Y-110056382D01*
X146327105Y-110059461D01*
X146359434Y-110050737D01*
X146032039Y-110236501D02*
X146011514Y-110257027D01*
X146002789Y-110289356D01*
X146004329Y-110311421D01*
X146017671Y-110345289D01*
X146054618Y-110402764D01*
X146113631Y-110461777D01*
X146171105Y-110498724D01*
X146204974Y-110512066D01*
X146227039Y-110513605D01*
X146259369Y-110504882D01*
X146279894Y-110484356D01*
X146288618Y-110452026D01*
X146287079Y-110429961D01*
X146273737Y-110396092D01*
X146236789Y-110338618D01*
X146177776Y-110279605D01*
X146120303Y-110242658D01*
X146086434Y-110229316D01*
X146064368Y-110227777D01*
X146032039Y-110236501D01*
X148957934Y-118654973D02*
X148956394Y-118677039D01*
X148975381Y-118719631D01*
X148995908Y-118740158D01*
X149038500Y-118759144D01*
X149082631Y-118756065D01*
X149116500Y-118742723D01*
X149173973Y-118705776D01*
X149209382Y-118670368D01*
X149246329Y-118612895D01*
X149259670Y-118579026D01*
X149262750Y-118534895D01*
X149243763Y-118492303D01*
X149223236Y-118471776D01*
X149180644Y-118452789D01*
X149158579Y-118454328D01*
X148729065Y-118473316D02*
X148852223Y-118596474D01*
X148790644Y-118534895D02*
X149038499Y-118287040D01*
X149023618Y-118342974D01*
X149020539Y-118387105D01*
X149029263Y-118419434D01*
X148523802Y-118268052D02*
X148646960Y-118391211D01*
X148585381Y-118329632D02*
X148833236Y-118081776D01*
X148818355Y-118137711D01*
X148815276Y-118181842D01*
X148824000Y-118214171D01*
X140702934Y-126909973D02*
X140701394Y-126932039D01*
X140720381Y-126974631D01*
X140740908Y-126995158D01*
X140783500Y-127014144D01*
X140827631Y-127011065D01*
X140861500Y-126997723D01*
X140918973Y-126960776D01*
X140954382Y-126925368D01*
X140991329Y-126867895D01*
X141004670Y-126834026D01*
X141007750Y-126789895D01*
X140988763Y-126747303D01*
X140968236Y-126726776D01*
X140925644Y-126707789D01*
X140903579Y-126709328D01*
X140474065Y-126728316D02*
X140597223Y-126851474D01*
X140535644Y-126789895D02*
X140783499Y-126542040D01*
X140768618Y-126597974D01*
X140765539Y-126642105D01*
X140774263Y-126674434D01*
X140650078Y-126408619D02*
X140516657Y-126275197D01*
X140494078Y-126441460D01*
X140463290Y-126410671D01*
X140430961Y-126401947D01*
X140408895Y-126403487D01*
X140375026Y-126416829D01*
X140316013Y-126475842D01*
X140302671Y-126509711D01*
X140301132Y-126531776D01*
X140309855Y-126564106D01*
X140371434Y-126625684D01*
X140403763Y-126634408D01*
X140425829Y-126632868D01*
X144512132Y-123099171D02*
X144510592Y-123121237D01*
X144529579Y-123163829D01*
X144550106Y-123184356D01*
X144592698Y-123203342D01*
X144636829Y-123200263D01*
X144670698Y-123186921D01*
X144728171Y-123149974D01*
X144763580Y-123114566D01*
X144800527Y-123057093D01*
X144813868Y-123023224D01*
X144816948Y-122979093D01*
X144797961Y-122936501D01*
X144777434Y-122915974D01*
X144734842Y-122896987D01*
X144712777Y-122898526D01*
X144283263Y-122917514D02*
X144406421Y-123040672D01*
X144344842Y-122979093D02*
X144592697Y-122731238D01*
X144577816Y-122787172D01*
X144574737Y-122831303D01*
X144583461Y-122863632D01*
X144425409Y-122611158D02*
X144426948Y-122589093D01*
X144418224Y-122556764D01*
X144366908Y-122505449D01*
X144334579Y-122496724D01*
X144312514Y-122498264D01*
X144278645Y-122511605D01*
X144255040Y-122535211D01*
X144229896Y-122580882D01*
X144211421Y-122845672D01*
X144078000Y-122712250D01*
D19*
X168914172Y-88173862D02*
X169080966Y-87935586D01*
X169200104Y-88173862D02*
X169200104Y-87673482D01*
X169009483Y-87673482D01*
X168961828Y-87697310D01*
X168938000Y-87721138D01*
X168914172Y-87768793D01*
X168914172Y-87840276D01*
X168938000Y-87887931D01*
X168961828Y-87911759D01*
X169009483Y-87935586D01*
X169200104Y-87935586D01*
X168437620Y-88173862D02*
X168723552Y-88173862D01*
X168580586Y-88173862D02*
X168580586Y-87673482D01*
X168628241Y-87744965D01*
X168675896Y-87792620D01*
X168723552Y-87816448D01*
X168151689Y-87887931D02*
X168199344Y-87864103D01*
X168223172Y-87840276D01*
X168247000Y-87792620D01*
X168247000Y-87768793D01*
X168223172Y-87721138D01*
X168199344Y-87697310D01*
X168151689Y-87673482D01*
X168056379Y-87673482D01*
X168008723Y-87697310D01*
X167984896Y-87721138D01*
X167961068Y-87768793D01*
X167961068Y-87792620D01*
X167984896Y-87840276D01*
X168008723Y-87864103D01*
X168056379Y-87887931D01*
X168151689Y-87887931D01*
X168199344Y-87911759D01*
X168223172Y-87935586D01*
X168247000Y-87983241D01*
X168247000Y-88078552D01*
X168223172Y-88126207D01*
X168199344Y-88150035D01*
X168151689Y-88173862D01*
X168056379Y-88173862D01*
X168008723Y-88150035D01*
X167984896Y-88126207D01*
X167961068Y-88078552D01*
X167961068Y-87983241D01*
X167984896Y-87935586D01*
X168008723Y-87911759D01*
X168056379Y-87887931D01*
X168437620Y-88872362D02*
X168604414Y-88634086D01*
X168723552Y-88872362D02*
X168723552Y-88371982D01*
X168532931Y-88371982D01*
X168485276Y-88395810D01*
X168461448Y-88419638D01*
X168437620Y-88467293D01*
X168437620Y-88538776D01*
X168461448Y-88586431D01*
X168485276Y-88610259D01*
X168532931Y-88634086D01*
X168723552Y-88634086D01*
X168914172Y-95793862D02*
X169080966Y-95555586D01*
X169200104Y-95793862D02*
X169200104Y-95293482D01*
X169009483Y-95293482D01*
X168961828Y-95317310D01*
X168938000Y-95341138D01*
X168914172Y-95388793D01*
X168914172Y-95460276D01*
X168938000Y-95507931D01*
X168961828Y-95531759D01*
X169009483Y-95555586D01*
X169200104Y-95555586D01*
X168723552Y-95341138D02*
X168699724Y-95317310D01*
X168652069Y-95293482D01*
X168532931Y-95293482D01*
X168485275Y-95317310D01*
X168461448Y-95341138D01*
X168437620Y-95388793D01*
X168437620Y-95436448D01*
X168461448Y-95507931D01*
X168747379Y-95793862D01*
X168437620Y-95793862D01*
X167961068Y-95793862D02*
X168247000Y-95793862D01*
X168104034Y-95793862D02*
X168104034Y-95293482D01*
X168151689Y-95364965D01*
X168199344Y-95412620D01*
X168247000Y-95436448D01*
X168437620Y-96492362D02*
X168604414Y-96254086D01*
X168723552Y-96492362D02*
X168723552Y-95991982D01*
X168532931Y-95991982D01*
X168485276Y-96015810D01*
X168461448Y-96039638D01*
X168437620Y-96087293D01*
X168437620Y-96158776D01*
X168461448Y-96206431D01*
X168485276Y-96230259D01*
X168532931Y-96254086D01*
X168723552Y-96254086D01*
X168914172Y-90713862D02*
X169080966Y-90475586D01*
X169200104Y-90713862D02*
X169200104Y-90213482D01*
X169009483Y-90213482D01*
X168961828Y-90237310D01*
X168938000Y-90261138D01*
X168914172Y-90308793D01*
X168914172Y-90380276D01*
X168938000Y-90427931D01*
X168961828Y-90451759D01*
X169009483Y-90475586D01*
X169200104Y-90475586D01*
X168437620Y-90713862D02*
X168723552Y-90713862D01*
X168580586Y-90713862D02*
X168580586Y-90213482D01*
X168628241Y-90284965D01*
X168675896Y-90332620D01*
X168723552Y-90356448D01*
X168199344Y-90713862D02*
X168104034Y-90713862D01*
X168056379Y-90690035D01*
X168032551Y-90666207D01*
X167984896Y-90594724D01*
X167961068Y-90499414D01*
X167961068Y-90308793D01*
X167984896Y-90261138D01*
X168008723Y-90237310D01*
X168056379Y-90213482D01*
X168151689Y-90213482D01*
X168199344Y-90237310D01*
X168223172Y-90261138D01*
X168247000Y-90308793D01*
X168247000Y-90427931D01*
X168223172Y-90475586D01*
X168199344Y-90499414D01*
X168151689Y-90523241D01*
X168056379Y-90523241D01*
X168008723Y-90499414D01*
X167984896Y-90475586D01*
X167961068Y-90427931D01*
X168437620Y-91412362D02*
X168604414Y-91174086D01*
X168723552Y-91412362D02*
X168723552Y-90911982D01*
X168532931Y-90911982D01*
X168485276Y-90935810D01*
X168461448Y-90959638D01*
X168437620Y-91007293D01*
X168437620Y-91078776D01*
X168461448Y-91126431D01*
X168485276Y-91150259D01*
X168532931Y-91174086D01*
X168723552Y-91174086D01*
D20*
X70793429Y-51358800D02*
X70817619Y-51337029D01*
X70841810Y-51271715D01*
X70841810Y-51228172D01*
X70817619Y-51162857D01*
X70769238Y-51119315D01*
X70720857Y-51097543D01*
X70624095Y-51075772D01*
X70551524Y-51075772D01*
X70454762Y-51097543D01*
X70406381Y-51119315D01*
X70358000Y-51162857D01*
X70333810Y-51228172D01*
X70333810Y-51271715D01*
X70358000Y-51337029D01*
X70382190Y-51358800D01*
X70841810Y-51794229D02*
X70841810Y-51532972D01*
X70841810Y-51663600D02*
X70333810Y-51663600D01*
X70406381Y-51620057D01*
X70454762Y-51576515D01*
X70478952Y-51532972D01*
X71984810Y-50683886D02*
X71984810Y-50727429D01*
X72009000Y-50770972D01*
X72033190Y-50792743D01*
X72081571Y-50814514D01*
X72178333Y-50836286D01*
X72299286Y-50836286D01*
X72396048Y-50814514D01*
X72444429Y-50792743D01*
X72468619Y-50770972D01*
X72492810Y-50727429D01*
X72492810Y-50683886D01*
X72468619Y-50640343D01*
X72444429Y-50618572D01*
X72396048Y-50596800D01*
X72299286Y-50575029D01*
X72178333Y-50575029D01*
X72081571Y-50596800D01*
X72033190Y-50618572D01*
X72009000Y-50640343D01*
X71984810Y-50683886D01*
X72444429Y-51032229D02*
X72468619Y-51054001D01*
X72492810Y-51032229D01*
X72468619Y-51010458D01*
X72444429Y-51032229D01*
X72492810Y-51032229D01*
X72492810Y-51489429D02*
X72492810Y-51228172D01*
X72492810Y-51358800D02*
X71984810Y-51358800D01*
X72057381Y-51315257D01*
X72105762Y-51271715D01*
X72129952Y-51228172D01*
X72154143Y-51881315D02*
X72492810Y-51881315D01*
X72154143Y-51685372D02*
X72420238Y-51685372D01*
X72468619Y-51707144D01*
X72492810Y-51750686D01*
X72492810Y-51816001D01*
X72468619Y-51859544D01*
X72444429Y-51881315D01*
X72226714Y-52251429D02*
X72226714Y-52099029D01*
X72492810Y-52099029D02*
X71984810Y-52099029D01*
X71984810Y-52316743D01*
X69523429Y-60248800D02*
X69547619Y-60227029D01*
X69571810Y-60161715D01*
X69571810Y-60118172D01*
X69547619Y-60052857D01*
X69499238Y-60009315D01*
X69450857Y-59987543D01*
X69354095Y-59965772D01*
X69281524Y-59965772D01*
X69184762Y-59987543D01*
X69136381Y-60009315D01*
X69088000Y-60052857D01*
X69063810Y-60118172D01*
X69063810Y-60161715D01*
X69088000Y-60227029D01*
X69112190Y-60248800D01*
X69112190Y-60422972D02*
X69088000Y-60444743D01*
X69063810Y-60488286D01*
X69063810Y-60597143D01*
X69088000Y-60640686D01*
X69112190Y-60662457D01*
X69160571Y-60684229D01*
X69208952Y-60684229D01*
X69281524Y-60662457D01*
X69571810Y-60401200D01*
X69571810Y-60684229D01*
X70763190Y-59465029D02*
X70739000Y-59486800D01*
X70714810Y-59530343D01*
X70714810Y-59639200D01*
X70739000Y-59682743D01*
X70763190Y-59704514D01*
X70811571Y-59726286D01*
X70859952Y-59726286D01*
X70932524Y-59704514D01*
X71222810Y-59443257D01*
X71222810Y-59726286D01*
X71174429Y-59922229D02*
X71198619Y-59944001D01*
X71222810Y-59922229D01*
X71198619Y-59900458D01*
X71174429Y-59922229D01*
X71222810Y-59922229D01*
X70763190Y-60118172D02*
X70739000Y-60139943D01*
X70714810Y-60183486D01*
X70714810Y-60292343D01*
X70739000Y-60335886D01*
X70763190Y-60357657D01*
X70811571Y-60379429D01*
X70859952Y-60379429D01*
X70932524Y-60357657D01*
X71222810Y-60096400D01*
X71222810Y-60379429D01*
X70884143Y-60771315D02*
X71222810Y-60771315D01*
X70884143Y-60575372D02*
X71150238Y-60575372D01*
X71198619Y-60597144D01*
X71222810Y-60640686D01*
X71222810Y-60706001D01*
X71198619Y-60749544D01*
X71174429Y-60771315D01*
X70956714Y-61141429D02*
X70956714Y-60989029D01*
X71222810Y-60989029D02*
X70714810Y-60989029D01*
X70714810Y-61206743D01*
D15*
X104648000Y-119652143D02*
X104684286Y-119688429D01*
X104793143Y-119724714D01*
X104865714Y-119724714D01*
X104974571Y-119688429D01*
X105047143Y-119615857D01*
X105083428Y-119543286D01*
X105119714Y-119398143D01*
X105119714Y-119289286D01*
X105083428Y-119144143D01*
X105047143Y-119071571D01*
X104974571Y-118999000D01*
X104865714Y-118962714D01*
X104793143Y-118962714D01*
X104684286Y-118999000D01*
X104648000Y-119035286D01*
X104394000Y-118962714D02*
X103922286Y-118962714D01*
X104176286Y-119253000D01*
X104067428Y-119253000D01*
X103994857Y-119289286D01*
X103958571Y-119325571D01*
X103922286Y-119398143D01*
X103922286Y-119579571D01*
X103958571Y-119652143D01*
X103994857Y-119688429D01*
X104067428Y-119724714D01*
X104285143Y-119724714D01*
X104357714Y-119688429D01*
X104394000Y-119652143D01*
D20*
X134641777Y-125815986D02*
X134640066Y-125848486D01*
X134669145Y-125911775D01*
X134699934Y-125942565D01*
X134763225Y-125971644D01*
X134828224Y-125968222D01*
X134877830Y-125949407D01*
X134961645Y-125896380D01*
X135012961Y-125845065D01*
X135065987Y-125761249D01*
X135084803Y-125711643D01*
X135088224Y-125646644D01*
X135059145Y-125583354D01*
X135028355Y-125552565D01*
X134965066Y-125523486D01*
X134932567Y-125525196D01*
X134689671Y-125213881D02*
X134751250Y-125275460D01*
X134764935Y-125323355D01*
X134763225Y-125355854D01*
X134742698Y-125437960D01*
X134689671Y-125521775D01*
X134552829Y-125658617D01*
X134503224Y-125677434D01*
X134470724Y-125679143D01*
X134422830Y-125665460D01*
X134361251Y-125603881D01*
X134347567Y-125555986D01*
X134349277Y-125523487D01*
X134368093Y-125473881D01*
X134453619Y-125388354D01*
X134503225Y-125369539D01*
X134535724Y-125367828D01*
X134583619Y-125381512D01*
X134645199Y-125443091D01*
X134658882Y-125490986D01*
X134657172Y-125523486D01*
X134638356Y-125573091D01*
X133732633Y-127310129D02*
X133917370Y-127494866D01*
X133825002Y-127402498D02*
X134184212Y-127043288D01*
X134163686Y-127125393D01*
X134160264Y-127190392D01*
X134173949Y-127238287D01*
X133891712Y-126750787D02*
X133860922Y-126719998D01*
X133813028Y-126706313D01*
X133780528Y-126708024D01*
X133730923Y-126726840D01*
X133647107Y-126779866D01*
X133561580Y-126865392D01*
X133508554Y-126949209D01*
X133489738Y-126998814D01*
X133488028Y-127031313D01*
X133501712Y-127079208D01*
X133532501Y-127109998D01*
X133580396Y-127123682D01*
X133612896Y-127121971D01*
X133662501Y-127103156D01*
X133746317Y-127050129D01*
X133831844Y-126964602D01*
X133884870Y-126880787D01*
X133903686Y-126831181D01*
X133905396Y-126798682D01*
X133891712Y-126750787D01*
X133387107Y-126485656D02*
X133147633Y-126725129D01*
X133525659Y-126624208D02*
X133337502Y-126812366D01*
X133287896Y-126831181D01*
X133240002Y-126817498D01*
X133193817Y-126771313D01*
X133180133Y-126723418D01*
X133181843Y-126690919D01*
X133074081Y-126275261D02*
X133181844Y-126383024D01*
X132993686Y-126571182D02*
X133352896Y-126211972D01*
X133198949Y-126058025D01*
D16*
X134884500Y-105851540D02*
X134882961Y-105873605D01*
X134901947Y-105916198D01*
X134922474Y-105936724D01*
X134965066Y-105955711D01*
X135009198Y-105952631D01*
X135043067Y-105939290D01*
X135100540Y-105902343D01*
X135135948Y-105866934D01*
X135172895Y-105809461D01*
X135186237Y-105775592D01*
X135189316Y-105731461D01*
X135170329Y-105688869D01*
X135149802Y-105668343D01*
X135107211Y-105649355D01*
X135085145Y-105650895D01*
X134879369Y-105610356D02*
X134911698Y-105619079D01*
X134933764Y-105617541D01*
X134967632Y-105604198D01*
X134979435Y-105592395D01*
X134992777Y-105558527D01*
X134994316Y-105536461D01*
X134985592Y-105504133D01*
X134944540Y-105463080D01*
X134912211Y-105454356D01*
X134890146Y-105455895D01*
X134856277Y-105469237D01*
X134844474Y-105481040D01*
X134831132Y-105514909D01*
X134829593Y-105536974D01*
X134838317Y-105569303D01*
X134879369Y-105610356D01*
X134888092Y-105642685D01*
X134886554Y-105664751D01*
X134873211Y-105698619D01*
X134826001Y-105745830D01*
X134792132Y-105759172D01*
X134770066Y-105760711D01*
X134737737Y-105751988D01*
X134696685Y-105710935D01*
X134687961Y-105678606D01*
X134689501Y-105656540D01*
X134702842Y-105622671D01*
X134750053Y-105575461D01*
X134783922Y-105562119D01*
X134805987Y-105560580D01*
X134838317Y-105569303D01*
X143316540Y-107050500D02*
X143338605Y-107052039D01*
X143381198Y-107033053D01*
X143401724Y-107012526D01*
X143420711Y-106969934D01*
X143417631Y-106925802D01*
X143404290Y-106891933D01*
X143367343Y-106834460D01*
X143331934Y-106799052D01*
X143274461Y-106762105D01*
X143240592Y-106748763D01*
X143196461Y-106745684D01*
X143153869Y-106764671D01*
X143133343Y-106785198D01*
X143114355Y-106827789D01*
X143115895Y-106849855D01*
X143237514Y-107176737D02*
X143196461Y-107217789D01*
X143164132Y-107226512D01*
X143142066Y-107224973D01*
X143086132Y-107210091D01*
X143028658Y-107173145D01*
X142934237Y-107078723D01*
X142920895Y-107044854D01*
X142919356Y-107022789D01*
X142928080Y-106990460D01*
X142969133Y-106949408D01*
X143001461Y-106940684D01*
X143023527Y-106942223D01*
X143057395Y-106955565D01*
X143116408Y-107014578D01*
X143129751Y-107048446D01*
X143131290Y-107070513D01*
X143122566Y-107102841D01*
X143081514Y-107143894D01*
X143049185Y-107152618D01*
X143027119Y-107151078D01*
X142993250Y-107137736D01*
X133894973Y-124092066D02*
X133917039Y-124093606D01*
X133959631Y-124074619D01*
X133980158Y-124054092D01*
X133999144Y-124011500D01*
X133996065Y-123967369D01*
X133982723Y-123933500D01*
X133945776Y-123876027D01*
X133910368Y-123840618D01*
X133852895Y-123803671D01*
X133819026Y-123790330D01*
X133774895Y-123787250D01*
X133732303Y-123806237D01*
X133711776Y-123826764D01*
X133692789Y-123869356D01*
X133694328Y-123891421D01*
X133713316Y-124320935D02*
X133836474Y-124197777D01*
X133774895Y-124259356D02*
X133527040Y-124011501D01*
X133582974Y-124026382D01*
X133627105Y-124029461D01*
X133659434Y-124020737D01*
X133363342Y-124340435D02*
X133528579Y-124505671D01*
X133320236Y-124194698D02*
X133548592Y-124320421D01*
X133415171Y-124453843D01*
X129399934Y-120432973D02*
X129398394Y-120455039D01*
X129417381Y-120497631D01*
X129437908Y-120518158D01*
X129480500Y-120537144D01*
X129524631Y-120534065D01*
X129558500Y-120520723D01*
X129615973Y-120483776D01*
X129651382Y-120448368D01*
X129688329Y-120390895D01*
X129701670Y-120357026D01*
X129704750Y-120312895D01*
X129685763Y-120270303D01*
X129665236Y-120249776D01*
X129622644Y-120230789D01*
X129600579Y-120232328D01*
X129171065Y-120251316D02*
X129294223Y-120374474D01*
X129232644Y-120312895D02*
X129480499Y-120065040D01*
X129465618Y-120120974D01*
X129462539Y-120165105D01*
X129471263Y-120197434D01*
X129234184Y-119818724D02*
X129275236Y-119859776D01*
X129283960Y-119892105D01*
X129282421Y-119914171D01*
X129267539Y-119970106D01*
X129230592Y-120027579D01*
X129136171Y-120122000D01*
X129102303Y-120135342D01*
X129080237Y-120136881D01*
X129047908Y-120128158D01*
X129006855Y-120087106D01*
X128998132Y-120054776D01*
X128999671Y-120032711D01*
X129013013Y-119998842D01*
X129072026Y-119939829D01*
X129105895Y-119926487D01*
X129127961Y-119924947D01*
X129160290Y-119933671D01*
X129201342Y-119974724D01*
X129210066Y-120007052D01*
X129208526Y-120029119D01*
X129195184Y-120062987D01*
D20*
X128321304Y-120793645D02*
X128353803Y-120795356D01*
X128417093Y-120766278D01*
X128447882Y-120735488D01*
X128476962Y-120672198D01*
X128473540Y-120607198D01*
X128454724Y-120557593D01*
X128401698Y-120473777D01*
X128350382Y-120422462D01*
X128266567Y-120369435D01*
X128216961Y-120350620D01*
X128151962Y-120347198D01*
X128088672Y-120376278D01*
X128057883Y-120407067D01*
X128028804Y-120470356D01*
X128030514Y-120502856D01*
X128047620Y-121135751D02*
X128232356Y-120951014D01*
X128139988Y-121043382D02*
X127780778Y-120684172D01*
X127862883Y-120704698D01*
X127927882Y-120708119D01*
X127975777Y-120694435D01*
X127580646Y-120884304D02*
X127365120Y-121099830D01*
X127862883Y-121320487D01*
X129661499Y-121856737D02*
X129846236Y-121672000D01*
X129753868Y-121764368D02*
X129394658Y-121405158D01*
X129476763Y-121425684D01*
X129541762Y-121429106D01*
X129589657Y-121415421D01*
X129102157Y-121697658D02*
X129071368Y-121728448D01*
X129057683Y-121776342D01*
X129059394Y-121808842D01*
X129078210Y-121858447D01*
X129131236Y-121942263D01*
X129216762Y-122027790D01*
X129300579Y-122080816D01*
X129350184Y-122099632D01*
X129382683Y-122101342D01*
X129430578Y-122087658D01*
X129461368Y-122056869D01*
X129475052Y-122008974D01*
X129473341Y-121976474D01*
X129454526Y-121926869D01*
X129401499Y-121843053D01*
X129315972Y-121757526D01*
X129232157Y-121704500D01*
X129182551Y-121685684D01*
X129150052Y-121683974D01*
X129102157Y-121697658D01*
X128837026Y-122202263D02*
X129076499Y-122441737D01*
X128975578Y-122063711D02*
X129163736Y-122251868D01*
X129182551Y-122301474D01*
X129168868Y-122349368D01*
X129122683Y-122395553D01*
X129074788Y-122409237D01*
X129042289Y-122407527D01*
X128626631Y-122515289D02*
X128734394Y-122407526D01*
X128922552Y-122595684D02*
X128563342Y-122236474D01*
X128409395Y-122390421D01*
X94923429Y-114641085D02*
X94947619Y-114619314D01*
X94971810Y-114554000D01*
X94971810Y-114510457D01*
X94947619Y-114445142D01*
X94899238Y-114401600D01*
X94850857Y-114379828D01*
X94754095Y-114358057D01*
X94681524Y-114358057D01*
X94584762Y-114379828D01*
X94536381Y-114401600D01*
X94488000Y-114445142D01*
X94463810Y-114510457D01*
X94463810Y-114554000D01*
X94488000Y-114619314D01*
X94512190Y-114641085D01*
X94971810Y-115076514D02*
X94971810Y-114815257D01*
X94971810Y-114945885D02*
X94463810Y-114945885D01*
X94536381Y-114902342D01*
X94584762Y-114858800D01*
X94608952Y-114815257D01*
X94681524Y-115337771D02*
X94657333Y-115294229D01*
X94633143Y-115272457D01*
X94584762Y-115250686D01*
X94560571Y-115250686D01*
X94512190Y-115272457D01*
X94488000Y-115294229D01*
X94463810Y-115337771D01*
X94463810Y-115424857D01*
X94488000Y-115468400D01*
X94512190Y-115490171D01*
X94560571Y-115511943D01*
X94584762Y-115511943D01*
X94633143Y-115490171D01*
X94657333Y-115468400D01*
X94681524Y-115424857D01*
X94681524Y-115337771D01*
X94705714Y-115294229D01*
X94729905Y-115272457D01*
X94778286Y-115250686D01*
X94875048Y-115250686D01*
X94923429Y-115272457D01*
X94947619Y-115294229D01*
X94971810Y-115337771D01*
X94971810Y-115424857D01*
X94947619Y-115468400D01*
X94923429Y-115490171D01*
X94875048Y-115511943D01*
X94778286Y-115511943D01*
X94729905Y-115490171D01*
X94705714Y-115468400D01*
X94681524Y-115424857D01*
X96574429Y-115076514D02*
X96598619Y-115054743D01*
X96622810Y-114989429D01*
X96622810Y-114945886D01*
X96598619Y-114880571D01*
X96550238Y-114837029D01*
X96501857Y-114815257D01*
X96405095Y-114793486D01*
X96332524Y-114793486D01*
X96235762Y-114815257D01*
X96187381Y-114837029D01*
X96139000Y-114880571D01*
X96114810Y-114945886D01*
X96114810Y-114989429D01*
X96139000Y-115054743D01*
X96163190Y-115076514D01*
X98845915Y-116259429D02*
X98867686Y-116283619D01*
X98933000Y-116307810D01*
X98976543Y-116307810D01*
X99041858Y-116283619D01*
X99085400Y-116235238D01*
X99107172Y-116186857D01*
X99128943Y-116090095D01*
X99128943Y-116017524D01*
X99107172Y-115920762D01*
X99085400Y-115872381D01*
X99041858Y-115824000D01*
X98976543Y-115799810D01*
X98933000Y-115799810D01*
X98867686Y-115824000D01*
X98845915Y-115848190D01*
X98410486Y-116307810D02*
X98671743Y-116307810D01*
X98541115Y-116307810D02*
X98541115Y-115799810D01*
X98584658Y-115872381D01*
X98628200Y-115920762D01*
X98671743Y-115944952D01*
X98192771Y-116307810D02*
X98105686Y-116307810D01*
X98062143Y-116283619D01*
X98040371Y-116259429D01*
X97996829Y-116186857D01*
X97975057Y-116090095D01*
X97975057Y-115896571D01*
X97996829Y-115848190D01*
X98018600Y-115824000D01*
X98062143Y-115799810D01*
X98149229Y-115799810D01*
X98192771Y-115824000D01*
X98214543Y-115848190D01*
X98236314Y-115896571D01*
X98236314Y-116017524D01*
X98214543Y-116065905D01*
X98192771Y-116090095D01*
X98149229Y-116114286D01*
X98062143Y-116114286D01*
X98018600Y-116090095D01*
X97996829Y-116065905D01*
X97975057Y-116017524D01*
X98410486Y-114608429D02*
X98432257Y-114632619D01*
X98497571Y-114656810D01*
X98541114Y-114656810D01*
X98606429Y-114632619D01*
X98649971Y-114584238D01*
X98671743Y-114535857D01*
X98693514Y-114439095D01*
X98693514Y-114366524D01*
X98671743Y-114269762D01*
X98649971Y-114221381D01*
X98606429Y-114173000D01*
X98541114Y-114148810D01*
X98497571Y-114148810D01*
X98432257Y-114173000D01*
X98410486Y-114197190D01*
X104433915Y-116259429D02*
X104455686Y-116283619D01*
X104521000Y-116307810D01*
X104564543Y-116307810D01*
X104629858Y-116283619D01*
X104673400Y-116235238D01*
X104695172Y-116186857D01*
X104716943Y-116090095D01*
X104716943Y-116017524D01*
X104695172Y-115920762D01*
X104673400Y-115872381D01*
X104629858Y-115824000D01*
X104564543Y-115799810D01*
X104521000Y-115799810D01*
X104455686Y-115824000D01*
X104433915Y-115848190D01*
X104259743Y-115848190D02*
X104237972Y-115824000D01*
X104194429Y-115799810D01*
X104085572Y-115799810D01*
X104042029Y-115824000D01*
X104020258Y-115848190D01*
X103998486Y-115896571D01*
X103998486Y-115944952D01*
X104020258Y-116017524D01*
X104281515Y-116307810D01*
X103998486Y-116307810D01*
X103715457Y-115799810D02*
X103671914Y-115799810D01*
X103628371Y-115824000D01*
X103606600Y-115848190D01*
X103584829Y-115896571D01*
X103563057Y-115993333D01*
X103563057Y-116114286D01*
X103584829Y-116211048D01*
X103606600Y-116259429D01*
X103628371Y-116283619D01*
X103671914Y-116307810D01*
X103715457Y-116307810D01*
X103759000Y-116283619D01*
X103780771Y-116259429D01*
X103802543Y-116211048D01*
X103824314Y-116114286D01*
X103824314Y-115993333D01*
X103802543Y-115896571D01*
X103780771Y-115848190D01*
X103759000Y-115824000D01*
X103715457Y-115799810D01*
X103998486Y-114608429D02*
X104020257Y-114632619D01*
X104085571Y-114656810D01*
X104129114Y-114656810D01*
X104194429Y-114632619D01*
X104237971Y-114584238D01*
X104259743Y-114535857D01*
X104281514Y-114439095D01*
X104281514Y-114366524D01*
X104259743Y-114269762D01*
X104237971Y-114221381D01*
X104194429Y-114173000D01*
X104129114Y-114148810D01*
X104085571Y-114148810D01*
X104020257Y-114173000D01*
X103998486Y-114197190D01*
X108893429Y-114641085D02*
X108917619Y-114619314D01*
X108941810Y-114554000D01*
X108941810Y-114510457D01*
X108917619Y-114445142D01*
X108869238Y-114401600D01*
X108820857Y-114379828D01*
X108724095Y-114358057D01*
X108651524Y-114358057D01*
X108554762Y-114379828D01*
X108506381Y-114401600D01*
X108458000Y-114445142D01*
X108433810Y-114510457D01*
X108433810Y-114554000D01*
X108458000Y-114619314D01*
X108482190Y-114641085D01*
X108482190Y-114815257D02*
X108458000Y-114837028D01*
X108433810Y-114880571D01*
X108433810Y-114989428D01*
X108458000Y-115032971D01*
X108482190Y-115054742D01*
X108530571Y-115076514D01*
X108578952Y-115076514D01*
X108651524Y-115054742D01*
X108941810Y-114793485D01*
X108941810Y-115076514D01*
X108941810Y-115511943D02*
X108941810Y-115250686D01*
X108941810Y-115381314D02*
X108433810Y-115381314D01*
X108506381Y-115337771D01*
X108554762Y-115294229D01*
X108578952Y-115250686D01*
X107242429Y-115076514D02*
X107266619Y-115054743D01*
X107290810Y-114989429D01*
X107290810Y-114945886D01*
X107266619Y-114880571D01*
X107218238Y-114837029D01*
X107169857Y-114815257D01*
X107073095Y-114793486D01*
X107000524Y-114793486D01*
X106903762Y-114815257D01*
X106855381Y-114837029D01*
X106807000Y-114880571D01*
X106782810Y-114945886D01*
X106782810Y-114989429D01*
X106807000Y-115054743D01*
X106831190Y-115076514D01*
D14*
X73489517Y-48610580D02*
X73489517Y-48211800D01*
X73394570Y-48211800D01*
X73337601Y-48230790D01*
X73299622Y-48268769D01*
X73280633Y-48306748D01*
X73261643Y-48382706D01*
X73261643Y-48439675D01*
X73280633Y-48515633D01*
X73299622Y-48553612D01*
X73337601Y-48591591D01*
X73394570Y-48610580D01*
X73489517Y-48610580D01*
X72881853Y-48610580D02*
X73109727Y-48610580D01*
X72995790Y-48610580D02*
X72995790Y-48211800D01*
X73033769Y-48268769D01*
X73071748Y-48306748D01*
X73109727Y-48325738D01*
X74124517Y-50515580D02*
X74124517Y-50116800D01*
X74029570Y-50116800D01*
X73972601Y-50135790D01*
X73934622Y-50173769D01*
X73915633Y-50211748D01*
X73896643Y-50287706D01*
X73896643Y-50344675D01*
X73915633Y-50420633D01*
X73934622Y-50458612D01*
X73972601Y-50496591D01*
X74029570Y-50515580D01*
X74124517Y-50515580D01*
X73744727Y-50154780D02*
X73725737Y-50135790D01*
X73687758Y-50116800D01*
X73592811Y-50116800D01*
X73554832Y-50135790D01*
X73535842Y-50154780D01*
X73516853Y-50192759D01*
X73516853Y-50230738D01*
X73535842Y-50287706D01*
X73763716Y-50515580D01*
X73516853Y-50515580D01*
D17*
X124829328Y-71778162D02*
X124829328Y-71277782D01*
X124710190Y-71277782D01*
X124638707Y-71301610D01*
X124591052Y-71349265D01*
X124567224Y-71396920D01*
X124543396Y-71492231D01*
X124543396Y-71563714D01*
X124567224Y-71659024D01*
X124591052Y-71706680D01*
X124638707Y-71754335D01*
X124710190Y-71778162D01*
X124829328Y-71778162D01*
X124114499Y-71277782D02*
X124209810Y-71277782D01*
X124257465Y-71301610D01*
X124281293Y-71325438D01*
X124328948Y-71396920D01*
X124352776Y-71492231D01*
X124352776Y-71682852D01*
X124328948Y-71730507D01*
X124305120Y-71754335D01*
X124257465Y-71778162D01*
X124162155Y-71778162D01*
X124114499Y-71754335D01*
X124090672Y-71730507D01*
X124066844Y-71682852D01*
X124066844Y-71563714D01*
X124090672Y-71516059D01*
X124114499Y-71492231D01*
X124162155Y-71468403D01*
X124257465Y-71468403D01*
X124305120Y-71492231D01*
X124328948Y-71516059D01*
X124352776Y-71563714D01*
D19*
X79474483Y-50852865D02*
X79641276Y-50852865D01*
X79641276Y-51114968D02*
X79641276Y-50614588D01*
X79403000Y-50614588D01*
X79045586Y-50852865D02*
X78974103Y-50876692D01*
X78950275Y-50900520D01*
X78926447Y-50948175D01*
X78926447Y-51019658D01*
X78950275Y-51067313D01*
X78974103Y-51091141D01*
X79021758Y-51114968D01*
X79212379Y-51114968D01*
X79212379Y-50614588D01*
X79045586Y-50614588D01*
X78997930Y-50638416D01*
X78974103Y-50662244D01*
X78950275Y-50709899D01*
X78950275Y-50757554D01*
X78974103Y-50805209D01*
X78997930Y-50829037D01*
X79045586Y-50852865D01*
X79212379Y-50852865D01*
X78449895Y-51114968D02*
X78735827Y-51114968D01*
X78592861Y-51114968D02*
X78592861Y-50614588D01*
X78640516Y-50686071D01*
X78688171Y-50733726D01*
X78735827Y-50757554D01*
X79974864Y-51551365D02*
X80141657Y-51551365D01*
X80141657Y-51813468D02*
X80141657Y-51313088D01*
X79903381Y-51313088D01*
X79712760Y-51813468D02*
X79712760Y-51313088D01*
X79236208Y-51813468D02*
X79474484Y-51813468D01*
X79474484Y-51313088D01*
X79140897Y-51313088D02*
X78854965Y-51313088D01*
X78997931Y-51813468D02*
X78997931Y-51313088D01*
X78688172Y-51551365D02*
X78521379Y-51551365D01*
X78449896Y-51813468D02*
X78688172Y-51813468D01*
X78688172Y-51313088D01*
X78449896Y-51313088D01*
X77949515Y-51813468D02*
X78116309Y-51575192D01*
X78235447Y-51813468D02*
X78235447Y-51313088D01*
X78044826Y-51313088D01*
X77997171Y-51336916D01*
X77973343Y-51360744D01*
X77949515Y-51408399D01*
X77949515Y-51479882D01*
X77973343Y-51527537D01*
X77997171Y-51551365D01*
X78044826Y-51575192D01*
X78235447Y-51575192D01*
X79474483Y-52757865D02*
X79641276Y-52757865D01*
X79641276Y-53019968D02*
X79641276Y-52519588D01*
X79403000Y-52519588D01*
X79045586Y-52757865D02*
X78974103Y-52781692D01*
X78950275Y-52805520D01*
X78926447Y-52853175D01*
X78926447Y-52924658D01*
X78950275Y-52972313D01*
X78974103Y-52996141D01*
X79021758Y-53019968D01*
X79212379Y-53019968D01*
X79212379Y-52519588D01*
X79045586Y-52519588D01*
X78997930Y-52543416D01*
X78974103Y-52567244D01*
X78950275Y-52614899D01*
X78950275Y-52662554D01*
X78974103Y-52710209D01*
X78997930Y-52734037D01*
X79045586Y-52757865D01*
X79212379Y-52757865D01*
X78735827Y-52567244D02*
X78711999Y-52543416D01*
X78664344Y-52519588D01*
X78545206Y-52519588D01*
X78497550Y-52543416D01*
X78473723Y-52567244D01*
X78449895Y-52614899D01*
X78449895Y-52662554D01*
X78473723Y-52734037D01*
X78759654Y-53019968D01*
X78449895Y-53019968D01*
X79974864Y-53456365D02*
X80141657Y-53456365D01*
X80141657Y-53718468D02*
X80141657Y-53218088D01*
X79903381Y-53218088D01*
X79712760Y-53718468D02*
X79712760Y-53218088D01*
X79236208Y-53718468D02*
X79474484Y-53718468D01*
X79474484Y-53218088D01*
X79140897Y-53218088D02*
X78854965Y-53218088D01*
X78997931Y-53718468D02*
X78997931Y-53218088D01*
X78688172Y-53456365D02*
X78521379Y-53456365D01*
X78449896Y-53718468D02*
X78688172Y-53718468D01*
X78688172Y-53218088D01*
X78449896Y-53218088D01*
X77949515Y-53718468D02*
X78116309Y-53480192D01*
X78235447Y-53718468D02*
X78235447Y-53218088D01*
X78044826Y-53218088D01*
X77997171Y-53241916D01*
X77973343Y-53265744D01*
X77949515Y-53313399D01*
X77949515Y-53384882D01*
X77973343Y-53432537D01*
X77997171Y-53456365D01*
X78044826Y-53480192D01*
X78235447Y-53480192D01*
X79474483Y-56567865D02*
X79641276Y-56567865D01*
X79641276Y-56829968D02*
X79641276Y-56329588D01*
X79403000Y-56329588D01*
X79045586Y-56567865D02*
X78974103Y-56591692D01*
X78950275Y-56615520D01*
X78926447Y-56663175D01*
X78926447Y-56734658D01*
X78950275Y-56782313D01*
X78974103Y-56806141D01*
X79021758Y-56829968D01*
X79212379Y-56829968D01*
X79212379Y-56329588D01*
X79045586Y-56329588D01*
X78997930Y-56353416D01*
X78974103Y-56377244D01*
X78950275Y-56424899D01*
X78950275Y-56472554D01*
X78974103Y-56520209D01*
X78997930Y-56544037D01*
X79045586Y-56567865D01*
X79212379Y-56567865D01*
X78759654Y-56329588D02*
X78449895Y-56329588D01*
X78616688Y-56520209D01*
X78545206Y-56520209D01*
X78497550Y-56544037D01*
X78473723Y-56567865D01*
X78449895Y-56615520D01*
X78449895Y-56734658D01*
X78473723Y-56782313D01*
X78497550Y-56806141D01*
X78545206Y-56829968D01*
X78688171Y-56829968D01*
X78735827Y-56806141D01*
X78759654Y-56782313D01*
X79974864Y-57266365D02*
X80141657Y-57266365D01*
X80141657Y-57528468D02*
X80141657Y-57028088D01*
X79903381Y-57028088D01*
X79712760Y-57528468D02*
X79712760Y-57028088D01*
X79236208Y-57528468D02*
X79474484Y-57528468D01*
X79474484Y-57028088D01*
X79140897Y-57028088D02*
X78854965Y-57028088D01*
X78997931Y-57528468D02*
X78997931Y-57028088D01*
X78688172Y-57266365D02*
X78521379Y-57266365D01*
X78449896Y-57528468D02*
X78688172Y-57528468D01*
X78688172Y-57028088D01*
X78449896Y-57028088D01*
X77949515Y-57528468D02*
X78116309Y-57290192D01*
X78235447Y-57528468D02*
X78235447Y-57028088D01*
X78044826Y-57028088D01*
X77997171Y-57051916D01*
X77973343Y-57075744D01*
X77949515Y-57123399D01*
X77949515Y-57194882D01*
X77973343Y-57242537D01*
X77997171Y-57266365D01*
X78044826Y-57290192D01*
X78235447Y-57290192D01*
X79474483Y-54662865D02*
X79641276Y-54662865D01*
X79641276Y-54924968D02*
X79641276Y-54424588D01*
X79403000Y-54424588D01*
X79045586Y-54662865D02*
X78974103Y-54686692D01*
X78950275Y-54710520D01*
X78926447Y-54758175D01*
X78926447Y-54829658D01*
X78950275Y-54877313D01*
X78974103Y-54901141D01*
X79021758Y-54924968D01*
X79212379Y-54924968D01*
X79212379Y-54424588D01*
X79045586Y-54424588D01*
X78997930Y-54448416D01*
X78974103Y-54472244D01*
X78950275Y-54519899D01*
X78950275Y-54567554D01*
X78974103Y-54615209D01*
X78997930Y-54639037D01*
X79045586Y-54662865D01*
X79212379Y-54662865D01*
X78497550Y-54591382D02*
X78497550Y-54924968D01*
X78616688Y-54400761D02*
X78735827Y-54758175D01*
X78426067Y-54758175D01*
X79974864Y-55361365D02*
X80141657Y-55361365D01*
X80141657Y-55623468D02*
X80141657Y-55123088D01*
X79903381Y-55123088D01*
X79712760Y-55623468D02*
X79712760Y-55123088D01*
X79236208Y-55623468D02*
X79474484Y-55623468D01*
X79474484Y-55123088D01*
X79140897Y-55123088D02*
X78854965Y-55123088D01*
X78997931Y-55623468D02*
X78997931Y-55123088D01*
X78688172Y-55361365D02*
X78521379Y-55361365D01*
X78449896Y-55623468D02*
X78688172Y-55623468D01*
X78688172Y-55123088D01*
X78449896Y-55123088D01*
X77949515Y-55623468D02*
X78116309Y-55385192D01*
X78235447Y-55623468D02*
X78235447Y-55123088D01*
X78044826Y-55123088D01*
X77997171Y-55146916D01*
X77973343Y-55170744D01*
X77949515Y-55218399D01*
X77949515Y-55289882D01*
X77973343Y-55337537D01*
X77997171Y-55361365D01*
X78044826Y-55385192D01*
X78235447Y-55385192D01*
X160436983Y-86006759D02*
X160603776Y-86006759D01*
X160603776Y-86268862D02*
X160603776Y-85768482D01*
X160365500Y-85768482D01*
X160008086Y-86006759D02*
X159936603Y-86030586D01*
X159912775Y-86054414D01*
X159888947Y-86102069D01*
X159888947Y-86173552D01*
X159912775Y-86221207D01*
X159936603Y-86245035D01*
X159984258Y-86268862D01*
X160174879Y-86268862D01*
X160174879Y-85768482D01*
X160008086Y-85768482D01*
X159960430Y-85792310D01*
X159936603Y-85816138D01*
X159912775Y-85863793D01*
X159912775Y-85911448D01*
X159936603Y-85959103D01*
X159960430Y-85982931D01*
X160008086Y-86006759D01*
X160174879Y-86006759D01*
X159436223Y-85768482D02*
X159674499Y-85768482D01*
X159698327Y-86006759D01*
X159674499Y-85982931D01*
X159626844Y-85959103D01*
X159507706Y-85959103D01*
X159460050Y-85982931D01*
X159436223Y-86006759D01*
X159412395Y-86054414D01*
X159412395Y-86173552D01*
X159436223Y-86221207D01*
X159460050Y-86245035D01*
X159507706Y-86268862D01*
X159626844Y-86268862D01*
X159674499Y-86245035D01*
X159698327Y-86221207D01*
X160937364Y-85308259D02*
X161104157Y-85308259D01*
X161104157Y-85570362D02*
X161104157Y-85069982D01*
X160865881Y-85069982D01*
X160675260Y-85570362D02*
X160675260Y-85069982D01*
X160198708Y-85570362D02*
X160436984Y-85570362D01*
X160436984Y-85069982D01*
X160103397Y-85069982D02*
X159817465Y-85069982D01*
X159960431Y-85570362D02*
X159960431Y-85069982D01*
X159650672Y-85308259D02*
X159483879Y-85308259D01*
X159412396Y-85570362D02*
X159650672Y-85570362D01*
X159650672Y-85069982D01*
X159412396Y-85069982D01*
X158912015Y-85570362D02*
X159078809Y-85332086D01*
X159197947Y-85570362D02*
X159197947Y-85069982D01*
X159007326Y-85069982D01*
X158959671Y-85093810D01*
X158935843Y-85117638D01*
X158912015Y-85165293D01*
X158912015Y-85236776D01*
X158935843Y-85284431D01*
X158959671Y-85308259D01*
X159007326Y-85332086D01*
X159197947Y-85332086D01*
X160436983Y-87911759D02*
X160603776Y-87911759D01*
X160603776Y-88173862D02*
X160603776Y-87673482D01*
X160365500Y-87673482D01*
X160008086Y-87911759D02*
X159936603Y-87935586D01*
X159912775Y-87959414D01*
X159888947Y-88007069D01*
X159888947Y-88078552D01*
X159912775Y-88126207D01*
X159936603Y-88150035D01*
X159984258Y-88173862D01*
X160174879Y-88173862D01*
X160174879Y-87673482D01*
X160008086Y-87673482D01*
X159960430Y-87697310D01*
X159936603Y-87721138D01*
X159912775Y-87768793D01*
X159912775Y-87816448D01*
X159936603Y-87864103D01*
X159960430Y-87887931D01*
X160008086Y-87911759D01*
X160174879Y-87911759D01*
X159460050Y-87673482D02*
X159555361Y-87673482D01*
X159603016Y-87697310D01*
X159626844Y-87721138D01*
X159674499Y-87792620D01*
X159698327Y-87887931D01*
X159698327Y-88078552D01*
X159674499Y-88126207D01*
X159650671Y-88150035D01*
X159603016Y-88173862D01*
X159507706Y-88173862D01*
X159460050Y-88150035D01*
X159436223Y-88126207D01*
X159412395Y-88078552D01*
X159412395Y-87959414D01*
X159436223Y-87911759D01*
X159460050Y-87887931D01*
X159507706Y-87864103D01*
X159603016Y-87864103D01*
X159650671Y-87887931D01*
X159674499Y-87911759D01*
X159698327Y-87959414D01*
X160937364Y-87213259D02*
X161104157Y-87213259D01*
X161104157Y-87475362D02*
X161104157Y-86974982D01*
X160865881Y-86974982D01*
X160675260Y-87475362D02*
X160675260Y-86974982D01*
X160198708Y-87475362D02*
X160436984Y-87475362D01*
X160436984Y-86974982D01*
X160103397Y-86974982D02*
X159817465Y-86974982D01*
X159960431Y-87475362D02*
X159960431Y-86974982D01*
X159650672Y-87213259D02*
X159483879Y-87213259D01*
X159412396Y-87475362D02*
X159650672Y-87475362D01*
X159650672Y-86974982D01*
X159412396Y-86974982D01*
X158912015Y-87475362D02*
X159078809Y-87237086D01*
X159197947Y-87475362D02*
X159197947Y-86974982D01*
X159007326Y-86974982D01*
X158959671Y-86998810D01*
X158935843Y-87022638D01*
X158912015Y-87070293D01*
X158912015Y-87141776D01*
X158935843Y-87189431D01*
X158959671Y-87213259D01*
X159007326Y-87237086D01*
X159197947Y-87237086D01*
X160436983Y-89816759D02*
X160603776Y-89816759D01*
X160603776Y-90078862D02*
X160603776Y-89578482D01*
X160365500Y-89578482D01*
X160008086Y-89816759D02*
X159936603Y-89840586D01*
X159912775Y-89864414D01*
X159888947Y-89912069D01*
X159888947Y-89983552D01*
X159912775Y-90031207D01*
X159936603Y-90055035D01*
X159984258Y-90078862D01*
X160174879Y-90078862D01*
X160174879Y-89578482D01*
X160008086Y-89578482D01*
X159960430Y-89602310D01*
X159936603Y-89626138D01*
X159912775Y-89673793D01*
X159912775Y-89721448D01*
X159936603Y-89769103D01*
X159960430Y-89792931D01*
X160008086Y-89816759D01*
X160174879Y-89816759D01*
X159722154Y-89578482D02*
X159388567Y-89578482D01*
X159603016Y-90078862D01*
X160937364Y-89118259D02*
X161104157Y-89118259D01*
X161104157Y-89380362D02*
X161104157Y-88879982D01*
X160865881Y-88879982D01*
X160675260Y-89380362D02*
X160675260Y-88879982D01*
X160198708Y-89380362D02*
X160436984Y-89380362D01*
X160436984Y-88879982D01*
X160103397Y-88879982D02*
X159817465Y-88879982D01*
X159960431Y-89380362D02*
X159960431Y-88879982D01*
X159650672Y-89118259D02*
X159483879Y-89118259D01*
X159412396Y-89380362D02*
X159650672Y-89380362D01*
X159650672Y-88879982D01*
X159412396Y-88879982D01*
X158912015Y-89380362D02*
X159078809Y-89142086D01*
X159197947Y-89380362D02*
X159197947Y-88879982D01*
X159007326Y-88879982D01*
X158959671Y-88903810D01*
X158935843Y-88927638D01*
X158912015Y-88975293D01*
X158912015Y-89046776D01*
X158935843Y-89094431D01*
X158959671Y-89118259D01*
X159007326Y-89142086D01*
X159197947Y-89142086D01*
X160436983Y-84101759D02*
X160603776Y-84101759D01*
X160603776Y-84363862D02*
X160603776Y-83863482D01*
X160365500Y-83863482D01*
X160008086Y-84101759D02*
X159936603Y-84125586D01*
X159912775Y-84149414D01*
X159888947Y-84197069D01*
X159888947Y-84268552D01*
X159912775Y-84316207D01*
X159936603Y-84340035D01*
X159984258Y-84363862D01*
X160174879Y-84363862D01*
X160174879Y-83863482D01*
X160008086Y-83863482D01*
X159960430Y-83887310D01*
X159936603Y-83911138D01*
X159912775Y-83958793D01*
X159912775Y-84006448D01*
X159936603Y-84054103D01*
X159960430Y-84077931D01*
X160008086Y-84101759D01*
X160174879Y-84101759D01*
X159603016Y-84077931D02*
X159650671Y-84054103D01*
X159674499Y-84030276D01*
X159698327Y-83982620D01*
X159698327Y-83958793D01*
X159674499Y-83911138D01*
X159650671Y-83887310D01*
X159603016Y-83863482D01*
X159507706Y-83863482D01*
X159460050Y-83887310D01*
X159436223Y-83911138D01*
X159412395Y-83958793D01*
X159412395Y-83982620D01*
X159436223Y-84030276D01*
X159460050Y-84054103D01*
X159507706Y-84077931D01*
X159603016Y-84077931D01*
X159650671Y-84101759D01*
X159674499Y-84125586D01*
X159698327Y-84173241D01*
X159698327Y-84268552D01*
X159674499Y-84316207D01*
X159650671Y-84340035D01*
X159603016Y-84363862D01*
X159507706Y-84363862D01*
X159460050Y-84340035D01*
X159436223Y-84316207D01*
X159412395Y-84268552D01*
X159412395Y-84173241D01*
X159436223Y-84125586D01*
X159460050Y-84101759D01*
X159507706Y-84077931D01*
X160937364Y-83403259D02*
X161104157Y-83403259D01*
X161104157Y-83665362D02*
X161104157Y-83164982D01*
X160865881Y-83164982D01*
X160675260Y-83665362D02*
X160675260Y-83164982D01*
X160198708Y-83665362D02*
X160436984Y-83665362D01*
X160436984Y-83164982D01*
X160103397Y-83164982D02*
X159817465Y-83164982D01*
X159960431Y-83665362D02*
X159960431Y-83164982D01*
X159650672Y-83403259D02*
X159483879Y-83403259D01*
X159412396Y-83665362D02*
X159650672Y-83665362D01*
X159650672Y-83164982D01*
X159412396Y-83164982D01*
X158912015Y-83665362D02*
X159078809Y-83427086D01*
X159197947Y-83665362D02*
X159197947Y-83164982D01*
X159007326Y-83164982D01*
X158959671Y-83188810D01*
X158935843Y-83212638D01*
X158912015Y-83260293D01*
X158912015Y-83331776D01*
X158935843Y-83379431D01*
X158959671Y-83403259D01*
X159007326Y-83427086D01*
X159197947Y-83427086D01*
X122019483Y-119026759D02*
X122186276Y-119026759D01*
X122186276Y-119288862D02*
X122186276Y-118788482D01*
X121948000Y-118788482D01*
X121590586Y-119026759D02*
X121519103Y-119050586D01*
X121495275Y-119074414D01*
X121471447Y-119122069D01*
X121471447Y-119193552D01*
X121495275Y-119241207D01*
X121519103Y-119265035D01*
X121566758Y-119288862D01*
X121757379Y-119288862D01*
X121757379Y-118788482D01*
X121590586Y-118788482D01*
X121542930Y-118812310D01*
X121519103Y-118836138D01*
X121495275Y-118883793D01*
X121495275Y-118931448D01*
X121519103Y-118979103D01*
X121542930Y-119002931D01*
X121590586Y-119026759D01*
X121757379Y-119026759D01*
X121233171Y-119288862D02*
X121137861Y-119288862D01*
X121090206Y-119265035D01*
X121066378Y-119241207D01*
X121018723Y-119169724D01*
X120994895Y-119074414D01*
X120994895Y-118883793D01*
X121018723Y-118836138D01*
X121042550Y-118812310D01*
X121090206Y-118788482D01*
X121185516Y-118788482D01*
X121233171Y-118812310D01*
X121256999Y-118836138D01*
X121280827Y-118883793D01*
X121280827Y-119002931D01*
X121256999Y-119050586D01*
X121233171Y-119074414D01*
X121185516Y-119098241D01*
X121090206Y-119098241D01*
X121042550Y-119074414D01*
X121018723Y-119050586D01*
X120994895Y-119002931D01*
X122317329Y-119725259D02*
X122484122Y-119725259D01*
X122484122Y-119987362D02*
X122484122Y-119486982D01*
X122245846Y-119486982D01*
X122055225Y-119725259D02*
X121888432Y-119725259D01*
X121816949Y-119987362D02*
X122055225Y-119987362D01*
X122055225Y-119486982D01*
X121816949Y-119486982D01*
X121316568Y-119987362D02*
X121483362Y-119749086D01*
X121602500Y-119987362D02*
X121602500Y-119486982D01*
X121411879Y-119486982D01*
X121364224Y-119510810D01*
X121340396Y-119534638D01*
X121316568Y-119582293D01*
X121316568Y-119653776D01*
X121340396Y-119701431D01*
X121364224Y-119725259D01*
X121411879Y-119749086D01*
X121602500Y-119749086D01*
X121102120Y-119987362D02*
X121102120Y-119486982D01*
X120935327Y-119486982D02*
X120649395Y-119486982D01*
X120792361Y-119987362D02*
X120792361Y-119486982D01*
D11*
X122650238Y-78342619D02*
X122745476Y-78295000D01*
X122840714Y-78199762D01*
X122983571Y-78056905D01*
X123078810Y-78009286D01*
X123174048Y-78009286D01*
X123126429Y-78247381D02*
X123221667Y-78199762D01*
X123316905Y-78104524D01*
X123364524Y-77914048D01*
X123364524Y-77580714D01*
X123316905Y-77390238D01*
X123221667Y-77295000D01*
X123126429Y-77247381D01*
X122935952Y-77247381D01*
X122840714Y-77295000D01*
X122745476Y-77390238D01*
X122697857Y-77580714D01*
X122697857Y-77914048D01*
X122745476Y-78104524D01*
X122840714Y-78199762D01*
X122935952Y-78247381D01*
X123126429Y-78247381D01*
X121745476Y-78247381D02*
X122316905Y-78247381D01*
X122031191Y-78247381D02*
X122031191Y-77247381D01*
X122126429Y-77390238D01*
X122221667Y-77485476D01*
X122316905Y-77533095D01*
D19*
X108350896Y-126273862D02*
X108517690Y-126035586D01*
X108636828Y-126273862D02*
X108636828Y-125773482D01*
X108446207Y-125773482D01*
X108398552Y-125797310D01*
X108374724Y-125821138D01*
X108350896Y-125868793D01*
X108350896Y-125940276D01*
X108374724Y-125987931D01*
X108398552Y-126011759D01*
X108446207Y-126035586D01*
X108636828Y-126035586D01*
X107874344Y-126273862D02*
X108160276Y-126273862D01*
X108017310Y-126273862D02*
X108017310Y-125773482D01*
X108064965Y-125844965D01*
X108112620Y-125892620D01*
X108160276Y-125916448D01*
X108791707Y-126686431D02*
X108839362Y-126662603D01*
X108863190Y-126638776D01*
X108887018Y-126591120D01*
X108887018Y-126567293D01*
X108863190Y-126519638D01*
X108839362Y-126495810D01*
X108791707Y-126471982D01*
X108696397Y-126471982D01*
X108648741Y-126495810D01*
X108624914Y-126519638D01*
X108601086Y-126567293D01*
X108601086Y-126591120D01*
X108624914Y-126638776D01*
X108648741Y-126662603D01*
X108696397Y-126686431D01*
X108791707Y-126686431D01*
X108839362Y-126710259D01*
X108863190Y-126734086D01*
X108887018Y-126781741D01*
X108887018Y-126877052D01*
X108863190Y-126924707D01*
X108839362Y-126948535D01*
X108791707Y-126972362D01*
X108696397Y-126972362D01*
X108648741Y-126948535D01*
X108624914Y-126924707D01*
X108601086Y-126877052D01*
X108601086Y-126781741D01*
X108624914Y-126734086D01*
X108648741Y-126710259D01*
X108696397Y-126686431D01*
X108410466Y-126519638D02*
X108386638Y-126495810D01*
X108338983Y-126471982D01*
X108219845Y-126471982D01*
X108172189Y-126495810D01*
X108148362Y-126519638D01*
X108124534Y-126567293D01*
X108124534Y-126614948D01*
X108148362Y-126686431D01*
X108434293Y-126972362D01*
X108124534Y-126972362D01*
X107814775Y-126471982D02*
X107767120Y-126471982D01*
X107719465Y-126495810D01*
X107695637Y-126519638D01*
X107671810Y-126567293D01*
X107647982Y-126662603D01*
X107647982Y-126781741D01*
X107671810Y-126877052D01*
X107695637Y-126924707D01*
X107719465Y-126948535D01*
X107767120Y-126972362D01*
X107814775Y-126972362D01*
X107862431Y-126948535D01*
X107886258Y-126924707D01*
X107910086Y-126877052D01*
X107933914Y-126781741D01*
X107933914Y-126662603D01*
X107910086Y-126567293D01*
X107886258Y-126519638D01*
X107862431Y-126495810D01*
X107814775Y-126471982D01*
X96920896Y-123733862D02*
X97087690Y-123495586D01*
X97206828Y-123733862D02*
X97206828Y-123233482D01*
X97016207Y-123233482D01*
X96968552Y-123257310D01*
X96944724Y-123281138D01*
X96920896Y-123328793D01*
X96920896Y-123400276D01*
X96944724Y-123447931D01*
X96968552Y-123471759D01*
X97016207Y-123495586D01*
X97206828Y-123495586D01*
X96730276Y-123281138D02*
X96706448Y-123257310D01*
X96658793Y-123233482D01*
X96539655Y-123233482D01*
X96491999Y-123257310D01*
X96468172Y-123281138D01*
X96444344Y-123328793D01*
X96444344Y-123376448D01*
X96468172Y-123447931D01*
X96754103Y-123733862D01*
X96444344Y-123733862D01*
X97361707Y-122749431D02*
X97409362Y-122725603D01*
X97433190Y-122701776D01*
X97457018Y-122654120D01*
X97457018Y-122630293D01*
X97433190Y-122582638D01*
X97409362Y-122558810D01*
X97361707Y-122534982D01*
X97266397Y-122534982D01*
X97218741Y-122558810D01*
X97194914Y-122582638D01*
X97171086Y-122630293D01*
X97171086Y-122654120D01*
X97194914Y-122701776D01*
X97218741Y-122725603D01*
X97266397Y-122749431D01*
X97361707Y-122749431D01*
X97409362Y-122773259D01*
X97433190Y-122797086D01*
X97457018Y-122844741D01*
X97457018Y-122940052D01*
X97433190Y-122987707D01*
X97409362Y-123011535D01*
X97361707Y-123035362D01*
X97266397Y-123035362D01*
X97218741Y-123011535D01*
X97194914Y-122987707D01*
X97171086Y-122940052D01*
X97171086Y-122844741D01*
X97194914Y-122797086D01*
X97218741Y-122773259D01*
X97266397Y-122749431D01*
X96980466Y-122582638D02*
X96956638Y-122558810D01*
X96908983Y-122534982D01*
X96789845Y-122534982D01*
X96742189Y-122558810D01*
X96718362Y-122582638D01*
X96694534Y-122630293D01*
X96694534Y-122677948D01*
X96718362Y-122749431D01*
X97004293Y-123035362D01*
X96694534Y-123035362D01*
X96384775Y-122534982D02*
X96337120Y-122534982D01*
X96289465Y-122558810D01*
X96265637Y-122582638D01*
X96241810Y-122630293D01*
X96217982Y-122725603D01*
X96217982Y-122844741D01*
X96241810Y-122940052D01*
X96265637Y-122987707D01*
X96289465Y-123011535D01*
X96337120Y-123035362D01*
X96384775Y-123035362D01*
X96432431Y-123011535D01*
X96456258Y-122987707D01*
X96480086Y-122940052D01*
X96503914Y-122844741D01*
X96503914Y-122725603D01*
X96480086Y-122630293D01*
X96456258Y-122582638D01*
X96432431Y-122558810D01*
X96384775Y-122534982D01*
X93110896Y-126908862D02*
X93277690Y-126670586D01*
X93396828Y-126908862D02*
X93396828Y-126408482D01*
X93206207Y-126408482D01*
X93158552Y-126432310D01*
X93134724Y-126456138D01*
X93110896Y-126503793D01*
X93110896Y-126575276D01*
X93134724Y-126622931D01*
X93158552Y-126646759D01*
X93206207Y-126670586D01*
X93396828Y-126670586D01*
X92944103Y-126408482D02*
X92634344Y-126408482D01*
X92801137Y-126599103D01*
X92729655Y-126599103D01*
X92681999Y-126622931D01*
X92658172Y-126646759D01*
X92634344Y-126694414D01*
X92634344Y-126813552D01*
X92658172Y-126861207D01*
X92681999Y-126885035D01*
X92729655Y-126908862D01*
X92872620Y-126908862D01*
X92920276Y-126885035D01*
X92944103Y-126861207D01*
X93647018Y-125757638D02*
X93623190Y-125733810D01*
X93575535Y-125709982D01*
X93456397Y-125709982D01*
X93408741Y-125733810D01*
X93384914Y-125757638D01*
X93361086Y-125805293D01*
X93361086Y-125852948D01*
X93384914Y-125924431D01*
X93670845Y-126210362D01*
X93361086Y-126210362D01*
X93170466Y-125757638D02*
X93146638Y-125733810D01*
X93098983Y-125709982D01*
X92979845Y-125709982D01*
X92932189Y-125733810D01*
X92908362Y-125757638D01*
X92884534Y-125805293D01*
X92884534Y-125852948D01*
X92908362Y-125924431D01*
X93194293Y-126210362D01*
X92884534Y-126210362D01*
X92574775Y-125709982D02*
X92527120Y-125709982D01*
X92479465Y-125733810D01*
X92455637Y-125757638D01*
X92431810Y-125805293D01*
X92407982Y-125900603D01*
X92407982Y-126019741D01*
X92431810Y-126115052D01*
X92455637Y-126162707D01*
X92479465Y-126186535D01*
X92527120Y-126210362D01*
X92574775Y-126210362D01*
X92622431Y-126186535D01*
X92646258Y-126162707D01*
X92670086Y-126115052D01*
X92693914Y-126019741D01*
X92693914Y-125900603D01*
X92670086Y-125805293D01*
X92646258Y-125757638D01*
X92622431Y-125733810D01*
X92574775Y-125709982D01*
X91983862Y-123741604D02*
X91745586Y-123574810D01*
X91983862Y-123455672D02*
X91483482Y-123455672D01*
X91483482Y-123646293D01*
X91507310Y-123693948D01*
X91531138Y-123717776D01*
X91578793Y-123741604D01*
X91650276Y-123741604D01*
X91697931Y-123717776D01*
X91721759Y-123693948D01*
X91745586Y-123646293D01*
X91745586Y-123455672D01*
X91650276Y-124170501D02*
X91983862Y-124170501D01*
X91459655Y-124051363D02*
X91817069Y-123932224D01*
X91817069Y-124241984D01*
X90832638Y-123205482D02*
X90808810Y-123229310D01*
X90784982Y-123276965D01*
X90784982Y-123396103D01*
X90808810Y-123443759D01*
X90832638Y-123467586D01*
X90880293Y-123491414D01*
X90927948Y-123491414D01*
X90999431Y-123467586D01*
X91285362Y-123181655D01*
X91285362Y-123491414D01*
X90832638Y-123682034D02*
X90808810Y-123705862D01*
X90784982Y-123753517D01*
X90784982Y-123872655D01*
X90808810Y-123920311D01*
X90832638Y-123944138D01*
X90880293Y-123967966D01*
X90927948Y-123967966D01*
X90999431Y-123944138D01*
X91285362Y-123658207D01*
X91285362Y-123967966D01*
X90784982Y-124277725D02*
X90784982Y-124325380D01*
X90808810Y-124373035D01*
X90832638Y-124396863D01*
X90880293Y-124420690D01*
X90975603Y-124444518D01*
X91094741Y-124444518D01*
X91190052Y-124420690D01*
X91237707Y-124396863D01*
X91261535Y-124373035D01*
X91285362Y-124325380D01*
X91285362Y-124277725D01*
X91261535Y-124230069D01*
X91237707Y-124206242D01*
X91190052Y-124182414D01*
X91094741Y-124158586D01*
X90975603Y-124158586D01*
X90880293Y-124182414D01*
X90832638Y-124206242D01*
X90808810Y-124230069D01*
X90784982Y-124277725D01*
X110255896Y-119288862D02*
X110422690Y-119050586D01*
X110541828Y-119288862D02*
X110541828Y-118788482D01*
X110351207Y-118788482D01*
X110303552Y-118812310D01*
X110279724Y-118836138D01*
X110255896Y-118883793D01*
X110255896Y-118955276D01*
X110279724Y-119002931D01*
X110303552Y-119026759D01*
X110351207Y-119050586D01*
X110541828Y-119050586D01*
X109803172Y-118788482D02*
X110041448Y-118788482D01*
X110065276Y-119026759D01*
X110041448Y-119002931D01*
X109993793Y-118979103D01*
X109874655Y-118979103D01*
X109826999Y-119002931D01*
X109803172Y-119026759D01*
X109779344Y-119074414D01*
X109779344Y-119193552D01*
X109803172Y-119241207D01*
X109826999Y-119265035D01*
X109874655Y-119288862D01*
X109993793Y-119288862D01*
X110041448Y-119265035D01*
X110065276Y-119241207D01*
X110518000Y-119987362D02*
X110803932Y-119987362D01*
X110660966Y-119987362D02*
X110660966Y-119486982D01*
X110708621Y-119558465D01*
X110756276Y-119606120D01*
X110803932Y-119629948D01*
X110208241Y-119486982D02*
X110160586Y-119486982D01*
X110112931Y-119510810D01*
X110089103Y-119534638D01*
X110065276Y-119582293D01*
X110041448Y-119677603D01*
X110041448Y-119796741D01*
X110065276Y-119892052D01*
X110089103Y-119939707D01*
X110112931Y-119963535D01*
X110160586Y-119987362D01*
X110208241Y-119987362D01*
X110255897Y-119963535D01*
X110279724Y-119939707D01*
X110303552Y-119892052D01*
X110327380Y-119796741D01*
X110327380Y-119677603D01*
X110303552Y-119582293D01*
X110279724Y-119534638D01*
X110255897Y-119510810D01*
X110208241Y-119486982D01*
X109827000Y-119987362D02*
X109827000Y-119486982D01*
X109541068Y-119987362D02*
X109755517Y-119701431D01*
X109541068Y-119486982D02*
X109827000Y-119772914D01*
X168675896Y-83093862D02*
X168842690Y-82855586D01*
X168961828Y-83093862D02*
X168961828Y-82593482D01*
X168771207Y-82593482D01*
X168723552Y-82617310D01*
X168699724Y-82641138D01*
X168675896Y-82688793D01*
X168675896Y-82760276D01*
X168699724Y-82807931D01*
X168723552Y-82831759D01*
X168771207Y-82855586D01*
X168961828Y-82855586D01*
X168246999Y-82593482D02*
X168342310Y-82593482D01*
X168389965Y-82617310D01*
X168413793Y-82641138D01*
X168461448Y-82712620D01*
X168485276Y-82807931D01*
X168485276Y-82998552D01*
X168461448Y-83046207D01*
X168437620Y-83070035D01*
X168389965Y-83093862D01*
X168294655Y-83093862D01*
X168246999Y-83070035D01*
X168223172Y-83046207D01*
X168199344Y-82998552D01*
X168199344Y-82879414D01*
X168223172Y-82831759D01*
X168246999Y-82807931D01*
X168294655Y-82784103D01*
X168389965Y-82784103D01*
X168437620Y-82807931D01*
X168461448Y-82831759D01*
X168485276Y-82879414D01*
X168437620Y-83792362D02*
X168604414Y-83554086D01*
X168723552Y-83792362D02*
X168723552Y-83291982D01*
X168532931Y-83291982D01*
X168485276Y-83315810D01*
X168461448Y-83339638D01*
X168437620Y-83387293D01*
X168437620Y-83458776D01*
X168461448Y-83506431D01*
X168485276Y-83530259D01*
X168532931Y-83554086D01*
X168723552Y-83554086D01*
X168675896Y-85633862D02*
X168842690Y-85395586D01*
X168961828Y-85633862D02*
X168961828Y-85133482D01*
X168771207Y-85133482D01*
X168723552Y-85157310D01*
X168699724Y-85181138D01*
X168675896Y-85228793D01*
X168675896Y-85300276D01*
X168699724Y-85347931D01*
X168723552Y-85371759D01*
X168771207Y-85395586D01*
X168961828Y-85395586D01*
X168509103Y-85133482D02*
X168175516Y-85133482D01*
X168389965Y-85633862D01*
X168437620Y-86332362D02*
X168604414Y-86094086D01*
X168723552Y-86332362D02*
X168723552Y-85831982D01*
X168532931Y-85831982D01*
X168485276Y-85855810D01*
X168461448Y-85879638D01*
X168437620Y-85927293D01*
X168437620Y-85998776D01*
X168461448Y-86046431D01*
X168485276Y-86070259D01*
X168532931Y-86094086D01*
X168723552Y-86094086D01*
X78744172Y-103413862D02*
X78910966Y-103175586D01*
X79030104Y-103413862D02*
X79030104Y-102913482D01*
X78839483Y-102913482D01*
X78791828Y-102937310D01*
X78768000Y-102961138D01*
X78744172Y-103008793D01*
X78744172Y-103080276D01*
X78768000Y-103127931D01*
X78791828Y-103151759D01*
X78839483Y-103175586D01*
X79030104Y-103175586D01*
X78267620Y-103413862D02*
X78553552Y-103413862D01*
X78410586Y-103413862D02*
X78410586Y-102913482D01*
X78458241Y-102984965D01*
X78505896Y-103032620D01*
X78553552Y-103056448D01*
X77791068Y-103413862D02*
X78077000Y-103413862D01*
X77934034Y-103413862D02*
X77934034Y-102913482D01*
X77981689Y-102984965D01*
X78029344Y-103032620D01*
X78077000Y-103056448D01*
X78267620Y-104112362D02*
X78434414Y-103874086D01*
X78553552Y-104112362D02*
X78553552Y-103611982D01*
X78362931Y-103611982D01*
X78315276Y-103635810D01*
X78291448Y-103659638D01*
X78267620Y-103707293D01*
X78267620Y-103778776D01*
X78291448Y-103826431D01*
X78315276Y-103850259D01*
X78362931Y-103874086D01*
X78553552Y-103874086D01*
X81823862Y-105405828D02*
X81585586Y-105239034D01*
X81823862Y-105119896D02*
X81323482Y-105119896D01*
X81323482Y-105310517D01*
X81347310Y-105358172D01*
X81371138Y-105382000D01*
X81418793Y-105405828D01*
X81490276Y-105405828D01*
X81537931Y-105382000D01*
X81561759Y-105358172D01*
X81585586Y-105310517D01*
X81585586Y-105119896D01*
X81823862Y-105882380D02*
X81823862Y-105596448D01*
X81823862Y-105739414D02*
X81323482Y-105739414D01*
X81394965Y-105691759D01*
X81442620Y-105644104D01*
X81466448Y-105596448D01*
X81371138Y-106073000D02*
X81347310Y-106096828D01*
X81323482Y-106144483D01*
X81323482Y-106263621D01*
X81347310Y-106311277D01*
X81371138Y-106335104D01*
X81418793Y-106358932D01*
X81466448Y-106358932D01*
X81537931Y-106335104D01*
X81823862Y-106049173D01*
X81823862Y-106358932D01*
X82522362Y-105882380D02*
X82284086Y-105715586D01*
X82522362Y-105596448D02*
X82021982Y-105596448D01*
X82021982Y-105787069D01*
X82045810Y-105834724D01*
X82069638Y-105858552D01*
X82117293Y-105882380D01*
X82188776Y-105882380D01*
X82236431Y-105858552D01*
X82260259Y-105834724D01*
X82284086Y-105787069D01*
X82284086Y-105596448D01*
X84363862Y-105405828D02*
X84125586Y-105239034D01*
X84363862Y-105119896D02*
X83863482Y-105119896D01*
X83863482Y-105310517D01*
X83887310Y-105358172D01*
X83911138Y-105382000D01*
X83958793Y-105405828D01*
X84030276Y-105405828D01*
X84077931Y-105382000D01*
X84101759Y-105358172D01*
X84125586Y-105310517D01*
X84125586Y-105119896D01*
X84363862Y-105882380D02*
X84363862Y-105596448D01*
X84363862Y-105739414D02*
X83863482Y-105739414D01*
X83934965Y-105691759D01*
X83982620Y-105644104D01*
X84006448Y-105596448D01*
X83863482Y-106049173D02*
X83863482Y-106358932D01*
X84054103Y-106192139D01*
X84054103Y-106263621D01*
X84077931Y-106311277D01*
X84101759Y-106335104D01*
X84149414Y-106358932D01*
X84268552Y-106358932D01*
X84316207Y-106335104D01*
X84340035Y-106311277D01*
X84363862Y-106263621D01*
X84363862Y-106120656D01*
X84340035Y-106073000D01*
X84316207Y-106049173D01*
X85062362Y-105882380D02*
X84824086Y-105715586D01*
X85062362Y-105596448D02*
X84561982Y-105596448D01*
X84561982Y-105787069D01*
X84585810Y-105834724D01*
X84609638Y-105858552D01*
X84657293Y-105882380D01*
X84728776Y-105882380D01*
X84776431Y-105858552D01*
X84800259Y-105834724D01*
X84824086Y-105787069D01*
X84824086Y-105596448D01*
X86903862Y-105405828D02*
X86665586Y-105239034D01*
X86903862Y-105119896D02*
X86403482Y-105119896D01*
X86403482Y-105310517D01*
X86427310Y-105358172D01*
X86451138Y-105382000D01*
X86498793Y-105405828D01*
X86570276Y-105405828D01*
X86617931Y-105382000D01*
X86641759Y-105358172D01*
X86665586Y-105310517D01*
X86665586Y-105119896D01*
X86903862Y-105882380D02*
X86903862Y-105596448D01*
X86903862Y-105739414D02*
X86403482Y-105739414D01*
X86474965Y-105691759D01*
X86522620Y-105644104D01*
X86546448Y-105596448D01*
X86570276Y-106311277D02*
X86903862Y-106311277D01*
X86379655Y-106192139D02*
X86737069Y-106073000D01*
X86737069Y-106382760D01*
X87602362Y-105882380D02*
X87364086Y-105715586D01*
X87602362Y-105596448D02*
X87101982Y-105596448D01*
X87101982Y-105787069D01*
X87125810Y-105834724D01*
X87149638Y-105858552D01*
X87197293Y-105882380D01*
X87268776Y-105882380D01*
X87316431Y-105858552D01*
X87340259Y-105834724D01*
X87364086Y-105787069D01*
X87364086Y-105596448D01*
X82458862Y-102230828D02*
X82220586Y-102064034D01*
X82458862Y-101944896D02*
X81958482Y-101944896D01*
X81958482Y-102135517D01*
X81982310Y-102183172D01*
X82006138Y-102207000D01*
X82053793Y-102230828D01*
X82125276Y-102230828D01*
X82172931Y-102207000D01*
X82196759Y-102183172D01*
X82220586Y-102135517D01*
X82220586Y-101944896D01*
X82458862Y-102707380D02*
X82458862Y-102421448D01*
X82458862Y-102564414D02*
X81958482Y-102564414D01*
X82029965Y-102516759D01*
X82077620Y-102469104D01*
X82101448Y-102421448D01*
X81958482Y-103160104D02*
X81958482Y-102921828D01*
X82196759Y-102898000D01*
X82172931Y-102921828D01*
X82149103Y-102969483D01*
X82149103Y-103088621D01*
X82172931Y-103136277D01*
X82196759Y-103160104D01*
X82244414Y-103183932D01*
X82363552Y-103183932D01*
X82411207Y-103160104D01*
X82435035Y-103136277D01*
X82458862Y-103088621D01*
X82458862Y-102969483D01*
X82435035Y-102921828D01*
X82411207Y-102898000D01*
X81760362Y-102707380D02*
X81522086Y-102540586D01*
X81760362Y-102421448D02*
X81259982Y-102421448D01*
X81259982Y-102612069D01*
X81283810Y-102659724D01*
X81307638Y-102683552D01*
X81355293Y-102707380D01*
X81426776Y-102707380D01*
X81474431Y-102683552D01*
X81498259Y-102659724D01*
X81522086Y-102612069D01*
X81522086Y-102421448D01*
X84998862Y-102230828D02*
X84760586Y-102064034D01*
X84998862Y-101944896D02*
X84498482Y-101944896D01*
X84498482Y-102135517D01*
X84522310Y-102183172D01*
X84546138Y-102207000D01*
X84593793Y-102230828D01*
X84665276Y-102230828D01*
X84712931Y-102207000D01*
X84736759Y-102183172D01*
X84760586Y-102135517D01*
X84760586Y-101944896D01*
X84998862Y-102707380D02*
X84998862Y-102421448D01*
X84998862Y-102564414D02*
X84498482Y-102564414D01*
X84569965Y-102516759D01*
X84617620Y-102469104D01*
X84641448Y-102421448D01*
X84498482Y-103136277D02*
X84498482Y-103040966D01*
X84522310Y-102993311D01*
X84546138Y-102969483D01*
X84617620Y-102921828D01*
X84712931Y-102898000D01*
X84903552Y-102898000D01*
X84951207Y-102921828D01*
X84975035Y-102945656D01*
X84998862Y-102993311D01*
X84998862Y-103088621D01*
X84975035Y-103136277D01*
X84951207Y-103160104D01*
X84903552Y-103183932D01*
X84784414Y-103183932D01*
X84736759Y-103160104D01*
X84712931Y-103136277D01*
X84689103Y-103088621D01*
X84689103Y-102993311D01*
X84712931Y-102945656D01*
X84736759Y-102921828D01*
X84784414Y-102898000D01*
X84300362Y-102707380D02*
X84062086Y-102540586D01*
X84300362Y-102421448D02*
X83799982Y-102421448D01*
X83799982Y-102612069D01*
X83823810Y-102659724D01*
X83847638Y-102683552D01*
X83895293Y-102707380D01*
X83966776Y-102707380D01*
X84014431Y-102683552D01*
X84038259Y-102659724D01*
X84062086Y-102612069D01*
X84062086Y-102421448D01*
X87538862Y-102230828D02*
X87300586Y-102064034D01*
X87538862Y-101944896D02*
X87038482Y-101944896D01*
X87038482Y-102135517D01*
X87062310Y-102183172D01*
X87086138Y-102207000D01*
X87133793Y-102230828D01*
X87205276Y-102230828D01*
X87252931Y-102207000D01*
X87276759Y-102183172D01*
X87300586Y-102135517D01*
X87300586Y-101944896D01*
X87538862Y-102707380D02*
X87538862Y-102421448D01*
X87538862Y-102564414D02*
X87038482Y-102564414D01*
X87109965Y-102516759D01*
X87157620Y-102469104D01*
X87181448Y-102421448D01*
X87038482Y-102874173D02*
X87038482Y-103207760D01*
X87538862Y-102993311D01*
X86840362Y-102707380D02*
X86602086Y-102540586D01*
X86840362Y-102421448D02*
X86339982Y-102421448D01*
X86339982Y-102612069D01*
X86363810Y-102659724D01*
X86387638Y-102683552D01*
X86435293Y-102707380D01*
X86506776Y-102707380D01*
X86554431Y-102683552D01*
X86578259Y-102659724D01*
X86602086Y-102612069D01*
X86602086Y-102421448D01*
X168914172Y-93253862D02*
X169080966Y-93015586D01*
X169200104Y-93253862D02*
X169200104Y-92753482D01*
X169009483Y-92753482D01*
X168961828Y-92777310D01*
X168938000Y-92801138D01*
X168914172Y-92848793D01*
X168914172Y-92920276D01*
X168938000Y-92967931D01*
X168961828Y-92991759D01*
X169009483Y-93015586D01*
X169200104Y-93015586D01*
X168723552Y-92801138D02*
X168699724Y-92777310D01*
X168652069Y-92753482D01*
X168532931Y-92753482D01*
X168485275Y-92777310D01*
X168461448Y-92801138D01*
X168437620Y-92848793D01*
X168437620Y-92896448D01*
X168461448Y-92967931D01*
X168747379Y-93253862D01*
X168437620Y-93253862D01*
X168127861Y-92753482D02*
X168080206Y-92753482D01*
X168032551Y-92777310D01*
X168008723Y-92801138D01*
X167984896Y-92848793D01*
X167961068Y-92944103D01*
X167961068Y-93063241D01*
X167984896Y-93158552D01*
X168008723Y-93206207D01*
X168032551Y-93230035D01*
X168080206Y-93253862D01*
X168127861Y-93253862D01*
X168175517Y-93230035D01*
X168199344Y-93206207D01*
X168223172Y-93158552D01*
X168247000Y-93063241D01*
X168247000Y-92944103D01*
X168223172Y-92848793D01*
X168199344Y-92801138D01*
X168175517Y-92777310D01*
X168127861Y-92753482D01*
X168437620Y-93952362D02*
X168604414Y-93714086D01*
X168723552Y-93952362D02*
X168723552Y-93451982D01*
X168532931Y-93451982D01*
X168485276Y-93475810D01*
X168461448Y-93499638D01*
X168437620Y-93547293D01*
X168437620Y-93618776D01*
X168461448Y-93666431D01*
X168485276Y-93690259D01*
X168532931Y-93714086D01*
X168723552Y-93714086D01*
X143076532Y-126669581D02*
X143025986Y-126383153D01*
X143278716Y-126467396D02*
X142924894Y-126113574D01*
X142790105Y-126248364D01*
X142773256Y-126298910D01*
X142773256Y-126332608D01*
X142790105Y-126383154D01*
X142840651Y-126433700D01*
X142891197Y-126450548D01*
X142924895Y-126450548D01*
X142975440Y-126433699D01*
X143110229Y-126298910D01*
X142621619Y-126484245D02*
X142587921Y-126484245D01*
X142537375Y-126501093D01*
X142453131Y-126585337D01*
X142436282Y-126635883D01*
X142436283Y-126669581D01*
X142453131Y-126720127D01*
X142486829Y-126753824D01*
X142554224Y-126787521D01*
X142958591Y-126787521D01*
X142739558Y-127006554D01*
X142284646Y-126821218D02*
X142250948Y-126821218D01*
X142200402Y-126838067D01*
X142116158Y-126922310D01*
X142099309Y-126972857D01*
X142099310Y-127006554D01*
X142116158Y-127057100D01*
X142149855Y-127090797D01*
X142217250Y-127124494D01*
X142621618Y-127124494D01*
X142402585Y-127343527D01*
X143233472Y-127500468D02*
X143182927Y-127214040D01*
X143435657Y-127298283D02*
X143081835Y-126944461D01*
X142947045Y-127079251D01*
X142930197Y-127129797D01*
X142930197Y-127163495D01*
X142947045Y-127214041D01*
X142997591Y-127264587D01*
X143048138Y-127281435D01*
X143081835Y-127281435D01*
X143132381Y-127264586D01*
X143267170Y-127129797D01*
X144346532Y-127939581D02*
X144295986Y-127653153D01*
X144548716Y-127737396D02*
X144194894Y-127383574D01*
X144060105Y-127518364D01*
X144043256Y-127568910D01*
X144043256Y-127602608D01*
X144060105Y-127653154D01*
X144110651Y-127703700D01*
X144161197Y-127720548D01*
X144194895Y-127720548D01*
X144245440Y-127703699D01*
X144380229Y-127568910D01*
X143891619Y-127754245D02*
X143857921Y-127754245D01*
X143807375Y-127771093D01*
X143723131Y-127855337D01*
X143706282Y-127905883D01*
X143706283Y-127939581D01*
X143723131Y-127990127D01*
X143756829Y-128023824D01*
X143824224Y-128057521D01*
X144228591Y-128057521D01*
X144009558Y-128276554D01*
X143537796Y-128040672D02*
X143318763Y-128259705D01*
X143571493Y-128276554D01*
X143520948Y-128327099D01*
X143504099Y-128377646D01*
X143504099Y-128411343D01*
X143520948Y-128461889D01*
X143605191Y-128546133D01*
X143655737Y-128562981D01*
X143689434Y-128562982D01*
X143739980Y-128546132D01*
X143841072Y-128445040D01*
X143857921Y-128394494D01*
X143857921Y-128360797D01*
X144503472Y-128770468D02*
X144452927Y-128484040D01*
X144705657Y-128568283D02*
X144351835Y-128214461D01*
X144217045Y-128349251D01*
X144200197Y-128399797D01*
X144200197Y-128433495D01*
X144217045Y-128484041D01*
X144267591Y-128534587D01*
X144318138Y-128551435D01*
X144351835Y-128551435D01*
X144402381Y-128534586D01*
X144537170Y-128399797D01*
X145616532Y-129209581D02*
X145565986Y-128923153D01*
X145818716Y-129007396D02*
X145464894Y-128653574D01*
X145330105Y-128788364D01*
X145313256Y-128838910D01*
X145313256Y-128872608D01*
X145330105Y-128923154D01*
X145380651Y-128973700D01*
X145431197Y-128990548D01*
X145464895Y-128990548D01*
X145515440Y-128973699D01*
X145650229Y-128838910D01*
X145161619Y-129024245D02*
X145127921Y-129024245D01*
X145077375Y-129041093D01*
X144993131Y-129125337D01*
X144976282Y-129175883D01*
X144976283Y-129209581D01*
X144993131Y-129260127D01*
X145026829Y-129293824D01*
X145094224Y-129327521D01*
X145498591Y-129327521D01*
X145279558Y-129546554D01*
X144740402Y-129613949D02*
X144976282Y-129849830D01*
X144689855Y-129394916D02*
X145026829Y-129563402D01*
X144807796Y-129782435D01*
X145773472Y-130040468D02*
X145722927Y-129754040D01*
X145975657Y-129838283D02*
X145621835Y-129484461D01*
X145487045Y-129619251D01*
X145470197Y-129669797D01*
X145470197Y-129703495D01*
X145487045Y-129754041D01*
X145537591Y-129804587D01*
X145588138Y-129821435D01*
X145621835Y-129821435D01*
X145672381Y-129804586D01*
X145807170Y-129669797D01*
X146886532Y-130479581D02*
X146835986Y-130193153D01*
X147088716Y-130277396D02*
X146734894Y-129923574D01*
X146600105Y-130058364D01*
X146583256Y-130108910D01*
X146583256Y-130142608D01*
X146600105Y-130193154D01*
X146650651Y-130243700D01*
X146701197Y-130260548D01*
X146734895Y-130260548D01*
X146785440Y-130243699D01*
X146920229Y-130108910D01*
X146431619Y-130294245D02*
X146397921Y-130294245D01*
X146347375Y-130311093D01*
X146263131Y-130395337D01*
X146246282Y-130445883D01*
X146246283Y-130479581D01*
X146263131Y-130530127D01*
X146296829Y-130563824D01*
X146364224Y-130597521D01*
X146768591Y-130597521D01*
X146549558Y-130816554D01*
X145875612Y-130782856D02*
X146044099Y-130614369D01*
X146229435Y-130766008D01*
X146195737Y-130766008D01*
X146145191Y-130782856D01*
X146060948Y-130867099D01*
X146044099Y-130917646D01*
X146044099Y-130951343D01*
X146060948Y-131001889D01*
X146145191Y-131086133D01*
X146195737Y-131102981D01*
X146229434Y-131102982D01*
X146279980Y-131086132D01*
X146364224Y-131001889D01*
X146381073Y-130951343D01*
X146381073Y-130917645D01*
X147043472Y-131310468D02*
X146992927Y-131024040D01*
X147245657Y-131108283D02*
X146891835Y-130754461D01*
X146757045Y-130889251D01*
X146740197Y-130939797D01*
X146740197Y-130973495D01*
X146757045Y-131024041D01*
X146807591Y-131074587D01*
X146858138Y-131091435D01*
X146891835Y-131091435D01*
X146942381Y-131074586D01*
X147077170Y-130939797D01*
X159781544Y-117339593D02*
X159730998Y-117053165D01*
X159983728Y-117137408D02*
X159629906Y-116783586D01*
X159495117Y-116918376D01*
X159478268Y-116968922D01*
X159478268Y-117002620D01*
X159495117Y-117053166D01*
X159545663Y-117103712D01*
X159596209Y-117120560D01*
X159629907Y-117120560D01*
X159680452Y-117103711D01*
X159815241Y-116968922D01*
X159326631Y-117154257D02*
X159292933Y-117154257D01*
X159242387Y-117171105D01*
X159158143Y-117255349D01*
X159141294Y-117305895D01*
X159141295Y-117339593D01*
X159158143Y-117390139D01*
X159191841Y-117423836D01*
X159259236Y-117457533D01*
X159663603Y-117457533D01*
X159444570Y-117676566D01*
X158972808Y-117440684D02*
X158736926Y-117676566D01*
X159242387Y-117878750D01*
X158950656Y-117182652D02*
X158900111Y-116896224D01*
X159152841Y-116980467D02*
X158799019Y-116626645D01*
X158664229Y-116761435D01*
X158647381Y-116811981D01*
X158647381Y-116845679D01*
X158664229Y-116896225D01*
X158714775Y-116946771D01*
X158765322Y-116963619D01*
X158799019Y-116963619D01*
X158849565Y-116946770D01*
X158984354Y-116811981D01*
X121580433Y-108747862D02*
X121747227Y-108509586D01*
X121866365Y-108747862D02*
X121866365Y-108247482D01*
X121675744Y-108247482D01*
X121628089Y-108271310D01*
X121604261Y-108295138D01*
X121580433Y-108342793D01*
X121580433Y-108414276D01*
X121604261Y-108461931D01*
X121628089Y-108485759D01*
X121675744Y-108509586D01*
X121866365Y-108509586D01*
X121389813Y-108295138D02*
X121365985Y-108271310D01*
X121318330Y-108247482D01*
X121199192Y-108247482D01*
X121151536Y-108271310D01*
X121127709Y-108295138D01*
X121103881Y-108342793D01*
X121103881Y-108390448D01*
X121127709Y-108461931D01*
X121413640Y-108747862D01*
X121103881Y-108747862D01*
X120817950Y-108461931D02*
X120865605Y-108438103D01*
X120889433Y-108414276D01*
X120913261Y-108366620D01*
X120913261Y-108342793D01*
X120889433Y-108295138D01*
X120865605Y-108271310D01*
X120817950Y-108247482D01*
X120722640Y-108247482D01*
X120674984Y-108271310D01*
X120651157Y-108295138D01*
X120627329Y-108342793D01*
X120627329Y-108366620D01*
X120651157Y-108414276D01*
X120674984Y-108438103D01*
X120722640Y-108461931D01*
X120817950Y-108461931D01*
X120865605Y-108485759D01*
X120889433Y-108509586D01*
X120913261Y-108557241D01*
X120913261Y-108652552D01*
X120889433Y-108700207D01*
X120865605Y-108724035D01*
X120817950Y-108747862D01*
X120722640Y-108747862D01*
X120674984Y-108724035D01*
X120651157Y-108700207D01*
X120627329Y-108652552D01*
X120627329Y-108557241D01*
X120651157Y-108509586D01*
X120674984Y-108485759D01*
X120722640Y-108461931D01*
X121103881Y-108049362D02*
X121270675Y-107811086D01*
X121389813Y-108049362D02*
X121389813Y-107548982D01*
X121199192Y-107548982D01*
X121151537Y-107572810D01*
X121127709Y-107596638D01*
X121103881Y-107644293D01*
X121103881Y-107715776D01*
X121127709Y-107763431D01*
X121151537Y-107787259D01*
X121199192Y-107811086D01*
X121389813Y-107811086D01*
X121580433Y-110525862D02*
X121747227Y-110287586D01*
X121866365Y-110525862D02*
X121866365Y-110025482D01*
X121675744Y-110025482D01*
X121628089Y-110049310D01*
X121604261Y-110073138D01*
X121580433Y-110120793D01*
X121580433Y-110192276D01*
X121604261Y-110239931D01*
X121628089Y-110263759D01*
X121675744Y-110287586D01*
X121866365Y-110287586D01*
X121389813Y-110073138D02*
X121365985Y-110049310D01*
X121318330Y-110025482D01*
X121199192Y-110025482D01*
X121151536Y-110049310D01*
X121127709Y-110073138D01*
X121103881Y-110120793D01*
X121103881Y-110168448D01*
X121127709Y-110239931D01*
X121413640Y-110525862D01*
X121103881Y-110525862D01*
X120865605Y-110525862D02*
X120770295Y-110525862D01*
X120722640Y-110502035D01*
X120698812Y-110478207D01*
X120651157Y-110406724D01*
X120627329Y-110311414D01*
X120627329Y-110120793D01*
X120651157Y-110073138D01*
X120674984Y-110049310D01*
X120722640Y-110025482D01*
X120817950Y-110025482D01*
X120865605Y-110049310D01*
X120889433Y-110073138D01*
X120913261Y-110120793D01*
X120913261Y-110239931D01*
X120889433Y-110287586D01*
X120865605Y-110311414D01*
X120817950Y-110335241D01*
X120722640Y-110335241D01*
X120674984Y-110311414D01*
X120651157Y-110287586D01*
X120627329Y-110239931D01*
X121103881Y-109827362D02*
X121270675Y-109589086D01*
X121389813Y-109827362D02*
X121389813Y-109326982D01*
X121199192Y-109326982D01*
X121151537Y-109350810D01*
X121127709Y-109374638D01*
X121103881Y-109422293D01*
X121103881Y-109493776D01*
X121127709Y-109541431D01*
X121151537Y-109565259D01*
X121199192Y-109589086D01*
X121389813Y-109589086D01*
X121580433Y-112303862D02*
X121747227Y-112065586D01*
X121866365Y-112303862D02*
X121866365Y-111803482D01*
X121675744Y-111803482D01*
X121628089Y-111827310D01*
X121604261Y-111851138D01*
X121580433Y-111898793D01*
X121580433Y-111970276D01*
X121604261Y-112017931D01*
X121628089Y-112041759D01*
X121675744Y-112065586D01*
X121866365Y-112065586D01*
X121413640Y-111803482D02*
X121103881Y-111803482D01*
X121270674Y-111994103D01*
X121199192Y-111994103D01*
X121151536Y-112017931D01*
X121127709Y-112041759D01*
X121103881Y-112089414D01*
X121103881Y-112208552D01*
X121127709Y-112256207D01*
X121151536Y-112280035D01*
X121199192Y-112303862D01*
X121342157Y-112303862D01*
X121389813Y-112280035D01*
X121413640Y-112256207D01*
X120794122Y-111803482D02*
X120746467Y-111803482D01*
X120698812Y-111827310D01*
X120674984Y-111851138D01*
X120651157Y-111898793D01*
X120627329Y-111994103D01*
X120627329Y-112113241D01*
X120651157Y-112208552D01*
X120674984Y-112256207D01*
X120698812Y-112280035D01*
X120746467Y-112303862D01*
X120794122Y-112303862D01*
X120841778Y-112280035D01*
X120865605Y-112256207D01*
X120889433Y-112208552D01*
X120913261Y-112113241D01*
X120913261Y-111994103D01*
X120889433Y-111898793D01*
X120865605Y-111851138D01*
X120841778Y-111827310D01*
X120794122Y-111803482D01*
X121103881Y-111605362D02*
X121270675Y-111367086D01*
X121389813Y-111605362D02*
X121389813Y-111104982D01*
X121199192Y-111104982D01*
X121151537Y-111128810D01*
X121127709Y-111152638D01*
X121103881Y-111200293D01*
X121103881Y-111271776D01*
X121127709Y-111319431D01*
X121151537Y-111343259D01*
X121199192Y-111367086D01*
X121389813Y-111367086D01*
X121580433Y-114081862D02*
X121747227Y-113843586D01*
X121866365Y-114081862D02*
X121866365Y-113581482D01*
X121675744Y-113581482D01*
X121628089Y-113605310D01*
X121604261Y-113629138D01*
X121580433Y-113676793D01*
X121580433Y-113748276D01*
X121604261Y-113795931D01*
X121628089Y-113819759D01*
X121675744Y-113843586D01*
X121866365Y-113843586D01*
X121413640Y-113581482D02*
X121103881Y-113581482D01*
X121270674Y-113772103D01*
X121199192Y-113772103D01*
X121151536Y-113795931D01*
X121127709Y-113819759D01*
X121103881Y-113867414D01*
X121103881Y-113986552D01*
X121127709Y-114034207D01*
X121151536Y-114058035D01*
X121199192Y-114081862D01*
X121342157Y-114081862D01*
X121389813Y-114058035D01*
X121413640Y-114034207D01*
X120627329Y-114081862D02*
X120913261Y-114081862D01*
X120770295Y-114081862D02*
X120770295Y-113581482D01*
X120817950Y-113652965D01*
X120865605Y-113700620D01*
X120913261Y-113724448D01*
X121103881Y-113383362D02*
X121270675Y-113145086D01*
X121389813Y-113383362D02*
X121389813Y-112882982D01*
X121199192Y-112882982D01*
X121151537Y-112906810D01*
X121127709Y-112930638D01*
X121103881Y-112978293D01*
X121103881Y-113049776D01*
X121127709Y-113097431D01*
X121151537Y-113121259D01*
X121199192Y-113145086D01*
X121389813Y-113145086D01*
X95000172Y-113573862D02*
X95166966Y-113335586D01*
X95286104Y-113573862D02*
X95286104Y-113073482D01*
X95095483Y-113073482D01*
X95047828Y-113097310D01*
X95024000Y-113121138D01*
X95000172Y-113168793D01*
X95000172Y-113240276D01*
X95024000Y-113287931D01*
X95047828Y-113311759D01*
X95095483Y-113335586D01*
X95286104Y-113335586D01*
X94833379Y-113073482D02*
X94523620Y-113073482D01*
X94690413Y-113264103D01*
X94618931Y-113264103D01*
X94571275Y-113287931D01*
X94547448Y-113311759D01*
X94523620Y-113359414D01*
X94523620Y-113478552D01*
X94547448Y-113526207D01*
X94571275Y-113550035D01*
X94618931Y-113573862D01*
X94761896Y-113573862D01*
X94809552Y-113550035D01*
X94833379Y-113526207D01*
X94333000Y-113121138D02*
X94309172Y-113097310D01*
X94261517Y-113073482D01*
X94142379Y-113073482D01*
X94094723Y-113097310D01*
X94070896Y-113121138D01*
X94047068Y-113168793D01*
X94047068Y-113216448D01*
X94070896Y-113287931D01*
X94356827Y-113573862D01*
X94047068Y-113573862D01*
X94523620Y-112875362D02*
X94690414Y-112637086D01*
X94809552Y-112875362D02*
X94809552Y-112374982D01*
X94618931Y-112374982D01*
X94571276Y-112398810D01*
X94547448Y-112422638D01*
X94523620Y-112470293D01*
X94523620Y-112541776D01*
X94547448Y-112589431D01*
X94571276Y-112613259D01*
X94618931Y-112637086D01*
X94809552Y-112637086D01*
X100873862Y-115565828D02*
X100635586Y-115399034D01*
X100873862Y-115279896D02*
X100373482Y-115279896D01*
X100373482Y-115470517D01*
X100397310Y-115518172D01*
X100421138Y-115542000D01*
X100468793Y-115565828D01*
X100540276Y-115565828D01*
X100587931Y-115542000D01*
X100611759Y-115518172D01*
X100635586Y-115470517D01*
X100635586Y-115279896D01*
X100373482Y-115732621D02*
X100373482Y-116042380D01*
X100564103Y-115875587D01*
X100564103Y-115947069D01*
X100587931Y-115994725D01*
X100611759Y-116018552D01*
X100659414Y-116042380D01*
X100778552Y-116042380D01*
X100826207Y-116018552D01*
X100850035Y-115994725D01*
X100873862Y-115947069D01*
X100873862Y-115804104D01*
X100850035Y-115756448D01*
X100826207Y-115732621D01*
X100373482Y-116209173D02*
X100373482Y-116518932D01*
X100564103Y-116352139D01*
X100564103Y-116423621D01*
X100587931Y-116471277D01*
X100611759Y-116495104D01*
X100659414Y-116518932D01*
X100778552Y-116518932D01*
X100826207Y-116495104D01*
X100850035Y-116471277D01*
X100873862Y-116423621D01*
X100873862Y-116280656D01*
X100850035Y-116233000D01*
X100826207Y-116209173D01*
X100175362Y-116042380D02*
X99937086Y-115875586D01*
X100175362Y-115756448D02*
X99674982Y-115756448D01*
X99674982Y-115947069D01*
X99698810Y-115994724D01*
X99722638Y-116018552D01*
X99770293Y-116042380D01*
X99841776Y-116042380D01*
X99889431Y-116018552D01*
X99913259Y-115994724D01*
X99937086Y-115947069D01*
X99937086Y-115756448D01*
X102905862Y-115565828D02*
X102667586Y-115399034D01*
X102905862Y-115279896D02*
X102405482Y-115279896D01*
X102405482Y-115470517D01*
X102429310Y-115518172D01*
X102453138Y-115542000D01*
X102500793Y-115565828D01*
X102572276Y-115565828D01*
X102619931Y-115542000D01*
X102643759Y-115518172D01*
X102667586Y-115470517D01*
X102667586Y-115279896D01*
X102405482Y-115732621D02*
X102405482Y-116042380D01*
X102596103Y-115875587D01*
X102596103Y-115947069D01*
X102619931Y-115994725D01*
X102643759Y-116018552D01*
X102691414Y-116042380D01*
X102810552Y-116042380D01*
X102858207Y-116018552D01*
X102882035Y-115994725D01*
X102905862Y-115947069D01*
X102905862Y-115804104D01*
X102882035Y-115756448D01*
X102858207Y-115732621D01*
X102572276Y-116471277D02*
X102905862Y-116471277D01*
X102381655Y-116352139D02*
X102739069Y-116233000D01*
X102739069Y-116542760D01*
X102207362Y-116042380D02*
X101969086Y-115875586D01*
X102207362Y-115756448D02*
X101706982Y-115756448D01*
X101706982Y-115947069D01*
X101730810Y-115994724D01*
X101754638Y-116018552D01*
X101802293Y-116042380D01*
X101873776Y-116042380D01*
X101921431Y-116018552D01*
X101945259Y-115994724D01*
X101969086Y-115947069D01*
X101969086Y-115756448D01*
X109224172Y-112938862D02*
X109390966Y-112700586D01*
X109510104Y-112938862D02*
X109510104Y-112438482D01*
X109319483Y-112438482D01*
X109271828Y-112462310D01*
X109248000Y-112486138D01*
X109224172Y-112533793D01*
X109224172Y-112605276D01*
X109248000Y-112652931D01*
X109271828Y-112676759D01*
X109319483Y-112700586D01*
X109510104Y-112700586D01*
X109057379Y-112438482D02*
X108747620Y-112438482D01*
X108914413Y-112629103D01*
X108842931Y-112629103D01*
X108795275Y-112652931D01*
X108771448Y-112676759D01*
X108747620Y-112724414D01*
X108747620Y-112843552D01*
X108771448Y-112891207D01*
X108795275Y-112915035D01*
X108842931Y-112938862D01*
X108985896Y-112938862D01*
X109033552Y-112915035D01*
X109057379Y-112891207D01*
X108294896Y-112438482D02*
X108533172Y-112438482D01*
X108557000Y-112676759D01*
X108533172Y-112652931D01*
X108485517Y-112629103D01*
X108366379Y-112629103D01*
X108318723Y-112652931D01*
X108294896Y-112676759D01*
X108271068Y-112724414D01*
X108271068Y-112843552D01*
X108294896Y-112891207D01*
X108318723Y-112915035D01*
X108366379Y-112938862D01*
X108485517Y-112938862D01*
X108533172Y-112915035D01*
X108557000Y-112891207D01*
X108747620Y-113637362D02*
X108914414Y-113399086D01*
X109033552Y-113637362D02*
X109033552Y-113136982D01*
X108842931Y-113136982D01*
X108795276Y-113160810D01*
X108771448Y-113184638D01*
X108747620Y-113232293D01*
X108747620Y-113303776D01*
X108771448Y-113351431D01*
X108795276Y-113375259D01*
X108842931Y-113399086D01*
X109033552Y-113399086D01*
X135894172Y-66583862D02*
X136060966Y-66345586D01*
X136180104Y-66583862D02*
X136180104Y-66083482D01*
X135989483Y-66083482D01*
X135941828Y-66107310D01*
X135918000Y-66131138D01*
X135894172Y-66178793D01*
X135894172Y-66250276D01*
X135918000Y-66297931D01*
X135941828Y-66321759D01*
X135989483Y-66345586D01*
X136180104Y-66345586D01*
X135727379Y-66083482D02*
X135417620Y-66083482D01*
X135584413Y-66274103D01*
X135512931Y-66274103D01*
X135465275Y-66297931D01*
X135441448Y-66321759D01*
X135417620Y-66369414D01*
X135417620Y-66488552D01*
X135441448Y-66536207D01*
X135465275Y-66560035D01*
X135512931Y-66583862D01*
X135655896Y-66583862D01*
X135703552Y-66560035D01*
X135727379Y-66536207D01*
X134988723Y-66083482D02*
X135084034Y-66083482D01*
X135131689Y-66107310D01*
X135155517Y-66131138D01*
X135203172Y-66202620D01*
X135227000Y-66297931D01*
X135227000Y-66488552D01*
X135203172Y-66536207D01*
X135179344Y-66560035D01*
X135131689Y-66583862D01*
X135036379Y-66583862D01*
X134988723Y-66560035D01*
X134964896Y-66536207D01*
X134941068Y-66488552D01*
X134941068Y-66369414D01*
X134964896Y-66321759D01*
X134988723Y-66297931D01*
X135036379Y-66274103D01*
X135131689Y-66274103D01*
X135179344Y-66297931D01*
X135203172Y-66321759D01*
X135227000Y-66369414D01*
X135417620Y-67282362D02*
X135584414Y-67044086D01*
X135703552Y-67282362D02*
X135703552Y-66781982D01*
X135512931Y-66781982D01*
X135465276Y-66805810D01*
X135441448Y-66829638D01*
X135417620Y-66877293D01*
X135417620Y-66948776D01*
X135441448Y-66996431D01*
X135465276Y-67020259D01*
X135512931Y-67044086D01*
X135703552Y-67044086D01*
X124781672Y-69123862D02*
X124948466Y-68885586D01*
X125067604Y-69123862D02*
X125067604Y-68623482D01*
X124876983Y-68623482D01*
X124829328Y-68647310D01*
X124805500Y-68671138D01*
X124781672Y-68718793D01*
X124781672Y-68790276D01*
X124805500Y-68837931D01*
X124829328Y-68861759D01*
X124876983Y-68885586D01*
X125067604Y-68885586D01*
X124614879Y-68623482D02*
X124305120Y-68623482D01*
X124471913Y-68814103D01*
X124400431Y-68814103D01*
X124352775Y-68837931D01*
X124328948Y-68861759D01*
X124305120Y-68909414D01*
X124305120Y-69028552D01*
X124328948Y-69076207D01*
X124352775Y-69100035D01*
X124400431Y-69123862D01*
X124543396Y-69123862D01*
X124591052Y-69100035D01*
X124614879Y-69076207D01*
X124138327Y-68623482D02*
X123804740Y-68623482D01*
X124019189Y-69123862D01*
X124305120Y-68425362D02*
X124471914Y-68187086D01*
X124591052Y-68425362D02*
X124591052Y-67924982D01*
X124400431Y-67924982D01*
X124352776Y-67948810D01*
X124328948Y-67972638D01*
X124305120Y-68020293D01*
X124305120Y-68091776D01*
X124328948Y-68139431D01*
X124352776Y-68163259D01*
X124400431Y-68187086D01*
X124591052Y-68187086D01*
X124781672Y-66583862D02*
X124948466Y-66345586D01*
X125067604Y-66583862D02*
X125067604Y-66083482D01*
X124876983Y-66083482D01*
X124829328Y-66107310D01*
X124805500Y-66131138D01*
X124781672Y-66178793D01*
X124781672Y-66250276D01*
X124805500Y-66297931D01*
X124829328Y-66321759D01*
X124876983Y-66345586D01*
X125067604Y-66345586D01*
X124614879Y-66083482D02*
X124305120Y-66083482D01*
X124471913Y-66274103D01*
X124400431Y-66274103D01*
X124352775Y-66297931D01*
X124328948Y-66321759D01*
X124305120Y-66369414D01*
X124305120Y-66488552D01*
X124328948Y-66536207D01*
X124352775Y-66560035D01*
X124400431Y-66583862D01*
X124543396Y-66583862D01*
X124591052Y-66560035D01*
X124614879Y-66536207D01*
X124019189Y-66297931D02*
X124066844Y-66274103D01*
X124090672Y-66250276D01*
X124114500Y-66202620D01*
X124114500Y-66178793D01*
X124090672Y-66131138D01*
X124066844Y-66107310D01*
X124019189Y-66083482D01*
X123923879Y-66083482D01*
X123876223Y-66107310D01*
X123852396Y-66131138D01*
X123828568Y-66178793D01*
X123828568Y-66202620D01*
X123852396Y-66250276D01*
X123876223Y-66274103D01*
X123923879Y-66297931D01*
X124019189Y-66297931D01*
X124066844Y-66321759D01*
X124090672Y-66345586D01*
X124114500Y-66393241D01*
X124114500Y-66488552D01*
X124090672Y-66536207D01*
X124066844Y-66560035D01*
X124019189Y-66583862D01*
X123923879Y-66583862D01*
X123876223Y-66560035D01*
X123852396Y-66536207D01*
X123828568Y-66488552D01*
X123828568Y-66393241D01*
X123852396Y-66345586D01*
X123876223Y-66321759D01*
X123923879Y-66297931D01*
X124305120Y-67282362D02*
X124471914Y-67044086D01*
X124591052Y-67282362D02*
X124591052Y-66781982D01*
X124400431Y-66781982D01*
X124352776Y-66805810D01*
X124328948Y-66829638D01*
X124305120Y-66877293D01*
X124305120Y-66948776D01*
X124328948Y-66996431D01*
X124352776Y-67020259D01*
X124400431Y-67044086D01*
X124591052Y-67044086D01*
D21*
X60023829Y-54718857D02*
X61257543Y-54718857D01*
X61402686Y-54791429D01*
X61475257Y-54864000D01*
X61547829Y-55009143D01*
X61547829Y-55299429D01*
X61475257Y-55444571D01*
X61402686Y-55517143D01*
X61257543Y-55589714D01*
X60023829Y-55589714D01*
X61547829Y-57113714D02*
X61547829Y-56242857D01*
X61547829Y-56678285D02*
X60023829Y-56678285D01*
X60241543Y-56533142D01*
X60386686Y-56388000D01*
X60459257Y-56242857D01*
X106727535Y-124260429D02*
X105711535Y-124260429D01*
X106727535Y-125784429D01*
X105711535Y-125784429D01*
X104332677Y-125784429D02*
X105203534Y-125784429D01*
X104768106Y-125784429D02*
X104768106Y-124260429D01*
X104913249Y-124478143D01*
X105058391Y-124623286D01*
X105203534Y-124695857D01*
X99023715Y-117275429D02*
X98007715Y-117275429D01*
X99023715Y-118799429D01*
X98007715Y-118799429D01*
X97499714Y-117420571D02*
X97427143Y-117348000D01*
X97282000Y-117275429D01*
X96919143Y-117275429D01*
X96774000Y-117348000D01*
X96701429Y-117420571D01*
X96628857Y-117565714D01*
X96628857Y-117710857D01*
X96701429Y-117928571D01*
X97572286Y-118799429D01*
X96628857Y-118799429D01*
D15*
X83420857Y-96864714D02*
X83674857Y-96501857D01*
X83856285Y-96864714D02*
X83856285Y-96102714D01*
X83566000Y-96102714D01*
X83493428Y-96139000D01*
X83457143Y-96175286D01*
X83420857Y-96247857D01*
X83420857Y-96356714D01*
X83457143Y-96429286D01*
X83493428Y-96465571D01*
X83566000Y-96501857D01*
X83856285Y-96501857D01*
X82767714Y-96356714D02*
X82767714Y-96864714D01*
X82949143Y-96066429D02*
X83130571Y-96610714D01*
X82658857Y-96610714D01*
X82042000Y-96356714D02*
X82042000Y-96864714D01*
X82223429Y-96066429D02*
X82404857Y-96610714D01*
X81933143Y-96610714D01*
X76435857Y-100039714D02*
X76689857Y-99676857D01*
X76871285Y-100039714D02*
X76871285Y-99277714D01*
X76581000Y-99277714D01*
X76508428Y-99314000D01*
X76472143Y-99350286D01*
X76435857Y-99422857D01*
X76435857Y-99531714D01*
X76472143Y-99604286D01*
X76508428Y-99640571D01*
X76581000Y-99676857D01*
X76871285Y-99676857D01*
X75782714Y-99531714D02*
X75782714Y-100039714D01*
X75964143Y-99241429D02*
X76145571Y-99785714D01*
X75673857Y-99785714D01*
X75456143Y-99277714D02*
X74984429Y-99277714D01*
X75238429Y-99568000D01*
X75129571Y-99568000D01*
X75057000Y-99604286D01*
X75020714Y-99640571D01*
X74984429Y-99713143D01*
X74984429Y-99894571D01*
X75020714Y-99967143D01*
X75057000Y-100003429D01*
X75129571Y-100039714D01*
X75347286Y-100039714D01*
X75419857Y-100003429D01*
X75456143Y-99967143D01*
X83420857Y-93054714D02*
X83674857Y-92691857D01*
X83856285Y-93054714D02*
X83856285Y-92292714D01*
X83566000Y-92292714D01*
X83493428Y-92329000D01*
X83457143Y-92365286D01*
X83420857Y-92437857D01*
X83420857Y-92546714D01*
X83457143Y-92619286D01*
X83493428Y-92655571D01*
X83566000Y-92691857D01*
X83856285Y-92691857D01*
X82767714Y-92546714D02*
X82767714Y-93054714D01*
X82949143Y-92256429D02*
X83130571Y-92800714D01*
X82658857Y-92800714D01*
X82005714Y-92292714D02*
X82368571Y-92292714D01*
X82404857Y-92655571D01*
X82368571Y-92619286D01*
X82296000Y-92583000D01*
X82114571Y-92583000D01*
X82042000Y-92619286D01*
X82005714Y-92655571D01*
X81969429Y-92728143D01*
X81969429Y-92909571D01*
X82005714Y-92982143D01*
X82042000Y-93018429D01*
X82114571Y-93054714D01*
X82296000Y-93054714D01*
X82368571Y-93018429D01*
X82404857Y-92982143D01*
X71464714Y-114064143D02*
X71101857Y-113810143D01*
X71464714Y-113628715D02*
X70702714Y-113628715D01*
X70702714Y-113919000D01*
X70739000Y-113991572D01*
X70775286Y-114027857D01*
X70847857Y-114064143D01*
X70956714Y-114064143D01*
X71029286Y-114027857D01*
X71065571Y-113991572D01*
X71101857Y-113919000D01*
X71101857Y-113628715D01*
X70702714Y-114753572D02*
X70702714Y-114390715D01*
X71065571Y-114354429D01*
X71029286Y-114390715D01*
X70993000Y-114463286D01*
X70993000Y-114644715D01*
X71029286Y-114717286D01*
X71065571Y-114753572D01*
X71138143Y-114789857D01*
X71319571Y-114789857D01*
X71392143Y-114753572D01*
X71428429Y-114717286D01*
X71464714Y-114644715D01*
X71464714Y-114463286D01*
X71428429Y-114390715D01*
X71392143Y-114354429D01*
X71464714Y-115515571D02*
X71464714Y-115080143D01*
X71464714Y-115297857D02*
X70702714Y-115297857D01*
X70811571Y-115225286D01*
X70884143Y-115152714D01*
X70920429Y-115080143D01*
X105899857Y-141949714D02*
X106153857Y-141586857D01*
X106335285Y-141949714D02*
X106335285Y-141187714D01*
X106045000Y-141187714D01*
X105972428Y-141224000D01*
X105936143Y-141260286D01*
X105899857Y-141332857D01*
X105899857Y-141441714D01*
X105936143Y-141514286D01*
X105972428Y-141550571D01*
X106045000Y-141586857D01*
X106335285Y-141586857D01*
X105246714Y-141441714D02*
X105246714Y-141949714D01*
X105428143Y-141151429D02*
X105609571Y-141695714D01*
X105137857Y-141695714D01*
X104738714Y-141514286D02*
X104811286Y-141478000D01*
X104847571Y-141441714D01*
X104883857Y-141369143D01*
X104883857Y-141332857D01*
X104847571Y-141260286D01*
X104811286Y-141224000D01*
X104738714Y-141187714D01*
X104593571Y-141187714D01*
X104521000Y-141224000D01*
X104484714Y-141260286D01*
X104448429Y-141332857D01*
X104448429Y-141369143D01*
X104484714Y-141441714D01*
X104521000Y-141478000D01*
X104593571Y-141514286D01*
X104738714Y-141514286D01*
X104811286Y-141550571D01*
X104847571Y-141586857D01*
X104883857Y-141659429D01*
X104883857Y-141804571D01*
X104847571Y-141877143D01*
X104811286Y-141913429D01*
X104738714Y-141949714D01*
X104593571Y-141949714D01*
X104521000Y-141913429D01*
X104484714Y-141877143D01*
X104448429Y-141804571D01*
X104448429Y-141659429D01*
X104484714Y-141586857D01*
X104521000Y-141550571D01*
X104593571Y-141514286D01*
X116694857Y-140044714D02*
X116948857Y-139681857D01*
X117130285Y-140044714D02*
X117130285Y-139282714D01*
X116840000Y-139282714D01*
X116767428Y-139319000D01*
X116731143Y-139355286D01*
X116694857Y-139427857D01*
X116694857Y-139536714D01*
X116731143Y-139609286D01*
X116767428Y-139645571D01*
X116840000Y-139681857D01*
X117130285Y-139681857D01*
X116041714Y-139536714D02*
X116041714Y-140044714D01*
X116223143Y-139246429D02*
X116404571Y-139790714D01*
X115932857Y-139790714D01*
X115316000Y-139282714D02*
X115461143Y-139282714D01*
X115533714Y-139319000D01*
X115570000Y-139355286D01*
X115642571Y-139464143D01*
X115678857Y-139609286D01*
X115678857Y-139899571D01*
X115642571Y-139972143D01*
X115606286Y-140008429D01*
X115533714Y-140044714D01*
X115388571Y-140044714D01*
X115316000Y-140008429D01*
X115279714Y-139972143D01*
X115243429Y-139899571D01*
X115243429Y-139718143D01*
X115279714Y-139645571D01*
X115316000Y-139609286D01*
X115388571Y-139573000D01*
X115533714Y-139573000D01*
X115606286Y-139609286D01*
X115642571Y-139645571D01*
X115678857Y-139718143D01*
X126854857Y-150966714D02*
X127108857Y-150603857D01*
X127290285Y-150966714D02*
X127290285Y-150204714D01*
X127000000Y-150204714D01*
X126927428Y-150241000D01*
X126891143Y-150277286D01*
X126854857Y-150349857D01*
X126854857Y-150458714D01*
X126891143Y-150531286D01*
X126927428Y-150567571D01*
X127000000Y-150603857D01*
X127290285Y-150603857D01*
X126201714Y-150458714D02*
X126201714Y-150966714D01*
X126383143Y-150168429D02*
X126564571Y-150712714D01*
X126092857Y-150712714D01*
X125875143Y-150204714D02*
X125367143Y-150204714D01*
X125693714Y-150966714D01*
X116694857Y-144108714D02*
X116948857Y-143745857D01*
X117130285Y-144108714D02*
X117130285Y-143346714D01*
X116840000Y-143346714D01*
X116767428Y-143383000D01*
X116731143Y-143419286D01*
X116694857Y-143491857D01*
X116694857Y-143600714D01*
X116731143Y-143673286D01*
X116767428Y-143709571D01*
X116840000Y-143745857D01*
X117130285Y-143745857D01*
X116005428Y-143346714D02*
X116368285Y-143346714D01*
X116404571Y-143709571D01*
X116368285Y-143673286D01*
X116295714Y-143637000D01*
X116114285Y-143637000D01*
X116041714Y-143673286D01*
X116005428Y-143709571D01*
X115969143Y-143782143D01*
X115969143Y-143963571D01*
X116005428Y-144036143D01*
X116041714Y-144072429D01*
X116114285Y-144108714D01*
X116295714Y-144108714D01*
X116368285Y-144072429D01*
X116404571Y-144036143D01*
X115497429Y-143346714D02*
X115424857Y-143346714D01*
X115352286Y-143383000D01*
X115316000Y-143419286D01*
X115279714Y-143491857D01*
X115243429Y-143637000D01*
X115243429Y-143818429D01*
X115279714Y-143963571D01*
X115316000Y-144036143D01*
X115352286Y-144072429D01*
X115424857Y-144108714D01*
X115497429Y-144108714D01*
X115570000Y-144072429D01*
X115606286Y-144036143D01*
X115642571Y-143963571D01*
X115678857Y-143818429D01*
X115678857Y-143637000D01*
X115642571Y-143491857D01*
X115606286Y-143419286D01*
X115570000Y-143383000D01*
X115497429Y-143346714D01*
X144634857Y-135726714D02*
X144888857Y-135363857D01*
X145070285Y-135726714D02*
X145070285Y-134964714D01*
X144780000Y-134964714D01*
X144707428Y-135001000D01*
X144671143Y-135037286D01*
X144634857Y-135109857D01*
X144634857Y-135218714D01*
X144671143Y-135291286D01*
X144707428Y-135327571D01*
X144780000Y-135363857D01*
X145070285Y-135363857D01*
X143981714Y-135218714D02*
X143981714Y-135726714D01*
X144163143Y-134928429D02*
X144344571Y-135472714D01*
X143872857Y-135472714D01*
X143546286Y-135726714D02*
X143401143Y-135726714D01*
X143328571Y-135690429D01*
X143292286Y-135654143D01*
X143219714Y-135545286D01*
X143183429Y-135400143D01*
X143183429Y-135109857D01*
X143219714Y-135037286D01*
X143256000Y-135001000D01*
X143328571Y-134964714D01*
X143473714Y-134964714D01*
X143546286Y-135001000D01*
X143582571Y-135037286D01*
X143618857Y-135109857D01*
X143618857Y-135291286D01*
X143582571Y-135363857D01*
X143546286Y-135400143D01*
X143473714Y-135436429D01*
X143328571Y-135436429D01*
X143256000Y-135400143D01*
X143219714Y-135363857D01*
X143183429Y-135291286D01*
X121629714Y-143274143D02*
X121266857Y-143020143D01*
X121629714Y-142838715D02*
X120867714Y-142838715D01*
X120867714Y-143129000D01*
X120904000Y-143201572D01*
X120940286Y-143237857D01*
X121012857Y-143274143D01*
X121121714Y-143274143D01*
X121194286Y-143237857D01*
X121230571Y-143201572D01*
X121266857Y-143129000D01*
X121266857Y-142838715D01*
X120867714Y-143963572D02*
X120867714Y-143600715D01*
X121230571Y-143564429D01*
X121194286Y-143600715D01*
X121158000Y-143673286D01*
X121158000Y-143854715D01*
X121194286Y-143927286D01*
X121230571Y-143963572D01*
X121303143Y-143999857D01*
X121484571Y-143999857D01*
X121557143Y-143963572D01*
X121593429Y-143927286D01*
X121629714Y-143854715D01*
X121629714Y-143673286D01*
X121593429Y-143600715D01*
X121557143Y-143564429D01*
X120940286Y-144290143D02*
X120904000Y-144326429D01*
X120867714Y-144399000D01*
X120867714Y-144580429D01*
X120904000Y-144653000D01*
X120940286Y-144689286D01*
X121012857Y-144725571D01*
X121085429Y-144725571D01*
X121194286Y-144689286D01*
X121629714Y-144253857D01*
X121629714Y-144725571D01*
X137903857Y-142584714D02*
X138157857Y-142221857D01*
X138339285Y-142584714D02*
X138339285Y-141822714D01*
X138049000Y-141822714D01*
X137976428Y-141859000D01*
X137940143Y-141895286D01*
X137903857Y-141967857D01*
X137903857Y-142076714D01*
X137940143Y-142149286D01*
X137976428Y-142185571D01*
X138049000Y-142221857D01*
X138339285Y-142221857D01*
X137214428Y-141822714D02*
X137577285Y-141822714D01*
X137613571Y-142185571D01*
X137577285Y-142149286D01*
X137504714Y-142113000D01*
X137323285Y-142113000D01*
X137250714Y-142149286D01*
X137214428Y-142185571D01*
X137178143Y-142258143D01*
X137178143Y-142439571D01*
X137214428Y-142512143D01*
X137250714Y-142548429D01*
X137323285Y-142584714D01*
X137504714Y-142584714D01*
X137577285Y-142548429D01*
X137613571Y-142512143D01*
X136924143Y-141822714D02*
X136452429Y-141822714D01*
X136706429Y-142113000D01*
X136597571Y-142113000D01*
X136525000Y-142149286D01*
X136488714Y-142185571D01*
X136452429Y-142258143D01*
X136452429Y-142439571D01*
X136488714Y-142512143D01*
X136525000Y-142548429D01*
X136597571Y-142584714D01*
X136815286Y-142584714D01*
X136887857Y-142548429D01*
X136924143Y-142512143D01*
X84799714Y-112159143D02*
X84436857Y-111905143D01*
X84799714Y-111723715D02*
X84037714Y-111723715D01*
X84037714Y-112014000D01*
X84074000Y-112086572D01*
X84110286Y-112122857D01*
X84182857Y-112159143D01*
X84291714Y-112159143D01*
X84364286Y-112122857D01*
X84400571Y-112086572D01*
X84436857Y-112014000D01*
X84436857Y-111723715D01*
X84037714Y-112848572D02*
X84037714Y-112485715D01*
X84400571Y-112449429D01*
X84364286Y-112485715D01*
X84328000Y-112558286D01*
X84328000Y-112739715D01*
X84364286Y-112812286D01*
X84400571Y-112848572D01*
X84473143Y-112884857D01*
X84654571Y-112884857D01*
X84727143Y-112848572D01*
X84763429Y-112812286D01*
X84799714Y-112739715D01*
X84799714Y-112558286D01*
X84763429Y-112485715D01*
X84727143Y-112449429D01*
X84291714Y-113538000D02*
X84799714Y-113538000D01*
X84001429Y-113356571D02*
X84545714Y-113175143D01*
X84545714Y-113646857D01*
M02*
