G04 #@! TF.FileFunction,Copper,L1,Top,Signal*
%FSLAX46Y46*%
G04 Gerber Fmt 4.6, Leading zero omitted, Abs format (unit mm)*
G04 Created by KiCad (PCBNEW (2015-10-27 BZR 6284, Git 48df08c)-product) date Wed 09 Dec 2015 03:30:12 AM CET*
%MOMM*%
G01*
G04 APERTURE LIST*
%ADD10C,0.100000*%
%ADD11R,2.199640X1.524000*%
%ADD12O,2.199640X1.524000*%
%ADD13R,1.524000X2.199640*%
%ADD14O,1.524000X2.199640*%
%ADD15C,1.998980*%
%ADD16O,1.998980X4.000500*%
%ADD17O,4.000500X1.998980*%
%ADD18O,4.500880X1.998980*%
%ADD19R,1.905000X1.905000*%
%ADD20C,1.905000*%
%ADD21O,1.500000X2.000000*%
%ADD22R,1.500000X2.000000*%
%ADD23O,2.000000X1.500000*%
%ADD24R,2.000000X1.500000*%
%ADD25C,4.000000*%
%ADD26C,3.000000*%
%ADD27O,2.500000X3.500000*%
%ADD28C,2.400000*%
%ADD29R,0.797560X0.797560*%
%ADD30R,0.889000X1.397000*%
%ADD31R,1.500000X1.100000*%
%ADD32O,3.900000X5.000000*%
%ADD33C,6.000000*%
%ADD34C,1.270000*%
%ADD35C,0.300000*%
%ADD36C,1.000000*%
%ADD37C,0.500000*%
%ADD38C,0.254000*%
G04 APERTURE END LIST*
D10*
D11*
X179070000Y-102235000D03*
D12*
X179070000Y-104775000D03*
X179070000Y-107315000D03*
X179070000Y-109855000D03*
X179070000Y-112395000D03*
X179070000Y-114935000D03*
D11*
X170180000Y-102235000D03*
D12*
X170180000Y-104775000D03*
X170180000Y-107315000D03*
X170180000Y-109855000D03*
X170180000Y-112395000D03*
X170180000Y-114935000D03*
D13*
X92710000Y-139065000D03*
D14*
X95250000Y-139065000D03*
X97790000Y-139065000D03*
X100330000Y-139065000D03*
X102870000Y-139065000D03*
X105410000Y-139065000D03*
D15*
X125603000Y-124968000D03*
X120523000Y-124968000D03*
D16*
X162145980Y-141914880D03*
D17*
X156845000Y-145166080D03*
D18*
X156845000Y-139164060D03*
D19*
X116205000Y-119380000D03*
D20*
X116205000Y-114300000D03*
D21*
X95250000Y-126115000D03*
X95250000Y-129155000D03*
X97790000Y-129155000D03*
X97790000Y-126115000D03*
D22*
X105410000Y-126115000D03*
D21*
X105410000Y-129155000D03*
X102870000Y-126115000D03*
X102870000Y-129155000D03*
X100330000Y-126115000D03*
X100330000Y-129155000D03*
D13*
X136525000Y-139065000D03*
D14*
X139065000Y-139065000D03*
X141605000Y-139065000D03*
X144145000Y-139065000D03*
X146685000Y-139065000D03*
X149225000Y-139065000D03*
D13*
X128905000Y-147955000D03*
D14*
X126365000Y-147955000D03*
X123825000Y-147955000D03*
X121285000Y-147955000D03*
X118745000Y-147955000D03*
X116205000Y-147955000D03*
D11*
X67945000Y-106045000D03*
D12*
X67945000Y-108585000D03*
X67945000Y-111125000D03*
X67945000Y-113665000D03*
X67945000Y-116205000D03*
X67945000Y-118745000D03*
D23*
X71370000Y-62230000D03*
X68330000Y-62230000D03*
X68330000Y-64770000D03*
X71370000Y-64770000D03*
D24*
X71370000Y-72390000D03*
D23*
X68330000Y-72390000D03*
X71370000Y-69850000D03*
X68330000Y-69850000D03*
X71370000Y-67310000D03*
X68330000Y-67310000D03*
D13*
X89535000Y-108585000D03*
D14*
X86995000Y-108585000D03*
X84455000Y-108585000D03*
X81915000Y-108585000D03*
D13*
X89535000Y-99695000D03*
D14*
X86995000Y-99695000D03*
X84455000Y-99695000D03*
X81915000Y-99695000D03*
D11*
X171450000Y-83185000D03*
D12*
X171450000Y-85725000D03*
X171450000Y-88265000D03*
X171450000Y-90805000D03*
X171450000Y-93345000D03*
X171450000Y-95885000D03*
D13*
X97840800Y-113030000D03*
D14*
X100380800Y-113030000D03*
X102920800Y-113030000D03*
X105460800Y-113030000D03*
D11*
X176530000Y-83185000D03*
D12*
X176530000Y-85725000D03*
X176530000Y-88265000D03*
X176530000Y-90805000D03*
X176530000Y-93345000D03*
X176530000Y-95885000D03*
D11*
X173990000Y-83185000D03*
D12*
X173990000Y-85725000D03*
X173990000Y-88265000D03*
X173990000Y-90805000D03*
X173990000Y-93345000D03*
X173990000Y-95885000D03*
D13*
X70485000Y-46990000D03*
D14*
X73025000Y-46990000D03*
D25*
X101265000Y-83185000D03*
D26*
X108565000Y-83185000D03*
X114065000Y-83185000D03*
D10*
G36*
X123095000Y-51880000D02*
X127095000Y-51880000D01*
X127095000Y-54880000D01*
X123095000Y-54880000D01*
X123095000Y-51880000D01*
X123095000Y-51880000D01*
G37*
G36*
X123095000Y-56880000D02*
X127095000Y-56880000D01*
X127095000Y-59880000D01*
X123095000Y-59880000D01*
X123095000Y-56880000D01*
X123095000Y-56880000D01*
G37*
D11*
X67945000Y-98425000D03*
D12*
X67945000Y-95885000D03*
X67945000Y-93345000D03*
X67945000Y-90805000D03*
D27*
X128885000Y-67120000D03*
X128885000Y-75120000D03*
X131885000Y-67120000D03*
D28*
X132485000Y-74120000D03*
X139085000Y-66620000D03*
D26*
X172720000Y-132334000D03*
X172717460Y-127635000D03*
X172717460Y-122936000D03*
X182245000Y-134231380D03*
X182245000Y-121038620D03*
D29*
X81280000Y-123825000D03*
X79781400Y-123825000D03*
X81280000Y-121285000D03*
X79781400Y-121285000D03*
X81280000Y-118745000D03*
X79781400Y-118745000D03*
X81280000Y-128905000D03*
X79781400Y-128905000D03*
X81280000Y-133985000D03*
X79781400Y-133985000D03*
X81280000Y-131445000D03*
X79781400Y-131445000D03*
D30*
X83185000Y-123825000D03*
X85090000Y-123825000D03*
X83185000Y-121285000D03*
X85090000Y-121285000D03*
X83185000Y-118745000D03*
X85090000Y-118745000D03*
X83185000Y-128905000D03*
X85090000Y-128905000D03*
X83185000Y-133985000D03*
X85090000Y-133985000D03*
X83185000Y-131445000D03*
X85090000Y-131445000D03*
D31*
X67305000Y-123825000D03*
X67305000Y-126365000D03*
X67305000Y-128905000D03*
X67305000Y-131445000D03*
X76205000Y-123825000D03*
X76205000Y-126365000D03*
X76205000Y-128905000D03*
X76205000Y-131445000D03*
X76205000Y-133985000D03*
X67305000Y-133985000D03*
D10*
G36*
X110681000Y-98990000D02*
X110681000Y-100290000D01*
X109131000Y-100290000D01*
X109131000Y-98990000D01*
X110681000Y-98990000D01*
X110681000Y-98990000D01*
G37*
G36*
X110681000Y-103490000D02*
X110681000Y-104790000D01*
X109131000Y-104790000D01*
X109131000Y-103490000D01*
X110681000Y-103490000D01*
X110681000Y-103490000D01*
G37*
G36*
X118631000Y-103490000D02*
X118631000Y-104790000D01*
X117081000Y-104790000D01*
X117081000Y-103490000D01*
X118631000Y-103490000D01*
X118631000Y-103490000D01*
G37*
G36*
X118631000Y-98990000D02*
X118631000Y-100290000D01*
X117081000Y-100290000D01*
X117081000Y-98990000D01*
X118631000Y-98990000D01*
X118631000Y-98990000D01*
G37*
G36*
X96965000Y-98990000D02*
X96965000Y-100290000D01*
X95415000Y-100290000D01*
X95415000Y-98990000D01*
X96965000Y-98990000D01*
X96965000Y-98990000D01*
G37*
G36*
X96965000Y-103490000D02*
X96965000Y-104790000D01*
X95415000Y-104790000D01*
X95415000Y-103490000D01*
X96965000Y-103490000D01*
X96965000Y-103490000D01*
G37*
G36*
X104915000Y-103490000D02*
X104915000Y-104790000D01*
X103365000Y-104790000D01*
X103365000Y-103490000D01*
X104915000Y-103490000D01*
X104915000Y-103490000D01*
G37*
G36*
X104915000Y-98990000D02*
X104915000Y-100290000D01*
X103365000Y-100290000D01*
X103365000Y-98990000D01*
X104915000Y-98990000D01*
X104915000Y-98990000D01*
G37*
D32*
X130000000Y-51000000D03*
X130048000Y-61000000D03*
D33*
X86000000Y-140000000D03*
X167513000Y-133000000D03*
X179000000Y-71000000D03*
D34*
X88900000Y-116205000D03*
X88900000Y-120015000D03*
X90805000Y-118110000D03*
X111760000Y-122555000D03*
X113665000Y-124460000D03*
X113665000Y-121285000D03*
X102870000Y-63500000D03*
X102870000Y-60960000D03*
X102870000Y-58420000D03*
X102870000Y-55880000D03*
X102870000Y-53340000D03*
X102870000Y-50800000D03*
X90805000Y-63500000D03*
X90805000Y-60960000D03*
X90805000Y-58420000D03*
X90805000Y-55880000D03*
X90805000Y-53340000D03*
X90805000Y-50800000D03*
X97155000Y-63500000D03*
X97155000Y-60960000D03*
X97155000Y-58420000D03*
X97155000Y-55880000D03*
X97155000Y-53340000D03*
X97155000Y-50800000D03*
X128270000Y-85725000D03*
X128270000Y-83185000D03*
X128270000Y-80645000D03*
X130810000Y-86995000D03*
X130810000Y-84455000D03*
X130810000Y-81915000D03*
X130810000Y-79375000D03*
X72390000Y-86360000D03*
X75565000Y-86360000D03*
X72390000Y-83185000D03*
X69215000Y-83185000D03*
X72390000Y-80010000D03*
X69215000Y-80010000D03*
X137795000Y-100965000D03*
X133985000Y-98425000D03*
X127635000Y-98425000D03*
X113803262Y-98400000D03*
X106680000Y-98425000D03*
X142240000Y-113665000D03*
X142240000Y-116840000D03*
X133985000Y-116840000D03*
X137160000Y-113665000D03*
X139700000Y-113665000D03*
X142240000Y-111125000D03*
X142240000Y-119380000D03*
X139065000Y-121920000D03*
X139700000Y-119380000D03*
X137160000Y-119380000D03*
X137160000Y-116840000D03*
X137160000Y-116840000D03*
X139700000Y-116840000D03*
X138430000Y-110490000D03*
X135890000Y-110490000D03*
X121920000Y-65405000D03*
X133096000Y-128524000D03*
X113792000Y-113284000D03*
X94488000Y-97805010D03*
X70485000Y-100330000D03*
X134077781Y-119380000D03*
X133985000Y-112395000D03*
X140205732Y-108912713D03*
X79375000Y-101652922D03*
X111760000Y-114767491D03*
X75565000Y-62230000D03*
X115570000Y-126617491D03*
X132080000Y-116337334D03*
X132224722Y-113125885D03*
X115570000Y-128905000D03*
X75565000Y-49530000D03*
X85090000Y-127000000D03*
X125730000Y-113665000D03*
X113030000Y-90170000D03*
X115570000Y-90170000D03*
X73025000Y-89535000D03*
X74930000Y-89535000D03*
X76835000Y-89535000D03*
X124062010Y-64626010D03*
X93615569Y-104140000D03*
X125730000Y-118745000D03*
X125730000Y-116333511D03*
D35*
X69215000Y-83185000D02*
X72390000Y-86360000D01*
X72390000Y-83185000D02*
X75565000Y-86360000D01*
X69215000Y-83185000D02*
X72390000Y-83185000D01*
X69215000Y-80010000D02*
X69215000Y-83185000D01*
X69215000Y-80010000D02*
X72390000Y-80010000D01*
X66040000Y-64135000D02*
X66040000Y-76835000D01*
X66040000Y-76835000D02*
X69215000Y-80010000D01*
X66980990Y-63194010D02*
X66040000Y-64135000D01*
X67945000Y-62230000D02*
X66980990Y-63194010D01*
X68580000Y-62230000D02*
X67945000Y-62230000D01*
D36*
X79375000Y-101652922D02*
X84307257Y-106585179D01*
X111745000Y-114752491D02*
X111760000Y-114752491D01*
X84307257Y-106585179D02*
X103577688Y-106585179D01*
X103577688Y-106585179D02*
X111745000Y-114752491D01*
X79375000Y-101652922D02*
X79375000Y-66040000D01*
X79375000Y-66040000D02*
X75565000Y-62230000D01*
D37*
X79375000Y-101893273D02*
X79375000Y-101652922D01*
X109906000Y-104140000D02*
X117856000Y-104140000D01*
X121092757Y-126617491D02*
X120902491Y-126617491D01*
X120902491Y-126617491D02*
X115570000Y-126617491D01*
X117856000Y-104140000D02*
X127102491Y-113386491D01*
X127102491Y-113386491D02*
X127102491Y-120607757D01*
X127102491Y-120607757D02*
X121092757Y-126617491D01*
D35*
X132224722Y-113125885D02*
X132224722Y-116192612D01*
X132224722Y-116192612D02*
X132080000Y-116337334D01*
D36*
X80775010Y-54740010D02*
X80775010Y-87125010D01*
X75565000Y-49530000D02*
X80775010Y-54740010D01*
X80775010Y-87125010D02*
X96239990Y-102589990D01*
X96239990Y-102589990D02*
X119003798Y-102589990D01*
X119003798Y-102589990D02*
X128252501Y-111838693D01*
X128252501Y-111838693D02*
X128252501Y-125129747D01*
X128252501Y-125129747D02*
X124477248Y-128905000D01*
X124477248Y-128905000D02*
X116468025Y-128905000D01*
X116468025Y-128905000D02*
X115570000Y-128905000D01*
X85090000Y-123825000D02*
X85090000Y-127000000D01*
X85090000Y-121285000D02*
X85090000Y-123825000D01*
X85090000Y-121285000D02*
X85090000Y-118745000D01*
D37*
X123492499Y-115902501D02*
X125730000Y-113665000D01*
X99036999Y-115902501D02*
X123492499Y-115902501D01*
X85090000Y-128905000D02*
X86034500Y-128905000D01*
X86034500Y-128905000D02*
X99036999Y-115902501D01*
X76205000Y-126365000D02*
X74955000Y-126365000D01*
X74955000Y-126365000D02*
X74804999Y-126515001D01*
X74804999Y-126515001D02*
X74804999Y-135055001D01*
X74804999Y-135055001D02*
X75083499Y-135333501D01*
X75083499Y-135333501D02*
X119675105Y-135333501D01*
X129402511Y-106542511D02*
X128902510Y-106042510D01*
X128902510Y-106042510D02*
X113030000Y-90170000D01*
X119675105Y-135333501D02*
X129402511Y-125606096D01*
X129402511Y-125606096D02*
X129402511Y-106542511D01*
X76205000Y-123825000D02*
X74955000Y-123825000D01*
X74955000Y-123825000D02*
X73904990Y-124875010D01*
X73904990Y-124875010D02*
X73904990Y-135427798D01*
X73904990Y-135427798D02*
X74710703Y-136233511D01*
X74710703Y-136233511D02*
X120047902Y-136233510D01*
X130302521Y-104902521D02*
X129802519Y-104402519D01*
X120047902Y-136233510D02*
X130302521Y-125978892D01*
X130302521Y-125978892D02*
X130302521Y-104902521D01*
X129802519Y-104402519D02*
X115570000Y-90170000D01*
X73025000Y-89535000D02*
X73025000Y-117967380D01*
X73025000Y-117967380D02*
X78882620Y-123825000D01*
X78882620Y-123825000D02*
X79781400Y-123825000D01*
X74930000Y-89535000D02*
X74930000Y-117332380D01*
X74930000Y-117332380D02*
X78882620Y-121285000D01*
X78882620Y-121285000D02*
X79781400Y-121285000D01*
X76835000Y-116577380D02*
X76835000Y-89535000D01*
X76835000Y-116577380D02*
X76835000Y-116697380D01*
X76835000Y-116697380D02*
X78882620Y-118745000D01*
X78882620Y-118745000D02*
X79781400Y-118745000D01*
X180819830Y-83173008D02*
X162272832Y-64626010D01*
X162272832Y-64626010D02*
X124062010Y-64626010D01*
X174219999Y-130834001D02*
X172720000Y-132334000D01*
X180819830Y-83173008D02*
X180819830Y-97453348D01*
X180819830Y-97453348D02*
X174867461Y-103405717D01*
X174867461Y-103405717D02*
X174867461Y-130186539D01*
X174867461Y-130186539D02*
X174219999Y-130834001D01*
X96190000Y-104140000D02*
X104140000Y-104140000D01*
X93615569Y-104140000D02*
X96190000Y-104140000D01*
X124687521Y-117702521D02*
X125730000Y-118745000D01*
X85090000Y-133985000D02*
X85090000Y-133731000D01*
X85090000Y-133731000D02*
X86360000Y-132461000D01*
X99851285Y-117702521D02*
X124687521Y-117702521D01*
X86360000Y-132461000D02*
X86360000Y-131193806D01*
X86360000Y-131193806D02*
X99851285Y-117702521D01*
X125060317Y-116802511D02*
X125529317Y-116333511D01*
X125529317Y-116333511D02*
X125730000Y-116333511D01*
X99478489Y-116802511D02*
X125060317Y-116802511D01*
X85090000Y-131445000D02*
X85090000Y-131191000D01*
X85090000Y-131191000D02*
X99478489Y-116802511D01*
X81280000Y-123825000D02*
X83185000Y-123825000D01*
X81280000Y-121285000D02*
X83185000Y-121285000D01*
X81280000Y-118745000D02*
X83185000Y-118745000D01*
X81280000Y-128905000D02*
X83185000Y-128905000D01*
X76205000Y-128905000D02*
X79781400Y-128905000D01*
X81280000Y-133985000D02*
X83185000Y-133985000D01*
X76205000Y-133985000D02*
X79781400Y-133985000D01*
X81280000Y-131445000D02*
X83185000Y-131445000D01*
X76205000Y-131445000D02*
X79781400Y-131445000D01*
D38*
G36*
X140196568Y-43525445D02*
X140363209Y-43636791D01*
X140474555Y-43803432D01*
X140523000Y-44046982D01*
X140523000Y-56000000D01*
X140532165Y-56046076D01*
X140532165Y-56093058D01*
X140912767Y-58006475D01*
X140983991Y-58178424D01*
X142067855Y-59800541D01*
X142199459Y-59932146D01*
X142199463Y-59932148D01*
X143821576Y-61016009D01*
X143993525Y-61087233D01*
X145906942Y-61467835D01*
X145953924Y-61467835D01*
X146000000Y-61477000D01*
X187953018Y-61477000D01*
X188196568Y-61525445D01*
X188363209Y-61636791D01*
X188474555Y-61803432D01*
X188523000Y-62046982D01*
X188523000Y-136953018D01*
X188474555Y-137196568D01*
X188363209Y-137363209D01*
X188196568Y-137474555D01*
X187953018Y-137523000D01*
X170000000Y-137523000D01*
X169953924Y-137532165D01*
X169906942Y-137532165D01*
X167993525Y-137912767D01*
X167821576Y-137983991D01*
X166199463Y-139067852D01*
X166199459Y-139067854D01*
X166067855Y-139199459D01*
X164983991Y-140821576D01*
X164912767Y-140993525D01*
X164532165Y-142906942D01*
X164532165Y-142953924D01*
X164523000Y-143000000D01*
X164523000Y-151953018D01*
X164474555Y-152196568D01*
X164363209Y-152363209D01*
X164196568Y-152474555D01*
X163953018Y-152523000D01*
X81046982Y-152523000D01*
X80803432Y-152474555D01*
X80636791Y-152363209D01*
X80525445Y-152196568D01*
X80477000Y-151953018D01*
X80477000Y-147587268D01*
X115016000Y-147587268D01*
X115016000Y-148322732D01*
X115106507Y-148777743D01*
X115364250Y-149163482D01*
X115749989Y-149421225D01*
X116205000Y-149511732D01*
X116660011Y-149421225D01*
X117045750Y-149163482D01*
X117303493Y-148777743D01*
X117394000Y-148322732D01*
X117394000Y-147587268D01*
X117556000Y-147587268D01*
X117556000Y-148322732D01*
X117646507Y-148777743D01*
X117904250Y-149163482D01*
X118289989Y-149421225D01*
X118745000Y-149511732D01*
X119200011Y-149421225D01*
X119585750Y-149163482D01*
X119843493Y-148777743D01*
X119934000Y-148322732D01*
X119934000Y-147587268D01*
X120096000Y-147587268D01*
X120096000Y-148322732D01*
X120186507Y-148777743D01*
X120444250Y-149163482D01*
X120829989Y-149421225D01*
X121285000Y-149511732D01*
X121740011Y-149421225D01*
X122125750Y-149163482D01*
X122383493Y-148777743D01*
X122474000Y-148322732D01*
X122474000Y-147587268D01*
X122636000Y-147587268D01*
X122636000Y-148322732D01*
X122726507Y-148777743D01*
X122984250Y-149163482D01*
X123369989Y-149421225D01*
X123825000Y-149511732D01*
X124280011Y-149421225D01*
X124665750Y-149163482D01*
X124923493Y-148777743D01*
X125014000Y-148322732D01*
X125014000Y-147587268D01*
X124923493Y-147132257D01*
X124738356Y-146855180D01*
X127707635Y-146855180D01*
X127707635Y-149054820D01*
X127737409Y-149213057D01*
X127830927Y-149358387D01*
X127973619Y-149455884D01*
X128143000Y-149490185D01*
X129667000Y-149490185D01*
X129825237Y-149460411D01*
X129970567Y-149366893D01*
X130068064Y-149224201D01*
X130102365Y-149054820D01*
X130102365Y-146855180D01*
X130072591Y-146696943D01*
X129979073Y-146551613D01*
X129836381Y-146454116D01*
X129667000Y-146419815D01*
X128143000Y-146419815D01*
X127984763Y-146449589D01*
X127839433Y-146543107D01*
X127741936Y-146685799D01*
X127707635Y-146855180D01*
X124738356Y-146855180D01*
X124665750Y-146746518D01*
X124280011Y-146488775D01*
X123825000Y-146398268D01*
X123369989Y-146488775D01*
X122984250Y-146746518D01*
X122726507Y-147132257D01*
X122636000Y-147587268D01*
X122474000Y-147587268D01*
X122383493Y-147132257D01*
X122125750Y-146746518D01*
X121740011Y-146488775D01*
X121285000Y-146398268D01*
X120829989Y-146488775D01*
X120444250Y-146746518D01*
X120186507Y-147132257D01*
X120096000Y-147587268D01*
X119934000Y-147587268D01*
X119843493Y-147132257D01*
X119585750Y-146746518D01*
X119200011Y-146488775D01*
X118745000Y-146398268D01*
X118289989Y-146488775D01*
X117904250Y-146746518D01*
X117646507Y-147132257D01*
X117556000Y-147587268D01*
X117394000Y-147587268D01*
X117303493Y-147132257D01*
X117045750Y-146746518D01*
X116660011Y-146488775D01*
X116205000Y-146398268D01*
X115749989Y-146488775D01*
X115364250Y-146746518D01*
X115106507Y-147132257D01*
X115016000Y-147587268D01*
X80477000Y-147587268D01*
X80477000Y-143000000D01*
X80467835Y-142953924D01*
X80467835Y-142906942D01*
X80087233Y-140993525D01*
X80016009Y-140821576D01*
X78932148Y-139199463D01*
X78932146Y-139199459D01*
X78800541Y-139067855D01*
X78245919Y-138697268D01*
X94061000Y-138697268D01*
X94061000Y-139432732D01*
X94151507Y-139887743D01*
X94409250Y-140273482D01*
X94794989Y-140531225D01*
X95250000Y-140621732D01*
X95705011Y-140531225D01*
X96090750Y-140273482D01*
X96348493Y-139887743D01*
X96439000Y-139432732D01*
X96439000Y-138697268D01*
X96601000Y-138697268D01*
X96601000Y-139432732D01*
X96691507Y-139887743D01*
X96949250Y-140273482D01*
X97334989Y-140531225D01*
X97790000Y-140621732D01*
X98245011Y-140531225D01*
X98630750Y-140273482D01*
X98888493Y-139887743D01*
X98979000Y-139432732D01*
X98979000Y-138697268D01*
X99141000Y-138697268D01*
X99141000Y-139432732D01*
X99231507Y-139887743D01*
X99489250Y-140273482D01*
X99874989Y-140531225D01*
X100330000Y-140621732D01*
X100785011Y-140531225D01*
X101170750Y-140273482D01*
X101428493Y-139887743D01*
X101519000Y-139432732D01*
X101519000Y-138697268D01*
X101681000Y-138697268D01*
X101681000Y-139432732D01*
X101771507Y-139887743D01*
X102029250Y-140273482D01*
X102414989Y-140531225D01*
X102870000Y-140621732D01*
X103325011Y-140531225D01*
X103710750Y-140273482D01*
X103968493Y-139887743D01*
X104059000Y-139432732D01*
X104059000Y-138697268D01*
X104221000Y-138697268D01*
X104221000Y-139432732D01*
X104311507Y-139887743D01*
X104569250Y-140273482D01*
X104954989Y-140531225D01*
X105410000Y-140621732D01*
X105865011Y-140531225D01*
X106250750Y-140273482D01*
X106508493Y-139887743D01*
X106599000Y-139432732D01*
X106599000Y-138697268D01*
X137876000Y-138697268D01*
X137876000Y-139432732D01*
X137966507Y-139887743D01*
X138224250Y-140273482D01*
X138609989Y-140531225D01*
X139065000Y-140621732D01*
X139520011Y-140531225D01*
X139905750Y-140273482D01*
X140163493Y-139887743D01*
X140254000Y-139432732D01*
X140254000Y-138697268D01*
X140416000Y-138697268D01*
X140416000Y-139432732D01*
X140506507Y-139887743D01*
X140764250Y-140273482D01*
X141149989Y-140531225D01*
X141605000Y-140621732D01*
X142060011Y-140531225D01*
X142445750Y-140273482D01*
X142703493Y-139887743D01*
X142794000Y-139432732D01*
X142794000Y-138697268D01*
X142956000Y-138697268D01*
X142956000Y-139432732D01*
X143046507Y-139887743D01*
X143304250Y-140273482D01*
X143689989Y-140531225D01*
X144145000Y-140621732D01*
X144600011Y-140531225D01*
X144985750Y-140273482D01*
X145243493Y-139887743D01*
X145334000Y-139432732D01*
X145334000Y-138697268D01*
X145496000Y-138697268D01*
X145496000Y-139432732D01*
X145586507Y-139887743D01*
X145844250Y-140273482D01*
X146229989Y-140531225D01*
X146685000Y-140621732D01*
X147140011Y-140531225D01*
X147525750Y-140273482D01*
X147783493Y-139887743D01*
X147874000Y-139432732D01*
X147874000Y-138697268D01*
X148036000Y-138697268D01*
X148036000Y-139432732D01*
X148126507Y-139887743D01*
X148384250Y-140273482D01*
X148769989Y-140531225D01*
X149225000Y-140621732D01*
X149680011Y-140531225D01*
X150065750Y-140273482D01*
X150323493Y-139887743D01*
X150414000Y-139432732D01*
X150414000Y-138697268D01*
X150323493Y-138242257D01*
X150065750Y-137856518D01*
X149680011Y-137598775D01*
X149225000Y-137508268D01*
X148769989Y-137598775D01*
X148384250Y-137856518D01*
X148126507Y-138242257D01*
X148036000Y-138697268D01*
X147874000Y-138697268D01*
X147783493Y-138242257D01*
X147525750Y-137856518D01*
X147140011Y-137598775D01*
X146685000Y-137508268D01*
X146229989Y-137598775D01*
X145844250Y-137856518D01*
X145586507Y-138242257D01*
X145496000Y-138697268D01*
X145334000Y-138697268D01*
X145243493Y-138242257D01*
X144985750Y-137856518D01*
X144600011Y-137598775D01*
X144145000Y-137508268D01*
X143689989Y-137598775D01*
X143304250Y-137856518D01*
X143046507Y-138242257D01*
X142956000Y-138697268D01*
X142794000Y-138697268D01*
X142703493Y-138242257D01*
X142445750Y-137856518D01*
X142060011Y-137598775D01*
X141605000Y-137508268D01*
X141149989Y-137598775D01*
X140764250Y-137856518D01*
X140506507Y-138242257D01*
X140416000Y-138697268D01*
X140254000Y-138697268D01*
X140163493Y-138242257D01*
X139905750Y-137856518D01*
X139520011Y-137598775D01*
X139065000Y-137508268D01*
X138609989Y-137598775D01*
X138224250Y-137856518D01*
X137966507Y-138242257D01*
X137876000Y-138697268D01*
X106599000Y-138697268D01*
X106508493Y-138242257D01*
X106250750Y-137856518D01*
X105865011Y-137598775D01*
X105410000Y-137508268D01*
X104954989Y-137598775D01*
X104569250Y-137856518D01*
X104311507Y-138242257D01*
X104221000Y-138697268D01*
X104059000Y-138697268D01*
X103968493Y-138242257D01*
X103710750Y-137856518D01*
X103325011Y-137598775D01*
X102870000Y-137508268D01*
X102414989Y-137598775D01*
X102029250Y-137856518D01*
X101771507Y-138242257D01*
X101681000Y-138697268D01*
X101519000Y-138697268D01*
X101428493Y-138242257D01*
X101170750Y-137856518D01*
X100785011Y-137598775D01*
X100330000Y-137508268D01*
X99874989Y-137598775D01*
X99489250Y-137856518D01*
X99231507Y-138242257D01*
X99141000Y-138697268D01*
X98979000Y-138697268D01*
X98888493Y-138242257D01*
X98630750Y-137856518D01*
X98245011Y-137598775D01*
X97790000Y-137508268D01*
X97334989Y-137598775D01*
X96949250Y-137856518D01*
X96691507Y-138242257D01*
X96601000Y-138697268D01*
X96439000Y-138697268D01*
X96348493Y-138242257D01*
X96090750Y-137856518D01*
X95705011Y-137598775D01*
X95250000Y-137508268D01*
X94794989Y-137598775D01*
X94409250Y-137856518D01*
X94151507Y-138242257D01*
X94061000Y-138697268D01*
X78245919Y-138697268D01*
X77178424Y-137983991D01*
X77006475Y-137912767D01*
X75093058Y-137532165D01*
X75046076Y-137532165D01*
X75000000Y-137523000D01*
X63046982Y-137523000D01*
X62803432Y-137474555D01*
X62636791Y-137363209D01*
X62525445Y-137196568D01*
X62477000Y-136953018D01*
X62477000Y-118745000D01*
X66388268Y-118745000D01*
X66478775Y-119200011D01*
X66736518Y-119585750D01*
X67122257Y-119843493D01*
X67577268Y-119934000D01*
X68312732Y-119934000D01*
X68767743Y-119843493D01*
X69153482Y-119585750D01*
X69411225Y-119200011D01*
X69501732Y-118745000D01*
X69411225Y-118289989D01*
X69153482Y-117904250D01*
X68767743Y-117646507D01*
X68312732Y-117556000D01*
X67577268Y-117556000D01*
X67122257Y-117646507D01*
X66736518Y-117904250D01*
X66478775Y-118289989D01*
X66388268Y-118745000D01*
X62477000Y-118745000D01*
X62477000Y-116205000D01*
X66388268Y-116205000D01*
X66478775Y-116660011D01*
X66736518Y-117045750D01*
X67122257Y-117303493D01*
X67577268Y-117394000D01*
X68312732Y-117394000D01*
X68767743Y-117303493D01*
X69153482Y-117045750D01*
X69411225Y-116660011D01*
X69501732Y-116205000D01*
X69411225Y-115749989D01*
X69153482Y-115364250D01*
X68767743Y-115106507D01*
X68312732Y-115016000D01*
X67577268Y-115016000D01*
X67122257Y-115106507D01*
X66736518Y-115364250D01*
X66478775Y-115749989D01*
X66388268Y-116205000D01*
X62477000Y-116205000D01*
X62477000Y-113665000D01*
X66388268Y-113665000D01*
X66478775Y-114120011D01*
X66736518Y-114505750D01*
X67122257Y-114763493D01*
X67577268Y-114854000D01*
X68312732Y-114854000D01*
X68767743Y-114763493D01*
X69153482Y-114505750D01*
X69411225Y-114120011D01*
X69501732Y-113665000D01*
X69411225Y-113209989D01*
X69153482Y-112824250D01*
X68767743Y-112566507D01*
X68312732Y-112476000D01*
X67577268Y-112476000D01*
X67122257Y-112566507D01*
X66736518Y-112824250D01*
X66478775Y-113209989D01*
X66388268Y-113665000D01*
X62477000Y-113665000D01*
X62477000Y-111125000D01*
X66388268Y-111125000D01*
X66478775Y-111580011D01*
X66736518Y-111965750D01*
X67122257Y-112223493D01*
X67577268Y-112314000D01*
X68312732Y-112314000D01*
X68767743Y-112223493D01*
X69153482Y-111965750D01*
X69411225Y-111580011D01*
X69501732Y-111125000D01*
X69411225Y-110669989D01*
X69153482Y-110284250D01*
X68767743Y-110026507D01*
X68312732Y-109936000D01*
X67577268Y-109936000D01*
X67122257Y-110026507D01*
X66736518Y-110284250D01*
X66478775Y-110669989D01*
X66388268Y-111125000D01*
X62477000Y-111125000D01*
X62477000Y-108585000D01*
X66388268Y-108585000D01*
X66478775Y-109040011D01*
X66736518Y-109425750D01*
X67122257Y-109683493D01*
X67577268Y-109774000D01*
X68312732Y-109774000D01*
X68767743Y-109683493D01*
X69153482Y-109425750D01*
X69411225Y-109040011D01*
X69501732Y-108585000D01*
X69411225Y-108129989D01*
X69153482Y-107744250D01*
X68767743Y-107486507D01*
X68312732Y-107396000D01*
X67577268Y-107396000D01*
X67122257Y-107486507D01*
X66736518Y-107744250D01*
X66478775Y-108129989D01*
X66388268Y-108585000D01*
X62477000Y-108585000D01*
X62477000Y-97663000D01*
X66409815Y-97663000D01*
X66409815Y-99187000D01*
X66439589Y-99345237D01*
X66533107Y-99490567D01*
X66675799Y-99588064D01*
X66845180Y-99622365D01*
X69044820Y-99622365D01*
X69203057Y-99592591D01*
X69348387Y-99499073D01*
X69445884Y-99356381D01*
X69480185Y-99187000D01*
X69480185Y-97663000D01*
X69450411Y-97504763D01*
X69356893Y-97359433D01*
X69214201Y-97261936D01*
X69044820Y-97227635D01*
X66845180Y-97227635D01*
X66686943Y-97257409D01*
X66541613Y-97350927D01*
X66444116Y-97493619D01*
X66409815Y-97663000D01*
X62477000Y-97663000D01*
X62477000Y-95885000D01*
X66388268Y-95885000D01*
X66478775Y-96340011D01*
X66736518Y-96725750D01*
X67122257Y-96983493D01*
X67577268Y-97074000D01*
X68312732Y-97074000D01*
X68767743Y-96983493D01*
X69153482Y-96725750D01*
X69411225Y-96340011D01*
X69501732Y-95885000D01*
X69411225Y-95429989D01*
X69153482Y-95044250D01*
X68767743Y-94786507D01*
X68312732Y-94696000D01*
X67577268Y-94696000D01*
X67122257Y-94786507D01*
X66736518Y-95044250D01*
X66478775Y-95429989D01*
X66388268Y-95885000D01*
X62477000Y-95885000D01*
X62477000Y-93345000D01*
X66388268Y-93345000D01*
X66478775Y-93800011D01*
X66736518Y-94185750D01*
X67122257Y-94443493D01*
X67577268Y-94534000D01*
X68312732Y-94534000D01*
X68767743Y-94443493D01*
X69153482Y-94185750D01*
X69411225Y-93800011D01*
X69501732Y-93345000D01*
X69411225Y-92889989D01*
X69153482Y-92504250D01*
X68767743Y-92246507D01*
X68312732Y-92156000D01*
X67577268Y-92156000D01*
X67122257Y-92246507D01*
X66736518Y-92504250D01*
X66478775Y-92889989D01*
X66388268Y-93345000D01*
X62477000Y-93345000D01*
X62477000Y-90805000D01*
X66388268Y-90805000D01*
X66478775Y-91260011D01*
X66736518Y-91645750D01*
X67122257Y-91903493D01*
X67577268Y-91994000D01*
X68312732Y-91994000D01*
X68767743Y-91903493D01*
X69153482Y-91645750D01*
X69411225Y-91260011D01*
X69501732Y-90805000D01*
X69411225Y-90349989D01*
X69153482Y-89964250D01*
X68825828Y-89745318D01*
X71962816Y-89745318D01*
X72124155Y-90135789D01*
X72348000Y-90360025D01*
X72348000Y-117967380D01*
X72399534Y-118226457D01*
X72501808Y-118379521D01*
X72546289Y-118446091D01*
X76939832Y-122839635D01*
X75455000Y-122839635D01*
X75296763Y-122869409D01*
X75151433Y-122962927D01*
X75053936Y-123105619D01*
X75045354Y-123148000D01*
X74955000Y-123148000D01*
X74695923Y-123199534D01*
X74610160Y-123256839D01*
X74476288Y-123346289D01*
X73426279Y-124396299D01*
X73279524Y-124615933D01*
X73227990Y-124875010D01*
X73227990Y-135427798D01*
X73279524Y-135686875D01*
X73363272Y-135812212D01*
X73426279Y-135906509D01*
X74231992Y-136712222D01*
X74451626Y-136858977D01*
X74710703Y-136910511D01*
X120047902Y-136910510D01*
X120306979Y-136858976D01*
X120526613Y-136712221D01*
X130781233Y-126457603D01*
X130927988Y-126237968D01*
X130979521Y-125978892D01*
X130979521Y-116547652D01*
X131017816Y-116547652D01*
X131179155Y-116938123D01*
X131477640Y-117237129D01*
X131867828Y-117399149D01*
X132290318Y-117399518D01*
X132680789Y-117238179D01*
X132979795Y-116939694D01*
X133141815Y-116549506D01*
X133142184Y-116127016D01*
X132980845Y-115736545D01*
X132801722Y-115557109D01*
X132801722Y-114036559D01*
X132825511Y-114026730D01*
X133124517Y-113728245D01*
X133286537Y-113338057D01*
X133286906Y-112915567D01*
X133125567Y-112525096D01*
X132827082Y-112226090D01*
X132436894Y-112064070D01*
X132014404Y-112063701D01*
X131623933Y-112225040D01*
X131324927Y-112523525D01*
X131162907Y-112913713D01*
X131162538Y-113336203D01*
X131323877Y-113726674D01*
X131622362Y-114025680D01*
X131647722Y-114036210D01*
X131647722Y-115366862D01*
X131479211Y-115436489D01*
X131180205Y-115734974D01*
X131018185Y-116125162D01*
X131017816Y-116547652D01*
X130979521Y-116547652D01*
X130979521Y-104902521D01*
X130957139Y-104790000D01*
X130927988Y-104643445D01*
X130781233Y-104423810D01*
X130281232Y-103923810D01*
X130281230Y-103923807D01*
X116631909Y-90274487D01*
X116632184Y-89959682D01*
X116470845Y-89569211D01*
X116172360Y-89270205D01*
X115782172Y-89108185D01*
X115359682Y-89107816D01*
X114969211Y-89269155D01*
X114670205Y-89567640D01*
X114508185Y-89957828D01*
X114507816Y-90380318D01*
X114669155Y-90770789D01*
X114967640Y-91069795D01*
X115357828Y-91231815D01*
X115674670Y-91232092D01*
X129323807Y-104881230D01*
X129323810Y-104881232D01*
X129625521Y-105182944D01*
X129625521Y-105808099D01*
X114091909Y-90274487D01*
X114092184Y-89959682D01*
X113930845Y-89569211D01*
X113632360Y-89270205D01*
X113242172Y-89108185D01*
X112819682Y-89107816D01*
X112429211Y-89269155D01*
X112130205Y-89567640D01*
X111968185Y-89957828D01*
X111967816Y-90380318D01*
X112129155Y-90770789D01*
X112427640Y-91069795D01*
X112817828Y-91231815D01*
X113134670Y-91232092D01*
X128725511Y-106822933D01*
X128725511Y-111000727D01*
X119659286Y-101934502D01*
X119597582Y-101893273D01*
X119358546Y-101733554D01*
X119003798Y-101662990D01*
X96623966Y-101662990D01*
X81702010Y-86741034D01*
X81702010Y-83566622D01*
X112137666Y-83566622D01*
X112430416Y-84275132D01*
X112972017Y-84817678D01*
X113680014Y-85111665D01*
X114446622Y-85112334D01*
X115155132Y-84819584D01*
X115697678Y-84277983D01*
X115991665Y-83569986D01*
X115992334Y-82803378D01*
X115699584Y-82094868D01*
X115157983Y-81552322D01*
X114449986Y-81258335D01*
X113683378Y-81257666D01*
X112974868Y-81550416D01*
X112432322Y-82092017D01*
X112138335Y-82800014D01*
X112137666Y-83566622D01*
X81702010Y-83566622D01*
X81702010Y-74577350D01*
X127208000Y-74577350D01*
X127208000Y-75662650D01*
X127335654Y-76304410D01*
X127699182Y-76848468D01*
X128243240Y-77211996D01*
X128885000Y-77339650D01*
X129526760Y-77211996D01*
X130070818Y-76848468D01*
X130434346Y-76304410D01*
X130562000Y-75662650D01*
X130562000Y-74577350D01*
X130434346Y-73935590D01*
X130070818Y-73391532D01*
X129526760Y-73028004D01*
X128885000Y-72900350D01*
X128243240Y-73028004D01*
X127699182Y-73391532D01*
X127335654Y-73935590D01*
X127208000Y-74577350D01*
X81702010Y-74577350D01*
X81702010Y-64836328D01*
X122999826Y-64836328D01*
X123161165Y-65226799D01*
X123459650Y-65525805D01*
X123849838Y-65687825D01*
X124272328Y-65688194D01*
X124662799Y-65526855D01*
X124887035Y-65303010D01*
X127831665Y-65303010D01*
X127699182Y-65391532D01*
X127335654Y-65935590D01*
X127208000Y-66577350D01*
X127208000Y-67662650D01*
X127335654Y-68304410D01*
X127699182Y-68848468D01*
X128243240Y-69211996D01*
X128885000Y-69339650D01*
X129526760Y-69211996D01*
X129621000Y-69149027D01*
X129621000Y-71120000D01*
X129642324Y-71253251D01*
X152502324Y-140849251D01*
X152601923Y-141013735D01*
X152741873Y-141109358D01*
X152908000Y-141143000D01*
X163576000Y-141143000D01*
X163731196Y-141113798D01*
X163873735Y-141022077D01*
X163969358Y-140882127D01*
X164003000Y-140716000D01*
X164003000Y-114935000D01*
X168623268Y-114935000D01*
X168713775Y-115390011D01*
X168971518Y-115775750D01*
X169357257Y-116033493D01*
X169812268Y-116124000D01*
X170547732Y-116124000D01*
X171002743Y-116033493D01*
X171388482Y-115775750D01*
X171646225Y-115390011D01*
X171736732Y-114935000D01*
X171646225Y-114479989D01*
X171388482Y-114094250D01*
X171002743Y-113836507D01*
X170547732Y-113746000D01*
X169812268Y-113746000D01*
X169357257Y-113836507D01*
X168971518Y-114094250D01*
X168713775Y-114479989D01*
X168623268Y-114935000D01*
X164003000Y-114935000D01*
X164003000Y-112395000D01*
X168623268Y-112395000D01*
X168713775Y-112850011D01*
X168971518Y-113235750D01*
X169357257Y-113493493D01*
X169812268Y-113584000D01*
X170547732Y-113584000D01*
X171002743Y-113493493D01*
X171388482Y-113235750D01*
X171646225Y-112850011D01*
X171736732Y-112395000D01*
X171646225Y-111939989D01*
X171388482Y-111554250D01*
X171002743Y-111296507D01*
X170547732Y-111206000D01*
X169812268Y-111206000D01*
X169357257Y-111296507D01*
X168971518Y-111554250D01*
X168713775Y-111939989D01*
X168623268Y-112395000D01*
X164003000Y-112395000D01*
X164003000Y-109855000D01*
X168623268Y-109855000D01*
X168713775Y-110310011D01*
X168971518Y-110695750D01*
X169357257Y-110953493D01*
X169812268Y-111044000D01*
X170547732Y-111044000D01*
X171002743Y-110953493D01*
X171388482Y-110695750D01*
X171646225Y-110310011D01*
X171736732Y-109855000D01*
X171646225Y-109399989D01*
X171388482Y-109014250D01*
X171002743Y-108756507D01*
X170547732Y-108666000D01*
X169812268Y-108666000D01*
X169357257Y-108756507D01*
X168971518Y-109014250D01*
X168713775Y-109399989D01*
X168623268Y-109855000D01*
X164003000Y-109855000D01*
X164003000Y-107315000D01*
X168623268Y-107315000D01*
X168713775Y-107770011D01*
X168971518Y-108155750D01*
X169357257Y-108413493D01*
X169812268Y-108504000D01*
X170547732Y-108504000D01*
X171002743Y-108413493D01*
X171388482Y-108155750D01*
X171646225Y-107770011D01*
X171736732Y-107315000D01*
X171646225Y-106859989D01*
X171388482Y-106474250D01*
X171002743Y-106216507D01*
X170547732Y-106126000D01*
X169812268Y-106126000D01*
X169357257Y-106216507D01*
X168971518Y-106474250D01*
X168713775Y-106859989D01*
X168623268Y-107315000D01*
X164003000Y-107315000D01*
X164003000Y-104775000D01*
X168623268Y-104775000D01*
X168713775Y-105230011D01*
X168971518Y-105615750D01*
X169357257Y-105873493D01*
X169812268Y-105964000D01*
X170547732Y-105964000D01*
X171002743Y-105873493D01*
X171388482Y-105615750D01*
X171646225Y-105230011D01*
X171736732Y-104775000D01*
X171646225Y-104319989D01*
X171388482Y-103934250D01*
X171002743Y-103676507D01*
X170547732Y-103586000D01*
X169812268Y-103586000D01*
X169357257Y-103676507D01*
X168971518Y-103934250D01*
X168713775Y-104319989D01*
X168623268Y-104775000D01*
X164003000Y-104775000D01*
X164003000Y-95885000D01*
X169893268Y-95885000D01*
X169983775Y-96340011D01*
X170241518Y-96725750D01*
X170627257Y-96983493D01*
X171082268Y-97074000D01*
X171817732Y-97074000D01*
X172272743Y-96983493D01*
X172658482Y-96725750D01*
X172720000Y-96633682D01*
X172781518Y-96725750D01*
X173167257Y-96983493D01*
X173622268Y-97074000D01*
X174357732Y-97074000D01*
X174812743Y-96983493D01*
X175198482Y-96725750D01*
X175456225Y-96340011D01*
X175546732Y-95885000D01*
X175456225Y-95429989D01*
X175198482Y-95044250D01*
X174812743Y-94786507D01*
X174357732Y-94696000D01*
X173622268Y-94696000D01*
X173167257Y-94786507D01*
X172781518Y-95044250D01*
X172720000Y-95136318D01*
X172658482Y-95044250D01*
X172272743Y-94786507D01*
X171817732Y-94696000D01*
X171082268Y-94696000D01*
X170627257Y-94786507D01*
X170241518Y-95044250D01*
X169983775Y-95429989D01*
X169893268Y-95885000D01*
X164003000Y-95885000D01*
X164003000Y-93345000D01*
X169893268Y-93345000D01*
X169983775Y-93800011D01*
X170241518Y-94185750D01*
X170627257Y-94443493D01*
X171082268Y-94534000D01*
X171817732Y-94534000D01*
X172272743Y-94443493D01*
X172658482Y-94185750D01*
X172720000Y-94093682D01*
X172781518Y-94185750D01*
X173167257Y-94443493D01*
X173622268Y-94534000D01*
X174357732Y-94534000D01*
X174812743Y-94443493D01*
X175198482Y-94185750D01*
X175456225Y-93800011D01*
X175546732Y-93345000D01*
X175456225Y-92889989D01*
X175198482Y-92504250D01*
X174812743Y-92246507D01*
X174357732Y-92156000D01*
X173622268Y-92156000D01*
X173167257Y-92246507D01*
X172781518Y-92504250D01*
X172720000Y-92596318D01*
X172658482Y-92504250D01*
X172272743Y-92246507D01*
X171817732Y-92156000D01*
X171082268Y-92156000D01*
X170627257Y-92246507D01*
X170241518Y-92504250D01*
X169983775Y-92889989D01*
X169893268Y-93345000D01*
X164003000Y-93345000D01*
X164003000Y-90805000D01*
X169893268Y-90805000D01*
X169983775Y-91260011D01*
X170241518Y-91645750D01*
X170627257Y-91903493D01*
X171082268Y-91994000D01*
X171817732Y-91994000D01*
X172272743Y-91903493D01*
X172658482Y-91645750D01*
X172720000Y-91553682D01*
X172781518Y-91645750D01*
X173167257Y-91903493D01*
X173622268Y-91994000D01*
X174357732Y-91994000D01*
X174812743Y-91903493D01*
X175198482Y-91645750D01*
X175456225Y-91260011D01*
X175546732Y-90805000D01*
X175456225Y-90349989D01*
X175198482Y-89964250D01*
X174812743Y-89706507D01*
X174357732Y-89616000D01*
X173622268Y-89616000D01*
X173167257Y-89706507D01*
X172781518Y-89964250D01*
X172720000Y-90056318D01*
X172658482Y-89964250D01*
X172272743Y-89706507D01*
X171817732Y-89616000D01*
X171082268Y-89616000D01*
X170627257Y-89706507D01*
X170241518Y-89964250D01*
X169983775Y-90349989D01*
X169893268Y-90805000D01*
X164003000Y-90805000D01*
X164003000Y-88265000D01*
X169893268Y-88265000D01*
X169983775Y-88720011D01*
X170241518Y-89105750D01*
X170627257Y-89363493D01*
X171082268Y-89454000D01*
X171817732Y-89454000D01*
X172272743Y-89363493D01*
X172658482Y-89105750D01*
X172720000Y-89013682D01*
X172781518Y-89105750D01*
X173167257Y-89363493D01*
X173622268Y-89454000D01*
X174357732Y-89454000D01*
X174812743Y-89363493D01*
X175198482Y-89105750D01*
X175456225Y-88720011D01*
X175546732Y-88265000D01*
X175456225Y-87809989D01*
X175198482Y-87424250D01*
X174812743Y-87166507D01*
X174357732Y-87076000D01*
X173622268Y-87076000D01*
X173167257Y-87166507D01*
X172781518Y-87424250D01*
X172720000Y-87516318D01*
X172658482Y-87424250D01*
X172272743Y-87166507D01*
X171817732Y-87076000D01*
X171082268Y-87076000D01*
X170627257Y-87166507D01*
X170241518Y-87424250D01*
X169983775Y-87809989D01*
X169893268Y-88265000D01*
X164003000Y-88265000D01*
X164003000Y-85725000D01*
X169893268Y-85725000D01*
X169983775Y-86180011D01*
X170241518Y-86565750D01*
X170627257Y-86823493D01*
X171082268Y-86914000D01*
X171817732Y-86914000D01*
X172272743Y-86823493D01*
X172658482Y-86565750D01*
X172720000Y-86473682D01*
X172781518Y-86565750D01*
X173167257Y-86823493D01*
X173622268Y-86914000D01*
X174357732Y-86914000D01*
X174812743Y-86823493D01*
X175198482Y-86565750D01*
X175456225Y-86180011D01*
X175546732Y-85725000D01*
X175456225Y-85269989D01*
X175198482Y-84884250D01*
X174812743Y-84626507D01*
X174357732Y-84536000D01*
X173622268Y-84536000D01*
X173167257Y-84626507D01*
X172781518Y-84884250D01*
X172720000Y-84976318D01*
X172658482Y-84884250D01*
X172272743Y-84626507D01*
X171817732Y-84536000D01*
X171082268Y-84536000D01*
X170627257Y-84626507D01*
X170241518Y-84884250D01*
X169983775Y-85269989D01*
X169893268Y-85725000D01*
X164003000Y-85725000D01*
X164003000Y-82423000D01*
X169914815Y-82423000D01*
X169914815Y-83947000D01*
X169944589Y-84105237D01*
X170038107Y-84250567D01*
X170180799Y-84348064D01*
X170350180Y-84382365D01*
X172549820Y-84382365D01*
X172708057Y-84352591D01*
X172718031Y-84346173D01*
X172720799Y-84348064D01*
X172890180Y-84382365D01*
X175089820Y-84382365D01*
X175248057Y-84352591D01*
X175393387Y-84259073D01*
X175490884Y-84116381D01*
X175525185Y-83947000D01*
X175525185Y-82423000D01*
X175495411Y-82264763D01*
X175401893Y-82119433D01*
X175259201Y-82021936D01*
X175089820Y-81987635D01*
X172890180Y-81987635D01*
X172731943Y-82017409D01*
X172721969Y-82023827D01*
X172719201Y-82021936D01*
X172549820Y-81987635D01*
X170350180Y-81987635D01*
X170191943Y-82017409D01*
X170046613Y-82110927D01*
X169949116Y-82253619D01*
X169914815Y-82423000D01*
X164003000Y-82423000D01*
X164003000Y-68072000D01*
X163971616Y-67911323D01*
X163877935Y-67770065D01*
X161410880Y-65303010D01*
X161992410Y-65303010D01*
X180142830Y-83453430D01*
X180142830Y-97172926D01*
X174388750Y-102927006D01*
X174241995Y-103146640D01*
X174190461Y-103405717D01*
X174190461Y-129906116D01*
X173741288Y-130355290D01*
X173517819Y-130578759D01*
X173104986Y-130407335D01*
X172338378Y-130406666D01*
X171629868Y-130699416D01*
X171087322Y-131241017D01*
X170793335Y-131949014D01*
X170792666Y-132715622D01*
X171085416Y-133424132D01*
X171627017Y-133966678D01*
X172335014Y-134260665D01*
X173101622Y-134261334D01*
X173810132Y-133968584D01*
X174352678Y-133426983D01*
X174646665Y-132718986D01*
X174647334Y-131952378D01*
X174475329Y-131536093D01*
X174698710Y-131312712D01*
X175346173Y-130665250D01*
X175492928Y-130445615D01*
X175544461Y-130186539D01*
X175544461Y-114935000D01*
X177513268Y-114935000D01*
X177603775Y-115390011D01*
X177861518Y-115775750D01*
X178247257Y-116033493D01*
X178702268Y-116124000D01*
X179437732Y-116124000D01*
X179892743Y-116033493D01*
X180278482Y-115775750D01*
X180536225Y-115390011D01*
X180626732Y-114935000D01*
X180536225Y-114479989D01*
X180278482Y-114094250D01*
X179892743Y-113836507D01*
X179437732Y-113746000D01*
X178702268Y-113746000D01*
X178247257Y-113836507D01*
X177861518Y-114094250D01*
X177603775Y-114479989D01*
X177513268Y-114935000D01*
X175544461Y-114935000D01*
X175544461Y-112395000D01*
X177513268Y-112395000D01*
X177603775Y-112850011D01*
X177861518Y-113235750D01*
X178247257Y-113493493D01*
X178702268Y-113584000D01*
X179437732Y-113584000D01*
X179892743Y-113493493D01*
X180278482Y-113235750D01*
X180536225Y-112850011D01*
X180626732Y-112395000D01*
X180536225Y-111939989D01*
X180278482Y-111554250D01*
X179892743Y-111296507D01*
X179437732Y-111206000D01*
X178702268Y-111206000D01*
X178247257Y-111296507D01*
X177861518Y-111554250D01*
X177603775Y-111939989D01*
X177513268Y-112395000D01*
X175544461Y-112395000D01*
X175544461Y-109855000D01*
X177513268Y-109855000D01*
X177603775Y-110310011D01*
X177861518Y-110695750D01*
X178247257Y-110953493D01*
X178702268Y-111044000D01*
X179437732Y-111044000D01*
X179892743Y-110953493D01*
X180278482Y-110695750D01*
X180536225Y-110310011D01*
X180626732Y-109855000D01*
X180536225Y-109399989D01*
X180278482Y-109014250D01*
X179892743Y-108756507D01*
X179437732Y-108666000D01*
X178702268Y-108666000D01*
X178247257Y-108756507D01*
X177861518Y-109014250D01*
X177603775Y-109399989D01*
X177513268Y-109855000D01*
X175544461Y-109855000D01*
X175544461Y-107315000D01*
X177513268Y-107315000D01*
X177603775Y-107770011D01*
X177861518Y-108155750D01*
X178247257Y-108413493D01*
X178702268Y-108504000D01*
X179437732Y-108504000D01*
X179892743Y-108413493D01*
X180278482Y-108155750D01*
X180536225Y-107770011D01*
X180626732Y-107315000D01*
X180536225Y-106859989D01*
X180278482Y-106474250D01*
X179892743Y-106216507D01*
X179437732Y-106126000D01*
X178702268Y-106126000D01*
X178247257Y-106216507D01*
X177861518Y-106474250D01*
X177603775Y-106859989D01*
X177513268Y-107315000D01*
X175544461Y-107315000D01*
X175544461Y-104775000D01*
X177513268Y-104775000D01*
X177603775Y-105230011D01*
X177861518Y-105615750D01*
X178247257Y-105873493D01*
X178702268Y-105964000D01*
X179437732Y-105964000D01*
X179892743Y-105873493D01*
X180278482Y-105615750D01*
X180536225Y-105230011D01*
X180626732Y-104775000D01*
X180536225Y-104319989D01*
X180278482Y-103934250D01*
X179892743Y-103676507D01*
X179437732Y-103586000D01*
X178702268Y-103586000D01*
X178247257Y-103676507D01*
X177861518Y-103934250D01*
X177603775Y-104319989D01*
X177513268Y-104775000D01*
X175544461Y-104775000D01*
X175544461Y-103686139D01*
X181298541Y-97932059D01*
X181445296Y-97712425D01*
X181496830Y-97453348D01*
X181496830Y-83173008D01*
X181445296Y-82913931D01*
X181298541Y-82694297D01*
X162751543Y-64147299D01*
X162707996Y-64118202D01*
X162531909Y-64000544D01*
X162272832Y-63949010D01*
X130225631Y-63949010D01*
X130957639Y-63803405D01*
X131728793Y-63288136D01*
X132244062Y-62516982D01*
X132425000Y-61607343D01*
X132425000Y-60392657D01*
X132244062Y-59483018D01*
X131728793Y-58711864D01*
X130957639Y-58196595D01*
X130048000Y-58015657D01*
X129138361Y-58196595D01*
X128367207Y-58711864D01*
X127851938Y-59483018D01*
X127671000Y-60392657D01*
X127671000Y-61607343D01*
X127851938Y-62516982D01*
X128367207Y-63288136D01*
X129138361Y-63803405D01*
X129870369Y-63949010D01*
X124886777Y-63949010D01*
X124664370Y-63726215D01*
X124274182Y-63564195D01*
X123851692Y-63563826D01*
X123461221Y-63725165D01*
X123162215Y-64023650D01*
X123000195Y-64413838D01*
X122999826Y-64836328D01*
X81702010Y-64836328D01*
X81702010Y-56880000D01*
X122659635Y-56880000D01*
X122659635Y-59880000D01*
X122689409Y-60038237D01*
X122782927Y-60183567D01*
X122925619Y-60281064D01*
X123095000Y-60315365D01*
X127095000Y-60315365D01*
X127253237Y-60285591D01*
X127398567Y-60192073D01*
X127496064Y-60049381D01*
X127530365Y-59880000D01*
X127530365Y-56880000D01*
X127500591Y-56721763D01*
X127407073Y-56576433D01*
X127264381Y-56478936D01*
X127095000Y-56444635D01*
X123095000Y-56444635D01*
X122936763Y-56474409D01*
X122791433Y-56567927D01*
X122693936Y-56710619D01*
X122659635Y-56880000D01*
X81702010Y-56880000D01*
X81702010Y-54740010D01*
X81631447Y-54385263D01*
X81430498Y-54084522D01*
X76600093Y-49254117D01*
X76465845Y-48929211D01*
X76167360Y-48630205D01*
X75777172Y-48468185D01*
X75354682Y-48467816D01*
X74964211Y-48629155D01*
X74665205Y-48927640D01*
X74503185Y-49317828D01*
X74502816Y-49740318D01*
X74664155Y-50130789D01*
X74962640Y-50429795D01*
X75289573Y-50565549D01*
X79848010Y-55123986D01*
X79848010Y-65202034D01*
X76600093Y-61954117D01*
X76465845Y-61629211D01*
X76167360Y-61330205D01*
X75777172Y-61168185D01*
X75354682Y-61167816D01*
X74964211Y-61329155D01*
X74665205Y-61627640D01*
X74503185Y-62017828D01*
X74502816Y-62440318D01*
X74664155Y-62830789D01*
X74962640Y-63129795D01*
X75289573Y-63265549D01*
X78448000Y-66423976D01*
X78448000Y-101116079D01*
X78313185Y-101440750D01*
X78312816Y-101863240D01*
X78474155Y-102253711D01*
X78772640Y-102552717D01*
X79099573Y-102688471D01*
X83651769Y-107240667D01*
X83734667Y-107296058D01*
X83614250Y-107376518D01*
X83356507Y-107762257D01*
X83266000Y-108217268D01*
X83266000Y-108952732D01*
X83356507Y-109407743D01*
X83614250Y-109793482D01*
X83999989Y-110051225D01*
X84455000Y-110141732D01*
X84910011Y-110051225D01*
X85295750Y-109793482D01*
X85553493Y-109407743D01*
X85644000Y-108952732D01*
X85644000Y-108217268D01*
X85553493Y-107762257D01*
X85386396Y-107512179D01*
X86063604Y-107512179D01*
X85896507Y-107762257D01*
X85806000Y-108217268D01*
X85806000Y-108952732D01*
X85896507Y-109407743D01*
X86154250Y-109793482D01*
X86539989Y-110051225D01*
X86995000Y-110141732D01*
X87450011Y-110051225D01*
X87835750Y-109793482D01*
X88093493Y-109407743D01*
X88184000Y-108952732D01*
X88184000Y-108217268D01*
X88093493Y-107762257D01*
X87926396Y-107512179D01*
X103193712Y-107512179D01*
X110724907Y-115043374D01*
X110800160Y-115225501D01*
X99036999Y-115225501D01*
X98777922Y-115277035D01*
X98668105Y-115350412D01*
X98558287Y-115423790D01*
X85937634Y-128044444D01*
X85846573Y-127902933D01*
X85752848Y-127838894D01*
X85989795Y-127602360D01*
X86151815Y-127212172D01*
X86152184Y-126789682D01*
X86017000Y-126462511D01*
X86017000Y-118745000D01*
X85969865Y-118508037D01*
X85969865Y-118046500D01*
X85940091Y-117888263D01*
X85846573Y-117742933D01*
X85703881Y-117645436D01*
X85534500Y-117611135D01*
X84645500Y-117611135D01*
X84487263Y-117640909D01*
X84341933Y-117734427D01*
X84244436Y-117877119D01*
X84210135Y-118046500D01*
X84210135Y-118508037D01*
X84163000Y-118745000D01*
X84163000Y-126463157D01*
X84028185Y-126787828D01*
X84027816Y-127210318D01*
X84189155Y-127600789D01*
X84427388Y-127839438D01*
X84341933Y-127894427D01*
X84244436Y-128037119D01*
X84210135Y-128206500D01*
X84210135Y-129603500D01*
X84239909Y-129761737D01*
X84333427Y-129907067D01*
X84476119Y-130004564D01*
X84645500Y-130038865D01*
X85284713Y-130038865D01*
X85012443Y-130311135D01*
X84645500Y-130311135D01*
X84487263Y-130340909D01*
X84341933Y-130434427D01*
X84244436Y-130577119D01*
X84210135Y-130746500D01*
X84210135Y-132143500D01*
X84239909Y-132301737D01*
X84333427Y-132447067D01*
X84476119Y-132544564D01*
X84645500Y-132578865D01*
X85284713Y-132578865D01*
X85012443Y-132851135D01*
X84645500Y-132851135D01*
X84487263Y-132880909D01*
X84341933Y-132974427D01*
X84244436Y-133117119D01*
X84210135Y-133286500D01*
X84210135Y-134656501D01*
X84064865Y-134656501D01*
X84064865Y-133286500D01*
X84035091Y-133128263D01*
X83941573Y-132982933D01*
X83798881Y-132885436D01*
X83629500Y-132851135D01*
X82740500Y-132851135D01*
X82582263Y-132880909D01*
X82436933Y-132974427D01*
X82339436Y-133117119D01*
X82305135Y-133286500D01*
X82305135Y-133308000D01*
X82007163Y-133308000D01*
X81990853Y-133282653D01*
X81848161Y-133185156D01*
X81678780Y-133150855D01*
X80881220Y-133150855D01*
X80722983Y-133180629D01*
X80577653Y-133274147D01*
X80530854Y-133342640D01*
X80492253Y-133282653D01*
X80349561Y-133185156D01*
X80180180Y-133150855D01*
X79382620Y-133150855D01*
X79224383Y-133180629D01*
X79079053Y-133274147D01*
X79055922Y-133308000D01*
X77366469Y-133308000D01*
X77360591Y-133276763D01*
X77267073Y-133131433D01*
X77124381Y-133033936D01*
X76955000Y-132999635D01*
X75481999Y-132999635D01*
X75481999Y-132430365D01*
X76955000Y-132430365D01*
X77113237Y-132400591D01*
X77258567Y-132307073D01*
X77356064Y-132164381D01*
X77364646Y-132122000D01*
X79054237Y-132122000D01*
X79070547Y-132147347D01*
X79213239Y-132244844D01*
X79382620Y-132279145D01*
X80180180Y-132279145D01*
X80338417Y-132249371D01*
X80483747Y-132155853D01*
X80530546Y-132087360D01*
X80569147Y-132147347D01*
X80711839Y-132244844D01*
X80881220Y-132279145D01*
X81678780Y-132279145D01*
X81837017Y-132249371D01*
X81982347Y-132155853D01*
X82005478Y-132122000D01*
X82305135Y-132122000D01*
X82305135Y-132143500D01*
X82334909Y-132301737D01*
X82428427Y-132447067D01*
X82571119Y-132544564D01*
X82740500Y-132578865D01*
X83629500Y-132578865D01*
X83787737Y-132549091D01*
X83933067Y-132455573D01*
X84030564Y-132312881D01*
X84064865Y-132143500D01*
X84064865Y-130746500D01*
X84035091Y-130588263D01*
X83941573Y-130442933D01*
X83798881Y-130345436D01*
X83629500Y-130311135D01*
X82740500Y-130311135D01*
X82582263Y-130340909D01*
X82436933Y-130434427D01*
X82339436Y-130577119D01*
X82305135Y-130746500D01*
X82305135Y-130768000D01*
X82007163Y-130768000D01*
X81990853Y-130742653D01*
X81848161Y-130645156D01*
X81678780Y-130610855D01*
X80881220Y-130610855D01*
X80722983Y-130640629D01*
X80577653Y-130734147D01*
X80530854Y-130802640D01*
X80492253Y-130742653D01*
X80349561Y-130645156D01*
X80180180Y-130610855D01*
X79382620Y-130610855D01*
X79224383Y-130640629D01*
X79079053Y-130734147D01*
X79055922Y-130768000D01*
X77366469Y-130768000D01*
X77360591Y-130736763D01*
X77267073Y-130591433D01*
X77124381Y-130493936D01*
X76955000Y-130459635D01*
X75481999Y-130459635D01*
X75481999Y-129890365D01*
X76955000Y-129890365D01*
X77113237Y-129860591D01*
X77258567Y-129767073D01*
X77356064Y-129624381D01*
X77364646Y-129582000D01*
X79054237Y-129582000D01*
X79070547Y-129607347D01*
X79213239Y-129704844D01*
X79382620Y-129739145D01*
X80180180Y-129739145D01*
X80338417Y-129709371D01*
X80483747Y-129615853D01*
X80530546Y-129547360D01*
X80569147Y-129607347D01*
X80711839Y-129704844D01*
X80881220Y-129739145D01*
X81678780Y-129739145D01*
X81837017Y-129709371D01*
X81982347Y-129615853D01*
X82005478Y-129582000D01*
X82305135Y-129582000D01*
X82305135Y-129603500D01*
X82334909Y-129761737D01*
X82428427Y-129907067D01*
X82571119Y-130004564D01*
X82740500Y-130038865D01*
X83629500Y-130038865D01*
X83787737Y-130009091D01*
X83933067Y-129915573D01*
X84030564Y-129772881D01*
X84064865Y-129603500D01*
X84064865Y-128206500D01*
X84035091Y-128048263D01*
X83941573Y-127902933D01*
X83798881Y-127805436D01*
X83629500Y-127771135D01*
X82740500Y-127771135D01*
X82582263Y-127800909D01*
X82436933Y-127894427D01*
X82339436Y-128037119D01*
X82305135Y-128206500D01*
X82305135Y-128228000D01*
X82007163Y-128228000D01*
X81990853Y-128202653D01*
X81848161Y-128105156D01*
X81678780Y-128070855D01*
X80881220Y-128070855D01*
X80722983Y-128100629D01*
X80577653Y-128194147D01*
X80530854Y-128262640D01*
X80492253Y-128202653D01*
X80349561Y-128105156D01*
X80180180Y-128070855D01*
X79382620Y-128070855D01*
X79224383Y-128100629D01*
X79079053Y-128194147D01*
X79055922Y-128228000D01*
X77366469Y-128228000D01*
X77360591Y-128196763D01*
X77267073Y-128051433D01*
X77124381Y-127953936D01*
X76955000Y-127919635D01*
X75481999Y-127919635D01*
X75481999Y-127350365D01*
X76955000Y-127350365D01*
X77113237Y-127320591D01*
X77258567Y-127227073D01*
X77356064Y-127084381D01*
X77390365Y-126915000D01*
X77390365Y-125815000D01*
X77360591Y-125656763D01*
X77267073Y-125511433D01*
X77124381Y-125413936D01*
X76955000Y-125379635D01*
X75455000Y-125379635D01*
X75296763Y-125409409D01*
X75151433Y-125502927D01*
X75053936Y-125645619D01*
X75045354Y-125688000D01*
X74955000Y-125688000D01*
X74695923Y-125739534D01*
X74627527Y-125785235D01*
X74581990Y-125815662D01*
X74581990Y-125155432D01*
X75110010Y-124627413D01*
X75142927Y-124678567D01*
X75285619Y-124776064D01*
X75455000Y-124810365D01*
X76955000Y-124810365D01*
X77113237Y-124780591D01*
X77258567Y-124687073D01*
X77356064Y-124544381D01*
X77390365Y-124375000D01*
X77390365Y-123290168D01*
X78403909Y-124303712D01*
X78623544Y-124450467D01*
X78882620Y-124502000D01*
X79054237Y-124502000D01*
X79070547Y-124527347D01*
X79213239Y-124624844D01*
X79382620Y-124659145D01*
X80180180Y-124659145D01*
X80338417Y-124629371D01*
X80483747Y-124535853D01*
X80530546Y-124467360D01*
X80569147Y-124527347D01*
X80711839Y-124624844D01*
X80881220Y-124659145D01*
X81678780Y-124659145D01*
X81837017Y-124629371D01*
X81982347Y-124535853D01*
X82005478Y-124502000D01*
X82305135Y-124502000D01*
X82305135Y-124523500D01*
X82334909Y-124681737D01*
X82428427Y-124827067D01*
X82571119Y-124924564D01*
X82740500Y-124958865D01*
X83629500Y-124958865D01*
X83787737Y-124929091D01*
X83933067Y-124835573D01*
X84030564Y-124692881D01*
X84064865Y-124523500D01*
X84064865Y-123126500D01*
X84035091Y-122968263D01*
X83941573Y-122822933D01*
X83798881Y-122725436D01*
X83629500Y-122691135D01*
X82740500Y-122691135D01*
X82582263Y-122720909D01*
X82436933Y-122814427D01*
X82339436Y-122957119D01*
X82305135Y-123126500D01*
X82305135Y-123148000D01*
X82007163Y-123148000D01*
X81990853Y-123122653D01*
X81848161Y-123025156D01*
X81678780Y-122990855D01*
X80881220Y-122990855D01*
X80722983Y-123020629D01*
X80577653Y-123114147D01*
X80530854Y-123182640D01*
X80492253Y-123122653D01*
X80349561Y-123025156D01*
X80180180Y-122990855D01*
X79382620Y-122990855D01*
X79224383Y-123020629D01*
X79109559Y-123094516D01*
X73702000Y-117686958D01*
X73702000Y-90359767D01*
X73924795Y-90137360D01*
X73977429Y-90010603D01*
X74029155Y-90135789D01*
X74253000Y-90360025D01*
X74253000Y-117332380D01*
X74304534Y-117591457D01*
X74365825Y-117683185D01*
X74451289Y-117811091D01*
X78403909Y-121763711D01*
X78623543Y-121910466D01*
X78882620Y-121962000D01*
X79054237Y-121962000D01*
X79070547Y-121987347D01*
X79213239Y-122084844D01*
X79382620Y-122119145D01*
X80180180Y-122119145D01*
X80338417Y-122089371D01*
X80483747Y-121995853D01*
X80530546Y-121927360D01*
X80569147Y-121987347D01*
X80711839Y-122084844D01*
X80881220Y-122119145D01*
X81678780Y-122119145D01*
X81837017Y-122089371D01*
X81982347Y-121995853D01*
X82005478Y-121962000D01*
X82305135Y-121962000D01*
X82305135Y-121983500D01*
X82334909Y-122141737D01*
X82428427Y-122287067D01*
X82571119Y-122384564D01*
X82740500Y-122418865D01*
X83629500Y-122418865D01*
X83787737Y-122389091D01*
X83933067Y-122295573D01*
X84030564Y-122152881D01*
X84064865Y-121983500D01*
X84064865Y-120586500D01*
X84035091Y-120428263D01*
X83941573Y-120282933D01*
X83798881Y-120185436D01*
X83629500Y-120151135D01*
X82740500Y-120151135D01*
X82582263Y-120180909D01*
X82436933Y-120274427D01*
X82339436Y-120417119D01*
X82305135Y-120586500D01*
X82305135Y-120608000D01*
X82007163Y-120608000D01*
X81990853Y-120582653D01*
X81848161Y-120485156D01*
X81678780Y-120450855D01*
X80881220Y-120450855D01*
X80722983Y-120480629D01*
X80577653Y-120574147D01*
X80530854Y-120642640D01*
X80492253Y-120582653D01*
X80349561Y-120485156D01*
X80180180Y-120450855D01*
X79382620Y-120450855D01*
X79224383Y-120480629D01*
X79109559Y-120554517D01*
X75607000Y-117051958D01*
X75607000Y-90359767D01*
X75829795Y-90137360D01*
X75882429Y-90010603D01*
X75934155Y-90135789D01*
X76158000Y-90360025D01*
X76158000Y-116697380D01*
X76209534Y-116956457D01*
X76287609Y-117073304D01*
X76356289Y-117176091D01*
X78403909Y-119223711D01*
X78623543Y-119370466D01*
X78882620Y-119422000D01*
X79054237Y-119422000D01*
X79070547Y-119447347D01*
X79213239Y-119544844D01*
X79382620Y-119579145D01*
X80180180Y-119579145D01*
X80338417Y-119549371D01*
X80483747Y-119455853D01*
X80530546Y-119387360D01*
X80569147Y-119447347D01*
X80711839Y-119544844D01*
X80881220Y-119579145D01*
X81678780Y-119579145D01*
X81837017Y-119549371D01*
X81982347Y-119455853D01*
X82005478Y-119422000D01*
X82305135Y-119422000D01*
X82305135Y-119443500D01*
X82334909Y-119601737D01*
X82428427Y-119747067D01*
X82571119Y-119844564D01*
X82740500Y-119878865D01*
X83629500Y-119878865D01*
X83787737Y-119849091D01*
X83933067Y-119755573D01*
X84030564Y-119612881D01*
X84064865Y-119443500D01*
X84064865Y-118046500D01*
X84035091Y-117888263D01*
X83941573Y-117742933D01*
X83798881Y-117645436D01*
X83629500Y-117611135D01*
X82740500Y-117611135D01*
X82582263Y-117640909D01*
X82436933Y-117734427D01*
X82339436Y-117877119D01*
X82305135Y-118046500D01*
X82305135Y-118068000D01*
X82007163Y-118068000D01*
X81990853Y-118042653D01*
X81848161Y-117945156D01*
X81678780Y-117910855D01*
X80881220Y-117910855D01*
X80722983Y-117940629D01*
X80577653Y-118034147D01*
X80530854Y-118102640D01*
X80492253Y-118042653D01*
X80349561Y-117945156D01*
X80180180Y-117910855D01*
X79382620Y-117910855D01*
X79224383Y-117940629D01*
X79109559Y-118014517D01*
X77512000Y-116416958D01*
X77512000Y-111930180D01*
X96643435Y-111930180D01*
X96643435Y-114129820D01*
X96673209Y-114288057D01*
X96766727Y-114433387D01*
X96909419Y-114530884D01*
X97078800Y-114565185D01*
X98602800Y-114565185D01*
X98761037Y-114535411D01*
X98906367Y-114441893D01*
X99003864Y-114299201D01*
X99038165Y-114129820D01*
X99038165Y-112662268D01*
X99191800Y-112662268D01*
X99191800Y-113397732D01*
X99282307Y-113852743D01*
X99540050Y-114238482D01*
X99925789Y-114496225D01*
X100380800Y-114586732D01*
X100835811Y-114496225D01*
X101221550Y-114238482D01*
X101479293Y-113852743D01*
X101569800Y-113397732D01*
X101569800Y-112662268D01*
X101731800Y-112662268D01*
X101731800Y-113397732D01*
X101822307Y-113852743D01*
X102080050Y-114238482D01*
X102465789Y-114496225D01*
X102920800Y-114586732D01*
X103375811Y-114496225D01*
X103761550Y-114238482D01*
X104019293Y-113852743D01*
X104109800Y-113397732D01*
X104109800Y-112662268D01*
X104271800Y-112662268D01*
X104271800Y-113397732D01*
X104362307Y-113852743D01*
X104620050Y-114238482D01*
X105005789Y-114496225D01*
X105460800Y-114586732D01*
X105915811Y-114496225D01*
X106301550Y-114238482D01*
X106559293Y-113852743D01*
X106649800Y-113397732D01*
X106649800Y-112662268D01*
X106559293Y-112207257D01*
X106301550Y-111821518D01*
X105915811Y-111563775D01*
X105460800Y-111473268D01*
X105005789Y-111563775D01*
X104620050Y-111821518D01*
X104362307Y-112207257D01*
X104271800Y-112662268D01*
X104109800Y-112662268D01*
X104019293Y-112207257D01*
X103761550Y-111821518D01*
X103375811Y-111563775D01*
X102920800Y-111473268D01*
X102465789Y-111563775D01*
X102080050Y-111821518D01*
X101822307Y-112207257D01*
X101731800Y-112662268D01*
X101569800Y-112662268D01*
X101479293Y-112207257D01*
X101221550Y-111821518D01*
X100835811Y-111563775D01*
X100380800Y-111473268D01*
X99925789Y-111563775D01*
X99540050Y-111821518D01*
X99282307Y-112207257D01*
X99191800Y-112662268D01*
X99038165Y-112662268D01*
X99038165Y-111930180D01*
X99008391Y-111771943D01*
X98914873Y-111626613D01*
X98772181Y-111529116D01*
X98602800Y-111494815D01*
X97078800Y-111494815D01*
X96920563Y-111524589D01*
X96775233Y-111618107D01*
X96677736Y-111760799D01*
X96643435Y-111930180D01*
X77512000Y-111930180D01*
X77512000Y-108217268D01*
X80726000Y-108217268D01*
X80726000Y-108952732D01*
X80816507Y-109407743D01*
X81074250Y-109793482D01*
X81459989Y-110051225D01*
X81915000Y-110141732D01*
X82370011Y-110051225D01*
X82755750Y-109793482D01*
X83013493Y-109407743D01*
X83104000Y-108952732D01*
X83104000Y-108217268D01*
X83013493Y-107762257D01*
X82755750Y-107376518D01*
X82370011Y-107118775D01*
X81915000Y-107028268D01*
X81459989Y-107118775D01*
X81074250Y-107376518D01*
X80816507Y-107762257D01*
X80726000Y-108217268D01*
X77512000Y-108217268D01*
X77512000Y-90359767D01*
X77734795Y-90137360D01*
X77896815Y-89747172D01*
X77897184Y-89324682D01*
X77735845Y-88934211D01*
X77437360Y-88635205D01*
X77047172Y-88473185D01*
X76624682Y-88472816D01*
X76234211Y-88634155D01*
X75935205Y-88932640D01*
X75882571Y-89059397D01*
X75830845Y-88934211D01*
X75532360Y-88635205D01*
X75142172Y-88473185D01*
X74719682Y-88472816D01*
X74329211Y-88634155D01*
X74030205Y-88932640D01*
X73977571Y-89059397D01*
X73925845Y-88934211D01*
X73627360Y-88635205D01*
X73237172Y-88473185D01*
X72814682Y-88472816D01*
X72424211Y-88634155D01*
X72125205Y-88932640D01*
X71963185Y-89322828D01*
X71962816Y-89745318D01*
X68825828Y-89745318D01*
X68767743Y-89706507D01*
X68312732Y-89616000D01*
X67577268Y-89616000D01*
X67122257Y-89706507D01*
X66736518Y-89964250D01*
X66478775Y-90349989D01*
X66388268Y-90805000D01*
X62477000Y-90805000D01*
X62477000Y-72390000D01*
X66875043Y-72390000D01*
X66964637Y-72840418D01*
X67219778Y-73222265D01*
X67601625Y-73477406D01*
X68052043Y-73567000D01*
X68607957Y-73567000D01*
X69058375Y-73477406D01*
X69440222Y-73222265D01*
X69695363Y-72840418D01*
X69784957Y-72390000D01*
X69695363Y-71939582D01*
X69495190Y-71640000D01*
X69934635Y-71640000D01*
X69934635Y-73140000D01*
X69964409Y-73298237D01*
X70057927Y-73443567D01*
X70200619Y-73541064D01*
X70370000Y-73575365D01*
X72370000Y-73575365D01*
X72528237Y-73545591D01*
X72673567Y-73452073D01*
X72771064Y-73309381D01*
X72805365Y-73140000D01*
X72805365Y-71640000D01*
X72775591Y-71481763D01*
X72682073Y-71336433D01*
X72539381Y-71238936D01*
X72370000Y-71204635D01*
X70370000Y-71204635D01*
X70211763Y-71234409D01*
X70066433Y-71327927D01*
X69968936Y-71470619D01*
X69934635Y-71640000D01*
X69495190Y-71640000D01*
X69440222Y-71557735D01*
X69058375Y-71302594D01*
X68607957Y-71213000D01*
X68052043Y-71213000D01*
X67601625Y-71302594D01*
X67219778Y-71557735D01*
X66964637Y-71939582D01*
X66875043Y-72390000D01*
X62477000Y-72390000D01*
X62477000Y-69850000D01*
X66875043Y-69850000D01*
X66964637Y-70300418D01*
X67219778Y-70682265D01*
X67601625Y-70937406D01*
X68052043Y-71027000D01*
X68607957Y-71027000D01*
X69058375Y-70937406D01*
X69440222Y-70682265D01*
X69695363Y-70300418D01*
X69784957Y-69850000D01*
X69915043Y-69850000D01*
X70004637Y-70300418D01*
X70259778Y-70682265D01*
X70641625Y-70937406D01*
X71092043Y-71027000D01*
X71647957Y-71027000D01*
X72098375Y-70937406D01*
X72480222Y-70682265D01*
X72735363Y-70300418D01*
X72824957Y-69850000D01*
X72735363Y-69399582D01*
X72480222Y-69017735D01*
X72098375Y-68762594D01*
X71647957Y-68673000D01*
X71092043Y-68673000D01*
X70641625Y-68762594D01*
X70259778Y-69017735D01*
X70004637Y-69399582D01*
X69915043Y-69850000D01*
X69784957Y-69850000D01*
X69695363Y-69399582D01*
X69440222Y-69017735D01*
X69058375Y-68762594D01*
X68607957Y-68673000D01*
X68052043Y-68673000D01*
X67601625Y-68762594D01*
X67219778Y-69017735D01*
X66964637Y-69399582D01*
X66875043Y-69850000D01*
X62477000Y-69850000D01*
X62477000Y-67310000D01*
X66875043Y-67310000D01*
X66964637Y-67760418D01*
X67219778Y-68142265D01*
X67601625Y-68397406D01*
X68052043Y-68487000D01*
X68607957Y-68487000D01*
X69058375Y-68397406D01*
X69440222Y-68142265D01*
X69695363Y-67760418D01*
X69784957Y-67310000D01*
X69915043Y-67310000D01*
X70004637Y-67760418D01*
X70259778Y-68142265D01*
X70641625Y-68397406D01*
X71092043Y-68487000D01*
X71647957Y-68487000D01*
X72098375Y-68397406D01*
X72480222Y-68142265D01*
X72735363Y-67760418D01*
X72824957Y-67310000D01*
X72735363Y-66859582D01*
X72480222Y-66477735D01*
X72098375Y-66222594D01*
X71647957Y-66133000D01*
X71092043Y-66133000D01*
X70641625Y-66222594D01*
X70259778Y-66477735D01*
X70004637Y-66859582D01*
X69915043Y-67310000D01*
X69784957Y-67310000D01*
X69695363Y-66859582D01*
X69440222Y-66477735D01*
X69058375Y-66222594D01*
X68607957Y-66133000D01*
X68052043Y-66133000D01*
X67601625Y-66222594D01*
X67219778Y-66477735D01*
X66964637Y-66859582D01*
X66875043Y-67310000D01*
X62477000Y-67310000D01*
X62477000Y-64770000D01*
X66875043Y-64770000D01*
X66964637Y-65220418D01*
X67219778Y-65602265D01*
X67601625Y-65857406D01*
X68052043Y-65947000D01*
X68607957Y-65947000D01*
X69058375Y-65857406D01*
X69440222Y-65602265D01*
X69695363Y-65220418D01*
X69784957Y-64770000D01*
X69915043Y-64770000D01*
X70004637Y-65220418D01*
X70259778Y-65602265D01*
X70641625Y-65857406D01*
X71092043Y-65947000D01*
X71647957Y-65947000D01*
X72098375Y-65857406D01*
X72480222Y-65602265D01*
X72735363Y-65220418D01*
X72824957Y-64770000D01*
X72735363Y-64319582D01*
X72480222Y-63937735D01*
X72098375Y-63682594D01*
X71647957Y-63593000D01*
X71092043Y-63593000D01*
X70641625Y-63682594D01*
X70259778Y-63937735D01*
X70004637Y-64319582D01*
X69915043Y-64770000D01*
X69784957Y-64770000D01*
X69695363Y-64319582D01*
X69440222Y-63937735D01*
X69058375Y-63682594D01*
X68607957Y-63593000D01*
X68052043Y-63593000D01*
X67601625Y-63682594D01*
X67219778Y-63937735D01*
X66964637Y-64319582D01*
X66875043Y-64770000D01*
X62477000Y-64770000D01*
X62477000Y-62230000D01*
X69915043Y-62230000D01*
X70004637Y-62680418D01*
X70259778Y-63062265D01*
X70641625Y-63317406D01*
X71092043Y-63407000D01*
X71647957Y-63407000D01*
X72098375Y-63317406D01*
X72480222Y-63062265D01*
X72735363Y-62680418D01*
X72824957Y-62230000D01*
X72735363Y-61779582D01*
X72480222Y-61397735D01*
X72098375Y-61142594D01*
X71647957Y-61053000D01*
X71092043Y-61053000D01*
X70641625Y-61142594D01*
X70259778Y-61397735D01*
X70004637Y-61779582D01*
X69915043Y-62230000D01*
X62477000Y-62230000D01*
X62477000Y-46622268D01*
X71836000Y-46622268D01*
X71836000Y-47357732D01*
X71926507Y-47812743D01*
X72184250Y-48198482D01*
X72569989Y-48456225D01*
X73025000Y-48546732D01*
X73480011Y-48456225D01*
X73865750Y-48198482D01*
X74123493Y-47812743D01*
X74214000Y-47357732D01*
X74214000Y-46622268D01*
X74123493Y-46167257D01*
X73865750Y-45781518D01*
X73480011Y-45523775D01*
X73025000Y-45433268D01*
X72569989Y-45523775D01*
X72184250Y-45781518D01*
X71926507Y-46167257D01*
X71836000Y-46622268D01*
X62477000Y-46622268D01*
X62477000Y-43477000D01*
X139953018Y-43477000D01*
X140196568Y-43525445D01*
X140196568Y-43525445D01*
G37*
X140196568Y-43525445D02*
X140363209Y-43636791D01*
X140474555Y-43803432D01*
X140523000Y-44046982D01*
X140523000Y-56000000D01*
X140532165Y-56046076D01*
X140532165Y-56093058D01*
X140912767Y-58006475D01*
X140983991Y-58178424D01*
X142067855Y-59800541D01*
X142199459Y-59932146D01*
X142199463Y-59932148D01*
X143821576Y-61016009D01*
X143993525Y-61087233D01*
X145906942Y-61467835D01*
X145953924Y-61467835D01*
X146000000Y-61477000D01*
X187953018Y-61477000D01*
X188196568Y-61525445D01*
X188363209Y-61636791D01*
X188474555Y-61803432D01*
X188523000Y-62046982D01*
X188523000Y-136953018D01*
X188474555Y-137196568D01*
X188363209Y-137363209D01*
X188196568Y-137474555D01*
X187953018Y-137523000D01*
X170000000Y-137523000D01*
X169953924Y-137532165D01*
X169906942Y-137532165D01*
X167993525Y-137912767D01*
X167821576Y-137983991D01*
X166199463Y-139067852D01*
X166199459Y-139067854D01*
X166067855Y-139199459D01*
X164983991Y-140821576D01*
X164912767Y-140993525D01*
X164532165Y-142906942D01*
X164532165Y-142953924D01*
X164523000Y-143000000D01*
X164523000Y-151953018D01*
X164474555Y-152196568D01*
X164363209Y-152363209D01*
X164196568Y-152474555D01*
X163953018Y-152523000D01*
X81046982Y-152523000D01*
X80803432Y-152474555D01*
X80636791Y-152363209D01*
X80525445Y-152196568D01*
X80477000Y-151953018D01*
X80477000Y-147587268D01*
X115016000Y-147587268D01*
X115016000Y-148322732D01*
X115106507Y-148777743D01*
X115364250Y-149163482D01*
X115749989Y-149421225D01*
X116205000Y-149511732D01*
X116660011Y-149421225D01*
X117045750Y-149163482D01*
X117303493Y-148777743D01*
X117394000Y-148322732D01*
X117394000Y-147587268D01*
X117556000Y-147587268D01*
X117556000Y-148322732D01*
X117646507Y-148777743D01*
X117904250Y-149163482D01*
X118289989Y-149421225D01*
X118745000Y-149511732D01*
X119200011Y-149421225D01*
X119585750Y-149163482D01*
X119843493Y-148777743D01*
X119934000Y-148322732D01*
X119934000Y-147587268D01*
X120096000Y-147587268D01*
X120096000Y-148322732D01*
X120186507Y-148777743D01*
X120444250Y-149163482D01*
X120829989Y-149421225D01*
X121285000Y-149511732D01*
X121740011Y-149421225D01*
X122125750Y-149163482D01*
X122383493Y-148777743D01*
X122474000Y-148322732D01*
X122474000Y-147587268D01*
X122636000Y-147587268D01*
X122636000Y-148322732D01*
X122726507Y-148777743D01*
X122984250Y-149163482D01*
X123369989Y-149421225D01*
X123825000Y-149511732D01*
X124280011Y-149421225D01*
X124665750Y-149163482D01*
X124923493Y-148777743D01*
X125014000Y-148322732D01*
X125014000Y-147587268D01*
X124923493Y-147132257D01*
X124738356Y-146855180D01*
X127707635Y-146855180D01*
X127707635Y-149054820D01*
X127737409Y-149213057D01*
X127830927Y-149358387D01*
X127973619Y-149455884D01*
X128143000Y-149490185D01*
X129667000Y-149490185D01*
X129825237Y-149460411D01*
X129970567Y-149366893D01*
X130068064Y-149224201D01*
X130102365Y-149054820D01*
X130102365Y-146855180D01*
X130072591Y-146696943D01*
X129979073Y-146551613D01*
X129836381Y-146454116D01*
X129667000Y-146419815D01*
X128143000Y-146419815D01*
X127984763Y-146449589D01*
X127839433Y-146543107D01*
X127741936Y-146685799D01*
X127707635Y-146855180D01*
X124738356Y-146855180D01*
X124665750Y-146746518D01*
X124280011Y-146488775D01*
X123825000Y-146398268D01*
X123369989Y-146488775D01*
X122984250Y-146746518D01*
X122726507Y-147132257D01*
X122636000Y-147587268D01*
X122474000Y-147587268D01*
X122383493Y-147132257D01*
X122125750Y-146746518D01*
X121740011Y-146488775D01*
X121285000Y-146398268D01*
X120829989Y-146488775D01*
X120444250Y-146746518D01*
X120186507Y-147132257D01*
X120096000Y-147587268D01*
X119934000Y-147587268D01*
X119843493Y-147132257D01*
X119585750Y-146746518D01*
X119200011Y-146488775D01*
X118745000Y-146398268D01*
X118289989Y-146488775D01*
X117904250Y-146746518D01*
X117646507Y-147132257D01*
X117556000Y-147587268D01*
X117394000Y-147587268D01*
X117303493Y-147132257D01*
X117045750Y-146746518D01*
X116660011Y-146488775D01*
X116205000Y-146398268D01*
X115749989Y-146488775D01*
X115364250Y-146746518D01*
X115106507Y-147132257D01*
X115016000Y-147587268D01*
X80477000Y-147587268D01*
X80477000Y-143000000D01*
X80467835Y-142953924D01*
X80467835Y-142906942D01*
X80087233Y-140993525D01*
X80016009Y-140821576D01*
X78932148Y-139199463D01*
X78932146Y-139199459D01*
X78800541Y-139067855D01*
X78245919Y-138697268D01*
X94061000Y-138697268D01*
X94061000Y-139432732D01*
X94151507Y-139887743D01*
X94409250Y-140273482D01*
X94794989Y-140531225D01*
X95250000Y-140621732D01*
X95705011Y-140531225D01*
X96090750Y-140273482D01*
X96348493Y-139887743D01*
X96439000Y-139432732D01*
X96439000Y-138697268D01*
X96601000Y-138697268D01*
X96601000Y-139432732D01*
X96691507Y-139887743D01*
X96949250Y-140273482D01*
X97334989Y-140531225D01*
X97790000Y-140621732D01*
X98245011Y-140531225D01*
X98630750Y-140273482D01*
X98888493Y-139887743D01*
X98979000Y-139432732D01*
X98979000Y-138697268D01*
X99141000Y-138697268D01*
X99141000Y-139432732D01*
X99231507Y-139887743D01*
X99489250Y-140273482D01*
X99874989Y-140531225D01*
X100330000Y-140621732D01*
X100785011Y-140531225D01*
X101170750Y-140273482D01*
X101428493Y-139887743D01*
X101519000Y-139432732D01*
X101519000Y-138697268D01*
X101681000Y-138697268D01*
X101681000Y-139432732D01*
X101771507Y-139887743D01*
X102029250Y-140273482D01*
X102414989Y-140531225D01*
X102870000Y-140621732D01*
X103325011Y-140531225D01*
X103710750Y-140273482D01*
X103968493Y-139887743D01*
X104059000Y-139432732D01*
X104059000Y-138697268D01*
X104221000Y-138697268D01*
X104221000Y-139432732D01*
X104311507Y-139887743D01*
X104569250Y-140273482D01*
X104954989Y-140531225D01*
X105410000Y-140621732D01*
X105865011Y-140531225D01*
X106250750Y-140273482D01*
X106508493Y-139887743D01*
X106599000Y-139432732D01*
X106599000Y-138697268D01*
X137876000Y-138697268D01*
X137876000Y-139432732D01*
X137966507Y-139887743D01*
X138224250Y-140273482D01*
X138609989Y-140531225D01*
X139065000Y-140621732D01*
X139520011Y-140531225D01*
X139905750Y-140273482D01*
X140163493Y-139887743D01*
X140254000Y-139432732D01*
X140254000Y-138697268D01*
X140416000Y-138697268D01*
X140416000Y-139432732D01*
X140506507Y-139887743D01*
X140764250Y-140273482D01*
X141149989Y-140531225D01*
X141605000Y-140621732D01*
X142060011Y-140531225D01*
X142445750Y-140273482D01*
X142703493Y-139887743D01*
X142794000Y-139432732D01*
X142794000Y-138697268D01*
X142956000Y-138697268D01*
X142956000Y-139432732D01*
X143046507Y-139887743D01*
X143304250Y-140273482D01*
X143689989Y-140531225D01*
X144145000Y-140621732D01*
X144600011Y-140531225D01*
X144985750Y-140273482D01*
X145243493Y-139887743D01*
X145334000Y-139432732D01*
X145334000Y-138697268D01*
X145496000Y-138697268D01*
X145496000Y-139432732D01*
X145586507Y-139887743D01*
X145844250Y-140273482D01*
X146229989Y-140531225D01*
X146685000Y-140621732D01*
X147140011Y-140531225D01*
X147525750Y-140273482D01*
X147783493Y-139887743D01*
X147874000Y-139432732D01*
X147874000Y-138697268D01*
X148036000Y-138697268D01*
X148036000Y-139432732D01*
X148126507Y-139887743D01*
X148384250Y-140273482D01*
X148769989Y-140531225D01*
X149225000Y-140621732D01*
X149680011Y-140531225D01*
X150065750Y-140273482D01*
X150323493Y-139887743D01*
X150414000Y-139432732D01*
X150414000Y-138697268D01*
X150323493Y-138242257D01*
X150065750Y-137856518D01*
X149680011Y-137598775D01*
X149225000Y-137508268D01*
X148769989Y-137598775D01*
X148384250Y-137856518D01*
X148126507Y-138242257D01*
X148036000Y-138697268D01*
X147874000Y-138697268D01*
X147783493Y-138242257D01*
X147525750Y-137856518D01*
X147140011Y-137598775D01*
X146685000Y-137508268D01*
X146229989Y-137598775D01*
X145844250Y-137856518D01*
X145586507Y-138242257D01*
X145496000Y-138697268D01*
X145334000Y-138697268D01*
X145243493Y-138242257D01*
X144985750Y-137856518D01*
X144600011Y-137598775D01*
X144145000Y-137508268D01*
X143689989Y-137598775D01*
X143304250Y-137856518D01*
X143046507Y-138242257D01*
X142956000Y-138697268D01*
X142794000Y-138697268D01*
X142703493Y-138242257D01*
X142445750Y-137856518D01*
X142060011Y-137598775D01*
X141605000Y-137508268D01*
X141149989Y-137598775D01*
X140764250Y-137856518D01*
X140506507Y-138242257D01*
X140416000Y-138697268D01*
X140254000Y-138697268D01*
X140163493Y-138242257D01*
X139905750Y-137856518D01*
X139520011Y-137598775D01*
X139065000Y-137508268D01*
X138609989Y-137598775D01*
X138224250Y-137856518D01*
X137966507Y-138242257D01*
X137876000Y-138697268D01*
X106599000Y-138697268D01*
X106508493Y-138242257D01*
X106250750Y-137856518D01*
X105865011Y-137598775D01*
X105410000Y-137508268D01*
X104954989Y-137598775D01*
X104569250Y-137856518D01*
X104311507Y-138242257D01*
X104221000Y-138697268D01*
X104059000Y-138697268D01*
X103968493Y-138242257D01*
X103710750Y-137856518D01*
X103325011Y-137598775D01*
X102870000Y-137508268D01*
X102414989Y-137598775D01*
X102029250Y-137856518D01*
X101771507Y-138242257D01*
X101681000Y-138697268D01*
X101519000Y-138697268D01*
X101428493Y-138242257D01*
X101170750Y-137856518D01*
X100785011Y-137598775D01*
X100330000Y-137508268D01*
X99874989Y-137598775D01*
X99489250Y-137856518D01*
X99231507Y-138242257D01*
X99141000Y-138697268D01*
X98979000Y-138697268D01*
X98888493Y-138242257D01*
X98630750Y-137856518D01*
X98245011Y-137598775D01*
X97790000Y-137508268D01*
X97334989Y-137598775D01*
X96949250Y-137856518D01*
X96691507Y-138242257D01*
X96601000Y-138697268D01*
X96439000Y-138697268D01*
X96348493Y-138242257D01*
X96090750Y-137856518D01*
X95705011Y-137598775D01*
X95250000Y-137508268D01*
X94794989Y-137598775D01*
X94409250Y-137856518D01*
X94151507Y-138242257D01*
X94061000Y-138697268D01*
X78245919Y-138697268D01*
X77178424Y-137983991D01*
X77006475Y-137912767D01*
X75093058Y-137532165D01*
X75046076Y-137532165D01*
X75000000Y-137523000D01*
X63046982Y-137523000D01*
X62803432Y-137474555D01*
X62636791Y-137363209D01*
X62525445Y-137196568D01*
X62477000Y-136953018D01*
X62477000Y-118745000D01*
X66388268Y-118745000D01*
X66478775Y-119200011D01*
X66736518Y-119585750D01*
X67122257Y-119843493D01*
X67577268Y-119934000D01*
X68312732Y-119934000D01*
X68767743Y-119843493D01*
X69153482Y-119585750D01*
X69411225Y-119200011D01*
X69501732Y-118745000D01*
X69411225Y-118289989D01*
X69153482Y-117904250D01*
X68767743Y-117646507D01*
X68312732Y-117556000D01*
X67577268Y-117556000D01*
X67122257Y-117646507D01*
X66736518Y-117904250D01*
X66478775Y-118289989D01*
X66388268Y-118745000D01*
X62477000Y-118745000D01*
X62477000Y-116205000D01*
X66388268Y-116205000D01*
X66478775Y-116660011D01*
X66736518Y-117045750D01*
X67122257Y-117303493D01*
X67577268Y-117394000D01*
X68312732Y-117394000D01*
X68767743Y-117303493D01*
X69153482Y-117045750D01*
X69411225Y-116660011D01*
X69501732Y-116205000D01*
X69411225Y-115749989D01*
X69153482Y-115364250D01*
X68767743Y-115106507D01*
X68312732Y-115016000D01*
X67577268Y-115016000D01*
X67122257Y-115106507D01*
X66736518Y-115364250D01*
X66478775Y-115749989D01*
X66388268Y-116205000D01*
X62477000Y-116205000D01*
X62477000Y-113665000D01*
X66388268Y-113665000D01*
X66478775Y-114120011D01*
X66736518Y-114505750D01*
X67122257Y-114763493D01*
X67577268Y-114854000D01*
X68312732Y-114854000D01*
X68767743Y-114763493D01*
X69153482Y-114505750D01*
X69411225Y-114120011D01*
X69501732Y-113665000D01*
X69411225Y-113209989D01*
X69153482Y-112824250D01*
X68767743Y-112566507D01*
X68312732Y-112476000D01*
X67577268Y-112476000D01*
X67122257Y-112566507D01*
X66736518Y-112824250D01*
X66478775Y-113209989D01*
X66388268Y-113665000D01*
X62477000Y-113665000D01*
X62477000Y-111125000D01*
X66388268Y-111125000D01*
X66478775Y-111580011D01*
X66736518Y-111965750D01*
X67122257Y-112223493D01*
X67577268Y-112314000D01*
X68312732Y-112314000D01*
X68767743Y-112223493D01*
X69153482Y-111965750D01*
X69411225Y-111580011D01*
X69501732Y-111125000D01*
X69411225Y-110669989D01*
X69153482Y-110284250D01*
X68767743Y-110026507D01*
X68312732Y-109936000D01*
X67577268Y-109936000D01*
X67122257Y-110026507D01*
X66736518Y-110284250D01*
X66478775Y-110669989D01*
X66388268Y-111125000D01*
X62477000Y-111125000D01*
X62477000Y-108585000D01*
X66388268Y-108585000D01*
X66478775Y-109040011D01*
X66736518Y-109425750D01*
X67122257Y-109683493D01*
X67577268Y-109774000D01*
X68312732Y-109774000D01*
X68767743Y-109683493D01*
X69153482Y-109425750D01*
X69411225Y-109040011D01*
X69501732Y-108585000D01*
X69411225Y-108129989D01*
X69153482Y-107744250D01*
X68767743Y-107486507D01*
X68312732Y-107396000D01*
X67577268Y-107396000D01*
X67122257Y-107486507D01*
X66736518Y-107744250D01*
X66478775Y-108129989D01*
X66388268Y-108585000D01*
X62477000Y-108585000D01*
X62477000Y-97663000D01*
X66409815Y-97663000D01*
X66409815Y-99187000D01*
X66439589Y-99345237D01*
X66533107Y-99490567D01*
X66675799Y-99588064D01*
X66845180Y-99622365D01*
X69044820Y-99622365D01*
X69203057Y-99592591D01*
X69348387Y-99499073D01*
X69445884Y-99356381D01*
X69480185Y-99187000D01*
X69480185Y-97663000D01*
X69450411Y-97504763D01*
X69356893Y-97359433D01*
X69214201Y-97261936D01*
X69044820Y-97227635D01*
X66845180Y-97227635D01*
X66686943Y-97257409D01*
X66541613Y-97350927D01*
X66444116Y-97493619D01*
X66409815Y-97663000D01*
X62477000Y-97663000D01*
X62477000Y-95885000D01*
X66388268Y-95885000D01*
X66478775Y-96340011D01*
X66736518Y-96725750D01*
X67122257Y-96983493D01*
X67577268Y-97074000D01*
X68312732Y-97074000D01*
X68767743Y-96983493D01*
X69153482Y-96725750D01*
X69411225Y-96340011D01*
X69501732Y-95885000D01*
X69411225Y-95429989D01*
X69153482Y-95044250D01*
X68767743Y-94786507D01*
X68312732Y-94696000D01*
X67577268Y-94696000D01*
X67122257Y-94786507D01*
X66736518Y-95044250D01*
X66478775Y-95429989D01*
X66388268Y-95885000D01*
X62477000Y-95885000D01*
X62477000Y-93345000D01*
X66388268Y-93345000D01*
X66478775Y-93800011D01*
X66736518Y-94185750D01*
X67122257Y-94443493D01*
X67577268Y-94534000D01*
X68312732Y-94534000D01*
X68767743Y-94443493D01*
X69153482Y-94185750D01*
X69411225Y-93800011D01*
X69501732Y-93345000D01*
X69411225Y-92889989D01*
X69153482Y-92504250D01*
X68767743Y-92246507D01*
X68312732Y-92156000D01*
X67577268Y-92156000D01*
X67122257Y-92246507D01*
X66736518Y-92504250D01*
X66478775Y-92889989D01*
X66388268Y-93345000D01*
X62477000Y-93345000D01*
X62477000Y-90805000D01*
X66388268Y-90805000D01*
X66478775Y-91260011D01*
X66736518Y-91645750D01*
X67122257Y-91903493D01*
X67577268Y-91994000D01*
X68312732Y-91994000D01*
X68767743Y-91903493D01*
X69153482Y-91645750D01*
X69411225Y-91260011D01*
X69501732Y-90805000D01*
X69411225Y-90349989D01*
X69153482Y-89964250D01*
X68825828Y-89745318D01*
X71962816Y-89745318D01*
X72124155Y-90135789D01*
X72348000Y-90360025D01*
X72348000Y-117967380D01*
X72399534Y-118226457D01*
X72501808Y-118379521D01*
X72546289Y-118446091D01*
X76939832Y-122839635D01*
X75455000Y-122839635D01*
X75296763Y-122869409D01*
X75151433Y-122962927D01*
X75053936Y-123105619D01*
X75045354Y-123148000D01*
X74955000Y-123148000D01*
X74695923Y-123199534D01*
X74610160Y-123256839D01*
X74476288Y-123346289D01*
X73426279Y-124396299D01*
X73279524Y-124615933D01*
X73227990Y-124875010D01*
X73227990Y-135427798D01*
X73279524Y-135686875D01*
X73363272Y-135812212D01*
X73426279Y-135906509D01*
X74231992Y-136712222D01*
X74451626Y-136858977D01*
X74710703Y-136910511D01*
X120047902Y-136910510D01*
X120306979Y-136858976D01*
X120526613Y-136712221D01*
X130781233Y-126457603D01*
X130927988Y-126237968D01*
X130979521Y-125978892D01*
X130979521Y-116547652D01*
X131017816Y-116547652D01*
X131179155Y-116938123D01*
X131477640Y-117237129D01*
X131867828Y-117399149D01*
X132290318Y-117399518D01*
X132680789Y-117238179D01*
X132979795Y-116939694D01*
X133141815Y-116549506D01*
X133142184Y-116127016D01*
X132980845Y-115736545D01*
X132801722Y-115557109D01*
X132801722Y-114036559D01*
X132825511Y-114026730D01*
X133124517Y-113728245D01*
X133286537Y-113338057D01*
X133286906Y-112915567D01*
X133125567Y-112525096D01*
X132827082Y-112226090D01*
X132436894Y-112064070D01*
X132014404Y-112063701D01*
X131623933Y-112225040D01*
X131324927Y-112523525D01*
X131162907Y-112913713D01*
X131162538Y-113336203D01*
X131323877Y-113726674D01*
X131622362Y-114025680D01*
X131647722Y-114036210D01*
X131647722Y-115366862D01*
X131479211Y-115436489D01*
X131180205Y-115734974D01*
X131018185Y-116125162D01*
X131017816Y-116547652D01*
X130979521Y-116547652D01*
X130979521Y-104902521D01*
X130957139Y-104790000D01*
X130927988Y-104643445D01*
X130781233Y-104423810D01*
X130281232Y-103923810D01*
X130281230Y-103923807D01*
X116631909Y-90274487D01*
X116632184Y-89959682D01*
X116470845Y-89569211D01*
X116172360Y-89270205D01*
X115782172Y-89108185D01*
X115359682Y-89107816D01*
X114969211Y-89269155D01*
X114670205Y-89567640D01*
X114508185Y-89957828D01*
X114507816Y-90380318D01*
X114669155Y-90770789D01*
X114967640Y-91069795D01*
X115357828Y-91231815D01*
X115674670Y-91232092D01*
X129323807Y-104881230D01*
X129323810Y-104881232D01*
X129625521Y-105182944D01*
X129625521Y-105808099D01*
X114091909Y-90274487D01*
X114092184Y-89959682D01*
X113930845Y-89569211D01*
X113632360Y-89270205D01*
X113242172Y-89108185D01*
X112819682Y-89107816D01*
X112429211Y-89269155D01*
X112130205Y-89567640D01*
X111968185Y-89957828D01*
X111967816Y-90380318D01*
X112129155Y-90770789D01*
X112427640Y-91069795D01*
X112817828Y-91231815D01*
X113134670Y-91232092D01*
X128725511Y-106822933D01*
X128725511Y-111000727D01*
X119659286Y-101934502D01*
X119597582Y-101893273D01*
X119358546Y-101733554D01*
X119003798Y-101662990D01*
X96623966Y-101662990D01*
X81702010Y-86741034D01*
X81702010Y-83566622D01*
X112137666Y-83566622D01*
X112430416Y-84275132D01*
X112972017Y-84817678D01*
X113680014Y-85111665D01*
X114446622Y-85112334D01*
X115155132Y-84819584D01*
X115697678Y-84277983D01*
X115991665Y-83569986D01*
X115992334Y-82803378D01*
X115699584Y-82094868D01*
X115157983Y-81552322D01*
X114449986Y-81258335D01*
X113683378Y-81257666D01*
X112974868Y-81550416D01*
X112432322Y-82092017D01*
X112138335Y-82800014D01*
X112137666Y-83566622D01*
X81702010Y-83566622D01*
X81702010Y-74577350D01*
X127208000Y-74577350D01*
X127208000Y-75662650D01*
X127335654Y-76304410D01*
X127699182Y-76848468D01*
X128243240Y-77211996D01*
X128885000Y-77339650D01*
X129526760Y-77211996D01*
X130070818Y-76848468D01*
X130434346Y-76304410D01*
X130562000Y-75662650D01*
X130562000Y-74577350D01*
X130434346Y-73935590D01*
X130070818Y-73391532D01*
X129526760Y-73028004D01*
X128885000Y-72900350D01*
X128243240Y-73028004D01*
X127699182Y-73391532D01*
X127335654Y-73935590D01*
X127208000Y-74577350D01*
X81702010Y-74577350D01*
X81702010Y-64836328D01*
X122999826Y-64836328D01*
X123161165Y-65226799D01*
X123459650Y-65525805D01*
X123849838Y-65687825D01*
X124272328Y-65688194D01*
X124662799Y-65526855D01*
X124887035Y-65303010D01*
X127831665Y-65303010D01*
X127699182Y-65391532D01*
X127335654Y-65935590D01*
X127208000Y-66577350D01*
X127208000Y-67662650D01*
X127335654Y-68304410D01*
X127699182Y-68848468D01*
X128243240Y-69211996D01*
X128885000Y-69339650D01*
X129526760Y-69211996D01*
X129621000Y-69149027D01*
X129621000Y-71120000D01*
X129642324Y-71253251D01*
X152502324Y-140849251D01*
X152601923Y-141013735D01*
X152741873Y-141109358D01*
X152908000Y-141143000D01*
X163576000Y-141143000D01*
X163731196Y-141113798D01*
X163873735Y-141022077D01*
X163969358Y-140882127D01*
X164003000Y-140716000D01*
X164003000Y-114935000D01*
X168623268Y-114935000D01*
X168713775Y-115390011D01*
X168971518Y-115775750D01*
X169357257Y-116033493D01*
X169812268Y-116124000D01*
X170547732Y-116124000D01*
X171002743Y-116033493D01*
X171388482Y-115775750D01*
X171646225Y-115390011D01*
X171736732Y-114935000D01*
X171646225Y-114479989D01*
X171388482Y-114094250D01*
X171002743Y-113836507D01*
X170547732Y-113746000D01*
X169812268Y-113746000D01*
X169357257Y-113836507D01*
X168971518Y-114094250D01*
X168713775Y-114479989D01*
X168623268Y-114935000D01*
X164003000Y-114935000D01*
X164003000Y-112395000D01*
X168623268Y-112395000D01*
X168713775Y-112850011D01*
X168971518Y-113235750D01*
X169357257Y-113493493D01*
X169812268Y-113584000D01*
X170547732Y-113584000D01*
X171002743Y-113493493D01*
X171388482Y-113235750D01*
X171646225Y-112850011D01*
X171736732Y-112395000D01*
X171646225Y-111939989D01*
X171388482Y-111554250D01*
X171002743Y-111296507D01*
X170547732Y-111206000D01*
X169812268Y-111206000D01*
X169357257Y-111296507D01*
X168971518Y-111554250D01*
X168713775Y-111939989D01*
X168623268Y-112395000D01*
X164003000Y-112395000D01*
X164003000Y-109855000D01*
X168623268Y-109855000D01*
X168713775Y-110310011D01*
X168971518Y-110695750D01*
X169357257Y-110953493D01*
X169812268Y-111044000D01*
X170547732Y-111044000D01*
X171002743Y-110953493D01*
X171388482Y-110695750D01*
X171646225Y-110310011D01*
X171736732Y-109855000D01*
X171646225Y-109399989D01*
X171388482Y-109014250D01*
X171002743Y-108756507D01*
X170547732Y-108666000D01*
X169812268Y-108666000D01*
X169357257Y-108756507D01*
X168971518Y-109014250D01*
X168713775Y-109399989D01*
X168623268Y-109855000D01*
X164003000Y-109855000D01*
X164003000Y-107315000D01*
X168623268Y-107315000D01*
X168713775Y-107770011D01*
X168971518Y-108155750D01*
X169357257Y-108413493D01*
X169812268Y-108504000D01*
X170547732Y-108504000D01*
X171002743Y-108413493D01*
X171388482Y-108155750D01*
X171646225Y-107770011D01*
X171736732Y-107315000D01*
X171646225Y-106859989D01*
X171388482Y-106474250D01*
X171002743Y-106216507D01*
X170547732Y-106126000D01*
X169812268Y-106126000D01*
X169357257Y-106216507D01*
X168971518Y-106474250D01*
X168713775Y-106859989D01*
X168623268Y-107315000D01*
X164003000Y-107315000D01*
X164003000Y-104775000D01*
X168623268Y-104775000D01*
X168713775Y-105230011D01*
X168971518Y-105615750D01*
X169357257Y-105873493D01*
X169812268Y-105964000D01*
X170547732Y-105964000D01*
X171002743Y-105873493D01*
X171388482Y-105615750D01*
X171646225Y-105230011D01*
X171736732Y-104775000D01*
X171646225Y-104319989D01*
X171388482Y-103934250D01*
X171002743Y-103676507D01*
X170547732Y-103586000D01*
X169812268Y-103586000D01*
X169357257Y-103676507D01*
X168971518Y-103934250D01*
X168713775Y-104319989D01*
X168623268Y-104775000D01*
X164003000Y-104775000D01*
X164003000Y-95885000D01*
X169893268Y-95885000D01*
X169983775Y-96340011D01*
X170241518Y-96725750D01*
X170627257Y-96983493D01*
X171082268Y-97074000D01*
X171817732Y-97074000D01*
X172272743Y-96983493D01*
X172658482Y-96725750D01*
X172720000Y-96633682D01*
X172781518Y-96725750D01*
X173167257Y-96983493D01*
X173622268Y-97074000D01*
X174357732Y-97074000D01*
X174812743Y-96983493D01*
X175198482Y-96725750D01*
X175456225Y-96340011D01*
X175546732Y-95885000D01*
X175456225Y-95429989D01*
X175198482Y-95044250D01*
X174812743Y-94786507D01*
X174357732Y-94696000D01*
X173622268Y-94696000D01*
X173167257Y-94786507D01*
X172781518Y-95044250D01*
X172720000Y-95136318D01*
X172658482Y-95044250D01*
X172272743Y-94786507D01*
X171817732Y-94696000D01*
X171082268Y-94696000D01*
X170627257Y-94786507D01*
X170241518Y-95044250D01*
X169983775Y-95429989D01*
X169893268Y-95885000D01*
X164003000Y-95885000D01*
X164003000Y-93345000D01*
X169893268Y-93345000D01*
X169983775Y-93800011D01*
X170241518Y-94185750D01*
X170627257Y-94443493D01*
X171082268Y-94534000D01*
X171817732Y-94534000D01*
X172272743Y-94443493D01*
X172658482Y-94185750D01*
X172720000Y-94093682D01*
X172781518Y-94185750D01*
X173167257Y-94443493D01*
X173622268Y-94534000D01*
X174357732Y-94534000D01*
X174812743Y-94443493D01*
X175198482Y-94185750D01*
X175456225Y-93800011D01*
X175546732Y-93345000D01*
X175456225Y-92889989D01*
X175198482Y-92504250D01*
X174812743Y-92246507D01*
X174357732Y-92156000D01*
X173622268Y-92156000D01*
X173167257Y-92246507D01*
X172781518Y-92504250D01*
X172720000Y-92596318D01*
X172658482Y-92504250D01*
X172272743Y-92246507D01*
X171817732Y-92156000D01*
X171082268Y-92156000D01*
X170627257Y-92246507D01*
X170241518Y-92504250D01*
X169983775Y-92889989D01*
X169893268Y-93345000D01*
X164003000Y-93345000D01*
X164003000Y-90805000D01*
X169893268Y-90805000D01*
X169983775Y-91260011D01*
X170241518Y-91645750D01*
X170627257Y-91903493D01*
X171082268Y-91994000D01*
X171817732Y-91994000D01*
X172272743Y-91903493D01*
X172658482Y-91645750D01*
X172720000Y-91553682D01*
X172781518Y-91645750D01*
X173167257Y-91903493D01*
X173622268Y-91994000D01*
X174357732Y-91994000D01*
X174812743Y-91903493D01*
X175198482Y-91645750D01*
X175456225Y-91260011D01*
X175546732Y-90805000D01*
X175456225Y-90349989D01*
X175198482Y-89964250D01*
X174812743Y-89706507D01*
X174357732Y-89616000D01*
X173622268Y-89616000D01*
X173167257Y-89706507D01*
X172781518Y-89964250D01*
X172720000Y-90056318D01*
X172658482Y-89964250D01*
X172272743Y-89706507D01*
X171817732Y-89616000D01*
X171082268Y-89616000D01*
X170627257Y-89706507D01*
X170241518Y-89964250D01*
X169983775Y-90349989D01*
X169893268Y-90805000D01*
X164003000Y-90805000D01*
X164003000Y-88265000D01*
X169893268Y-88265000D01*
X169983775Y-88720011D01*
X170241518Y-89105750D01*
X170627257Y-89363493D01*
X171082268Y-89454000D01*
X171817732Y-89454000D01*
X172272743Y-89363493D01*
X172658482Y-89105750D01*
X172720000Y-89013682D01*
X172781518Y-89105750D01*
X173167257Y-89363493D01*
X173622268Y-89454000D01*
X174357732Y-89454000D01*
X174812743Y-89363493D01*
X175198482Y-89105750D01*
X175456225Y-88720011D01*
X175546732Y-88265000D01*
X175456225Y-87809989D01*
X175198482Y-87424250D01*
X174812743Y-87166507D01*
X174357732Y-87076000D01*
X173622268Y-87076000D01*
X173167257Y-87166507D01*
X172781518Y-87424250D01*
X172720000Y-87516318D01*
X172658482Y-87424250D01*
X172272743Y-87166507D01*
X171817732Y-87076000D01*
X171082268Y-87076000D01*
X170627257Y-87166507D01*
X170241518Y-87424250D01*
X169983775Y-87809989D01*
X169893268Y-88265000D01*
X164003000Y-88265000D01*
X164003000Y-85725000D01*
X169893268Y-85725000D01*
X169983775Y-86180011D01*
X170241518Y-86565750D01*
X170627257Y-86823493D01*
X171082268Y-86914000D01*
X171817732Y-86914000D01*
X172272743Y-86823493D01*
X172658482Y-86565750D01*
X172720000Y-86473682D01*
X172781518Y-86565750D01*
X173167257Y-86823493D01*
X173622268Y-86914000D01*
X174357732Y-86914000D01*
X174812743Y-86823493D01*
X175198482Y-86565750D01*
X175456225Y-86180011D01*
X175546732Y-85725000D01*
X175456225Y-85269989D01*
X175198482Y-84884250D01*
X174812743Y-84626507D01*
X174357732Y-84536000D01*
X173622268Y-84536000D01*
X173167257Y-84626507D01*
X172781518Y-84884250D01*
X172720000Y-84976318D01*
X172658482Y-84884250D01*
X172272743Y-84626507D01*
X171817732Y-84536000D01*
X171082268Y-84536000D01*
X170627257Y-84626507D01*
X170241518Y-84884250D01*
X169983775Y-85269989D01*
X169893268Y-85725000D01*
X164003000Y-85725000D01*
X164003000Y-82423000D01*
X169914815Y-82423000D01*
X169914815Y-83947000D01*
X169944589Y-84105237D01*
X170038107Y-84250567D01*
X170180799Y-84348064D01*
X170350180Y-84382365D01*
X172549820Y-84382365D01*
X172708057Y-84352591D01*
X172718031Y-84346173D01*
X172720799Y-84348064D01*
X172890180Y-84382365D01*
X175089820Y-84382365D01*
X175248057Y-84352591D01*
X175393387Y-84259073D01*
X175490884Y-84116381D01*
X175525185Y-83947000D01*
X175525185Y-82423000D01*
X175495411Y-82264763D01*
X175401893Y-82119433D01*
X175259201Y-82021936D01*
X175089820Y-81987635D01*
X172890180Y-81987635D01*
X172731943Y-82017409D01*
X172721969Y-82023827D01*
X172719201Y-82021936D01*
X172549820Y-81987635D01*
X170350180Y-81987635D01*
X170191943Y-82017409D01*
X170046613Y-82110927D01*
X169949116Y-82253619D01*
X169914815Y-82423000D01*
X164003000Y-82423000D01*
X164003000Y-68072000D01*
X163971616Y-67911323D01*
X163877935Y-67770065D01*
X161410880Y-65303010D01*
X161992410Y-65303010D01*
X180142830Y-83453430D01*
X180142830Y-97172926D01*
X174388750Y-102927006D01*
X174241995Y-103146640D01*
X174190461Y-103405717D01*
X174190461Y-129906116D01*
X173741288Y-130355290D01*
X173517819Y-130578759D01*
X173104986Y-130407335D01*
X172338378Y-130406666D01*
X171629868Y-130699416D01*
X171087322Y-131241017D01*
X170793335Y-131949014D01*
X170792666Y-132715622D01*
X171085416Y-133424132D01*
X171627017Y-133966678D01*
X172335014Y-134260665D01*
X173101622Y-134261334D01*
X173810132Y-133968584D01*
X174352678Y-133426983D01*
X174646665Y-132718986D01*
X174647334Y-131952378D01*
X174475329Y-131536093D01*
X174698710Y-131312712D01*
X175346173Y-130665250D01*
X175492928Y-130445615D01*
X175544461Y-130186539D01*
X175544461Y-114935000D01*
X177513268Y-114935000D01*
X177603775Y-115390011D01*
X177861518Y-115775750D01*
X178247257Y-116033493D01*
X178702268Y-116124000D01*
X179437732Y-116124000D01*
X179892743Y-116033493D01*
X180278482Y-115775750D01*
X180536225Y-115390011D01*
X180626732Y-114935000D01*
X180536225Y-114479989D01*
X180278482Y-114094250D01*
X179892743Y-113836507D01*
X179437732Y-113746000D01*
X178702268Y-113746000D01*
X178247257Y-113836507D01*
X177861518Y-114094250D01*
X177603775Y-114479989D01*
X177513268Y-114935000D01*
X175544461Y-114935000D01*
X175544461Y-112395000D01*
X177513268Y-112395000D01*
X177603775Y-112850011D01*
X177861518Y-113235750D01*
X178247257Y-113493493D01*
X178702268Y-113584000D01*
X179437732Y-113584000D01*
X179892743Y-113493493D01*
X180278482Y-113235750D01*
X180536225Y-112850011D01*
X180626732Y-112395000D01*
X180536225Y-111939989D01*
X180278482Y-111554250D01*
X179892743Y-111296507D01*
X179437732Y-111206000D01*
X178702268Y-111206000D01*
X178247257Y-111296507D01*
X177861518Y-111554250D01*
X177603775Y-111939989D01*
X177513268Y-112395000D01*
X175544461Y-112395000D01*
X175544461Y-109855000D01*
X177513268Y-109855000D01*
X177603775Y-110310011D01*
X177861518Y-110695750D01*
X178247257Y-110953493D01*
X178702268Y-111044000D01*
X179437732Y-111044000D01*
X179892743Y-110953493D01*
X180278482Y-110695750D01*
X180536225Y-110310011D01*
X180626732Y-109855000D01*
X180536225Y-109399989D01*
X180278482Y-109014250D01*
X179892743Y-108756507D01*
X179437732Y-108666000D01*
X178702268Y-108666000D01*
X178247257Y-108756507D01*
X177861518Y-109014250D01*
X177603775Y-109399989D01*
X177513268Y-109855000D01*
X175544461Y-109855000D01*
X175544461Y-107315000D01*
X177513268Y-107315000D01*
X177603775Y-107770011D01*
X177861518Y-108155750D01*
X178247257Y-108413493D01*
X178702268Y-108504000D01*
X179437732Y-108504000D01*
X179892743Y-108413493D01*
X180278482Y-108155750D01*
X180536225Y-107770011D01*
X180626732Y-107315000D01*
X180536225Y-106859989D01*
X180278482Y-106474250D01*
X179892743Y-106216507D01*
X179437732Y-106126000D01*
X178702268Y-106126000D01*
X178247257Y-106216507D01*
X177861518Y-106474250D01*
X177603775Y-106859989D01*
X177513268Y-107315000D01*
X175544461Y-107315000D01*
X175544461Y-104775000D01*
X177513268Y-104775000D01*
X177603775Y-105230011D01*
X177861518Y-105615750D01*
X178247257Y-105873493D01*
X178702268Y-105964000D01*
X179437732Y-105964000D01*
X179892743Y-105873493D01*
X180278482Y-105615750D01*
X180536225Y-105230011D01*
X180626732Y-104775000D01*
X180536225Y-104319989D01*
X180278482Y-103934250D01*
X179892743Y-103676507D01*
X179437732Y-103586000D01*
X178702268Y-103586000D01*
X178247257Y-103676507D01*
X177861518Y-103934250D01*
X177603775Y-104319989D01*
X177513268Y-104775000D01*
X175544461Y-104775000D01*
X175544461Y-103686139D01*
X181298541Y-97932059D01*
X181445296Y-97712425D01*
X181496830Y-97453348D01*
X181496830Y-83173008D01*
X181445296Y-82913931D01*
X181298541Y-82694297D01*
X162751543Y-64147299D01*
X162707996Y-64118202D01*
X162531909Y-64000544D01*
X162272832Y-63949010D01*
X130225631Y-63949010D01*
X130957639Y-63803405D01*
X131728793Y-63288136D01*
X132244062Y-62516982D01*
X132425000Y-61607343D01*
X132425000Y-60392657D01*
X132244062Y-59483018D01*
X131728793Y-58711864D01*
X130957639Y-58196595D01*
X130048000Y-58015657D01*
X129138361Y-58196595D01*
X128367207Y-58711864D01*
X127851938Y-59483018D01*
X127671000Y-60392657D01*
X127671000Y-61607343D01*
X127851938Y-62516982D01*
X128367207Y-63288136D01*
X129138361Y-63803405D01*
X129870369Y-63949010D01*
X124886777Y-63949010D01*
X124664370Y-63726215D01*
X124274182Y-63564195D01*
X123851692Y-63563826D01*
X123461221Y-63725165D01*
X123162215Y-64023650D01*
X123000195Y-64413838D01*
X122999826Y-64836328D01*
X81702010Y-64836328D01*
X81702010Y-56880000D01*
X122659635Y-56880000D01*
X122659635Y-59880000D01*
X122689409Y-60038237D01*
X122782927Y-60183567D01*
X122925619Y-60281064D01*
X123095000Y-60315365D01*
X127095000Y-60315365D01*
X127253237Y-60285591D01*
X127398567Y-60192073D01*
X127496064Y-60049381D01*
X127530365Y-59880000D01*
X127530365Y-56880000D01*
X127500591Y-56721763D01*
X127407073Y-56576433D01*
X127264381Y-56478936D01*
X127095000Y-56444635D01*
X123095000Y-56444635D01*
X122936763Y-56474409D01*
X122791433Y-56567927D01*
X122693936Y-56710619D01*
X122659635Y-56880000D01*
X81702010Y-56880000D01*
X81702010Y-54740010D01*
X81631447Y-54385263D01*
X81430498Y-54084522D01*
X76600093Y-49254117D01*
X76465845Y-48929211D01*
X76167360Y-48630205D01*
X75777172Y-48468185D01*
X75354682Y-48467816D01*
X74964211Y-48629155D01*
X74665205Y-48927640D01*
X74503185Y-49317828D01*
X74502816Y-49740318D01*
X74664155Y-50130789D01*
X74962640Y-50429795D01*
X75289573Y-50565549D01*
X79848010Y-55123986D01*
X79848010Y-65202034D01*
X76600093Y-61954117D01*
X76465845Y-61629211D01*
X76167360Y-61330205D01*
X75777172Y-61168185D01*
X75354682Y-61167816D01*
X74964211Y-61329155D01*
X74665205Y-61627640D01*
X74503185Y-62017828D01*
X74502816Y-62440318D01*
X74664155Y-62830789D01*
X74962640Y-63129795D01*
X75289573Y-63265549D01*
X78448000Y-66423976D01*
X78448000Y-101116079D01*
X78313185Y-101440750D01*
X78312816Y-101863240D01*
X78474155Y-102253711D01*
X78772640Y-102552717D01*
X79099573Y-102688471D01*
X83651769Y-107240667D01*
X83734667Y-107296058D01*
X83614250Y-107376518D01*
X83356507Y-107762257D01*
X83266000Y-108217268D01*
X83266000Y-108952732D01*
X83356507Y-109407743D01*
X83614250Y-109793482D01*
X83999989Y-110051225D01*
X84455000Y-110141732D01*
X84910011Y-110051225D01*
X85295750Y-109793482D01*
X85553493Y-109407743D01*
X85644000Y-108952732D01*
X85644000Y-108217268D01*
X85553493Y-107762257D01*
X85386396Y-107512179D01*
X86063604Y-107512179D01*
X85896507Y-107762257D01*
X85806000Y-108217268D01*
X85806000Y-108952732D01*
X85896507Y-109407743D01*
X86154250Y-109793482D01*
X86539989Y-110051225D01*
X86995000Y-110141732D01*
X87450011Y-110051225D01*
X87835750Y-109793482D01*
X88093493Y-109407743D01*
X88184000Y-108952732D01*
X88184000Y-108217268D01*
X88093493Y-107762257D01*
X87926396Y-107512179D01*
X103193712Y-107512179D01*
X110724907Y-115043374D01*
X110800160Y-115225501D01*
X99036999Y-115225501D01*
X98777922Y-115277035D01*
X98668105Y-115350412D01*
X98558287Y-115423790D01*
X85937634Y-128044444D01*
X85846573Y-127902933D01*
X85752848Y-127838894D01*
X85989795Y-127602360D01*
X86151815Y-127212172D01*
X86152184Y-126789682D01*
X86017000Y-126462511D01*
X86017000Y-118745000D01*
X85969865Y-118508037D01*
X85969865Y-118046500D01*
X85940091Y-117888263D01*
X85846573Y-117742933D01*
X85703881Y-117645436D01*
X85534500Y-117611135D01*
X84645500Y-117611135D01*
X84487263Y-117640909D01*
X84341933Y-117734427D01*
X84244436Y-117877119D01*
X84210135Y-118046500D01*
X84210135Y-118508037D01*
X84163000Y-118745000D01*
X84163000Y-126463157D01*
X84028185Y-126787828D01*
X84027816Y-127210318D01*
X84189155Y-127600789D01*
X84427388Y-127839438D01*
X84341933Y-127894427D01*
X84244436Y-128037119D01*
X84210135Y-128206500D01*
X84210135Y-129603500D01*
X84239909Y-129761737D01*
X84333427Y-129907067D01*
X84476119Y-130004564D01*
X84645500Y-130038865D01*
X85284713Y-130038865D01*
X85012443Y-130311135D01*
X84645500Y-130311135D01*
X84487263Y-130340909D01*
X84341933Y-130434427D01*
X84244436Y-130577119D01*
X84210135Y-130746500D01*
X84210135Y-132143500D01*
X84239909Y-132301737D01*
X84333427Y-132447067D01*
X84476119Y-132544564D01*
X84645500Y-132578865D01*
X85284713Y-132578865D01*
X85012443Y-132851135D01*
X84645500Y-132851135D01*
X84487263Y-132880909D01*
X84341933Y-132974427D01*
X84244436Y-133117119D01*
X84210135Y-133286500D01*
X84210135Y-134656501D01*
X84064865Y-134656501D01*
X84064865Y-133286500D01*
X84035091Y-133128263D01*
X83941573Y-132982933D01*
X83798881Y-132885436D01*
X83629500Y-132851135D01*
X82740500Y-132851135D01*
X82582263Y-132880909D01*
X82436933Y-132974427D01*
X82339436Y-133117119D01*
X82305135Y-133286500D01*
X82305135Y-133308000D01*
X82007163Y-133308000D01*
X81990853Y-133282653D01*
X81848161Y-133185156D01*
X81678780Y-133150855D01*
X80881220Y-133150855D01*
X80722983Y-133180629D01*
X80577653Y-133274147D01*
X80530854Y-133342640D01*
X80492253Y-133282653D01*
X80349561Y-133185156D01*
X80180180Y-133150855D01*
X79382620Y-133150855D01*
X79224383Y-133180629D01*
X79079053Y-133274147D01*
X79055922Y-133308000D01*
X77366469Y-133308000D01*
X77360591Y-133276763D01*
X77267073Y-133131433D01*
X77124381Y-133033936D01*
X76955000Y-132999635D01*
X75481999Y-132999635D01*
X75481999Y-132430365D01*
X76955000Y-132430365D01*
X77113237Y-132400591D01*
X77258567Y-132307073D01*
X77356064Y-132164381D01*
X77364646Y-132122000D01*
X79054237Y-132122000D01*
X79070547Y-132147347D01*
X79213239Y-132244844D01*
X79382620Y-132279145D01*
X80180180Y-132279145D01*
X80338417Y-132249371D01*
X80483747Y-132155853D01*
X80530546Y-132087360D01*
X80569147Y-132147347D01*
X80711839Y-132244844D01*
X80881220Y-132279145D01*
X81678780Y-132279145D01*
X81837017Y-132249371D01*
X81982347Y-132155853D01*
X82005478Y-132122000D01*
X82305135Y-132122000D01*
X82305135Y-132143500D01*
X82334909Y-132301737D01*
X82428427Y-132447067D01*
X82571119Y-132544564D01*
X82740500Y-132578865D01*
X83629500Y-132578865D01*
X83787737Y-132549091D01*
X83933067Y-132455573D01*
X84030564Y-132312881D01*
X84064865Y-132143500D01*
X84064865Y-130746500D01*
X84035091Y-130588263D01*
X83941573Y-130442933D01*
X83798881Y-130345436D01*
X83629500Y-130311135D01*
X82740500Y-130311135D01*
X82582263Y-130340909D01*
X82436933Y-130434427D01*
X82339436Y-130577119D01*
X82305135Y-130746500D01*
X82305135Y-130768000D01*
X82007163Y-130768000D01*
X81990853Y-130742653D01*
X81848161Y-130645156D01*
X81678780Y-130610855D01*
X80881220Y-130610855D01*
X80722983Y-130640629D01*
X80577653Y-130734147D01*
X80530854Y-130802640D01*
X80492253Y-130742653D01*
X80349561Y-130645156D01*
X80180180Y-130610855D01*
X79382620Y-130610855D01*
X79224383Y-130640629D01*
X79079053Y-130734147D01*
X79055922Y-130768000D01*
X77366469Y-130768000D01*
X77360591Y-130736763D01*
X77267073Y-130591433D01*
X77124381Y-130493936D01*
X76955000Y-130459635D01*
X75481999Y-130459635D01*
X75481999Y-129890365D01*
X76955000Y-129890365D01*
X77113237Y-129860591D01*
X77258567Y-129767073D01*
X77356064Y-129624381D01*
X77364646Y-129582000D01*
X79054237Y-129582000D01*
X79070547Y-129607347D01*
X79213239Y-129704844D01*
X79382620Y-129739145D01*
X80180180Y-129739145D01*
X80338417Y-129709371D01*
X80483747Y-129615853D01*
X80530546Y-129547360D01*
X80569147Y-129607347D01*
X80711839Y-129704844D01*
X80881220Y-129739145D01*
X81678780Y-129739145D01*
X81837017Y-129709371D01*
X81982347Y-129615853D01*
X82005478Y-129582000D01*
X82305135Y-129582000D01*
X82305135Y-129603500D01*
X82334909Y-129761737D01*
X82428427Y-129907067D01*
X82571119Y-130004564D01*
X82740500Y-130038865D01*
X83629500Y-130038865D01*
X83787737Y-130009091D01*
X83933067Y-129915573D01*
X84030564Y-129772881D01*
X84064865Y-129603500D01*
X84064865Y-128206500D01*
X84035091Y-128048263D01*
X83941573Y-127902933D01*
X83798881Y-127805436D01*
X83629500Y-127771135D01*
X82740500Y-127771135D01*
X82582263Y-127800909D01*
X82436933Y-127894427D01*
X82339436Y-128037119D01*
X82305135Y-128206500D01*
X82305135Y-128228000D01*
X82007163Y-128228000D01*
X81990853Y-128202653D01*
X81848161Y-128105156D01*
X81678780Y-128070855D01*
X80881220Y-128070855D01*
X80722983Y-128100629D01*
X80577653Y-128194147D01*
X80530854Y-128262640D01*
X80492253Y-128202653D01*
X80349561Y-128105156D01*
X80180180Y-128070855D01*
X79382620Y-128070855D01*
X79224383Y-128100629D01*
X79079053Y-128194147D01*
X79055922Y-128228000D01*
X77366469Y-128228000D01*
X77360591Y-128196763D01*
X77267073Y-128051433D01*
X77124381Y-127953936D01*
X76955000Y-127919635D01*
X75481999Y-127919635D01*
X75481999Y-127350365D01*
X76955000Y-127350365D01*
X77113237Y-127320591D01*
X77258567Y-127227073D01*
X77356064Y-127084381D01*
X77390365Y-126915000D01*
X77390365Y-125815000D01*
X77360591Y-125656763D01*
X77267073Y-125511433D01*
X77124381Y-125413936D01*
X76955000Y-125379635D01*
X75455000Y-125379635D01*
X75296763Y-125409409D01*
X75151433Y-125502927D01*
X75053936Y-125645619D01*
X75045354Y-125688000D01*
X74955000Y-125688000D01*
X74695923Y-125739534D01*
X74627527Y-125785235D01*
X74581990Y-125815662D01*
X74581990Y-125155432D01*
X75110010Y-124627413D01*
X75142927Y-124678567D01*
X75285619Y-124776064D01*
X75455000Y-124810365D01*
X76955000Y-124810365D01*
X77113237Y-124780591D01*
X77258567Y-124687073D01*
X77356064Y-124544381D01*
X77390365Y-124375000D01*
X77390365Y-123290168D01*
X78403909Y-124303712D01*
X78623544Y-124450467D01*
X78882620Y-124502000D01*
X79054237Y-124502000D01*
X79070547Y-124527347D01*
X79213239Y-124624844D01*
X79382620Y-124659145D01*
X80180180Y-124659145D01*
X80338417Y-124629371D01*
X80483747Y-124535853D01*
X80530546Y-124467360D01*
X80569147Y-124527347D01*
X80711839Y-124624844D01*
X80881220Y-124659145D01*
X81678780Y-124659145D01*
X81837017Y-124629371D01*
X81982347Y-124535853D01*
X82005478Y-124502000D01*
X82305135Y-124502000D01*
X82305135Y-124523500D01*
X82334909Y-124681737D01*
X82428427Y-124827067D01*
X82571119Y-124924564D01*
X82740500Y-124958865D01*
X83629500Y-124958865D01*
X83787737Y-124929091D01*
X83933067Y-124835573D01*
X84030564Y-124692881D01*
X84064865Y-124523500D01*
X84064865Y-123126500D01*
X84035091Y-122968263D01*
X83941573Y-122822933D01*
X83798881Y-122725436D01*
X83629500Y-122691135D01*
X82740500Y-122691135D01*
X82582263Y-122720909D01*
X82436933Y-122814427D01*
X82339436Y-122957119D01*
X82305135Y-123126500D01*
X82305135Y-123148000D01*
X82007163Y-123148000D01*
X81990853Y-123122653D01*
X81848161Y-123025156D01*
X81678780Y-122990855D01*
X80881220Y-122990855D01*
X80722983Y-123020629D01*
X80577653Y-123114147D01*
X80530854Y-123182640D01*
X80492253Y-123122653D01*
X80349561Y-123025156D01*
X80180180Y-122990855D01*
X79382620Y-122990855D01*
X79224383Y-123020629D01*
X79109559Y-123094516D01*
X73702000Y-117686958D01*
X73702000Y-90359767D01*
X73924795Y-90137360D01*
X73977429Y-90010603D01*
X74029155Y-90135789D01*
X74253000Y-90360025D01*
X74253000Y-117332380D01*
X74304534Y-117591457D01*
X74365825Y-117683185D01*
X74451289Y-117811091D01*
X78403909Y-121763711D01*
X78623543Y-121910466D01*
X78882620Y-121962000D01*
X79054237Y-121962000D01*
X79070547Y-121987347D01*
X79213239Y-122084844D01*
X79382620Y-122119145D01*
X80180180Y-122119145D01*
X80338417Y-122089371D01*
X80483747Y-121995853D01*
X80530546Y-121927360D01*
X80569147Y-121987347D01*
X80711839Y-122084844D01*
X80881220Y-122119145D01*
X81678780Y-122119145D01*
X81837017Y-122089371D01*
X81982347Y-121995853D01*
X82005478Y-121962000D01*
X82305135Y-121962000D01*
X82305135Y-121983500D01*
X82334909Y-122141737D01*
X82428427Y-122287067D01*
X82571119Y-122384564D01*
X82740500Y-122418865D01*
X83629500Y-122418865D01*
X83787737Y-122389091D01*
X83933067Y-122295573D01*
X84030564Y-122152881D01*
X84064865Y-121983500D01*
X84064865Y-120586500D01*
X84035091Y-120428263D01*
X83941573Y-120282933D01*
X83798881Y-120185436D01*
X83629500Y-120151135D01*
X82740500Y-120151135D01*
X82582263Y-120180909D01*
X82436933Y-120274427D01*
X82339436Y-120417119D01*
X82305135Y-120586500D01*
X82305135Y-120608000D01*
X82007163Y-120608000D01*
X81990853Y-120582653D01*
X81848161Y-120485156D01*
X81678780Y-120450855D01*
X80881220Y-120450855D01*
X80722983Y-120480629D01*
X80577653Y-120574147D01*
X80530854Y-120642640D01*
X80492253Y-120582653D01*
X80349561Y-120485156D01*
X80180180Y-120450855D01*
X79382620Y-120450855D01*
X79224383Y-120480629D01*
X79109559Y-120554517D01*
X75607000Y-117051958D01*
X75607000Y-90359767D01*
X75829795Y-90137360D01*
X75882429Y-90010603D01*
X75934155Y-90135789D01*
X76158000Y-90360025D01*
X76158000Y-116697380D01*
X76209534Y-116956457D01*
X76287609Y-117073304D01*
X76356289Y-117176091D01*
X78403909Y-119223711D01*
X78623543Y-119370466D01*
X78882620Y-119422000D01*
X79054237Y-119422000D01*
X79070547Y-119447347D01*
X79213239Y-119544844D01*
X79382620Y-119579145D01*
X80180180Y-119579145D01*
X80338417Y-119549371D01*
X80483747Y-119455853D01*
X80530546Y-119387360D01*
X80569147Y-119447347D01*
X80711839Y-119544844D01*
X80881220Y-119579145D01*
X81678780Y-119579145D01*
X81837017Y-119549371D01*
X81982347Y-119455853D01*
X82005478Y-119422000D01*
X82305135Y-119422000D01*
X82305135Y-119443500D01*
X82334909Y-119601737D01*
X82428427Y-119747067D01*
X82571119Y-119844564D01*
X82740500Y-119878865D01*
X83629500Y-119878865D01*
X83787737Y-119849091D01*
X83933067Y-119755573D01*
X84030564Y-119612881D01*
X84064865Y-119443500D01*
X84064865Y-118046500D01*
X84035091Y-117888263D01*
X83941573Y-117742933D01*
X83798881Y-117645436D01*
X83629500Y-117611135D01*
X82740500Y-117611135D01*
X82582263Y-117640909D01*
X82436933Y-117734427D01*
X82339436Y-117877119D01*
X82305135Y-118046500D01*
X82305135Y-118068000D01*
X82007163Y-118068000D01*
X81990853Y-118042653D01*
X81848161Y-117945156D01*
X81678780Y-117910855D01*
X80881220Y-117910855D01*
X80722983Y-117940629D01*
X80577653Y-118034147D01*
X80530854Y-118102640D01*
X80492253Y-118042653D01*
X80349561Y-117945156D01*
X80180180Y-117910855D01*
X79382620Y-117910855D01*
X79224383Y-117940629D01*
X79109559Y-118014517D01*
X77512000Y-116416958D01*
X77512000Y-111930180D01*
X96643435Y-111930180D01*
X96643435Y-114129820D01*
X96673209Y-114288057D01*
X96766727Y-114433387D01*
X96909419Y-114530884D01*
X97078800Y-114565185D01*
X98602800Y-114565185D01*
X98761037Y-114535411D01*
X98906367Y-114441893D01*
X99003864Y-114299201D01*
X99038165Y-114129820D01*
X99038165Y-112662268D01*
X99191800Y-112662268D01*
X99191800Y-113397732D01*
X99282307Y-113852743D01*
X99540050Y-114238482D01*
X99925789Y-114496225D01*
X100380800Y-114586732D01*
X100835811Y-114496225D01*
X101221550Y-114238482D01*
X101479293Y-113852743D01*
X101569800Y-113397732D01*
X101569800Y-112662268D01*
X101731800Y-112662268D01*
X101731800Y-113397732D01*
X101822307Y-113852743D01*
X102080050Y-114238482D01*
X102465789Y-114496225D01*
X102920800Y-114586732D01*
X103375811Y-114496225D01*
X103761550Y-114238482D01*
X104019293Y-113852743D01*
X104109800Y-113397732D01*
X104109800Y-112662268D01*
X104271800Y-112662268D01*
X104271800Y-113397732D01*
X104362307Y-113852743D01*
X104620050Y-114238482D01*
X105005789Y-114496225D01*
X105460800Y-114586732D01*
X105915811Y-114496225D01*
X106301550Y-114238482D01*
X106559293Y-113852743D01*
X106649800Y-113397732D01*
X106649800Y-112662268D01*
X106559293Y-112207257D01*
X106301550Y-111821518D01*
X105915811Y-111563775D01*
X105460800Y-111473268D01*
X105005789Y-111563775D01*
X104620050Y-111821518D01*
X104362307Y-112207257D01*
X104271800Y-112662268D01*
X104109800Y-112662268D01*
X104019293Y-112207257D01*
X103761550Y-111821518D01*
X103375811Y-111563775D01*
X102920800Y-111473268D01*
X102465789Y-111563775D01*
X102080050Y-111821518D01*
X101822307Y-112207257D01*
X101731800Y-112662268D01*
X101569800Y-112662268D01*
X101479293Y-112207257D01*
X101221550Y-111821518D01*
X100835811Y-111563775D01*
X100380800Y-111473268D01*
X99925789Y-111563775D01*
X99540050Y-111821518D01*
X99282307Y-112207257D01*
X99191800Y-112662268D01*
X99038165Y-112662268D01*
X99038165Y-111930180D01*
X99008391Y-111771943D01*
X98914873Y-111626613D01*
X98772181Y-111529116D01*
X98602800Y-111494815D01*
X97078800Y-111494815D01*
X96920563Y-111524589D01*
X96775233Y-111618107D01*
X96677736Y-111760799D01*
X96643435Y-111930180D01*
X77512000Y-111930180D01*
X77512000Y-108217268D01*
X80726000Y-108217268D01*
X80726000Y-108952732D01*
X80816507Y-109407743D01*
X81074250Y-109793482D01*
X81459989Y-110051225D01*
X81915000Y-110141732D01*
X82370011Y-110051225D01*
X82755750Y-109793482D01*
X83013493Y-109407743D01*
X83104000Y-108952732D01*
X83104000Y-108217268D01*
X83013493Y-107762257D01*
X82755750Y-107376518D01*
X82370011Y-107118775D01*
X81915000Y-107028268D01*
X81459989Y-107118775D01*
X81074250Y-107376518D01*
X80816507Y-107762257D01*
X80726000Y-108217268D01*
X77512000Y-108217268D01*
X77512000Y-90359767D01*
X77734795Y-90137360D01*
X77896815Y-89747172D01*
X77897184Y-89324682D01*
X77735845Y-88934211D01*
X77437360Y-88635205D01*
X77047172Y-88473185D01*
X76624682Y-88472816D01*
X76234211Y-88634155D01*
X75935205Y-88932640D01*
X75882571Y-89059397D01*
X75830845Y-88934211D01*
X75532360Y-88635205D01*
X75142172Y-88473185D01*
X74719682Y-88472816D01*
X74329211Y-88634155D01*
X74030205Y-88932640D01*
X73977571Y-89059397D01*
X73925845Y-88934211D01*
X73627360Y-88635205D01*
X73237172Y-88473185D01*
X72814682Y-88472816D01*
X72424211Y-88634155D01*
X72125205Y-88932640D01*
X71963185Y-89322828D01*
X71962816Y-89745318D01*
X68825828Y-89745318D01*
X68767743Y-89706507D01*
X68312732Y-89616000D01*
X67577268Y-89616000D01*
X67122257Y-89706507D01*
X66736518Y-89964250D01*
X66478775Y-90349989D01*
X66388268Y-90805000D01*
X62477000Y-90805000D01*
X62477000Y-72390000D01*
X66875043Y-72390000D01*
X66964637Y-72840418D01*
X67219778Y-73222265D01*
X67601625Y-73477406D01*
X68052043Y-73567000D01*
X68607957Y-73567000D01*
X69058375Y-73477406D01*
X69440222Y-73222265D01*
X69695363Y-72840418D01*
X69784957Y-72390000D01*
X69695363Y-71939582D01*
X69495190Y-71640000D01*
X69934635Y-71640000D01*
X69934635Y-73140000D01*
X69964409Y-73298237D01*
X70057927Y-73443567D01*
X70200619Y-73541064D01*
X70370000Y-73575365D01*
X72370000Y-73575365D01*
X72528237Y-73545591D01*
X72673567Y-73452073D01*
X72771064Y-73309381D01*
X72805365Y-73140000D01*
X72805365Y-71640000D01*
X72775591Y-71481763D01*
X72682073Y-71336433D01*
X72539381Y-71238936D01*
X72370000Y-71204635D01*
X70370000Y-71204635D01*
X70211763Y-71234409D01*
X70066433Y-71327927D01*
X69968936Y-71470619D01*
X69934635Y-71640000D01*
X69495190Y-71640000D01*
X69440222Y-71557735D01*
X69058375Y-71302594D01*
X68607957Y-71213000D01*
X68052043Y-71213000D01*
X67601625Y-71302594D01*
X67219778Y-71557735D01*
X66964637Y-71939582D01*
X66875043Y-72390000D01*
X62477000Y-72390000D01*
X62477000Y-69850000D01*
X66875043Y-69850000D01*
X66964637Y-70300418D01*
X67219778Y-70682265D01*
X67601625Y-70937406D01*
X68052043Y-71027000D01*
X68607957Y-71027000D01*
X69058375Y-70937406D01*
X69440222Y-70682265D01*
X69695363Y-70300418D01*
X69784957Y-69850000D01*
X69915043Y-69850000D01*
X70004637Y-70300418D01*
X70259778Y-70682265D01*
X70641625Y-70937406D01*
X71092043Y-71027000D01*
X71647957Y-71027000D01*
X72098375Y-70937406D01*
X72480222Y-70682265D01*
X72735363Y-70300418D01*
X72824957Y-69850000D01*
X72735363Y-69399582D01*
X72480222Y-69017735D01*
X72098375Y-68762594D01*
X71647957Y-68673000D01*
X71092043Y-68673000D01*
X70641625Y-68762594D01*
X70259778Y-69017735D01*
X70004637Y-69399582D01*
X69915043Y-69850000D01*
X69784957Y-69850000D01*
X69695363Y-69399582D01*
X69440222Y-69017735D01*
X69058375Y-68762594D01*
X68607957Y-68673000D01*
X68052043Y-68673000D01*
X67601625Y-68762594D01*
X67219778Y-69017735D01*
X66964637Y-69399582D01*
X66875043Y-69850000D01*
X62477000Y-69850000D01*
X62477000Y-67310000D01*
X66875043Y-67310000D01*
X66964637Y-67760418D01*
X67219778Y-68142265D01*
X67601625Y-68397406D01*
X68052043Y-68487000D01*
X68607957Y-68487000D01*
X69058375Y-68397406D01*
X69440222Y-68142265D01*
X69695363Y-67760418D01*
X69784957Y-67310000D01*
X69915043Y-67310000D01*
X70004637Y-67760418D01*
X70259778Y-68142265D01*
X70641625Y-68397406D01*
X71092043Y-68487000D01*
X71647957Y-68487000D01*
X72098375Y-68397406D01*
X72480222Y-68142265D01*
X72735363Y-67760418D01*
X72824957Y-67310000D01*
X72735363Y-66859582D01*
X72480222Y-66477735D01*
X72098375Y-66222594D01*
X71647957Y-66133000D01*
X71092043Y-66133000D01*
X70641625Y-66222594D01*
X70259778Y-66477735D01*
X70004637Y-66859582D01*
X69915043Y-67310000D01*
X69784957Y-67310000D01*
X69695363Y-66859582D01*
X69440222Y-66477735D01*
X69058375Y-66222594D01*
X68607957Y-66133000D01*
X68052043Y-66133000D01*
X67601625Y-66222594D01*
X67219778Y-66477735D01*
X66964637Y-66859582D01*
X66875043Y-67310000D01*
X62477000Y-67310000D01*
X62477000Y-64770000D01*
X66875043Y-64770000D01*
X66964637Y-65220418D01*
X67219778Y-65602265D01*
X67601625Y-65857406D01*
X68052043Y-65947000D01*
X68607957Y-65947000D01*
X69058375Y-65857406D01*
X69440222Y-65602265D01*
X69695363Y-65220418D01*
X69784957Y-64770000D01*
X69915043Y-64770000D01*
X70004637Y-65220418D01*
X70259778Y-65602265D01*
X70641625Y-65857406D01*
X71092043Y-65947000D01*
X71647957Y-65947000D01*
X72098375Y-65857406D01*
X72480222Y-65602265D01*
X72735363Y-65220418D01*
X72824957Y-64770000D01*
X72735363Y-64319582D01*
X72480222Y-63937735D01*
X72098375Y-63682594D01*
X71647957Y-63593000D01*
X71092043Y-63593000D01*
X70641625Y-63682594D01*
X70259778Y-63937735D01*
X70004637Y-64319582D01*
X69915043Y-64770000D01*
X69784957Y-64770000D01*
X69695363Y-64319582D01*
X69440222Y-63937735D01*
X69058375Y-63682594D01*
X68607957Y-63593000D01*
X68052043Y-63593000D01*
X67601625Y-63682594D01*
X67219778Y-63937735D01*
X66964637Y-64319582D01*
X66875043Y-64770000D01*
X62477000Y-64770000D01*
X62477000Y-62230000D01*
X69915043Y-62230000D01*
X70004637Y-62680418D01*
X70259778Y-63062265D01*
X70641625Y-63317406D01*
X71092043Y-63407000D01*
X71647957Y-63407000D01*
X72098375Y-63317406D01*
X72480222Y-63062265D01*
X72735363Y-62680418D01*
X72824957Y-62230000D01*
X72735363Y-61779582D01*
X72480222Y-61397735D01*
X72098375Y-61142594D01*
X71647957Y-61053000D01*
X71092043Y-61053000D01*
X70641625Y-61142594D01*
X70259778Y-61397735D01*
X70004637Y-61779582D01*
X69915043Y-62230000D01*
X62477000Y-62230000D01*
X62477000Y-46622268D01*
X71836000Y-46622268D01*
X71836000Y-47357732D01*
X71926507Y-47812743D01*
X72184250Y-48198482D01*
X72569989Y-48456225D01*
X73025000Y-48546732D01*
X73480011Y-48456225D01*
X73865750Y-48198482D01*
X74123493Y-47812743D01*
X74214000Y-47357732D01*
X74214000Y-46622268D01*
X74123493Y-46167257D01*
X73865750Y-45781518D01*
X73480011Y-45523775D01*
X73025000Y-45433268D01*
X72569989Y-45523775D01*
X72184250Y-45781518D01*
X71926507Y-46167257D01*
X71836000Y-46622268D01*
X62477000Y-46622268D01*
X62477000Y-43477000D01*
X139953018Y-43477000D01*
X140196568Y-43525445D01*
G36*
X114817135Y-118427500D02*
X114817135Y-120332500D01*
X114846909Y-120490737D01*
X114940427Y-120636067D01*
X115083119Y-120733564D01*
X115252500Y-120767865D01*
X117157500Y-120767865D01*
X117315737Y-120738091D01*
X117461067Y-120644573D01*
X117558564Y-120501881D01*
X117592865Y-120332500D01*
X117592865Y-118427500D01*
X117583837Y-118379521D01*
X124407099Y-118379521D01*
X124668091Y-118640513D01*
X124667816Y-118955318D01*
X124829155Y-119345789D01*
X125127640Y-119644795D01*
X125517828Y-119806815D01*
X125940318Y-119807184D01*
X126330789Y-119645845D01*
X126425491Y-119551308D01*
X126425491Y-120327334D01*
X121949634Y-124803191D01*
X121949737Y-124685498D01*
X121733025Y-124161014D01*
X121332097Y-123759385D01*
X120807991Y-123541758D01*
X120240498Y-123541263D01*
X119716014Y-123757975D01*
X119314385Y-124158903D01*
X119096758Y-124683009D01*
X119096263Y-125250502D01*
X119312975Y-125774986D01*
X119478191Y-125940491D01*
X116394767Y-125940491D01*
X116172360Y-125717696D01*
X115782172Y-125555676D01*
X115359682Y-125555307D01*
X114969211Y-125716646D01*
X114670205Y-126015131D01*
X114508185Y-126405319D01*
X114507816Y-126827809D01*
X114669155Y-127218280D01*
X114967640Y-127517286D01*
X115357828Y-127679306D01*
X115780318Y-127679675D01*
X116170789Y-127518336D01*
X116395025Y-127294491D01*
X121092757Y-127294491D01*
X121351834Y-127242957D01*
X121571468Y-127096202D01*
X124313163Y-124354507D01*
X124176758Y-124683009D01*
X124176263Y-125250502D01*
X124392975Y-125774986D01*
X124793903Y-126176615D01*
X125318009Y-126394242D01*
X125676717Y-126394555D01*
X124093272Y-127978000D01*
X116106843Y-127978000D01*
X115782172Y-127843185D01*
X115359682Y-127842816D01*
X114969211Y-128004155D01*
X114670205Y-128302640D01*
X114508185Y-128692828D01*
X114507816Y-129115318D01*
X114669155Y-129505789D01*
X114967640Y-129804795D01*
X115357828Y-129966815D01*
X115780318Y-129967184D01*
X116107489Y-129832000D01*
X124219185Y-129832000D01*
X119394683Y-134656501D01*
X85969865Y-134656501D01*
X85969865Y-133808557D01*
X86838711Y-132939711D01*
X86878001Y-132880909D01*
X86985466Y-132720077D01*
X87037000Y-132461000D01*
X87037000Y-131474228D01*
X89634185Y-128877043D01*
X104233000Y-128877043D01*
X104233000Y-129432957D01*
X104322594Y-129883375D01*
X104577735Y-130265222D01*
X104959582Y-130520363D01*
X105410000Y-130609957D01*
X105860418Y-130520363D01*
X106242265Y-130265222D01*
X106497406Y-129883375D01*
X106587000Y-129432957D01*
X106587000Y-128877043D01*
X106497406Y-128426625D01*
X106242265Y-128044778D01*
X105860418Y-127789637D01*
X105410000Y-127700043D01*
X104959582Y-127789637D01*
X104577735Y-128044778D01*
X104322594Y-128426625D01*
X104233000Y-128877043D01*
X89634185Y-128877043D01*
X92674185Y-125837043D01*
X94073000Y-125837043D01*
X94073000Y-126392957D01*
X94162594Y-126843375D01*
X94417735Y-127225222D01*
X94799582Y-127480363D01*
X95250000Y-127569957D01*
X95700418Y-127480363D01*
X96082265Y-127225222D01*
X96337406Y-126843375D01*
X96427000Y-126392957D01*
X96427000Y-125837043D01*
X96613000Y-125837043D01*
X96613000Y-126392957D01*
X96702594Y-126843375D01*
X96957735Y-127225222D01*
X97339582Y-127480363D01*
X97790000Y-127569957D01*
X98240418Y-127480363D01*
X98622265Y-127225222D01*
X98877406Y-126843375D01*
X98967000Y-126392957D01*
X98967000Y-125837043D01*
X99153000Y-125837043D01*
X99153000Y-126392957D01*
X99242594Y-126843375D01*
X99497735Y-127225222D01*
X99879582Y-127480363D01*
X100330000Y-127569957D01*
X100780418Y-127480363D01*
X101162265Y-127225222D01*
X101417406Y-126843375D01*
X101507000Y-126392957D01*
X101507000Y-125837043D01*
X101417406Y-125386625D01*
X101235913Y-125115000D01*
X104224635Y-125115000D01*
X104224635Y-127115000D01*
X104254409Y-127273237D01*
X104347927Y-127418567D01*
X104490619Y-127516064D01*
X104660000Y-127550365D01*
X106160000Y-127550365D01*
X106318237Y-127520591D01*
X106463567Y-127427073D01*
X106561064Y-127284381D01*
X106595365Y-127115000D01*
X106595365Y-125115000D01*
X106565591Y-124956763D01*
X106472073Y-124811433D01*
X106329381Y-124713936D01*
X106160000Y-124679635D01*
X104660000Y-124679635D01*
X104501763Y-124709409D01*
X104356433Y-124802927D01*
X104258936Y-124945619D01*
X104224635Y-125115000D01*
X101235913Y-125115000D01*
X101162265Y-125004778D01*
X100780418Y-124749637D01*
X100330000Y-124660043D01*
X99879582Y-124749637D01*
X99497735Y-125004778D01*
X99242594Y-125386625D01*
X99153000Y-125837043D01*
X98967000Y-125837043D01*
X98877406Y-125386625D01*
X98622265Y-125004778D01*
X98240418Y-124749637D01*
X97790000Y-124660043D01*
X97339582Y-124749637D01*
X96957735Y-125004778D01*
X96702594Y-125386625D01*
X96613000Y-125837043D01*
X96427000Y-125837043D01*
X96337406Y-125386625D01*
X96082265Y-125004778D01*
X95700418Y-124749637D01*
X95250000Y-124660043D01*
X94799582Y-124749637D01*
X94417735Y-125004778D01*
X94162594Y-125386625D01*
X94073000Y-125837043D01*
X92674185Y-125837043D01*
X100131707Y-118379521D01*
X114826851Y-118379521D01*
X114817135Y-118427500D01*
X114817135Y-118427500D01*
G37*
X114817135Y-118427500D02*
X114817135Y-120332500D01*
X114846909Y-120490737D01*
X114940427Y-120636067D01*
X115083119Y-120733564D01*
X115252500Y-120767865D01*
X117157500Y-120767865D01*
X117315737Y-120738091D01*
X117461067Y-120644573D01*
X117558564Y-120501881D01*
X117592865Y-120332500D01*
X117592865Y-118427500D01*
X117583837Y-118379521D01*
X124407099Y-118379521D01*
X124668091Y-118640513D01*
X124667816Y-118955318D01*
X124829155Y-119345789D01*
X125127640Y-119644795D01*
X125517828Y-119806815D01*
X125940318Y-119807184D01*
X126330789Y-119645845D01*
X126425491Y-119551308D01*
X126425491Y-120327334D01*
X121949634Y-124803191D01*
X121949737Y-124685498D01*
X121733025Y-124161014D01*
X121332097Y-123759385D01*
X120807991Y-123541758D01*
X120240498Y-123541263D01*
X119716014Y-123757975D01*
X119314385Y-124158903D01*
X119096758Y-124683009D01*
X119096263Y-125250502D01*
X119312975Y-125774986D01*
X119478191Y-125940491D01*
X116394767Y-125940491D01*
X116172360Y-125717696D01*
X115782172Y-125555676D01*
X115359682Y-125555307D01*
X114969211Y-125716646D01*
X114670205Y-126015131D01*
X114508185Y-126405319D01*
X114507816Y-126827809D01*
X114669155Y-127218280D01*
X114967640Y-127517286D01*
X115357828Y-127679306D01*
X115780318Y-127679675D01*
X116170789Y-127518336D01*
X116395025Y-127294491D01*
X121092757Y-127294491D01*
X121351834Y-127242957D01*
X121571468Y-127096202D01*
X124313163Y-124354507D01*
X124176758Y-124683009D01*
X124176263Y-125250502D01*
X124392975Y-125774986D01*
X124793903Y-126176615D01*
X125318009Y-126394242D01*
X125676717Y-126394555D01*
X124093272Y-127978000D01*
X116106843Y-127978000D01*
X115782172Y-127843185D01*
X115359682Y-127842816D01*
X114969211Y-128004155D01*
X114670205Y-128302640D01*
X114508185Y-128692828D01*
X114507816Y-129115318D01*
X114669155Y-129505789D01*
X114967640Y-129804795D01*
X115357828Y-129966815D01*
X115780318Y-129967184D01*
X116107489Y-129832000D01*
X124219185Y-129832000D01*
X119394683Y-134656501D01*
X85969865Y-134656501D01*
X85969865Y-133808557D01*
X86838711Y-132939711D01*
X86878001Y-132880909D01*
X86985466Y-132720077D01*
X87037000Y-132461000D01*
X87037000Y-131474228D01*
X89634185Y-128877043D01*
X104233000Y-128877043D01*
X104233000Y-129432957D01*
X104322594Y-129883375D01*
X104577735Y-130265222D01*
X104959582Y-130520363D01*
X105410000Y-130609957D01*
X105860418Y-130520363D01*
X106242265Y-130265222D01*
X106497406Y-129883375D01*
X106587000Y-129432957D01*
X106587000Y-128877043D01*
X106497406Y-128426625D01*
X106242265Y-128044778D01*
X105860418Y-127789637D01*
X105410000Y-127700043D01*
X104959582Y-127789637D01*
X104577735Y-128044778D01*
X104322594Y-128426625D01*
X104233000Y-128877043D01*
X89634185Y-128877043D01*
X92674185Y-125837043D01*
X94073000Y-125837043D01*
X94073000Y-126392957D01*
X94162594Y-126843375D01*
X94417735Y-127225222D01*
X94799582Y-127480363D01*
X95250000Y-127569957D01*
X95700418Y-127480363D01*
X96082265Y-127225222D01*
X96337406Y-126843375D01*
X96427000Y-126392957D01*
X96427000Y-125837043D01*
X96613000Y-125837043D01*
X96613000Y-126392957D01*
X96702594Y-126843375D01*
X96957735Y-127225222D01*
X97339582Y-127480363D01*
X97790000Y-127569957D01*
X98240418Y-127480363D01*
X98622265Y-127225222D01*
X98877406Y-126843375D01*
X98967000Y-126392957D01*
X98967000Y-125837043D01*
X99153000Y-125837043D01*
X99153000Y-126392957D01*
X99242594Y-126843375D01*
X99497735Y-127225222D01*
X99879582Y-127480363D01*
X100330000Y-127569957D01*
X100780418Y-127480363D01*
X101162265Y-127225222D01*
X101417406Y-126843375D01*
X101507000Y-126392957D01*
X101507000Y-125837043D01*
X101417406Y-125386625D01*
X101235913Y-125115000D01*
X104224635Y-125115000D01*
X104224635Y-127115000D01*
X104254409Y-127273237D01*
X104347927Y-127418567D01*
X104490619Y-127516064D01*
X104660000Y-127550365D01*
X106160000Y-127550365D01*
X106318237Y-127520591D01*
X106463567Y-127427073D01*
X106561064Y-127284381D01*
X106595365Y-127115000D01*
X106595365Y-125115000D01*
X106565591Y-124956763D01*
X106472073Y-124811433D01*
X106329381Y-124713936D01*
X106160000Y-124679635D01*
X104660000Y-124679635D01*
X104501763Y-124709409D01*
X104356433Y-124802927D01*
X104258936Y-124945619D01*
X104224635Y-125115000D01*
X101235913Y-125115000D01*
X101162265Y-125004778D01*
X100780418Y-124749637D01*
X100330000Y-124660043D01*
X99879582Y-124749637D01*
X99497735Y-125004778D01*
X99242594Y-125386625D01*
X99153000Y-125837043D01*
X98967000Y-125837043D01*
X98877406Y-125386625D01*
X98622265Y-125004778D01*
X98240418Y-124749637D01*
X97790000Y-124660043D01*
X97339582Y-124749637D01*
X96957735Y-125004778D01*
X96702594Y-125386625D01*
X96613000Y-125837043D01*
X96427000Y-125837043D01*
X96337406Y-125386625D01*
X96082265Y-125004778D01*
X95700418Y-124749637D01*
X95250000Y-124660043D01*
X94799582Y-124749637D01*
X94417735Y-125004778D01*
X94162594Y-125386625D01*
X94073000Y-125837043D01*
X92674185Y-125837043D01*
X100131707Y-118379521D01*
X114826851Y-118379521D01*
X114817135Y-118427500D01*
G36*
X95397039Y-103058015D02*
X95256763Y-103084409D01*
X95111433Y-103177927D01*
X95013936Y-103320619D01*
X94985103Y-103463000D01*
X94440336Y-103463000D01*
X94217929Y-103240205D01*
X93827741Y-103078185D01*
X93405251Y-103077816D01*
X93014780Y-103239155D01*
X92715774Y-103537640D01*
X92553754Y-103927828D01*
X92553385Y-104350318D01*
X92714724Y-104740789D01*
X93013209Y-105039795D01*
X93403397Y-105201815D01*
X93825887Y-105202184D01*
X94216358Y-105040845D01*
X94440594Y-104817000D01*
X94984715Y-104817000D01*
X95009409Y-104948237D01*
X95102927Y-105093567D01*
X95245619Y-105191064D01*
X95415000Y-105225365D01*
X96965000Y-105225365D01*
X97123237Y-105195591D01*
X97268567Y-105102073D01*
X97366064Y-104959381D01*
X97394897Y-104817000D01*
X102934715Y-104817000D01*
X102959409Y-104948237D01*
X103052927Y-105093567D01*
X103195619Y-105191064D01*
X103365000Y-105225365D01*
X104915000Y-105225365D01*
X105073237Y-105195591D01*
X105218567Y-105102073D01*
X105316064Y-104959381D01*
X105350365Y-104790000D01*
X105350365Y-103516990D01*
X108695635Y-103516990D01*
X108695635Y-104790000D01*
X108725409Y-104948237D01*
X108818927Y-105093567D01*
X108961619Y-105191064D01*
X109131000Y-105225365D01*
X110681000Y-105225365D01*
X110839237Y-105195591D01*
X110984567Y-105102073D01*
X111082064Y-104959381D01*
X111110897Y-104817000D01*
X116650715Y-104817000D01*
X116675409Y-104948237D01*
X116768927Y-105093567D01*
X116911619Y-105191064D01*
X117081000Y-105225365D01*
X117983943Y-105225365D01*
X125407674Y-112649096D01*
X125129211Y-112764155D01*
X124830205Y-113062640D01*
X124668185Y-113452828D01*
X124667908Y-113769670D01*
X123212077Y-115225501D01*
X117230494Y-115225501D01*
X117373801Y-115082444D01*
X117584260Y-114575603D01*
X117584739Y-114026804D01*
X117375165Y-113519597D01*
X116987444Y-113131199D01*
X116480603Y-112920740D01*
X115931804Y-112920261D01*
X115424597Y-113129835D01*
X115036199Y-113517556D01*
X114825740Y-114024397D01*
X114825261Y-114573196D01*
X115034835Y-115080403D01*
X115179680Y-115225501D01*
X112719734Y-115225501D01*
X112821815Y-114979663D01*
X112822184Y-114557173D01*
X112660845Y-114166702D01*
X112362360Y-113867696D01*
X112035427Y-113731942D01*
X104233176Y-105929691D01*
X104214250Y-105917045D01*
X103932436Y-105728743D01*
X103577688Y-105658179D01*
X84691233Y-105658179D01*
X80410093Y-101377039D01*
X80302000Y-101115433D01*
X80302000Y-99327268D01*
X80726000Y-99327268D01*
X80726000Y-100062732D01*
X80816507Y-100517743D01*
X81074250Y-100903482D01*
X81459989Y-101161225D01*
X81915000Y-101251732D01*
X82370011Y-101161225D01*
X82755750Y-100903482D01*
X83013493Y-100517743D01*
X83104000Y-100062732D01*
X83104000Y-99327268D01*
X83266000Y-99327268D01*
X83266000Y-100062732D01*
X83356507Y-100517743D01*
X83614250Y-100903482D01*
X83999989Y-101161225D01*
X84455000Y-101251732D01*
X84910011Y-101161225D01*
X85295750Y-100903482D01*
X85553493Y-100517743D01*
X85644000Y-100062732D01*
X85644000Y-99327268D01*
X85806000Y-99327268D01*
X85806000Y-100062732D01*
X85896507Y-100517743D01*
X86154250Y-100903482D01*
X86539989Y-101161225D01*
X86995000Y-101251732D01*
X87450011Y-101161225D01*
X87835750Y-100903482D01*
X88093493Y-100517743D01*
X88184000Y-100062732D01*
X88184000Y-99327268D01*
X88093493Y-98872257D01*
X87835750Y-98486518D01*
X87450011Y-98228775D01*
X86995000Y-98138268D01*
X86539989Y-98228775D01*
X86154250Y-98486518D01*
X85896507Y-98872257D01*
X85806000Y-99327268D01*
X85644000Y-99327268D01*
X85553493Y-98872257D01*
X85295750Y-98486518D01*
X84910011Y-98228775D01*
X84455000Y-98138268D01*
X83999989Y-98228775D01*
X83614250Y-98486518D01*
X83356507Y-98872257D01*
X83266000Y-99327268D01*
X83104000Y-99327268D01*
X83013493Y-98872257D01*
X82755750Y-98486518D01*
X82370011Y-98228775D01*
X81915000Y-98138268D01*
X81459989Y-98228775D01*
X81074250Y-98486518D01*
X80816507Y-98872257D01*
X80726000Y-99327268D01*
X80302000Y-99327268D01*
X80302000Y-87962976D01*
X95397039Y-103058015D01*
X95397039Y-103058015D01*
G37*
X95397039Y-103058015D02*
X95256763Y-103084409D01*
X95111433Y-103177927D01*
X95013936Y-103320619D01*
X94985103Y-103463000D01*
X94440336Y-103463000D01*
X94217929Y-103240205D01*
X93827741Y-103078185D01*
X93405251Y-103077816D01*
X93014780Y-103239155D01*
X92715774Y-103537640D01*
X92553754Y-103927828D01*
X92553385Y-104350318D01*
X92714724Y-104740789D01*
X93013209Y-105039795D01*
X93403397Y-105201815D01*
X93825887Y-105202184D01*
X94216358Y-105040845D01*
X94440594Y-104817000D01*
X94984715Y-104817000D01*
X95009409Y-104948237D01*
X95102927Y-105093567D01*
X95245619Y-105191064D01*
X95415000Y-105225365D01*
X96965000Y-105225365D01*
X97123237Y-105195591D01*
X97268567Y-105102073D01*
X97366064Y-104959381D01*
X97394897Y-104817000D01*
X102934715Y-104817000D01*
X102959409Y-104948237D01*
X103052927Y-105093567D01*
X103195619Y-105191064D01*
X103365000Y-105225365D01*
X104915000Y-105225365D01*
X105073237Y-105195591D01*
X105218567Y-105102073D01*
X105316064Y-104959381D01*
X105350365Y-104790000D01*
X105350365Y-103516990D01*
X108695635Y-103516990D01*
X108695635Y-104790000D01*
X108725409Y-104948237D01*
X108818927Y-105093567D01*
X108961619Y-105191064D01*
X109131000Y-105225365D01*
X110681000Y-105225365D01*
X110839237Y-105195591D01*
X110984567Y-105102073D01*
X111082064Y-104959381D01*
X111110897Y-104817000D01*
X116650715Y-104817000D01*
X116675409Y-104948237D01*
X116768927Y-105093567D01*
X116911619Y-105191064D01*
X117081000Y-105225365D01*
X117983943Y-105225365D01*
X125407674Y-112649096D01*
X125129211Y-112764155D01*
X124830205Y-113062640D01*
X124668185Y-113452828D01*
X124667908Y-113769670D01*
X123212077Y-115225501D01*
X117230494Y-115225501D01*
X117373801Y-115082444D01*
X117584260Y-114575603D01*
X117584739Y-114026804D01*
X117375165Y-113519597D01*
X116987444Y-113131199D01*
X116480603Y-112920740D01*
X115931804Y-112920261D01*
X115424597Y-113129835D01*
X115036199Y-113517556D01*
X114825740Y-114024397D01*
X114825261Y-114573196D01*
X115034835Y-115080403D01*
X115179680Y-115225501D01*
X112719734Y-115225501D01*
X112821815Y-114979663D01*
X112822184Y-114557173D01*
X112660845Y-114166702D01*
X112362360Y-113867696D01*
X112035427Y-113731942D01*
X104233176Y-105929691D01*
X104214250Y-105917045D01*
X103932436Y-105728743D01*
X103577688Y-105658179D01*
X84691233Y-105658179D01*
X80410093Y-101377039D01*
X80302000Y-101115433D01*
X80302000Y-99327268D01*
X80726000Y-99327268D01*
X80726000Y-100062732D01*
X80816507Y-100517743D01*
X81074250Y-100903482D01*
X81459989Y-101161225D01*
X81915000Y-101251732D01*
X82370011Y-101161225D01*
X82755750Y-100903482D01*
X83013493Y-100517743D01*
X83104000Y-100062732D01*
X83104000Y-99327268D01*
X83266000Y-99327268D01*
X83266000Y-100062732D01*
X83356507Y-100517743D01*
X83614250Y-100903482D01*
X83999989Y-101161225D01*
X84455000Y-101251732D01*
X84910011Y-101161225D01*
X85295750Y-100903482D01*
X85553493Y-100517743D01*
X85644000Y-100062732D01*
X85644000Y-99327268D01*
X85806000Y-99327268D01*
X85806000Y-100062732D01*
X85896507Y-100517743D01*
X86154250Y-100903482D01*
X86539989Y-101161225D01*
X86995000Y-101251732D01*
X87450011Y-101161225D01*
X87835750Y-100903482D01*
X88093493Y-100517743D01*
X88184000Y-100062732D01*
X88184000Y-99327268D01*
X88093493Y-98872257D01*
X87835750Y-98486518D01*
X87450011Y-98228775D01*
X86995000Y-98138268D01*
X86539989Y-98228775D01*
X86154250Y-98486518D01*
X85896507Y-98872257D01*
X85806000Y-99327268D01*
X85644000Y-99327268D01*
X85553493Y-98872257D01*
X85295750Y-98486518D01*
X84910011Y-98228775D01*
X84455000Y-98138268D01*
X83999989Y-98228775D01*
X83614250Y-98486518D01*
X83356507Y-98872257D01*
X83266000Y-99327268D01*
X83104000Y-99327268D01*
X83013493Y-98872257D01*
X82755750Y-98486518D01*
X82370011Y-98228775D01*
X81915000Y-98138268D01*
X81459989Y-98228775D01*
X81074250Y-98486518D01*
X80816507Y-98872257D01*
X80726000Y-99327268D01*
X80302000Y-99327268D01*
X80302000Y-87962976D01*
X95397039Y-103058015D01*
G36*
X137706501Y-65697175D02*
X137458283Y-66294950D01*
X137457718Y-66942211D01*
X137704892Y-67540418D01*
X138162175Y-67998499D01*
X138759950Y-68246717D01*
X139407211Y-68247282D01*
X140005418Y-68000108D01*
X140463499Y-67542825D01*
X140711717Y-66945050D01*
X140712282Y-66297789D01*
X140465108Y-65699582D01*
X140069227Y-65303010D01*
X160627404Y-65303010D01*
X163449000Y-68124606D01*
X163449000Y-140298396D01*
X163154661Y-139857886D01*
X162691874Y-139548662D01*
X162145980Y-139440077D01*
X161600086Y-139548662D01*
X161137299Y-139857886D01*
X160828075Y-140320673D01*
X160774701Y-140589000D01*
X152999960Y-140589000D01*
X143302053Y-111064261D01*
X143302184Y-110914682D01*
X143140845Y-110524211D01*
X143116730Y-110500053D01*
X131628981Y-75526239D01*
X132159950Y-75746717D01*
X132807211Y-75747282D01*
X133405418Y-75500108D01*
X133863499Y-75042825D01*
X134111717Y-74445050D01*
X134112282Y-73797789D01*
X133865108Y-73199582D01*
X133407825Y-72741501D01*
X132810050Y-72493283D01*
X132162789Y-72492718D01*
X131564582Y-72739892D01*
X131106501Y-73197175D01*
X130971081Y-73523302D01*
X130175000Y-71099676D01*
X130175000Y-68692549D01*
X130434346Y-68304410D01*
X130562000Y-67662650D01*
X130562000Y-66577350D01*
X130434346Y-65935590D01*
X130175000Y-65547451D01*
X130175000Y-65303010D01*
X138101354Y-65303010D01*
X137706501Y-65697175D01*
X137706501Y-65697175D01*
G37*
X137706501Y-65697175D02*
X137458283Y-66294950D01*
X137457718Y-66942211D01*
X137704892Y-67540418D01*
X138162175Y-67998499D01*
X138759950Y-68246717D01*
X139407211Y-68247282D01*
X140005418Y-68000108D01*
X140463499Y-67542825D01*
X140711717Y-66945050D01*
X140712282Y-66297789D01*
X140465108Y-65699582D01*
X140069227Y-65303010D01*
X160627404Y-65303010D01*
X163449000Y-68124606D01*
X163449000Y-140298396D01*
X163154661Y-139857886D01*
X162691874Y-139548662D01*
X162145980Y-139440077D01*
X161600086Y-139548662D01*
X161137299Y-139857886D01*
X160828075Y-140320673D01*
X160774701Y-140589000D01*
X152999960Y-140589000D01*
X143302053Y-111064261D01*
X143302184Y-110914682D01*
X143140845Y-110524211D01*
X143116730Y-110500053D01*
X131628981Y-75526239D01*
X132159950Y-75746717D01*
X132807211Y-75747282D01*
X133405418Y-75500108D01*
X133863499Y-75042825D01*
X134111717Y-74445050D01*
X134112282Y-73797789D01*
X133865108Y-73199582D01*
X133407825Y-72741501D01*
X132810050Y-72493283D01*
X132162789Y-72492718D01*
X131564582Y-72739892D01*
X131106501Y-73197175D01*
X130971081Y-73523302D01*
X130175000Y-71099676D01*
X130175000Y-68692549D01*
X130434346Y-68304410D01*
X130562000Y-67662650D01*
X130562000Y-66577350D01*
X130434346Y-65935590D01*
X130175000Y-65547451D01*
X130175000Y-65303010D01*
X138101354Y-65303010D01*
X137706501Y-65697175D01*
M02*
