G04 #@! TF.FileFunction,Soldermask,Bot*
%FSLAX46Y46*%
G04 Gerber Fmt 4.6, Leading zero omitted, Abs format (unit mm)*
G04 Created by KiCad (PCBNEW (2015-10-27 BZR 6284, Git 48df08c)-product) date Wed 09 Dec 2015 03:30:12 AM CET*
%MOMM*%
G01*
G04 APERTURE LIST*
%ADD10C,0.100000*%
%ADD11C,0.400000*%
%ADD12R,3.900000X2.000000*%
%ADD13O,3.900000X2.000000*%
%ADD14O,4.500000X2.200000*%
%ADD15R,3.000000X2.300000*%
%ADD16R,1.270000X0.381000*%
%ADD17R,0.889000X1.397000*%
%ADD18R,2.199640X1.524000*%
%ADD19O,2.199640X1.524000*%
%ADD20R,1.524000X2.199640*%
%ADD21O,1.524000X2.199640*%
%ADD22R,2.032000X1.524000*%
%ADD23C,1.998980*%
%ADD24R,0.635000X1.143000*%
%ADD25R,1.524000X2.032000*%
%ADD26R,1.143000X0.635000*%
%ADD27R,1.000760X0.599440*%
%ADD28R,0.800100X1.300480*%
%ADD29O,1.998980X4.000500*%
%ADD30O,4.000500X1.998980*%
%ADD31O,4.500880X1.998980*%
%ADD32R,1.905000X1.905000*%
%ADD33C,1.905000*%
%ADD34O,1.500000X2.000000*%
%ADD35R,1.500000X2.000000*%
%ADD36O,2.000000X1.500000*%
%ADD37R,2.000000X1.500000*%
%ADD38C,4.000000*%
%ADD39C,3.000000*%
%ADD40R,1.270000X0.610000*%
%ADD41R,1.020000X0.610000*%
%ADD42R,3.810000X3.910000*%
%ADD43R,1.397000X0.889000*%
%ADD44O,2.500000X3.500000*%
%ADD45C,2.400000*%
%ADD46R,3.200400X1.600200*%
%ADD47R,7.000240X6.499860*%
%ADD48R,1.249680X2.999740*%
%ADD49O,3.900000X5.000000*%
%ADD50C,6.000000*%
G04 APERTURE END LIST*
D10*
D11*
X184333335Y-64257143D02*
X184047621Y-64352381D01*
X183952382Y-64447619D01*
X183857144Y-64638095D01*
X183857144Y-64923810D01*
X183952382Y-65114286D01*
X184047621Y-65209524D01*
X184238097Y-65304762D01*
X185000002Y-65304762D01*
X185000002Y-63304762D01*
X184333335Y-63304762D01*
X184142859Y-63400000D01*
X184047621Y-63495238D01*
X183952382Y-63685714D01*
X183952382Y-63876190D01*
X184047621Y-64066667D01*
X184142859Y-64161905D01*
X184333335Y-64257143D01*
X185000002Y-64257143D01*
X182619049Y-63304762D02*
X182238097Y-63304762D01*
X182047621Y-63400000D01*
X181857144Y-63590476D01*
X181761906Y-63971429D01*
X181761906Y-64638095D01*
X181857144Y-65019048D01*
X182047621Y-65209524D01*
X182238097Y-65304762D01*
X182619049Y-65304762D01*
X182809525Y-65209524D01*
X183000002Y-65019048D01*
X183095240Y-64638095D01*
X183095240Y-63971429D01*
X183000002Y-63590476D01*
X182809525Y-63400000D01*
X182619049Y-63304762D01*
X181000002Y-64733333D02*
X180047621Y-64733333D01*
X181190478Y-65304762D02*
X180523811Y-63304762D01*
X179857144Y-65304762D01*
X178047620Y-65304762D02*
X178714287Y-64352381D01*
X179190478Y-65304762D02*
X179190478Y-63304762D01*
X178428573Y-63304762D01*
X178238097Y-63400000D01*
X178142858Y-63495238D01*
X178047620Y-63685714D01*
X178047620Y-63971429D01*
X178142858Y-64161905D01*
X178238097Y-64257143D01*
X178428573Y-64352381D01*
X179190478Y-64352381D01*
X177190478Y-65304762D02*
X177190478Y-63304762D01*
X176714287Y-63304762D01*
X176428573Y-63400000D01*
X176238097Y-63590476D01*
X176142858Y-63780952D01*
X176047620Y-64161905D01*
X176047620Y-64447619D01*
X176142858Y-64828571D01*
X176238097Y-65019048D01*
X176428573Y-65209524D01*
X176714287Y-65304762D01*
X177190478Y-65304762D01*
X173000001Y-64257143D02*
X173666668Y-64257143D01*
X173666668Y-65304762D02*
X173666668Y-63304762D01*
X172714287Y-63304762D01*
X171571429Y-63304762D02*
X171190477Y-63304762D01*
X171000001Y-63400000D01*
X170809524Y-63590476D01*
X170714286Y-63971429D01*
X170714286Y-64638095D01*
X170809524Y-65019048D01*
X171000001Y-65209524D01*
X171190477Y-65304762D01*
X171571429Y-65304762D01*
X171761905Y-65209524D01*
X171952382Y-65019048D01*
X172047620Y-64638095D01*
X172047620Y-63971429D01*
X171952382Y-63590476D01*
X171761905Y-63400000D01*
X171571429Y-63304762D01*
X168714286Y-65304762D02*
X169380953Y-64352381D01*
X169857144Y-65304762D02*
X169857144Y-63304762D01*
X169095239Y-63304762D01*
X168904763Y-63400000D01*
X168809524Y-63495238D01*
X168714286Y-63685714D01*
X168714286Y-63971429D01*
X168809524Y-64161905D01*
X168904763Y-64257143D01*
X169095239Y-64352381D01*
X169857144Y-64352381D01*
X165190476Y-65304762D02*
X165857143Y-64352381D01*
X166333334Y-65304762D02*
X166333334Y-63304762D01*
X165571429Y-63304762D01*
X165380953Y-63400000D01*
X165285714Y-63495238D01*
X165190476Y-63685714D01*
X165190476Y-63971429D01*
X165285714Y-64161905D01*
X165380953Y-64257143D01*
X165571429Y-64352381D01*
X166333334Y-64352381D01*
X163952381Y-63304762D02*
X163571429Y-63304762D01*
X163380953Y-63400000D01*
X163190476Y-63590476D01*
X163095238Y-63971429D01*
X163095238Y-64638095D01*
X163190476Y-65019048D01*
X163380953Y-65209524D01*
X163571429Y-65304762D01*
X163952381Y-65304762D01*
X164142857Y-65209524D01*
X164333334Y-65019048D01*
X164428572Y-64638095D01*
X164428572Y-63971429D01*
X164333334Y-63590476D01*
X164142857Y-63400000D01*
X163952381Y-63304762D01*
X161571429Y-64257143D02*
X161285715Y-64352381D01*
X161190476Y-64447619D01*
X161095238Y-64638095D01*
X161095238Y-64923810D01*
X161190476Y-65114286D01*
X161285715Y-65209524D01*
X161476191Y-65304762D01*
X162238096Y-65304762D01*
X162238096Y-63304762D01*
X161571429Y-63304762D01*
X161380953Y-63400000D01*
X161285715Y-63495238D01*
X161190476Y-63685714D01*
X161190476Y-63876190D01*
X161285715Y-64066667D01*
X161380953Y-64161905D01*
X161571429Y-64257143D01*
X162238096Y-64257143D01*
X159857143Y-63304762D02*
X159476191Y-63304762D01*
X159285715Y-63400000D01*
X159095238Y-63590476D01*
X159000000Y-63971429D01*
X159000000Y-64638095D01*
X159095238Y-65019048D01*
X159285715Y-65209524D01*
X159476191Y-65304762D01*
X159857143Y-65304762D01*
X160047619Y-65209524D01*
X160238096Y-65019048D01*
X160333334Y-64638095D01*
X160333334Y-63971429D01*
X160238096Y-63590476D01*
X160047619Y-63400000D01*
X159857143Y-63304762D01*
X158428572Y-63304762D02*
X157285715Y-63304762D01*
X157857143Y-65304762D02*
X157857143Y-63304762D01*
X155095238Y-65304762D02*
X155095238Y-63304762D01*
X153952380Y-65304762D02*
X154809523Y-64161905D01*
X153952380Y-63304762D02*
X155095238Y-64447619D01*
X152142857Y-65304762D02*
X153095238Y-65304762D01*
X153095238Y-63304762D01*
X151571428Y-64733333D02*
X150619047Y-64733333D01*
X151761904Y-65304762D02*
X151095237Y-63304762D01*
X150428570Y-65304762D01*
X150904761Y-62542857D02*
X151190475Y-62828571D01*
X148619046Y-65304762D02*
X149285713Y-64352381D01*
X149761904Y-65304762D02*
X149761904Y-63304762D01*
X148999999Y-63304762D01*
X148809523Y-63400000D01*
X148714284Y-63495238D01*
X148619046Y-63685714D01*
X148619046Y-63971429D01*
X148714284Y-64161905D01*
X148809523Y-64257143D01*
X148999999Y-64352381D01*
X149761904Y-64352381D01*
X147857142Y-64733333D02*
X146904761Y-64733333D01*
X148047618Y-65304762D02*
X147380951Y-63304762D01*
X146714284Y-65304762D01*
D10*
G36*
X128106241Y-113943654D02*
X128318373Y-113731522D01*
X129379033Y-114792182D01*
X129166901Y-115004314D01*
X128106241Y-113943654D01*
X128106241Y-113943654D01*
G37*
G36*
X128459794Y-113590101D02*
X128671926Y-113377969D01*
X129732586Y-114438629D01*
X129520454Y-114650761D01*
X128459794Y-113590101D01*
X128459794Y-113590101D01*
G37*
G36*
X128813348Y-113236548D02*
X129025480Y-113024416D01*
X130086140Y-114085076D01*
X129874008Y-114297208D01*
X128813348Y-113236548D01*
X128813348Y-113236548D01*
G37*
G36*
X129166901Y-112882994D02*
X129379033Y-112670862D01*
X130439693Y-113731522D01*
X130227561Y-113943654D01*
X129166901Y-112882994D01*
X129166901Y-112882994D01*
G37*
G36*
X129520455Y-112529441D02*
X129732587Y-112317309D01*
X130793247Y-113377969D01*
X130581115Y-113590101D01*
X129520455Y-112529441D01*
X129520455Y-112529441D01*
G37*
G36*
X129874008Y-112175888D02*
X130086140Y-111963756D01*
X131146800Y-113024416D01*
X130934668Y-113236548D01*
X129874008Y-112175888D01*
X129874008Y-112175888D01*
G37*
G36*
X130227561Y-111822334D02*
X130439693Y-111610202D01*
X131500353Y-112670862D01*
X131288221Y-112882994D01*
X130227561Y-111822334D01*
X130227561Y-111822334D01*
G37*
G36*
X130581115Y-111468781D02*
X130793247Y-111256649D01*
X131853907Y-112317309D01*
X131641775Y-112529441D01*
X130581115Y-111468781D01*
X130581115Y-111468781D01*
G37*
G36*
X130934668Y-111115227D02*
X131146800Y-110903095D01*
X132207460Y-111963755D01*
X131995328Y-112175887D01*
X130934668Y-111115227D01*
X130934668Y-111115227D01*
G37*
G36*
X131288222Y-110761674D02*
X131500354Y-110549542D01*
X132561014Y-111610202D01*
X132348882Y-111822334D01*
X131288222Y-110761674D01*
X131288222Y-110761674D01*
G37*
G36*
X131641775Y-110408121D02*
X131853907Y-110195989D01*
X132914567Y-111256649D01*
X132702435Y-111468781D01*
X131641775Y-110408121D01*
X131641775Y-110408121D01*
G37*
G36*
X131995328Y-110054567D02*
X132207460Y-109842435D01*
X133268120Y-110903095D01*
X133055988Y-111115227D01*
X131995328Y-110054567D01*
X131995328Y-110054567D01*
G37*
G36*
X132348882Y-109701014D02*
X132561014Y-109488882D01*
X133621674Y-110549542D01*
X133409542Y-110761674D01*
X132348882Y-109701014D01*
X132348882Y-109701014D01*
G37*
G36*
X132702435Y-109347460D02*
X132914567Y-109135328D01*
X133975227Y-110195988D01*
X133763095Y-110408120D01*
X132702435Y-109347460D01*
X132702435Y-109347460D01*
G37*
G36*
X133055989Y-108993907D02*
X133268121Y-108781775D01*
X134328781Y-109842435D01*
X134116649Y-110054567D01*
X133055989Y-108993907D01*
X133055989Y-108993907D01*
G37*
G36*
X133409542Y-108640354D02*
X133621674Y-108428222D01*
X134682334Y-109488882D01*
X134470202Y-109701014D01*
X133409542Y-108640354D01*
X133409542Y-108640354D01*
G37*
G36*
X133763095Y-108286800D02*
X133975227Y-108074668D01*
X135035887Y-109135328D01*
X134823755Y-109347460D01*
X133763095Y-108286800D01*
X133763095Y-108286800D01*
G37*
G36*
X134116649Y-107933247D02*
X134328781Y-107721115D01*
X135389441Y-108781775D01*
X135177309Y-108993907D01*
X134116649Y-107933247D01*
X134116649Y-107933247D01*
G37*
G36*
X134470202Y-107579693D02*
X134682334Y-107367561D01*
X135742994Y-108428221D01*
X135530862Y-108640353D01*
X134470202Y-107579693D01*
X134470202Y-107579693D01*
G37*
G36*
X134823756Y-107226140D02*
X135035888Y-107014008D01*
X136096548Y-108074668D01*
X135884416Y-108286800D01*
X134823756Y-107226140D01*
X134823756Y-107226140D01*
G37*
G36*
X135177309Y-106872587D02*
X135389441Y-106660455D01*
X136450101Y-107721115D01*
X136237969Y-107933247D01*
X135177309Y-106872587D01*
X135177309Y-106872587D01*
G37*
G36*
X135530862Y-106519033D02*
X135742994Y-106306901D01*
X136803654Y-107367561D01*
X136591522Y-107579693D01*
X135530862Y-106519033D01*
X135530862Y-106519033D01*
G37*
G36*
X135884416Y-106165480D02*
X136096548Y-105953348D01*
X137157208Y-107014008D01*
X136945076Y-107226140D01*
X135884416Y-106165480D01*
X135884416Y-106165480D01*
G37*
G36*
X136237969Y-105811926D02*
X136450101Y-105599794D01*
X137510761Y-106660454D01*
X137298629Y-106872586D01*
X136237969Y-105811926D01*
X136237969Y-105811926D01*
G37*
G36*
X136591522Y-105458373D02*
X136803654Y-105246241D01*
X137864314Y-106306901D01*
X137652182Y-106519033D01*
X136591522Y-105458373D01*
X136591522Y-105458373D01*
G37*
G36*
X140056346Y-105246241D02*
X140268478Y-105458373D01*
X139207818Y-106519033D01*
X138995686Y-106306901D01*
X140056346Y-105246241D01*
X140056346Y-105246241D01*
G37*
G36*
X140409899Y-105599794D02*
X140622031Y-105811926D01*
X139561371Y-106872586D01*
X139349239Y-106660454D01*
X140409899Y-105599794D01*
X140409899Y-105599794D01*
G37*
G36*
X140763452Y-105953348D02*
X140975584Y-106165480D01*
X139914924Y-107226140D01*
X139702792Y-107014008D01*
X140763452Y-105953348D01*
X140763452Y-105953348D01*
G37*
G36*
X141117006Y-106306901D02*
X141329138Y-106519033D01*
X140268478Y-107579693D01*
X140056346Y-107367561D01*
X141117006Y-106306901D01*
X141117006Y-106306901D01*
G37*
G36*
X141470559Y-106660455D02*
X141682691Y-106872587D01*
X140622031Y-107933247D01*
X140409899Y-107721115D01*
X141470559Y-106660455D01*
X141470559Y-106660455D01*
G37*
G36*
X141824112Y-107014008D02*
X142036244Y-107226140D01*
X140975584Y-108286800D01*
X140763452Y-108074668D01*
X141824112Y-107014008D01*
X141824112Y-107014008D01*
G37*
G36*
X142177666Y-107367561D02*
X142389798Y-107579693D01*
X141329138Y-108640353D01*
X141117006Y-108428221D01*
X142177666Y-107367561D01*
X142177666Y-107367561D01*
G37*
G36*
X142531219Y-107721115D02*
X142743351Y-107933247D01*
X141682691Y-108993907D01*
X141470559Y-108781775D01*
X142531219Y-107721115D01*
X142531219Y-107721115D01*
G37*
G36*
X142884773Y-108074668D02*
X143096905Y-108286800D01*
X142036245Y-109347460D01*
X141824113Y-109135328D01*
X142884773Y-108074668D01*
X142884773Y-108074668D01*
G37*
G36*
X143238326Y-108428222D02*
X143450458Y-108640354D01*
X142389798Y-109701014D01*
X142177666Y-109488882D01*
X143238326Y-108428222D01*
X143238326Y-108428222D01*
G37*
G36*
X143591879Y-108781775D02*
X143804011Y-108993907D01*
X142743351Y-110054567D01*
X142531219Y-109842435D01*
X143591879Y-108781775D01*
X143591879Y-108781775D01*
G37*
G36*
X143945433Y-109135328D02*
X144157565Y-109347460D01*
X143096905Y-110408120D01*
X142884773Y-110195988D01*
X143945433Y-109135328D01*
X143945433Y-109135328D01*
G37*
G36*
X144298986Y-109488882D02*
X144511118Y-109701014D01*
X143450458Y-110761674D01*
X143238326Y-110549542D01*
X144298986Y-109488882D01*
X144298986Y-109488882D01*
G37*
G36*
X144652540Y-109842435D02*
X144864672Y-110054567D01*
X143804012Y-111115227D01*
X143591880Y-110903095D01*
X144652540Y-109842435D01*
X144652540Y-109842435D01*
G37*
G36*
X145006093Y-110195989D02*
X145218225Y-110408121D01*
X144157565Y-111468781D01*
X143945433Y-111256649D01*
X145006093Y-110195989D01*
X145006093Y-110195989D01*
G37*
G36*
X145359646Y-110549542D02*
X145571778Y-110761674D01*
X144511118Y-111822334D01*
X144298986Y-111610202D01*
X145359646Y-110549542D01*
X145359646Y-110549542D01*
G37*
G36*
X145713200Y-110903095D02*
X145925332Y-111115227D01*
X144864672Y-112175887D01*
X144652540Y-111963755D01*
X145713200Y-110903095D01*
X145713200Y-110903095D01*
G37*
G36*
X146066753Y-111256649D02*
X146278885Y-111468781D01*
X145218225Y-112529441D01*
X145006093Y-112317309D01*
X146066753Y-111256649D01*
X146066753Y-111256649D01*
G37*
G36*
X146420307Y-111610202D02*
X146632439Y-111822334D01*
X145571779Y-112882994D01*
X145359647Y-112670862D01*
X146420307Y-111610202D01*
X146420307Y-111610202D01*
G37*
G36*
X146773860Y-111963756D02*
X146985992Y-112175888D01*
X145925332Y-113236548D01*
X145713200Y-113024416D01*
X146773860Y-111963756D01*
X146773860Y-111963756D01*
G37*
G36*
X147127413Y-112317309D02*
X147339545Y-112529441D01*
X146278885Y-113590101D01*
X146066753Y-113377969D01*
X147127413Y-112317309D01*
X147127413Y-112317309D01*
G37*
G36*
X147480967Y-112670862D02*
X147693099Y-112882994D01*
X146632439Y-113943654D01*
X146420307Y-113731522D01*
X147480967Y-112670862D01*
X147480967Y-112670862D01*
G37*
G36*
X147834520Y-113024416D02*
X148046652Y-113236548D01*
X146985992Y-114297208D01*
X146773860Y-114085076D01*
X147834520Y-113024416D01*
X147834520Y-113024416D01*
G37*
G36*
X148188074Y-113377969D02*
X148400206Y-113590101D01*
X147339546Y-114650761D01*
X147127414Y-114438629D01*
X148188074Y-113377969D01*
X148188074Y-113377969D01*
G37*
G36*
X148541627Y-113731522D02*
X148753759Y-113943654D01*
X147693099Y-115004314D01*
X147480967Y-114792182D01*
X148541627Y-113731522D01*
X148541627Y-113731522D01*
G37*
G36*
X147480967Y-116347818D02*
X147693099Y-116135686D01*
X148753759Y-117196346D01*
X148541627Y-117408478D01*
X147480967Y-116347818D01*
X147480967Y-116347818D01*
G37*
G36*
X147127414Y-116701371D02*
X147339546Y-116489239D01*
X148400206Y-117549899D01*
X148188074Y-117762031D01*
X147127414Y-116701371D01*
X147127414Y-116701371D01*
G37*
G36*
X146773860Y-117054924D02*
X146985992Y-116842792D01*
X148046652Y-117903452D01*
X147834520Y-118115584D01*
X146773860Y-117054924D01*
X146773860Y-117054924D01*
G37*
G36*
X146420307Y-117408478D02*
X146632439Y-117196346D01*
X147693099Y-118257006D01*
X147480967Y-118469138D01*
X146420307Y-117408478D01*
X146420307Y-117408478D01*
G37*
G36*
X146066753Y-117762031D02*
X146278885Y-117549899D01*
X147339545Y-118610559D01*
X147127413Y-118822691D01*
X146066753Y-117762031D01*
X146066753Y-117762031D01*
G37*
G36*
X145713200Y-118115584D02*
X145925332Y-117903452D01*
X146985992Y-118964112D01*
X146773860Y-119176244D01*
X145713200Y-118115584D01*
X145713200Y-118115584D01*
G37*
G36*
X145359647Y-118469138D02*
X145571779Y-118257006D01*
X146632439Y-119317666D01*
X146420307Y-119529798D01*
X145359647Y-118469138D01*
X145359647Y-118469138D01*
G37*
G36*
X145006093Y-118822691D02*
X145218225Y-118610559D01*
X146278885Y-119671219D01*
X146066753Y-119883351D01*
X145006093Y-118822691D01*
X145006093Y-118822691D01*
G37*
G36*
X144652540Y-119176245D02*
X144864672Y-118964113D01*
X145925332Y-120024773D01*
X145713200Y-120236905D01*
X144652540Y-119176245D01*
X144652540Y-119176245D01*
G37*
G36*
X144298986Y-119529798D02*
X144511118Y-119317666D01*
X145571778Y-120378326D01*
X145359646Y-120590458D01*
X144298986Y-119529798D01*
X144298986Y-119529798D01*
G37*
G36*
X143945433Y-119883351D02*
X144157565Y-119671219D01*
X145218225Y-120731879D01*
X145006093Y-120944011D01*
X143945433Y-119883351D01*
X143945433Y-119883351D01*
G37*
G36*
X143591880Y-120236905D02*
X143804012Y-120024773D01*
X144864672Y-121085433D01*
X144652540Y-121297565D01*
X143591880Y-120236905D01*
X143591880Y-120236905D01*
G37*
G36*
X143238326Y-120590458D02*
X143450458Y-120378326D01*
X144511118Y-121438986D01*
X144298986Y-121651118D01*
X143238326Y-120590458D01*
X143238326Y-120590458D01*
G37*
G36*
X142884773Y-120944012D02*
X143096905Y-120731880D01*
X144157565Y-121792540D01*
X143945433Y-122004672D01*
X142884773Y-120944012D01*
X142884773Y-120944012D01*
G37*
G36*
X142531219Y-121297565D02*
X142743351Y-121085433D01*
X143804011Y-122146093D01*
X143591879Y-122358225D01*
X142531219Y-121297565D01*
X142531219Y-121297565D01*
G37*
G36*
X142177666Y-121651118D02*
X142389798Y-121438986D01*
X143450458Y-122499646D01*
X143238326Y-122711778D01*
X142177666Y-121651118D01*
X142177666Y-121651118D01*
G37*
G36*
X141824113Y-122004672D02*
X142036245Y-121792540D01*
X143096905Y-122853200D01*
X142884773Y-123065332D01*
X141824113Y-122004672D01*
X141824113Y-122004672D01*
G37*
G36*
X141470559Y-122358225D02*
X141682691Y-122146093D01*
X142743351Y-123206753D01*
X142531219Y-123418885D01*
X141470559Y-122358225D01*
X141470559Y-122358225D01*
G37*
G36*
X141117006Y-122711779D02*
X141329138Y-122499647D01*
X142389798Y-123560307D01*
X142177666Y-123772439D01*
X141117006Y-122711779D01*
X141117006Y-122711779D01*
G37*
G36*
X140763452Y-123065332D02*
X140975584Y-122853200D01*
X142036244Y-123913860D01*
X141824112Y-124125992D01*
X140763452Y-123065332D01*
X140763452Y-123065332D01*
G37*
G36*
X140409899Y-123418885D02*
X140622031Y-123206753D01*
X141682691Y-124267413D01*
X141470559Y-124479545D01*
X140409899Y-123418885D01*
X140409899Y-123418885D01*
G37*
G36*
X140056346Y-123772439D02*
X140268478Y-123560307D01*
X141329138Y-124620967D01*
X141117006Y-124833099D01*
X140056346Y-123772439D01*
X140056346Y-123772439D01*
G37*
G36*
X139702792Y-124125992D02*
X139914924Y-123913860D01*
X140975584Y-124974520D01*
X140763452Y-125186652D01*
X139702792Y-124125992D01*
X139702792Y-124125992D01*
G37*
G36*
X139349239Y-124479546D02*
X139561371Y-124267414D01*
X140622031Y-125328074D01*
X140409899Y-125540206D01*
X139349239Y-124479546D01*
X139349239Y-124479546D01*
G37*
G36*
X138995686Y-124833099D02*
X139207818Y-124620967D01*
X140268478Y-125681627D01*
X140056346Y-125893759D01*
X138995686Y-124833099D01*
X138995686Y-124833099D01*
G37*
G36*
X137652182Y-124620967D02*
X137864314Y-124833099D01*
X136803654Y-125893759D01*
X136591522Y-125681627D01*
X137652182Y-124620967D01*
X137652182Y-124620967D01*
G37*
G36*
X137298629Y-124267414D02*
X137510761Y-124479546D01*
X136450101Y-125540206D01*
X136237969Y-125328074D01*
X137298629Y-124267414D01*
X137298629Y-124267414D01*
G37*
G36*
X136945076Y-123913860D02*
X137157208Y-124125992D01*
X136096548Y-125186652D01*
X135884416Y-124974520D01*
X136945076Y-123913860D01*
X136945076Y-123913860D01*
G37*
G36*
X136591522Y-123560307D02*
X136803654Y-123772439D01*
X135742994Y-124833099D01*
X135530862Y-124620967D01*
X136591522Y-123560307D01*
X136591522Y-123560307D01*
G37*
G36*
X136237969Y-123206753D02*
X136450101Y-123418885D01*
X135389441Y-124479545D01*
X135177309Y-124267413D01*
X136237969Y-123206753D01*
X136237969Y-123206753D01*
G37*
G36*
X135884416Y-122853200D02*
X136096548Y-123065332D01*
X135035888Y-124125992D01*
X134823756Y-123913860D01*
X135884416Y-122853200D01*
X135884416Y-122853200D01*
G37*
G36*
X135530862Y-122499647D02*
X135742994Y-122711779D01*
X134682334Y-123772439D01*
X134470202Y-123560307D01*
X135530862Y-122499647D01*
X135530862Y-122499647D01*
G37*
G36*
X135177309Y-122146093D02*
X135389441Y-122358225D01*
X134328781Y-123418885D01*
X134116649Y-123206753D01*
X135177309Y-122146093D01*
X135177309Y-122146093D01*
G37*
G36*
X134823755Y-121792540D02*
X135035887Y-122004672D01*
X133975227Y-123065332D01*
X133763095Y-122853200D01*
X134823755Y-121792540D01*
X134823755Y-121792540D01*
G37*
G36*
X134470202Y-121438986D02*
X134682334Y-121651118D01*
X133621674Y-122711778D01*
X133409542Y-122499646D01*
X134470202Y-121438986D01*
X134470202Y-121438986D01*
G37*
G36*
X134116649Y-121085433D02*
X134328781Y-121297565D01*
X133268121Y-122358225D01*
X133055989Y-122146093D01*
X134116649Y-121085433D01*
X134116649Y-121085433D01*
G37*
G36*
X133763095Y-120731880D02*
X133975227Y-120944012D01*
X132914567Y-122004672D01*
X132702435Y-121792540D01*
X133763095Y-120731880D01*
X133763095Y-120731880D01*
G37*
G36*
X133409542Y-120378326D02*
X133621674Y-120590458D01*
X132561014Y-121651118D01*
X132348882Y-121438986D01*
X133409542Y-120378326D01*
X133409542Y-120378326D01*
G37*
G36*
X133055988Y-120024773D02*
X133268120Y-120236905D01*
X132207460Y-121297565D01*
X131995328Y-121085433D01*
X133055988Y-120024773D01*
X133055988Y-120024773D01*
G37*
G36*
X132702435Y-119671219D02*
X132914567Y-119883351D01*
X131853907Y-120944011D01*
X131641775Y-120731879D01*
X132702435Y-119671219D01*
X132702435Y-119671219D01*
G37*
G36*
X132348882Y-119317666D02*
X132561014Y-119529798D01*
X131500354Y-120590458D01*
X131288222Y-120378326D01*
X132348882Y-119317666D01*
X132348882Y-119317666D01*
G37*
G36*
X131995328Y-118964113D02*
X132207460Y-119176245D01*
X131146800Y-120236905D01*
X130934668Y-120024773D01*
X131995328Y-118964113D01*
X131995328Y-118964113D01*
G37*
G36*
X131641775Y-118610559D02*
X131853907Y-118822691D01*
X130793247Y-119883351D01*
X130581115Y-119671219D01*
X131641775Y-118610559D01*
X131641775Y-118610559D01*
G37*
G36*
X131288221Y-118257006D02*
X131500353Y-118469138D01*
X130439693Y-119529798D01*
X130227561Y-119317666D01*
X131288221Y-118257006D01*
X131288221Y-118257006D01*
G37*
G36*
X130934668Y-117903452D02*
X131146800Y-118115584D01*
X130086140Y-119176244D01*
X129874008Y-118964112D01*
X130934668Y-117903452D01*
X130934668Y-117903452D01*
G37*
G36*
X130581115Y-117549899D02*
X130793247Y-117762031D01*
X129732587Y-118822691D01*
X129520455Y-118610559D01*
X130581115Y-117549899D01*
X130581115Y-117549899D01*
G37*
G36*
X130227561Y-117196346D02*
X130439693Y-117408478D01*
X129379033Y-118469138D01*
X129166901Y-118257006D01*
X130227561Y-117196346D01*
X130227561Y-117196346D01*
G37*
G36*
X129874008Y-116842792D02*
X130086140Y-117054924D01*
X129025480Y-118115584D01*
X128813348Y-117903452D01*
X129874008Y-116842792D01*
X129874008Y-116842792D01*
G37*
G36*
X129520454Y-116489239D02*
X129732586Y-116701371D01*
X128671926Y-117762031D01*
X128459794Y-117549899D01*
X129520454Y-116489239D01*
X129520454Y-116489239D01*
G37*
G36*
X129166901Y-116135686D02*
X129379033Y-116347818D01*
X128318373Y-117408478D01*
X128106241Y-117196346D01*
X129166901Y-116135686D01*
X129166901Y-116135686D01*
G37*
D12*
X154890000Y-79200000D03*
D13*
X154940000Y-98100000D03*
X154940000Y-95600000D03*
X154940000Y-93100000D03*
X154940000Y-86700000D03*
X154940000Y-89300000D03*
D14*
X119840000Y-86800000D03*
D15*
X141540000Y-98400000D03*
X119040000Y-79250000D03*
X119040000Y-98400000D03*
X141540000Y-79250000D03*
D14*
X119840000Y-90900000D03*
D12*
X154890000Y-81700000D03*
D16*
X72130920Y-97525840D03*
X72130920Y-96875600D03*
X72130920Y-96225360D03*
X72130920Y-95575120D03*
X72130920Y-94924880D03*
X72130920Y-94274640D03*
X72130920Y-93624400D03*
X72130920Y-92974160D03*
X77729080Y-92974160D03*
X77729080Y-93624400D03*
X77729080Y-94274640D03*
X77729080Y-94924880D03*
X77729080Y-95575120D03*
X77729080Y-96225360D03*
X77729080Y-96875600D03*
X77729080Y-97525840D03*
D17*
X91440000Y-104140000D03*
X89535000Y-104140000D03*
D18*
X179070000Y-102235000D03*
D19*
X179070000Y-104775000D03*
X179070000Y-107315000D03*
X179070000Y-109855000D03*
X179070000Y-112395000D03*
X179070000Y-114935000D03*
D18*
X170180000Y-102235000D03*
D19*
X170180000Y-104775000D03*
X170180000Y-107315000D03*
X170180000Y-109855000D03*
X170180000Y-112395000D03*
X170180000Y-114935000D03*
D10*
G36*
X160376567Y-120011261D02*
X159388739Y-119023433D01*
X160017357Y-118394815D01*
X161005185Y-119382643D01*
X160376567Y-120011261D01*
X160376567Y-120011261D01*
G37*
G36*
X161723605Y-118664223D02*
X160735777Y-117676395D01*
X161364395Y-117047777D01*
X162352223Y-118035605D01*
X161723605Y-118664223D01*
X161723605Y-118664223D01*
G37*
D20*
X92710000Y-139065000D03*
D21*
X95250000Y-139065000D03*
X97790000Y-139065000D03*
X100330000Y-139065000D03*
X102870000Y-139065000D03*
X105410000Y-139065000D03*
D22*
X117856000Y-124968000D03*
X117856000Y-121666000D03*
X123063000Y-124968000D03*
X123063000Y-121666000D03*
D23*
X125603000Y-124968000D03*
X120523000Y-124968000D03*
D10*
G36*
X128622924Y-112959056D02*
X128199056Y-113382924D01*
X127917076Y-113100944D01*
X128340944Y-112677076D01*
X128622924Y-112959056D01*
X128622924Y-112959056D01*
G37*
G36*
X127987122Y-112323254D02*
X127563254Y-112747122D01*
X127281274Y-112465142D01*
X127705142Y-112041274D01*
X127987122Y-112323254D01*
X127987122Y-112323254D01*
G37*
G36*
X131924924Y-109657056D02*
X131501056Y-110080924D01*
X131219076Y-109798944D01*
X131642944Y-109375076D01*
X131924924Y-109657056D01*
X131924924Y-109657056D01*
G37*
G36*
X131289122Y-109021254D02*
X130865254Y-109445122D01*
X130583274Y-109163142D01*
X131007142Y-108739274D01*
X131289122Y-109021254D01*
X131289122Y-109021254D01*
G37*
G36*
X146120944Y-110842924D02*
X145697076Y-110419056D01*
X145979056Y-110137076D01*
X146402924Y-110560944D01*
X146120944Y-110842924D01*
X146120944Y-110842924D01*
G37*
G36*
X146756746Y-110207122D02*
X146332878Y-109783254D01*
X146614858Y-109501274D01*
X147038726Y-109925142D01*
X146756746Y-110207122D01*
X146756746Y-110207122D01*
G37*
G36*
X148237076Y-118180944D02*
X148660944Y-117757076D01*
X148942924Y-118039056D01*
X148519056Y-118462924D01*
X148237076Y-118180944D01*
X148237076Y-118180944D01*
G37*
G36*
X148872878Y-118816746D02*
X149296746Y-118392878D01*
X149578726Y-118674858D01*
X149154858Y-119098726D01*
X148872878Y-118816746D01*
X148872878Y-118816746D01*
G37*
G36*
X141323726Y-126929858D02*
X140899858Y-127353726D01*
X140617878Y-127071746D01*
X141041746Y-126647878D01*
X141323726Y-126929858D01*
X141323726Y-126929858D01*
G37*
G36*
X140687924Y-126294056D02*
X140264056Y-126717924D01*
X139982076Y-126435944D01*
X140405944Y-126012076D01*
X140687924Y-126294056D01*
X140687924Y-126294056D01*
G37*
G36*
X145132924Y-123119056D02*
X144709056Y-123542924D01*
X144427076Y-123260944D01*
X144850944Y-122837076D01*
X145132924Y-123119056D01*
X145132924Y-123119056D01*
G37*
G36*
X144497122Y-122483254D02*
X144073254Y-122907122D01*
X143791274Y-122625142D01*
X144215142Y-122201274D01*
X144497122Y-122483254D01*
X144497122Y-122483254D01*
G37*
D17*
X169545000Y-88265000D03*
X167640000Y-88265000D03*
X169545000Y-95885000D03*
X167640000Y-95885000D03*
X169545000Y-90805000D03*
X167640000Y-90805000D03*
D24*
X71374000Y-51435000D03*
X69850000Y-51435000D03*
X70104000Y-60325000D03*
X68580000Y-60325000D03*
D25*
X106172000Y-119380000D03*
X102870000Y-119380000D03*
D10*
G36*
X134356975Y-126801248D02*
X133548752Y-125993025D01*
X133997765Y-125544012D01*
X134805988Y-126352235D01*
X134356975Y-126801248D01*
X134356975Y-126801248D01*
G37*
G36*
X135434605Y-125723618D02*
X134626382Y-124915395D01*
X135075395Y-124466382D01*
X135883618Y-125274605D01*
X135434605Y-125723618D01*
X135434605Y-125723618D01*
G37*
G36*
X135607924Y-105974056D02*
X135184056Y-106397924D01*
X134902076Y-106115944D01*
X135325944Y-105692076D01*
X135607924Y-105974056D01*
X135607924Y-105974056D01*
G37*
G36*
X134972122Y-105338254D02*
X134548254Y-105762122D01*
X134266274Y-105480142D01*
X134690142Y-105056274D01*
X134972122Y-105338254D01*
X134972122Y-105338254D01*
G37*
G36*
X142945142Y-107668726D02*
X142521274Y-107244858D01*
X142803254Y-106962878D01*
X143227122Y-107386746D01*
X142945142Y-107668726D01*
X142945142Y-107668726D01*
G37*
G36*
X143580944Y-107032924D02*
X143157076Y-106609056D01*
X143439056Y-106327076D01*
X143862924Y-106750944D01*
X143580944Y-107032924D01*
X143580944Y-107032924D01*
G37*
G36*
X133420944Y-124812924D02*
X132997076Y-124389056D01*
X133279056Y-124107076D01*
X133702924Y-124530944D01*
X133420944Y-124812924D01*
X133420944Y-124812924D01*
G37*
G36*
X134056746Y-124177122D02*
X133632878Y-123753254D01*
X133914858Y-123471274D01*
X134338726Y-123895142D01*
X134056746Y-124177122D01*
X134056746Y-124177122D01*
G37*
G36*
X130020726Y-120452858D02*
X129596858Y-120876726D01*
X129314878Y-120594746D01*
X129738746Y-120170878D01*
X130020726Y-120452858D01*
X130020726Y-120452858D01*
G37*
G36*
X129384924Y-119817056D02*
X128961056Y-120240924D01*
X128679076Y-119958944D01*
X129102944Y-119535076D01*
X129384924Y-119817056D01*
X129384924Y-119817056D01*
G37*
G36*
X129152618Y-121232395D02*
X128344395Y-122040618D01*
X127895382Y-121591605D01*
X128703605Y-120783382D01*
X129152618Y-121232395D01*
X129152618Y-121232395D01*
G37*
G36*
X128074988Y-120154765D02*
X127266765Y-120962988D01*
X126817752Y-120513975D01*
X127625975Y-119705752D01*
X128074988Y-120154765D01*
X128074988Y-120154765D01*
G37*
D24*
X95504000Y-114935000D03*
X93980000Y-114935000D03*
D26*
X98552000Y-115316000D03*
X98552000Y-116840000D03*
X104140000Y-115316000D03*
X104140000Y-116840000D03*
D24*
X107950000Y-114935000D03*
X109474000Y-114935000D03*
D27*
X72095360Y-49530000D03*
X74295000Y-49530000D03*
X72730360Y-51435000D03*
X74930000Y-51435000D03*
D28*
X123459240Y-70485000D03*
X125460760Y-70485000D03*
D17*
X80010000Y-51206106D03*
X78105000Y-51206106D03*
X80010000Y-53111106D03*
X78105000Y-53111106D03*
X80010000Y-56921106D03*
X78105000Y-56921106D03*
X80010000Y-55016106D03*
X78105000Y-55016106D03*
X159067500Y-85725000D03*
X160972500Y-85725000D03*
X159067500Y-87630000D03*
X160972500Y-87630000D03*
X159067500Y-89535000D03*
X160972500Y-89535000D03*
X159067500Y-83820000D03*
X160972500Y-83820000D03*
X122555000Y-119380000D03*
X120650000Y-119380000D03*
D29*
X162145980Y-141914880D03*
D30*
X156845000Y-145166080D03*
D31*
X156845000Y-139164060D03*
D32*
X116205000Y-119380000D03*
D33*
X116205000Y-114300000D03*
D34*
X95250000Y-126115000D03*
X95250000Y-129155000D03*
X97790000Y-129155000D03*
X97790000Y-126115000D03*
D35*
X105410000Y-126115000D03*
D34*
X105410000Y-129155000D03*
X102870000Y-126115000D03*
X102870000Y-129155000D03*
X100330000Y-126115000D03*
X100330000Y-129155000D03*
D20*
X136525000Y-139065000D03*
D21*
X139065000Y-139065000D03*
X141605000Y-139065000D03*
X144145000Y-139065000D03*
X146685000Y-139065000D03*
X149225000Y-139065000D03*
D20*
X128905000Y-147955000D03*
D21*
X126365000Y-147955000D03*
X123825000Y-147955000D03*
X121285000Y-147955000D03*
X118745000Y-147955000D03*
X116205000Y-147955000D03*
D18*
X67945000Y-106045000D03*
D19*
X67945000Y-108585000D03*
X67945000Y-111125000D03*
X67945000Y-113665000D03*
X67945000Y-116205000D03*
X67945000Y-118745000D03*
D36*
X71370000Y-62230000D03*
X68330000Y-62230000D03*
X68330000Y-64770000D03*
X71370000Y-64770000D03*
D37*
X71370000Y-72390000D03*
D36*
X68330000Y-72390000D03*
X71370000Y-69850000D03*
X68330000Y-69850000D03*
X71370000Y-67310000D03*
X68330000Y-67310000D03*
D20*
X89535000Y-108585000D03*
D21*
X86995000Y-108585000D03*
X84455000Y-108585000D03*
X81915000Y-108585000D03*
D20*
X89535000Y-99695000D03*
D21*
X86995000Y-99695000D03*
X84455000Y-99695000D03*
X81915000Y-99695000D03*
D18*
X171450000Y-83185000D03*
D19*
X171450000Y-85725000D03*
X171450000Y-88265000D03*
X171450000Y-90805000D03*
X171450000Y-93345000D03*
X171450000Y-95885000D03*
D20*
X97840800Y-113030000D03*
D21*
X100380800Y-113030000D03*
X102920800Y-113030000D03*
X105460800Y-113030000D03*
D18*
X176530000Y-83185000D03*
D19*
X176530000Y-85725000D03*
X176530000Y-88265000D03*
X176530000Y-90805000D03*
X176530000Y-93345000D03*
X176530000Y-95885000D03*
D18*
X173990000Y-83185000D03*
D19*
X173990000Y-85725000D03*
X173990000Y-88265000D03*
X173990000Y-90805000D03*
X173990000Y-93345000D03*
X173990000Y-95885000D03*
D20*
X70485000Y-46990000D03*
D21*
X73025000Y-46990000D03*
D38*
X101265000Y-83185000D03*
D39*
X108565000Y-83185000D03*
X114065000Y-83185000D03*
D10*
G36*
X123095000Y-51880000D02*
X127095000Y-51880000D01*
X127095000Y-54880000D01*
X123095000Y-54880000D01*
X123095000Y-51880000D01*
X123095000Y-51880000D01*
G37*
G36*
X123095000Y-56880000D02*
X127095000Y-56880000D01*
X127095000Y-59880000D01*
X123095000Y-59880000D01*
X123095000Y-56880000D01*
X123095000Y-56880000D01*
G37*
D18*
X67945000Y-98425000D03*
D19*
X67945000Y-95885000D03*
X67945000Y-93345000D03*
X67945000Y-90805000D03*
D40*
X119885000Y-76200000D03*
X119885000Y-74930000D03*
X119885000Y-73660000D03*
X119885000Y-72390000D03*
D41*
X125350000Y-72390000D03*
X125350000Y-73660000D03*
X125350000Y-74930000D03*
X125350000Y-76200000D03*
D42*
X123245000Y-74295000D03*
D17*
X109220000Y-126365000D03*
X107315000Y-126365000D03*
X95885000Y-123190000D03*
X97790000Y-123190000D03*
X92075000Y-126365000D03*
X93980000Y-126365000D03*
D43*
X91440000Y-124777500D03*
X91440000Y-122872500D03*
D17*
X111125000Y-119380000D03*
X109220000Y-119380000D03*
X169545000Y-83185000D03*
X167640000Y-83185000D03*
X169545000Y-85725000D03*
X167640000Y-85725000D03*
X79375000Y-103505000D03*
X77470000Y-103505000D03*
D43*
X81915000Y-104775000D03*
X81915000Y-106680000D03*
X84455000Y-104775000D03*
X84455000Y-106680000D03*
X86995000Y-104775000D03*
X86995000Y-106680000D03*
X81915000Y-103505000D03*
X81915000Y-101600000D03*
X84455000Y-103505000D03*
X84455000Y-101600000D03*
X86995000Y-103505000D03*
X86995000Y-101600000D03*
D17*
X169545000Y-93345000D03*
X167640000Y-93345000D03*
D10*
G36*
X143407433Y-125479739D02*
X144395261Y-126467567D01*
X143766643Y-127096185D01*
X142778815Y-126108357D01*
X143407433Y-125479739D01*
X143407433Y-125479739D01*
G37*
G36*
X142060395Y-126826777D02*
X143048223Y-127814605D01*
X142419605Y-128443223D01*
X141431777Y-127455395D01*
X142060395Y-126826777D01*
X142060395Y-126826777D01*
G37*
G36*
X144677433Y-126749739D02*
X145665261Y-127737567D01*
X145036643Y-128366185D01*
X144048815Y-127378357D01*
X144677433Y-126749739D01*
X144677433Y-126749739D01*
G37*
G36*
X143330395Y-128096777D02*
X144318223Y-129084605D01*
X143689605Y-129713223D01*
X142701777Y-128725395D01*
X143330395Y-128096777D01*
X143330395Y-128096777D01*
G37*
G36*
X145947433Y-128019739D02*
X146935261Y-129007567D01*
X146306643Y-129636185D01*
X145318815Y-128648357D01*
X145947433Y-128019739D01*
X145947433Y-128019739D01*
G37*
G36*
X144600395Y-129366777D02*
X145588223Y-130354605D01*
X144959605Y-130983223D01*
X143971777Y-129995395D01*
X144600395Y-129366777D01*
X144600395Y-129366777D01*
G37*
G36*
X147217433Y-129289739D02*
X148205261Y-130277567D01*
X147576643Y-130906185D01*
X146588815Y-129918357D01*
X147217433Y-129289739D01*
X147217433Y-129289739D01*
G37*
G36*
X145870395Y-130636777D02*
X146858223Y-131624605D01*
X146229605Y-132253223D01*
X145241777Y-131265395D01*
X145870395Y-130636777D01*
X145870395Y-130636777D01*
G37*
G36*
X158675605Y-118664223D02*
X157687777Y-117676395D01*
X158316395Y-117047777D01*
X159304223Y-118035605D01*
X158675605Y-118664223D01*
X158675605Y-118664223D01*
G37*
G36*
X160022643Y-117317185D02*
X159034815Y-116329357D01*
X159663433Y-115700739D01*
X160651261Y-116688567D01*
X160022643Y-117317185D01*
X160022643Y-117317185D01*
G37*
D17*
X120306261Y-108204000D03*
X122211261Y-108204000D03*
X120306261Y-109982000D03*
X122211261Y-109982000D03*
X120306261Y-111760000D03*
X122211261Y-111760000D03*
X120306261Y-113538000D03*
X122211261Y-113538000D03*
X93726000Y-113030000D03*
X95631000Y-113030000D03*
D43*
X100330000Y-116840000D03*
X100330000Y-114935000D03*
X102362000Y-116840000D03*
X102362000Y-114935000D03*
D17*
X109855000Y-113030000D03*
X107950000Y-113030000D03*
X136525000Y-66675000D03*
X134620000Y-66675000D03*
X123507500Y-68580000D03*
X125412500Y-68580000D03*
X125412500Y-66675000D03*
X123507500Y-66675000D03*
D44*
X128885000Y-67120000D03*
X128885000Y-75120000D03*
X131885000Y-67120000D03*
D45*
X132485000Y-74120000D03*
X139085000Y-66620000D03*
D39*
X172720000Y-132334000D03*
X172717460Y-127635000D03*
X172717460Y-122936000D03*
X182245000Y-134231380D03*
X182245000Y-121038620D03*
D46*
X72339200Y-53578760D03*
X72339200Y-58181240D03*
D47*
X66090800Y-55880000D03*
D48*
X102870000Y-122555000D03*
X108117640Y-122555000D03*
X100413820Y-120650000D03*
X95166180Y-120650000D03*
D25*
X84582000Y-96520000D03*
X81280000Y-96520000D03*
X74295000Y-99695000D03*
X77597000Y-99695000D03*
X81280000Y-92710000D03*
X84582000Y-92710000D03*
D22*
X71120000Y-112903000D03*
X71120000Y-116205000D03*
D49*
X130000000Y-51000000D03*
X130048000Y-61000000D03*
D25*
X103759000Y-141605000D03*
X107061000Y-141605000D03*
X114554000Y-139700000D03*
X117856000Y-139700000D03*
X124714000Y-150622000D03*
X128016000Y-150622000D03*
X114554000Y-143764000D03*
X117856000Y-143764000D03*
X142494000Y-135382000D03*
X145796000Y-135382000D03*
D22*
X121285000Y-145415000D03*
X121285000Y-142113000D03*
D25*
X135763000Y-142240000D03*
X139065000Y-142240000D03*
D50*
X86000000Y-140000000D03*
X167513000Y-133000000D03*
X179000000Y-71000000D03*
D12*
X83850000Y-67485000D03*
D13*
X83800000Y-48585000D03*
X83800000Y-51085000D03*
X83800000Y-53585000D03*
X83800000Y-59985000D03*
X83800000Y-57385000D03*
D14*
X118900000Y-59885000D03*
D15*
X97200000Y-48285000D03*
X119700000Y-67435000D03*
X119700000Y-48285000D03*
X97200000Y-67435000D03*
D14*
X118900000Y-55785000D03*
D12*
X83850000Y-64985000D03*
D22*
X84455000Y-114300000D03*
X84455000Y-110998000D03*
M02*
