%FSLAX45Y45*%
G04 Gerber Fmt 4.5, Leading zero omitted, Abs format (unit mm)*
G04 Created by KiCad (PCBNEW (2015-10-27 BZR 6284, Git 48df08c)-product) date Wed 09 Dec 2015 03:30:15 AM CET*
%MOMM*%
G01*
G04 APERTURE LIST*
%ADD10C,0.127000*%
%ADD11C,0.100000*%
%ADD12C,0.200000*%
%ADD13C,0.300000*%
G04 APERTURE END LIST*
D10*
D11*
X6240000Y-4300000D02*
X14000000Y-4300000D01*
X6200000Y-13700000D02*
X6200000Y-4340000D01*
X6240000Y-4300000D02*
G75*
G03X6200000Y-4340000I0J-40000D01*
G01*
X8000000Y-15200000D02*
X8000000Y-14300000D01*
X16400000Y-15300000D02*
X8100000Y-15300000D01*
X8000000Y-15200000D02*
G75*
G03X8100000Y-15300000I100000J0D01*
G01*
X16500000Y-15200000D02*
X16500000Y-14300000D01*
X16400000Y-15300000D02*
G75*
G03X16500000Y-15200000I0J100000D01*
G01*
X17000000Y-13800000D02*
X18800000Y-13800000D01*
X17000000Y-13800000D02*
G75*
G03X16500000Y-14300000I0J-500000D01*
G01*
X18900000Y-6200000D02*
X18900000Y-13700000D01*
X14600000Y-6100000D02*
X18800000Y-6100000D01*
X18800000Y-13800000D02*
G75*
G03X18900000Y-13700000I0J100000D01*
G01*
X18900000Y-6200000D02*
G75*
G03X18800000Y-6100000I-100000J0D01*
G01*
X14100000Y-4400000D02*
X14100000Y-5600000D01*
X14100000Y-5600000D02*
G75*
G03X14600000Y-6100000I500000J0D01*
G01*
X14100000Y-4400000D02*
G75*
G03X14000000Y-4300000I-100000J0D01*
G01*
X6300000Y-13800000D02*
X7500000Y-13800000D01*
X6200000Y-13700000D02*
G75*
G03X6300000Y-13800000I100000J0D01*
G01*
X8000000Y-14300000D02*
G75*
G03X7500000Y-13800000I-500000J0D01*
G01*
D12*
X6896500Y-7976000D02*
X6946500Y-8026000D01*
X6946500Y-7976000D02*
X6896500Y-8026000D01*
X6896500Y-8293500D02*
X6946500Y-8343500D01*
X6946500Y-8293500D02*
X6896500Y-8343500D01*
X7023500Y-10008000D02*
X7073500Y-10058000D01*
X7073500Y-10008000D02*
X7023500Y-10058000D01*
X7214000Y-7976000D02*
X7264000Y-8026000D01*
X7264000Y-7976000D02*
X7214000Y-8026000D01*
X7214000Y-8293500D02*
X7264000Y-8343500D01*
X7264000Y-8293500D02*
X7214000Y-8343500D01*
X7214000Y-8611000D02*
X7264000Y-8661000D01*
X7264000Y-8611000D02*
X7214000Y-8661000D01*
X7277500Y-8928500D02*
X7327500Y-8978500D01*
X7327500Y-8928500D02*
X7277500Y-8978500D01*
X7468000Y-8928500D02*
X7518000Y-8978500D01*
X7518000Y-8928500D02*
X7468000Y-8978500D01*
X7531500Y-4928000D02*
X7581500Y-4978000D01*
X7581500Y-4928000D02*
X7531500Y-4978000D01*
X7531500Y-6198000D02*
X7581500Y-6248000D01*
X7581500Y-6198000D02*
X7531500Y-6248000D01*
X7531500Y-8611000D02*
X7581500Y-8661000D01*
X7581500Y-8611000D02*
X7531500Y-8661000D01*
X7658500Y-8928500D02*
X7708500Y-8978500D01*
X7708500Y-8928500D02*
X7658500Y-8978500D01*
X7912500Y-10140292D02*
X7962500Y-10190292D01*
X7962500Y-10140292D02*
X7912500Y-10190292D01*
X8484000Y-12675000D02*
X8534000Y-12725000D01*
X8534000Y-12675000D02*
X8484000Y-12725000D01*
X8865000Y-11595500D02*
X8915000Y-11645500D01*
X8915000Y-11595500D02*
X8865000Y-11645500D01*
X8865000Y-11976500D02*
X8915000Y-12026500D01*
X8915000Y-11976500D02*
X8865000Y-12026500D01*
X9055500Y-5055000D02*
X9105500Y-5105000D01*
X9105500Y-5055000D02*
X9055500Y-5105000D01*
X9055500Y-5309000D02*
X9105500Y-5359000D01*
X9105500Y-5309000D02*
X9055500Y-5359000D01*
X9055500Y-5563000D02*
X9105500Y-5613000D01*
X9105500Y-5563000D02*
X9055500Y-5613000D01*
X9055500Y-5817000D02*
X9105500Y-5867000D01*
X9105500Y-5817000D02*
X9055500Y-5867000D01*
X9055500Y-6071000D02*
X9105500Y-6121000D01*
X9105500Y-6071000D02*
X9055500Y-6121000D01*
X9055500Y-6325000D02*
X9105500Y-6375000D01*
X9105500Y-6325000D02*
X9055500Y-6375000D01*
X9055500Y-11786000D02*
X9105500Y-11836000D01*
X9105500Y-11786000D02*
X9055500Y-11836000D01*
X9336557Y-10389000D02*
X9386557Y-10439000D01*
X9386557Y-10389000D02*
X9336557Y-10439000D01*
X9423800Y-9755501D02*
X9473800Y-9805501D01*
X9473800Y-9755501D02*
X9423800Y-9805501D01*
X9690500Y-5055000D02*
X9740500Y-5105000D01*
X9740500Y-5055000D02*
X9690500Y-5105000D01*
X9690500Y-5309000D02*
X9740500Y-5359000D01*
X9740500Y-5309000D02*
X9690500Y-5359000D01*
X9690500Y-5563000D02*
X9740500Y-5613000D01*
X9740500Y-5563000D02*
X9690500Y-5613000D01*
X9690500Y-5817000D02*
X9740500Y-5867000D01*
X9740500Y-5817000D02*
X9690500Y-5867000D01*
X9690500Y-6071000D02*
X9740500Y-6121000D01*
X9740500Y-6071000D02*
X9690500Y-6121000D01*
X9690500Y-6325000D02*
X9740500Y-6375000D01*
X9740500Y-6325000D02*
X9690500Y-6375000D01*
X10262000Y-5055000D02*
X10312000Y-5105000D01*
X10312000Y-5055000D02*
X10262000Y-5105000D01*
X10262000Y-5309000D02*
X10312000Y-5359000D01*
X10312000Y-5309000D02*
X10262000Y-5359000D01*
X10262000Y-5563000D02*
X10312000Y-5613000D01*
X10312000Y-5563000D02*
X10262000Y-5613000D01*
X10262000Y-5817000D02*
X10312000Y-5867000D01*
X10312000Y-5817000D02*
X10262000Y-5867000D01*
X10262000Y-6071000D02*
X10312000Y-6121000D01*
X10312000Y-6071000D02*
X10262000Y-6121000D01*
X10262000Y-6325000D02*
X10312000Y-6375000D01*
X10312000Y-6325000D02*
X10262000Y-6375000D01*
X10643000Y-9817500D02*
X10693000Y-9867500D01*
X10693000Y-9817500D02*
X10643000Y-9867500D01*
X11151000Y-11451749D02*
X11201000Y-11501749D01*
X11201000Y-11451749D02*
X11151000Y-11501749D01*
X11151000Y-12230500D02*
X11201000Y-12280500D01*
X11201000Y-12230500D02*
X11151000Y-12280500D01*
X11278000Y-8992000D02*
X11328000Y-9042000D01*
X11328000Y-8992000D02*
X11278000Y-9042000D01*
X11341500Y-12103500D02*
X11391500Y-12153500D01*
X11391500Y-12103500D02*
X11341500Y-12153500D01*
X11341500Y-12421000D02*
X11391500Y-12471000D01*
X11391500Y-12421000D02*
X11341500Y-12471000D01*
X11354200Y-11303400D02*
X11404200Y-11353400D01*
X11404200Y-11303400D02*
X11354200Y-11353400D01*
X11355326Y-9815000D02*
X11405326Y-9865000D01*
X11405326Y-9815000D02*
X11355326Y-9865000D01*
X11532000Y-8992000D02*
X11582000Y-9042000D01*
X11582000Y-8992000D02*
X11532000Y-9042000D01*
X11532000Y-12636749D02*
X11582000Y-12686749D01*
X11582000Y-12636749D02*
X11532000Y-12686749D01*
X11532000Y-12865500D02*
X11582000Y-12915500D01*
X11582000Y-12865500D02*
X11532000Y-12915500D01*
X12167000Y-6515500D02*
X12217000Y-6565500D01*
X12217000Y-6515500D02*
X12167000Y-6565500D01*
X12381201Y-6437601D02*
X12431201Y-6487601D01*
X12431201Y-6437601D02*
X12381201Y-6487601D01*
X12548000Y-11341500D02*
X12598000Y-11391500D01*
X12598000Y-11341500D02*
X12548000Y-11391500D01*
X12548000Y-11608351D02*
X12598000Y-11658351D01*
X12598000Y-11608351D02*
X12548000Y-11658351D01*
X12548000Y-11849500D02*
X12598000Y-11899500D01*
X12598000Y-11849500D02*
X12548000Y-11899500D01*
X12738500Y-9817500D02*
X12788500Y-9867500D01*
X12788500Y-9817500D02*
X12738500Y-9867500D01*
X12802000Y-8039500D02*
X12852000Y-8089500D01*
X12852000Y-8039500D02*
X12802000Y-8089500D01*
X12802000Y-8293500D02*
X12852000Y-8343500D01*
X12852000Y-8293500D02*
X12802000Y-8343500D01*
X12802000Y-8547500D02*
X12852000Y-8597500D01*
X12852000Y-8547500D02*
X12802000Y-8597500D01*
X13056000Y-7912500D02*
X13106000Y-7962500D01*
X13106000Y-7912500D02*
X13056000Y-7962500D01*
X13056000Y-8166500D02*
X13106000Y-8216500D01*
X13106000Y-8166500D02*
X13056000Y-8216500D01*
X13056000Y-8420500D02*
X13106000Y-8470500D01*
X13106000Y-8420500D02*
X13056000Y-8470500D01*
X13056000Y-8674500D02*
X13106000Y-8724500D01*
X13106000Y-8674500D02*
X13056000Y-8724500D01*
X13183000Y-11608733D02*
X13233000Y-11658733D01*
X13233000Y-11608733D02*
X13183000Y-11658733D01*
X13197472Y-11287588D02*
X13247472Y-11337588D01*
X13247472Y-11287588D02*
X13197472Y-11337588D01*
X13284600Y-12827400D02*
X13334600Y-12877400D01*
X13334600Y-12827400D02*
X13284600Y-12877400D01*
X13373500Y-9817500D02*
X13423500Y-9867500D01*
X13423500Y-9817500D02*
X13373500Y-9867500D01*
X13373500Y-11214500D02*
X13423500Y-11264500D01*
X13423500Y-11214500D02*
X13373500Y-11264500D01*
X13373500Y-11659000D02*
X13423500Y-11709000D01*
X13423500Y-11659000D02*
X13373500Y-11709000D01*
X13382778Y-11913000D02*
X13432778Y-11963000D01*
X13432778Y-11913000D02*
X13382778Y-11963000D01*
X13564000Y-11024000D02*
X13614000Y-11074000D01*
X13614000Y-11024000D02*
X13564000Y-11074000D01*
X13691000Y-11341500D02*
X13741000Y-11391500D01*
X13741000Y-11341500D02*
X13691000Y-11391500D01*
X13691000Y-11659000D02*
X13741000Y-11709000D01*
X13741000Y-11659000D02*
X13691000Y-11709000D01*
X13691000Y-11659000D02*
X13741000Y-11709000D01*
X13741000Y-11659000D02*
X13691000Y-11709000D01*
X13691000Y-11913000D02*
X13741000Y-11963000D01*
X13741000Y-11913000D02*
X13691000Y-11963000D01*
X13754500Y-10071500D02*
X13804500Y-10121500D01*
X13804500Y-10071500D02*
X13754500Y-10121500D01*
X13818000Y-11024000D02*
X13868000Y-11074000D01*
X13868000Y-11024000D02*
X13818000Y-11074000D01*
X13881500Y-12167000D02*
X13931500Y-12217000D01*
X13931500Y-12167000D02*
X13881500Y-12217000D01*
X13945000Y-11341500D02*
X13995000Y-11391500D01*
X13995000Y-11341500D02*
X13945000Y-11391500D01*
X13945000Y-11659000D02*
X13995000Y-11709000D01*
X13995000Y-11659000D02*
X13945000Y-11709000D01*
X13945000Y-11913000D02*
X13995000Y-11963000D01*
X13995000Y-11913000D02*
X13945000Y-11963000D01*
X13995573Y-10866271D02*
X14045573Y-10916271D01*
X14045573Y-10866271D02*
X13995573Y-10916271D01*
X14199000Y-11087500D02*
X14249000Y-11137500D01*
X14249000Y-11087500D02*
X14199000Y-11137500D01*
X14199000Y-11341500D02*
X14249000Y-11391500D01*
X14249000Y-11341500D02*
X14199000Y-11391500D01*
X14199000Y-11659000D02*
X14249000Y-11709000D01*
X14249000Y-11659000D02*
X14199000Y-11709000D01*
X14199000Y-11913000D02*
X14249000Y-11963000D01*
X14249000Y-11913000D02*
X14199000Y-11963000D01*
X12092305Y-12496800D02*
G75*
G03X12092305Y-12496800I-40005J0D01*
G01*
X12600305Y-12496800D02*
G75*
G03X12600305Y-12496800I-40005J0D01*
G01*
X11620500Y-11389360D02*
X11620500Y-11470640D01*
X11579860Y-11430000D02*
X11661140Y-11430000D01*
X11620500Y-11897360D02*
X11620500Y-11978640D01*
X11579860Y-11938000D02*
X11661140Y-11938000D01*
X6893356Y-6258356D02*
X6893356Y-6187644D01*
X6822644Y-6187644D01*
X6822644Y-6258356D01*
X6893356Y-6258356D01*
X6893356Y-6512356D02*
X6893356Y-6441644D01*
X6822644Y-6441644D01*
X6822644Y-6512356D01*
X6893356Y-6512356D01*
X6893356Y-6766356D02*
X6893356Y-6695644D01*
X6822644Y-6695644D01*
X6822644Y-6766356D01*
X6893356Y-6766356D01*
X6893356Y-7020356D02*
X6893356Y-6949644D01*
X6822644Y-6949644D01*
X6822644Y-7020356D01*
X6893356Y-7020356D01*
X6893356Y-7274356D02*
X6893356Y-7203644D01*
X6822644Y-7203644D01*
X6822644Y-7274356D01*
X6893356Y-7274356D01*
X7147356Y-6258356D02*
X7147356Y-6187644D01*
X7076644Y-6187644D01*
X7076644Y-6258356D01*
X7147356Y-6258356D01*
X7147356Y-6512356D02*
X7147356Y-6441644D01*
X7076644Y-6441644D01*
X7076644Y-6512356D01*
X7147356Y-6512356D01*
X7147356Y-6766356D02*
X7147356Y-6695644D01*
X7076644Y-6695644D01*
X7076644Y-6766356D01*
X7147356Y-6766356D01*
X7147356Y-7020356D02*
X7147356Y-6949644D01*
X7076644Y-6949644D01*
X7076644Y-7020356D01*
X7147356Y-7020356D01*
X7147356Y-7274356D02*
X7147356Y-7203644D01*
X7076644Y-7203644D01*
X7076644Y-7274356D01*
X7147356Y-7274356D01*
X9560356Y-12671856D02*
X9560356Y-12601144D01*
X9489644Y-12601144D01*
X9489644Y-12671856D01*
X9560356Y-12671856D01*
X9560356Y-12925856D02*
X9560356Y-12855144D01*
X9489644Y-12855144D01*
X9489644Y-12925856D01*
X9560356Y-12925856D01*
X9814356Y-12671856D02*
X9814356Y-12601144D01*
X9743644Y-12601144D01*
X9743644Y-12671856D01*
X9814356Y-12671856D01*
X9814356Y-12925856D02*
X9814356Y-12855144D01*
X9743644Y-12855144D01*
X9743644Y-12925856D01*
X9814356Y-12925856D01*
X10068356Y-12671856D02*
X10068356Y-12601144D01*
X9997644Y-12601144D01*
X9997644Y-12671856D01*
X10068356Y-12671856D01*
X10068356Y-12925856D02*
X10068356Y-12855144D01*
X9997644Y-12855144D01*
X9997644Y-12925856D01*
X10068356Y-12925856D01*
X10322356Y-12671856D02*
X10322356Y-12601144D01*
X10251644Y-12601144D01*
X10251644Y-12671856D01*
X10322356Y-12671856D01*
X10322356Y-12925856D02*
X10322356Y-12855144D01*
X10251644Y-12855144D01*
X10251644Y-12925856D01*
X10322356Y-12925856D01*
X10576356Y-12671856D02*
X10576356Y-12601144D01*
X10505644Y-12601144D01*
X10505644Y-12671856D01*
X10576356Y-12671856D01*
X10576356Y-12925856D02*
X10576356Y-12855144D01*
X10505644Y-12855144D01*
X10505644Y-12925856D01*
X10576356Y-12925856D01*
X6794500Y-9130538D02*
X6844538Y-9080500D01*
X6794500Y-9030462D01*
X6744462Y-9080500D01*
X6794500Y-9130538D01*
X6794500Y-9384538D02*
X6844538Y-9334500D01*
X6794500Y-9284462D01*
X6744462Y-9334500D01*
X6794500Y-9384538D01*
X6794500Y-9638538D02*
X6844538Y-9588500D01*
X6794500Y-9538462D01*
X6744462Y-9588500D01*
X6794500Y-9638538D01*
X6794500Y-9892538D02*
X6844538Y-9842500D01*
X6794500Y-9792462D01*
X6744462Y-9842500D01*
X6794500Y-9892538D01*
X6794500Y-10654538D02*
X6844538Y-10604500D01*
X6794500Y-10554462D01*
X6744462Y-10604500D01*
X6794500Y-10654538D01*
X6794500Y-10908538D02*
X6844538Y-10858500D01*
X6794500Y-10808462D01*
X6744462Y-10858500D01*
X6794500Y-10908538D01*
X6794500Y-11162538D02*
X6844538Y-11112500D01*
X6794500Y-11062462D01*
X6744462Y-11112500D01*
X6794500Y-11162538D01*
X6794500Y-11416538D02*
X6844538Y-11366500D01*
X6794500Y-11316462D01*
X6744462Y-11366500D01*
X6794500Y-11416538D01*
X6794500Y-11670538D02*
X6844538Y-11620500D01*
X6794500Y-11570462D01*
X6744462Y-11620500D01*
X6794500Y-11670538D01*
X6794500Y-11924538D02*
X6844538Y-11874500D01*
X6794500Y-11824462D01*
X6744462Y-11874500D01*
X6794500Y-11924538D01*
X7048500Y-4749038D02*
X7098538Y-4699000D01*
X7048500Y-4648962D01*
X6998462Y-4699000D01*
X7048500Y-4749038D01*
X7302500Y-4749038D02*
X7352538Y-4699000D01*
X7302500Y-4648962D01*
X7252462Y-4699000D01*
X7302500Y-4749038D01*
X8191500Y-10019538D02*
X8241538Y-9969500D01*
X8191500Y-9919462D01*
X8141462Y-9969500D01*
X8191500Y-10019538D01*
X8191500Y-10908538D02*
X8241538Y-10858500D01*
X8191500Y-10808462D01*
X8141462Y-10858500D01*
X8191500Y-10908538D01*
X8445500Y-10019538D02*
X8495538Y-9969500D01*
X8445500Y-9919462D01*
X8395462Y-9969500D01*
X8445500Y-10019538D01*
X8445500Y-10908538D02*
X8495538Y-10858500D01*
X8445500Y-10808462D01*
X8395462Y-10858500D01*
X8445500Y-10908538D01*
X8699500Y-10019538D02*
X8749538Y-9969500D01*
X8699500Y-9919462D01*
X8649462Y-9969500D01*
X8699500Y-10019538D01*
X8699500Y-10908538D02*
X8749538Y-10858500D01*
X8699500Y-10808462D01*
X8649462Y-10858500D01*
X8699500Y-10908538D01*
X8953500Y-10019538D02*
X9003538Y-9969500D01*
X8953500Y-9919462D01*
X8903462Y-9969500D01*
X8953500Y-10019538D01*
X8953500Y-10908538D02*
X9003538Y-10858500D01*
X8953500Y-10808462D01*
X8903462Y-10858500D01*
X8953500Y-10908538D01*
X9271000Y-13956538D02*
X9321038Y-13906500D01*
X9271000Y-13856462D01*
X9220962Y-13906500D01*
X9271000Y-13956538D01*
X9525000Y-13956538D02*
X9575038Y-13906500D01*
X9525000Y-13856462D01*
X9474962Y-13906500D01*
X9525000Y-13956538D01*
X9779000Y-13956538D02*
X9829038Y-13906500D01*
X9779000Y-13856462D01*
X9728962Y-13906500D01*
X9779000Y-13956538D01*
X9784080Y-11353038D02*
X9834118Y-11303000D01*
X9784080Y-11252962D01*
X9734042Y-11303000D01*
X9784080Y-11353038D01*
X10033000Y-13956538D02*
X10083038Y-13906500D01*
X10033000Y-13856462D01*
X9982962Y-13906500D01*
X10033000Y-13956538D01*
X10038080Y-11353038D02*
X10088118Y-11303000D01*
X10038080Y-11252962D01*
X9988042Y-11303000D01*
X10038080Y-11353038D01*
X10287000Y-13956538D02*
X10337038Y-13906500D01*
X10287000Y-13856462D01*
X10236962Y-13906500D01*
X10287000Y-13956538D01*
X10292080Y-11353038D02*
X10342118Y-11303000D01*
X10292080Y-11252962D01*
X10242042Y-11303000D01*
X10292080Y-11353038D01*
X10541000Y-13956538D02*
X10591038Y-13906500D01*
X10541000Y-13856462D01*
X10490962Y-13906500D01*
X10541000Y-13956538D01*
X10546080Y-11353038D02*
X10596118Y-11303000D01*
X10546080Y-11252962D01*
X10496042Y-11303000D01*
X10546080Y-11353038D01*
X11620500Y-14845538D02*
X11670538Y-14795500D01*
X11620500Y-14745462D01*
X11570462Y-14795500D01*
X11620500Y-14845538D01*
X11874500Y-14845538D02*
X11924538Y-14795500D01*
X11874500Y-14745462D01*
X11824462Y-14795500D01*
X11874500Y-14845538D01*
X12128500Y-14845538D02*
X12178538Y-14795500D01*
X12128500Y-14745462D01*
X12078462Y-14795500D01*
X12128500Y-14845538D01*
X12382500Y-14845538D02*
X12432538Y-14795500D01*
X12382500Y-14745462D01*
X12332462Y-14795500D01*
X12382500Y-14845538D01*
X12636500Y-14845538D02*
X12686538Y-14795500D01*
X12636500Y-14745462D01*
X12586462Y-14795500D01*
X12636500Y-14845538D01*
X12890500Y-14845538D02*
X12940538Y-14795500D01*
X12890500Y-14745462D01*
X12840462Y-14795500D01*
X12890500Y-14845538D01*
X13652500Y-13956538D02*
X13702538Y-13906500D01*
X13652500Y-13856462D01*
X13602462Y-13906500D01*
X13652500Y-13956538D01*
X13906500Y-13956538D02*
X13956538Y-13906500D01*
X13906500Y-13856462D01*
X13856462Y-13906500D01*
X13906500Y-13956538D01*
X14160500Y-13956538D02*
X14210538Y-13906500D01*
X14160500Y-13856462D01*
X14110462Y-13906500D01*
X14160500Y-13956538D01*
X14414500Y-13956538D02*
X14464538Y-13906500D01*
X14414500Y-13856462D01*
X14364462Y-13906500D01*
X14414500Y-13956538D01*
X14668500Y-13956538D02*
X14718538Y-13906500D01*
X14668500Y-13856462D01*
X14618462Y-13906500D01*
X14668500Y-13956538D01*
X14922500Y-13956538D02*
X14972538Y-13906500D01*
X14922500Y-13856462D01*
X14872462Y-13906500D01*
X14922500Y-13956538D01*
X15684500Y-13966444D02*
X15734538Y-13916406D01*
X15684500Y-13866368D01*
X15634462Y-13916406D01*
X15684500Y-13966444D01*
X15559532Y-13956444D02*
X15809468Y-13956444D01*
X15559532Y-13876368D02*
X15809468Y-13876368D01*
X15809468Y-13956444D02*
G75*
G03X15809468Y-13876368I0J40038D01*
G01*
X15559532Y-13876368D02*
G75*
G03X15559532Y-13956444I0J-40038D01*
G01*
X15684500Y-14566646D02*
X15734538Y-14516608D01*
X15684500Y-14466570D01*
X15634462Y-14516608D01*
X15684500Y-14566646D01*
X15584551Y-14556646D02*
X15784449Y-14556646D01*
X15584551Y-14476570D02*
X15784449Y-14476570D01*
X15784449Y-14556646D02*
G75*
G03X15784449Y-14476570I0J40038D01*
G01*
X15584551Y-14476570D02*
G75*
G03X15584551Y-14556646I0J-40038D01*
G01*
X16214598Y-14241526D02*
X16264636Y-14191488D01*
X16214598Y-14141450D01*
X16164560Y-14191488D01*
X16214598Y-14241526D01*
X16174560Y-14091539D02*
X16174560Y-14291437D01*
X16254636Y-14091539D02*
X16254636Y-14291437D01*
X16174560Y-14291437D02*
G75*
G03X16254636Y-14291437I40038J0D01*
G01*
X16254636Y-14091539D02*
G75*
G03X16174560Y-14091539I-40038J0D01*
G01*
X17018000Y-10273538D02*
X17068038Y-10223500D01*
X17018000Y-10173462D01*
X16967962Y-10223500D01*
X17018000Y-10273538D01*
X17018000Y-10527538D02*
X17068038Y-10477500D01*
X17018000Y-10427462D01*
X16967962Y-10477500D01*
X17018000Y-10527538D01*
X17018000Y-10781538D02*
X17068038Y-10731500D01*
X17018000Y-10681462D01*
X16967962Y-10731500D01*
X17018000Y-10781538D01*
X17018000Y-11035538D02*
X17068038Y-10985500D01*
X17018000Y-10935462D01*
X16967962Y-10985500D01*
X17018000Y-11035538D01*
X17018000Y-11289538D02*
X17068038Y-11239500D01*
X17018000Y-11189462D01*
X16967962Y-11239500D01*
X17018000Y-11289538D01*
X17018000Y-11543538D02*
X17068038Y-11493500D01*
X17018000Y-11443462D01*
X16967962Y-11493500D01*
X17018000Y-11543538D01*
X17145000Y-8368538D02*
X17195038Y-8318500D01*
X17145000Y-8268462D01*
X17094962Y-8318500D01*
X17145000Y-8368538D01*
X17145000Y-8622538D02*
X17195038Y-8572500D01*
X17145000Y-8522462D01*
X17094962Y-8572500D01*
X17145000Y-8622538D01*
X17145000Y-8876538D02*
X17195038Y-8826500D01*
X17145000Y-8776462D01*
X17094962Y-8826500D01*
X17145000Y-8876538D01*
X17145000Y-9130538D02*
X17195038Y-9080500D01*
X17145000Y-9030462D01*
X17094962Y-9080500D01*
X17145000Y-9130538D01*
X17145000Y-9384538D02*
X17195038Y-9334500D01*
X17145000Y-9284462D01*
X17094962Y-9334500D01*
X17145000Y-9384538D01*
X17145000Y-9638538D02*
X17195038Y-9588500D01*
X17145000Y-9538462D01*
X17094962Y-9588500D01*
X17145000Y-9638538D01*
X17399000Y-8368538D02*
X17449038Y-8318500D01*
X17399000Y-8268462D01*
X17348962Y-8318500D01*
X17399000Y-8368538D01*
X17399000Y-8622538D02*
X17449038Y-8572500D01*
X17399000Y-8522462D01*
X17348962Y-8572500D01*
X17399000Y-8622538D01*
X17399000Y-8876538D02*
X17449038Y-8826500D01*
X17399000Y-8776462D01*
X17348962Y-8826500D01*
X17399000Y-8876538D01*
X17399000Y-9130538D02*
X17449038Y-9080500D01*
X17399000Y-9030462D01*
X17348962Y-9080500D01*
X17399000Y-9130538D01*
X17399000Y-9384538D02*
X17449038Y-9334500D01*
X17399000Y-9284462D01*
X17348962Y-9334500D01*
X17399000Y-9384538D01*
X17399000Y-9638538D02*
X17449038Y-9588500D01*
X17399000Y-9538462D01*
X17348962Y-9588500D01*
X17399000Y-9638538D01*
X17653000Y-8368538D02*
X17703038Y-8318500D01*
X17653000Y-8268462D01*
X17602962Y-8318500D01*
X17653000Y-8368538D01*
X17653000Y-8622538D02*
X17703038Y-8572500D01*
X17653000Y-8522462D01*
X17602962Y-8572500D01*
X17653000Y-8622538D01*
X17653000Y-8876538D02*
X17703038Y-8826500D01*
X17653000Y-8776462D01*
X17602962Y-8826500D01*
X17653000Y-8876538D01*
X17653000Y-9130538D02*
X17703038Y-9080500D01*
X17653000Y-9030462D01*
X17602962Y-9080500D01*
X17653000Y-9130538D01*
X17653000Y-9384538D02*
X17703038Y-9334500D01*
X17653000Y-9284462D01*
X17602962Y-9334500D01*
X17653000Y-9384538D01*
X17653000Y-9638538D02*
X17703038Y-9588500D01*
X17653000Y-9538462D01*
X17602962Y-9588500D01*
X17653000Y-9638538D01*
X17907000Y-10273538D02*
X17957038Y-10223500D01*
X17907000Y-10173462D01*
X17856962Y-10223500D01*
X17907000Y-10273538D01*
X17907000Y-10527538D02*
X17957038Y-10477500D01*
X17907000Y-10427462D01*
X17856962Y-10477500D01*
X17907000Y-10527538D01*
X17907000Y-10781538D02*
X17957038Y-10731500D01*
X17907000Y-10681462D01*
X17856962Y-10731500D01*
X17907000Y-10781538D01*
X17907000Y-11035538D02*
X17957038Y-10985500D01*
X17907000Y-10935462D01*
X17856962Y-10985500D01*
X17907000Y-11035538D01*
X17907000Y-11289538D02*
X17957038Y-11239500D01*
X17907000Y-11189462D01*
X17856962Y-11239500D01*
X17907000Y-11289538D01*
X17907000Y-11543538D02*
X17957038Y-11493500D01*
X17907000Y-11443462D01*
X17856962Y-11493500D01*
X17907000Y-11543538D01*
X13193500Y-7357000D02*
X13303500Y-7467000D01*
X13303500Y-7357000D02*
X13193500Y-7467000D01*
X13303500Y-7412000D02*
G75*
G03X13303500Y-7412000I-55000J0D01*
G01*
X13853500Y-6607000D02*
X13963500Y-6717000D01*
X13963500Y-6607000D02*
X13853500Y-6717000D01*
X13963500Y-6662000D02*
G75*
G03X13963500Y-6662000I-55000J0D01*
G01*
X17191746Y-12213600D02*
X17351746Y-12373600D01*
X17351746Y-12213600D02*
X17191746Y-12373600D01*
X17271746Y-12213600D02*
X17271746Y-12373600D01*
X17191746Y-12293600D02*
X17351746Y-12293600D01*
X17191746Y-12683500D02*
X17351746Y-12843500D01*
X17351746Y-12683500D02*
X17191746Y-12843500D01*
X17271746Y-12683500D02*
X17271746Y-12843500D01*
X17191746Y-12763500D02*
X17351746Y-12763500D01*
X17192000Y-13153400D02*
X17352000Y-13313400D01*
X17352000Y-13153400D02*
X17192000Y-13313400D01*
X17272000Y-13153400D02*
X17272000Y-13313400D01*
X17192000Y-13233400D02*
X17352000Y-13233400D01*
X18144500Y-12023862D02*
X18304500Y-12183862D01*
X18304500Y-12023862D02*
X18144500Y-12183862D01*
X18224500Y-12023862D02*
X18224500Y-12183862D01*
X18144500Y-12103862D02*
X18304500Y-12103862D01*
X18144500Y-13343138D02*
X18304500Y-13503138D01*
X18304500Y-13343138D02*
X18144500Y-13503138D01*
X18224500Y-13343138D02*
X18224500Y-13503138D01*
X18144500Y-13423138D02*
X18304500Y-13423138D01*
X10766500Y-8228500D02*
X10946500Y-8408500D01*
X10946500Y-8228500D02*
X10766500Y-8408500D01*
X10920140Y-8382140D02*
X10920140Y-8254860D01*
X10792860Y-8254860D01*
X10792860Y-8382140D01*
X10920140Y-8382140D01*
X11316500Y-8228500D02*
X11496500Y-8408500D01*
X11496500Y-8228500D02*
X11316500Y-8408500D01*
X11470140Y-8382140D02*
X11470140Y-8254860D01*
X11342860Y-8254860D01*
X11342860Y-8382140D01*
X11470140Y-8382140D01*
X12798500Y-6622000D02*
X12978500Y-6802000D01*
X12978500Y-6622000D02*
X12798500Y-6802000D01*
X12952140Y-6775640D02*
X12952140Y-6648360D01*
X12824860Y-6648360D01*
X12824860Y-6775640D01*
X12952140Y-6775640D01*
X12798500Y-7422000D02*
X12978500Y-7602000D01*
X12978500Y-7422000D02*
X12798500Y-7602000D01*
X12952140Y-7575640D02*
X12952140Y-7448360D01*
X12824860Y-7448360D01*
X12824860Y-7575640D01*
X12952140Y-7575640D01*
X13098500Y-6622000D02*
X13278500Y-6802000D01*
X13278500Y-6622000D02*
X13098500Y-6802000D01*
X13252140Y-6775640D02*
X13252140Y-6648360D01*
X13124860Y-6648360D01*
X13124860Y-6775640D01*
X13252140Y-6775640D01*
X12905000Y-5005000D02*
X13095000Y-5195000D01*
X13095000Y-5005000D02*
X12905000Y-5195000D01*
X13000000Y-5195000D02*
X13095000Y-5100000D01*
X13000000Y-5005000D01*
X12905000Y-5100000D01*
X13000000Y-5195000D01*
X12915000Y-5045000D02*
X12915000Y-5155000D01*
X13085000Y-5045000D02*
X13085000Y-5155000D01*
X12915000Y-5155000D02*
G75*
G03X13085000Y-5155000I85000J0D01*
G01*
X13085000Y-5045000D02*
G75*
G03X12915000Y-5045000I-85000J0D01*
G01*
X12909800Y-6005000D02*
X13099800Y-6195000D01*
X13099800Y-6005000D02*
X12909800Y-6195000D01*
X13004800Y-6195000D02*
X13099800Y-6100000D01*
X13004800Y-6005000D01*
X12909800Y-6100000D01*
X13004800Y-6195000D01*
X12919800Y-6045000D02*
X12919800Y-6155000D01*
X13089800Y-6045000D02*
X13089800Y-6155000D01*
X12919800Y-6155000D02*
G75*
G03X13089800Y-6155000I85000J0D01*
G01*
X13089800Y-6045000D02*
G75*
G03X12919800Y-6045000I-85000J0D01*
G01*
X12509500Y-5213000D02*
X12509500Y-5463000D01*
X12384500Y-5338000D02*
X12634500Y-5338000D01*
X12634500Y-5338000D02*
G75*
G03X12634500Y-5338000I-125000J0D01*
G01*
X12509500Y-5713000D02*
X12509500Y-5963000D01*
X12384500Y-5838000D02*
X12634500Y-5838000D01*
X12634500Y-5838000D02*
G75*
G03X12634500Y-5838000I-125000J0D01*
G01*
X10232567Y-8424567D02*
X10232567Y-8212433D01*
X10020433Y-8212433D01*
X10020433Y-8424567D01*
X10232567Y-8424567D01*
X10276500Y-8318500D02*
G75*
G03X10276500Y-8318500I-150000J0D01*
G01*
X8600000Y-14210000D02*
X8810000Y-14000000D01*
X8600000Y-13790000D01*
X8390000Y-14000000D01*
X8600000Y-14210000D01*
X8810000Y-14000000D02*
G75*
G03X8810000Y-14000000I-210000J0D01*
G01*
X16751300Y-13510000D02*
X16961300Y-13300000D01*
X16751300Y-13090000D01*
X16541300Y-13300000D01*
X16751300Y-13510000D01*
X16961300Y-13300000D02*
G75*
G03X16961300Y-13300000I-210000J0D01*
G01*
X17900000Y-7310000D02*
X18110000Y-7100000D01*
X17900000Y-6890000D01*
X17690000Y-7100000D01*
X17900000Y-7310000D01*
X18110000Y-7100000D02*
G75*
G03X18110000Y-7100000I-210000J0D01*
G01*
D13*
X6466428Y-15770714D02*
X6466428Y-15470714D01*
X6537857Y-15470714D01*
X6580714Y-15485000D01*
X6609286Y-15513571D01*
X6623571Y-15542143D01*
X6637857Y-15599286D01*
X6637857Y-15642143D01*
X6623571Y-15699286D01*
X6609286Y-15727857D01*
X6580714Y-15756429D01*
X6537857Y-15770714D01*
X6466428Y-15770714D01*
X6766428Y-15770714D02*
X6766428Y-15570714D01*
X6766428Y-15627857D02*
X6780714Y-15599286D01*
X6795000Y-15585000D01*
X6823571Y-15570714D01*
X6852143Y-15570714D01*
X6952143Y-15770714D02*
X6952143Y-15570714D01*
X6952143Y-15470714D02*
X6937857Y-15485000D01*
X6952143Y-15499286D01*
X6966428Y-15485000D01*
X6952143Y-15470714D01*
X6952143Y-15499286D01*
X7137857Y-15770714D02*
X7109286Y-15756429D01*
X7095000Y-15727857D01*
X7095000Y-15470714D01*
X7295000Y-15770714D02*
X7266428Y-15756429D01*
X7252143Y-15727857D01*
X7252143Y-15470714D01*
X7637857Y-15770714D02*
X7637857Y-15470714D01*
X7737857Y-15685000D01*
X7837857Y-15470714D01*
X7837857Y-15770714D01*
X8109286Y-15770714D02*
X8109286Y-15613571D01*
X8095000Y-15585000D01*
X8066428Y-15570714D01*
X8009286Y-15570714D01*
X7980714Y-15585000D01*
X8109286Y-15756429D02*
X8080714Y-15770714D01*
X8009286Y-15770714D01*
X7980714Y-15756429D01*
X7966428Y-15727857D01*
X7966428Y-15699286D01*
X7980714Y-15670714D01*
X8009286Y-15656429D01*
X8080714Y-15656429D01*
X8109286Y-15642143D01*
X8252143Y-15570714D02*
X8252143Y-15870714D01*
X8252143Y-15585000D02*
X8280714Y-15570714D01*
X8337857Y-15570714D01*
X8366428Y-15585000D01*
X8380714Y-15599286D01*
X8395000Y-15627857D01*
X8395000Y-15713571D01*
X8380714Y-15742143D01*
X8366428Y-15756429D01*
X8337857Y-15770714D01*
X8280714Y-15770714D01*
X8252143Y-15756429D01*
X8523571Y-15742143D02*
X8537857Y-15756429D01*
X8523571Y-15770714D01*
X8509286Y-15756429D01*
X8523571Y-15742143D01*
X8523571Y-15770714D01*
X8523571Y-15585000D02*
X8537857Y-15599286D01*
X8523571Y-15613571D01*
X8509286Y-15599286D01*
X8523571Y-15585000D01*
X8523571Y-15613571D01*
X6145000Y-16240000D02*
X6195000Y-16290000D01*
X6195000Y-16240000D02*
X6145000Y-16290000D01*
X6523571Y-16100714D02*
X6552143Y-16100714D01*
X6580714Y-16115000D01*
X6595000Y-16129286D01*
X6609286Y-16157857D01*
X6623571Y-16215000D01*
X6623571Y-16286429D01*
X6609286Y-16343571D01*
X6595000Y-16372143D01*
X6580714Y-16386429D01*
X6552143Y-16400714D01*
X6523571Y-16400714D01*
X6495000Y-16386429D01*
X6480714Y-16372143D01*
X6466428Y-16343571D01*
X6452143Y-16286429D01*
X6452143Y-16215000D01*
X6466428Y-16157857D01*
X6480714Y-16129286D01*
X6495000Y-16115000D01*
X6523571Y-16100714D01*
X6752143Y-16372143D02*
X6766428Y-16386429D01*
X6752143Y-16400714D01*
X6737857Y-16386429D01*
X6752143Y-16372143D01*
X6752143Y-16400714D01*
X7037857Y-16100714D02*
X6895000Y-16100714D01*
X6880714Y-16243571D01*
X6895000Y-16229286D01*
X6923571Y-16215000D01*
X6995000Y-16215000D01*
X7023571Y-16229286D01*
X7037857Y-16243571D01*
X7052143Y-16272143D01*
X7052143Y-16343571D01*
X7037857Y-16372143D01*
X7023571Y-16386429D01*
X6995000Y-16400714D01*
X6923571Y-16400714D01*
X6895000Y-16386429D01*
X6880714Y-16372143D01*
X7237857Y-16100714D02*
X7266428Y-16100714D01*
X7295000Y-16115000D01*
X7309286Y-16129286D01*
X7323571Y-16157857D01*
X7337857Y-16215000D01*
X7337857Y-16286429D01*
X7323571Y-16343571D01*
X7309286Y-16372143D01*
X7295000Y-16386429D01*
X7266428Y-16400714D01*
X7237857Y-16400714D01*
X7209286Y-16386429D01*
X7195000Y-16372143D01*
X7180714Y-16343571D01*
X7166428Y-16286429D01*
X7166428Y-16215000D01*
X7180714Y-16157857D01*
X7195000Y-16129286D01*
X7209286Y-16115000D01*
X7237857Y-16100714D01*
X7466428Y-16400714D02*
X7466428Y-16200714D01*
X7466428Y-16229286D02*
X7480714Y-16215000D01*
X7509286Y-16200714D01*
X7552143Y-16200714D01*
X7580714Y-16215000D01*
X7595000Y-16243571D01*
X7595000Y-16400714D01*
X7595000Y-16243571D02*
X7609286Y-16215000D01*
X7637857Y-16200714D01*
X7680714Y-16200714D01*
X7709286Y-16215000D01*
X7723571Y-16243571D01*
X7723571Y-16400714D01*
X7866428Y-16400714D02*
X7866428Y-16200714D01*
X7866428Y-16229286D02*
X7880714Y-16215000D01*
X7909286Y-16200714D01*
X7952143Y-16200714D01*
X7980714Y-16215000D01*
X7995000Y-16243571D01*
X7995000Y-16400714D01*
X7995000Y-16243571D02*
X8009286Y-16215000D01*
X8037857Y-16200714D01*
X8080714Y-16200714D01*
X8109286Y-16215000D01*
X8123571Y-16243571D01*
X8123571Y-16400714D01*
X8709286Y-16086429D02*
X8452143Y-16472143D01*
X9095000Y-16100714D02*
X9123571Y-16100714D01*
X9152143Y-16115000D01*
X9166428Y-16129286D01*
X9180714Y-16157857D01*
X9195000Y-16215000D01*
X9195000Y-16286429D01*
X9180714Y-16343571D01*
X9166428Y-16372143D01*
X9152143Y-16386429D01*
X9123571Y-16400714D01*
X9095000Y-16400714D01*
X9066428Y-16386429D01*
X9052143Y-16372143D01*
X9037857Y-16343571D01*
X9023571Y-16286429D01*
X9023571Y-16215000D01*
X9037857Y-16157857D01*
X9052143Y-16129286D01*
X9066428Y-16115000D01*
X9095000Y-16100714D01*
X9323571Y-16372143D02*
X9337857Y-16386429D01*
X9323571Y-16400714D01*
X9309286Y-16386429D01*
X9323571Y-16372143D01*
X9323571Y-16400714D01*
X9523571Y-16100714D02*
X9552143Y-16100714D01*
X9580714Y-16115000D01*
X9595000Y-16129286D01*
X9609286Y-16157857D01*
X9623571Y-16215000D01*
X9623571Y-16286429D01*
X9609286Y-16343571D01*
X9595000Y-16372143D01*
X9580714Y-16386429D01*
X9552143Y-16400714D01*
X9523571Y-16400714D01*
X9495000Y-16386429D01*
X9480714Y-16372143D01*
X9466428Y-16343571D01*
X9452143Y-16286429D01*
X9452143Y-16215000D01*
X9466428Y-16157857D01*
X9480714Y-16129286D01*
X9495000Y-16115000D01*
X9523571Y-16100714D01*
X9737857Y-16129286D02*
X9752143Y-16115000D01*
X9780714Y-16100714D01*
X9852143Y-16100714D01*
X9880714Y-16115000D01*
X9895000Y-16129286D01*
X9909286Y-16157857D01*
X9909286Y-16186429D01*
X9895000Y-16229286D01*
X9723571Y-16400714D01*
X9909286Y-16400714D01*
X10095000Y-16100714D02*
X10123571Y-16100714D01*
X10152143Y-16115000D01*
X10166428Y-16129286D01*
X10180714Y-16157857D01*
X10195000Y-16215000D01*
X10195000Y-16286429D01*
X10180714Y-16343571D01*
X10166428Y-16372143D01*
X10152143Y-16386429D01*
X10123571Y-16400714D01*
X10095000Y-16400714D01*
X10066428Y-16386429D01*
X10052143Y-16372143D01*
X10037857Y-16343571D01*
X10023571Y-16286429D01*
X10023571Y-16215000D01*
X10037857Y-16157857D01*
X10052143Y-16129286D01*
X10066428Y-16115000D01*
X10095000Y-16100714D01*
X10309286Y-16100714D02*
X10309286Y-16157857D01*
X10423571Y-16100714D02*
X10423571Y-16157857D01*
X10866428Y-16515000D02*
X10852143Y-16500714D01*
X10823571Y-16457857D01*
X10809286Y-16429286D01*
X10795000Y-16386429D01*
X10780714Y-16315000D01*
X10780714Y-16257857D01*
X10795000Y-16186429D01*
X10809286Y-16143571D01*
X10823571Y-16115000D01*
X10852143Y-16072143D01*
X10866428Y-16057857D01*
X11023571Y-16229286D02*
X10995000Y-16215000D01*
X10980714Y-16200714D01*
X10966428Y-16172143D01*
X10966428Y-16157857D01*
X10980714Y-16129286D01*
X10995000Y-16115000D01*
X11023571Y-16100714D01*
X11080714Y-16100714D01*
X11109286Y-16115000D01*
X11123571Y-16129286D01*
X11137857Y-16157857D01*
X11137857Y-16172143D01*
X11123571Y-16200714D01*
X11109286Y-16215000D01*
X11080714Y-16229286D01*
X11023571Y-16229286D01*
X10995000Y-16243571D01*
X10980714Y-16257857D01*
X10966428Y-16286429D01*
X10966428Y-16343571D01*
X10980714Y-16372143D01*
X10995000Y-16386429D01*
X11023571Y-16400714D01*
X11080714Y-16400714D01*
X11109286Y-16386429D01*
X11123571Y-16372143D01*
X11137857Y-16343571D01*
X11137857Y-16286429D01*
X11123571Y-16257857D01*
X11109286Y-16243571D01*
X11080714Y-16229286D01*
X11395000Y-16200714D02*
X11395000Y-16400714D01*
X11323571Y-16086429D02*
X11252143Y-16300714D01*
X11437857Y-16300714D01*
X11780714Y-16400714D02*
X11780714Y-16100714D01*
X11909285Y-16400714D02*
X11909285Y-16243571D01*
X11895000Y-16215000D01*
X11866428Y-16200714D01*
X11823571Y-16200714D01*
X11795000Y-16215000D01*
X11780714Y-16229286D01*
X12095000Y-16400714D02*
X12066428Y-16386429D01*
X12052143Y-16372143D01*
X12037857Y-16343571D01*
X12037857Y-16257857D01*
X12052143Y-16229286D01*
X12066428Y-16215000D01*
X12095000Y-16200714D01*
X12137857Y-16200714D01*
X12166428Y-16215000D01*
X12180714Y-16229286D01*
X12195000Y-16257857D01*
X12195000Y-16343571D01*
X12180714Y-16372143D01*
X12166428Y-16386429D01*
X12137857Y-16400714D01*
X12095000Y-16400714D01*
X12366428Y-16400714D02*
X12337857Y-16386429D01*
X12323571Y-16357857D01*
X12323571Y-16100714D01*
X12595000Y-16386429D02*
X12566428Y-16400714D01*
X12509286Y-16400714D01*
X12480714Y-16386429D01*
X12466428Y-16357857D01*
X12466428Y-16243571D01*
X12480714Y-16215000D01*
X12509286Y-16200714D01*
X12566428Y-16200714D01*
X12595000Y-16215000D01*
X12609286Y-16243571D01*
X12609286Y-16272143D01*
X12466428Y-16300714D01*
X12723571Y-16386429D02*
X12752143Y-16400714D01*
X12809286Y-16400714D01*
X12837857Y-16386429D01*
X12852143Y-16357857D01*
X12852143Y-16343571D01*
X12837857Y-16315000D01*
X12809286Y-16300714D01*
X12766428Y-16300714D01*
X12737857Y-16286429D01*
X12723571Y-16257857D01*
X12723571Y-16243571D01*
X12737857Y-16215000D01*
X12766428Y-16200714D01*
X12809286Y-16200714D01*
X12837857Y-16215000D01*
X12952143Y-16515000D02*
X12966428Y-16500714D01*
X12995000Y-16457857D01*
X13009286Y-16429286D01*
X13023571Y-16386429D01*
X13037857Y-16315000D01*
X13037857Y-16257857D01*
X13023571Y-16186429D01*
X13009286Y-16143571D01*
X12995000Y-16115000D01*
X12966428Y-16072143D01*
X12952143Y-16057857D01*
X6195000Y-16661000D02*
G75*
G03X6195000Y-16661000I-40005J0D01*
G01*
X6523571Y-16496714D02*
X6552143Y-16496714D01*
X6580714Y-16511000D01*
X6595000Y-16525286D01*
X6609286Y-16553857D01*
X6623571Y-16611000D01*
X6623571Y-16682429D01*
X6609286Y-16739571D01*
X6595000Y-16768143D01*
X6580714Y-16782429D01*
X6552143Y-16796714D01*
X6523571Y-16796714D01*
X6495000Y-16782429D01*
X6480714Y-16768143D01*
X6466428Y-16739571D01*
X6452143Y-16682429D01*
X6452143Y-16611000D01*
X6466428Y-16553857D01*
X6480714Y-16525286D01*
X6495000Y-16511000D01*
X6523571Y-16496714D01*
X6752143Y-16768143D02*
X6766428Y-16782429D01*
X6752143Y-16796714D01*
X6737857Y-16782429D01*
X6752143Y-16768143D01*
X6752143Y-16796714D01*
X6937857Y-16625286D02*
X6909286Y-16611000D01*
X6895000Y-16596714D01*
X6880714Y-16568143D01*
X6880714Y-16553857D01*
X6895000Y-16525286D01*
X6909286Y-16511000D01*
X6937857Y-16496714D01*
X6995000Y-16496714D01*
X7023571Y-16511000D01*
X7037857Y-16525286D01*
X7052143Y-16553857D01*
X7052143Y-16568143D01*
X7037857Y-16596714D01*
X7023571Y-16611000D01*
X6995000Y-16625286D01*
X6937857Y-16625286D01*
X6909286Y-16639571D01*
X6895000Y-16653857D01*
X6880714Y-16682429D01*
X6880714Y-16739571D01*
X6895000Y-16768143D01*
X6909286Y-16782429D01*
X6937857Y-16796714D01*
X6995000Y-16796714D01*
X7023571Y-16782429D01*
X7037857Y-16768143D01*
X7052143Y-16739571D01*
X7052143Y-16682429D01*
X7037857Y-16653857D01*
X7023571Y-16639571D01*
X6995000Y-16625286D01*
X7237857Y-16496714D02*
X7266428Y-16496714D01*
X7295000Y-16511000D01*
X7309286Y-16525286D01*
X7323571Y-16553857D01*
X7337857Y-16611000D01*
X7337857Y-16682429D01*
X7323571Y-16739571D01*
X7309286Y-16768143D01*
X7295000Y-16782429D01*
X7266428Y-16796714D01*
X7237857Y-16796714D01*
X7209286Y-16782429D01*
X7195000Y-16768143D01*
X7180714Y-16739571D01*
X7166428Y-16682429D01*
X7166428Y-16611000D01*
X7180714Y-16553857D01*
X7195000Y-16525286D01*
X7209286Y-16511000D01*
X7237857Y-16496714D01*
X7466428Y-16796714D02*
X7466428Y-16596714D01*
X7466428Y-16625286D02*
X7480714Y-16611000D01*
X7509286Y-16596714D01*
X7552143Y-16596714D01*
X7580714Y-16611000D01*
X7595000Y-16639571D01*
X7595000Y-16796714D01*
X7595000Y-16639571D02*
X7609286Y-16611000D01*
X7637857Y-16596714D01*
X7680714Y-16596714D01*
X7709286Y-16611000D01*
X7723571Y-16639571D01*
X7723571Y-16796714D01*
X7866428Y-16796714D02*
X7866428Y-16596714D01*
X7866428Y-16625286D02*
X7880714Y-16611000D01*
X7909286Y-16596714D01*
X7952143Y-16596714D01*
X7980714Y-16611000D01*
X7995000Y-16639571D01*
X7995000Y-16796714D01*
X7995000Y-16639571D02*
X8009286Y-16611000D01*
X8037857Y-16596714D01*
X8080714Y-16596714D01*
X8109286Y-16611000D01*
X8123571Y-16639571D01*
X8123571Y-16796714D01*
X8709286Y-16482429D02*
X8452143Y-16868143D01*
X9095000Y-16496714D02*
X9123571Y-16496714D01*
X9152143Y-16511000D01*
X9166428Y-16525286D01*
X9180714Y-16553857D01*
X9195000Y-16611000D01*
X9195000Y-16682429D01*
X9180714Y-16739571D01*
X9166428Y-16768143D01*
X9152143Y-16782429D01*
X9123571Y-16796714D01*
X9095000Y-16796714D01*
X9066428Y-16782429D01*
X9052143Y-16768143D01*
X9037857Y-16739571D01*
X9023571Y-16682429D01*
X9023571Y-16611000D01*
X9037857Y-16553857D01*
X9052143Y-16525286D01*
X9066428Y-16511000D01*
X9095000Y-16496714D01*
X9323571Y-16768143D02*
X9337857Y-16782429D01*
X9323571Y-16796714D01*
X9309286Y-16782429D01*
X9323571Y-16768143D01*
X9323571Y-16796714D01*
X9523571Y-16496714D02*
X9552143Y-16496714D01*
X9580714Y-16511000D01*
X9595000Y-16525286D01*
X9609286Y-16553857D01*
X9623571Y-16611000D01*
X9623571Y-16682429D01*
X9609286Y-16739571D01*
X9595000Y-16768143D01*
X9580714Y-16782429D01*
X9552143Y-16796714D01*
X9523571Y-16796714D01*
X9495000Y-16782429D01*
X9480714Y-16768143D01*
X9466428Y-16739571D01*
X9452143Y-16682429D01*
X9452143Y-16611000D01*
X9466428Y-16553857D01*
X9480714Y-16525286D01*
X9495000Y-16511000D01*
X9523571Y-16496714D01*
X9723571Y-16496714D02*
X9909286Y-16496714D01*
X9809286Y-16611000D01*
X9852143Y-16611000D01*
X9880714Y-16625286D01*
X9895000Y-16639571D01*
X9909286Y-16668143D01*
X9909286Y-16739571D01*
X9895000Y-16768143D01*
X9880714Y-16782429D01*
X9852143Y-16796714D01*
X9766428Y-16796714D01*
X9737857Y-16782429D01*
X9723571Y-16768143D01*
X10023571Y-16525286D02*
X10037857Y-16511000D01*
X10066428Y-16496714D01*
X10137857Y-16496714D01*
X10166428Y-16511000D01*
X10180714Y-16525286D01*
X10195000Y-16553857D01*
X10195000Y-16582429D01*
X10180714Y-16625286D01*
X10009286Y-16796714D01*
X10195000Y-16796714D01*
X10309286Y-16496714D02*
X10309286Y-16553857D01*
X10423571Y-16496714D02*
X10423571Y-16553857D01*
X10866428Y-16911000D02*
X10852143Y-16896714D01*
X10823571Y-16853857D01*
X10809286Y-16825286D01*
X10795000Y-16782429D01*
X10780714Y-16711000D01*
X10780714Y-16653857D01*
X10795000Y-16582429D01*
X10809286Y-16539571D01*
X10823571Y-16511000D01*
X10852143Y-16468143D01*
X10866428Y-16453857D01*
X10966428Y-16525286D02*
X10980714Y-16511000D01*
X11009286Y-16496714D01*
X11080714Y-16496714D01*
X11109286Y-16511000D01*
X11123571Y-16525286D01*
X11137857Y-16553857D01*
X11137857Y-16582429D01*
X11123571Y-16625286D01*
X10952143Y-16796714D01*
X11137857Y-16796714D01*
X11495000Y-16796714D02*
X11495000Y-16496714D01*
X11623571Y-16796714D02*
X11623571Y-16639571D01*
X11609285Y-16611000D01*
X11580714Y-16596714D01*
X11537857Y-16596714D01*
X11509285Y-16611000D01*
X11495000Y-16625286D01*
X11809285Y-16796714D02*
X11780714Y-16782429D01*
X11766428Y-16768143D01*
X11752143Y-16739571D01*
X11752143Y-16653857D01*
X11766428Y-16625286D01*
X11780714Y-16611000D01*
X11809285Y-16596714D01*
X11852143Y-16596714D01*
X11880714Y-16611000D01*
X11895000Y-16625286D01*
X11909285Y-16653857D01*
X11909285Y-16739571D01*
X11895000Y-16768143D01*
X11880714Y-16782429D01*
X11852143Y-16796714D01*
X11809285Y-16796714D01*
X12080714Y-16796714D02*
X12052143Y-16782429D01*
X12037857Y-16753857D01*
X12037857Y-16496714D01*
X12309286Y-16782429D02*
X12280714Y-16796714D01*
X12223571Y-16796714D01*
X12195000Y-16782429D01*
X12180714Y-16753857D01*
X12180714Y-16639571D01*
X12195000Y-16611000D01*
X12223571Y-16596714D01*
X12280714Y-16596714D01*
X12309286Y-16611000D01*
X12323571Y-16639571D01*
X12323571Y-16668143D01*
X12180714Y-16696714D01*
X12437857Y-16782429D02*
X12466428Y-16796714D01*
X12523571Y-16796714D01*
X12552143Y-16782429D01*
X12566428Y-16753857D01*
X12566428Y-16739571D01*
X12552143Y-16711000D01*
X12523571Y-16696714D01*
X12480714Y-16696714D01*
X12452143Y-16682429D01*
X12437857Y-16653857D01*
X12437857Y-16639571D01*
X12452143Y-16611000D01*
X12480714Y-16596714D01*
X12523571Y-16596714D01*
X12552143Y-16611000D01*
X12666428Y-16911000D02*
X12680714Y-16896714D01*
X12709286Y-16853857D01*
X12723571Y-16825286D01*
X12737857Y-16782429D01*
X12752143Y-16711000D01*
X12752143Y-16653857D01*
X12737857Y-16582429D01*
X12723571Y-16539571D01*
X12709286Y-16511000D01*
X12680714Y-16468143D01*
X12666428Y-16453857D01*
X6154360Y-17016360D02*
X6154360Y-17097640D01*
X6113720Y-17057000D02*
X6195000Y-17057000D01*
X6523571Y-16892714D02*
X6552143Y-16892714D01*
X6580714Y-16907000D01*
X6595000Y-16921286D01*
X6609286Y-16949857D01*
X6623571Y-17007000D01*
X6623571Y-17078429D01*
X6609286Y-17135572D01*
X6595000Y-17164143D01*
X6580714Y-17178429D01*
X6552143Y-17192714D01*
X6523571Y-17192714D01*
X6495000Y-17178429D01*
X6480714Y-17164143D01*
X6466428Y-17135572D01*
X6452143Y-17078429D01*
X6452143Y-17007000D01*
X6466428Y-16949857D01*
X6480714Y-16921286D01*
X6495000Y-16907000D01*
X6523571Y-16892714D01*
X6752143Y-17164143D02*
X6766428Y-17178429D01*
X6752143Y-17192714D01*
X6737857Y-17178429D01*
X6752143Y-17164143D01*
X6752143Y-17192714D01*
X6937857Y-17021286D02*
X6909286Y-17007000D01*
X6895000Y-16992714D01*
X6880714Y-16964143D01*
X6880714Y-16949857D01*
X6895000Y-16921286D01*
X6909286Y-16907000D01*
X6937857Y-16892714D01*
X6995000Y-16892714D01*
X7023571Y-16907000D01*
X7037857Y-16921286D01*
X7052143Y-16949857D01*
X7052143Y-16964143D01*
X7037857Y-16992714D01*
X7023571Y-17007000D01*
X6995000Y-17021286D01*
X6937857Y-17021286D01*
X6909286Y-17035572D01*
X6895000Y-17049857D01*
X6880714Y-17078429D01*
X6880714Y-17135572D01*
X6895000Y-17164143D01*
X6909286Y-17178429D01*
X6937857Y-17192714D01*
X6995000Y-17192714D01*
X7023571Y-17178429D01*
X7037857Y-17164143D01*
X7052143Y-17135572D01*
X7052143Y-17078429D01*
X7037857Y-17049857D01*
X7023571Y-17035572D01*
X6995000Y-17021286D01*
X7337857Y-17192714D02*
X7166428Y-17192714D01*
X7252143Y-17192714D02*
X7252143Y-16892714D01*
X7223571Y-16935572D01*
X7195000Y-16964143D01*
X7166428Y-16978429D01*
X7466428Y-17192714D02*
X7466428Y-16992714D01*
X7466428Y-17021286D02*
X7480714Y-17007000D01*
X7509286Y-16992714D01*
X7552143Y-16992714D01*
X7580714Y-17007000D01*
X7595000Y-17035572D01*
X7595000Y-17192714D01*
X7595000Y-17035572D02*
X7609286Y-17007000D01*
X7637857Y-16992714D01*
X7680714Y-16992714D01*
X7709286Y-17007000D01*
X7723571Y-17035572D01*
X7723571Y-17192714D01*
X7866428Y-17192714D02*
X7866428Y-16992714D01*
X7866428Y-17021286D02*
X7880714Y-17007000D01*
X7909286Y-16992714D01*
X7952143Y-16992714D01*
X7980714Y-17007000D01*
X7995000Y-17035572D01*
X7995000Y-17192714D01*
X7995000Y-17035572D02*
X8009286Y-17007000D01*
X8037857Y-16992714D01*
X8080714Y-16992714D01*
X8109286Y-17007000D01*
X8123571Y-17035572D01*
X8123571Y-17192714D01*
X8709286Y-16878429D02*
X8452143Y-17264143D01*
X9095000Y-16892714D02*
X9123571Y-16892714D01*
X9152143Y-16907000D01*
X9166428Y-16921286D01*
X9180714Y-16949857D01*
X9195000Y-17007000D01*
X9195000Y-17078429D01*
X9180714Y-17135572D01*
X9166428Y-17164143D01*
X9152143Y-17178429D01*
X9123571Y-17192714D01*
X9095000Y-17192714D01*
X9066428Y-17178429D01*
X9052143Y-17164143D01*
X9037857Y-17135572D01*
X9023571Y-17078429D01*
X9023571Y-17007000D01*
X9037857Y-16949857D01*
X9052143Y-16921286D01*
X9066428Y-16907000D01*
X9095000Y-16892714D01*
X9323571Y-17164143D02*
X9337857Y-17178429D01*
X9323571Y-17192714D01*
X9309286Y-17178429D01*
X9323571Y-17164143D01*
X9323571Y-17192714D01*
X9523571Y-16892714D02*
X9552143Y-16892714D01*
X9580714Y-16907000D01*
X9595000Y-16921286D01*
X9609286Y-16949857D01*
X9623571Y-17007000D01*
X9623571Y-17078429D01*
X9609286Y-17135572D01*
X9595000Y-17164143D01*
X9580714Y-17178429D01*
X9552143Y-17192714D01*
X9523571Y-17192714D01*
X9495000Y-17178429D01*
X9480714Y-17164143D01*
X9466428Y-17135572D01*
X9452143Y-17078429D01*
X9452143Y-17007000D01*
X9466428Y-16949857D01*
X9480714Y-16921286D01*
X9495000Y-16907000D01*
X9523571Y-16892714D01*
X9723571Y-16892714D02*
X9909286Y-16892714D01*
X9809286Y-17007000D01*
X9852143Y-17007000D01*
X9880714Y-17021286D01*
X9895000Y-17035572D01*
X9909286Y-17064143D01*
X9909286Y-17135572D01*
X9895000Y-17164143D01*
X9880714Y-17178429D01*
X9852143Y-17192714D01*
X9766428Y-17192714D01*
X9737857Y-17178429D01*
X9723571Y-17164143D01*
X10023571Y-16921286D02*
X10037857Y-16907000D01*
X10066428Y-16892714D01*
X10137857Y-16892714D01*
X10166428Y-16907000D01*
X10180714Y-16921286D01*
X10195000Y-16949857D01*
X10195000Y-16978429D01*
X10180714Y-17021286D01*
X10009286Y-17192714D01*
X10195000Y-17192714D01*
X10309286Y-16892714D02*
X10309286Y-16949857D01*
X10423571Y-16892714D02*
X10423571Y-16949857D01*
X10866428Y-17307000D02*
X10852143Y-17292714D01*
X10823571Y-17249857D01*
X10809286Y-17221286D01*
X10795000Y-17178429D01*
X10780714Y-17107000D01*
X10780714Y-17049857D01*
X10795000Y-16978429D01*
X10809286Y-16935572D01*
X10823571Y-16907000D01*
X10852143Y-16864143D01*
X10866428Y-16849857D01*
X10966428Y-16921286D02*
X10980714Y-16907000D01*
X11009286Y-16892714D01*
X11080714Y-16892714D01*
X11109286Y-16907000D01*
X11123571Y-16921286D01*
X11137857Y-16949857D01*
X11137857Y-16978429D01*
X11123571Y-17021286D01*
X10952143Y-17192714D01*
X11137857Y-17192714D01*
X11495000Y-17192714D02*
X11495000Y-16892714D01*
X11623571Y-17192714D02*
X11623571Y-17035572D01*
X11609285Y-17007000D01*
X11580714Y-16992714D01*
X11537857Y-16992714D01*
X11509285Y-17007000D01*
X11495000Y-17021286D01*
X11809285Y-17192714D02*
X11780714Y-17178429D01*
X11766428Y-17164143D01*
X11752143Y-17135572D01*
X11752143Y-17049857D01*
X11766428Y-17021286D01*
X11780714Y-17007000D01*
X11809285Y-16992714D01*
X11852143Y-16992714D01*
X11880714Y-17007000D01*
X11895000Y-17021286D01*
X11909285Y-17049857D01*
X11909285Y-17135572D01*
X11895000Y-17164143D01*
X11880714Y-17178429D01*
X11852143Y-17192714D01*
X11809285Y-17192714D01*
X12080714Y-17192714D02*
X12052143Y-17178429D01*
X12037857Y-17149857D01*
X12037857Y-16892714D01*
X12309286Y-17178429D02*
X12280714Y-17192714D01*
X12223571Y-17192714D01*
X12195000Y-17178429D01*
X12180714Y-17149857D01*
X12180714Y-17035572D01*
X12195000Y-17007000D01*
X12223571Y-16992714D01*
X12280714Y-16992714D01*
X12309286Y-17007000D01*
X12323571Y-17035572D01*
X12323571Y-17064143D01*
X12180714Y-17092714D01*
X12437857Y-17178429D02*
X12466428Y-17192714D01*
X12523571Y-17192714D01*
X12552143Y-17178429D01*
X12566428Y-17149857D01*
X12566428Y-17135572D01*
X12552143Y-17107000D01*
X12523571Y-17092714D01*
X12480714Y-17092714D01*
X12452143Y-17078429D01*
X12437857Y-17049857D01*
X12437857Y-17035572D01*
X12452143Y-17007000D01*
X12480714Y-16992714D01*
X12523571Y-16992714D01*
X12552143Y-17007000D01*
X12666428Y-17307000D02*
X12680714Y-17292714D01*
X12709286Y-17249857D01*
X12723571Y-17221286D01*
X12737857Y-17178429D01*
X12752143Y-17107000D01*
X12752143Y-17049857D01*
X12737857Y-16978429D01*
X12723571Y-16935572D01*
X12709286Y-16907000D01*
X12680714Y-16864143D01*
X12666428Y-16849857D01*
X6180356Y-17488356D02*
X6180356Y-17417644D01*
X6109644Y-17417644D01*
X6109644Y-17488356D01*
X6180356Y-17488356D01*
X6623571Y-17588714D02*
X6452143Y-17588714D01*
X6537857Y-17588714D02*
X6537857Y-17288714D01*
X6509286Y-17331572D01*
X6480714Y-17360143D01*
X6452143Y-17374429D01*
X6752143Y-17560143D02*
X6766428Y-17574429D01*
X6752143Y-17588714D01*
X6737857Y-17574429D01*
X6752143Y-17560143D01*
X6752143Y-17588714D01*
X6952143Y-17288714D02*
X6980714Y-17288714D01*
X7009286Y-17303000D01*
X7023571Y-17317286D01*
X7037857Y-17345857D01*
X7052143Y-17403000D01*
X7052143Y-17474429D01*
X7037857Y-17531572D01*
X7023571Y-17560143D01*
X7009286Y-17574429D01*
X6980714Y-17588714D01*
X6952143Y-17588714D01*
X6923571Y-17574429D01*
X6909286Y-17560143D01*
X6895000Y-17531572D01*
X6880714Y-17474429D01*
X6880714Y-17403000D01*
X6895000Y-17345857D01*
X6909286Y-17317286D01*
X6923571Y-17303000D01*
X6952143Y-17288714D01*
X7237857Y-17288714D02*
X7266428Y-17288714D01*
X7295000Y-17303000D01*
X7309286Y-17317286D01*
X7323571Y-17345857D01*
X7337857Y-17403000D01*
X7337857Y-17474429D01*
X7323571Y-17531572D01*
X7309286Y-17560143D01*
X7295000Y-17574429D01*
X7266428Y-17588714D01*
X7237857Y-17588714D01*
X7209286Y-17574429D01*
X7195000Y-17560143D01*
X7180714Y-17531572D01*
X7166428Y-17474429D01*
X7166428Y-17403000D01*
X7180714Y-17345857D01*
X7195000Y-17317286D01*
X7209286Y-17303000D01*
X7237857Y-17288714D01*
X7466428Y-17588714D02*
X7466428Y-17388714D01*
X7466428Y-17417286D02*
X7480714Y-17403000D01*
X7509286Y-17388714D01*
X7552143Y-17388714D01*
X7580714Y-17403000D01*
X7595000Y-17431572D01*
X7595000Y-17588714D01*
X7595000Y-17431572D02*
X7609286Y-17403000D01*
X7637857Y-17388714D01*
X7680714Y-17388714D01*
X7709286Y-17403000D01*
X7723571Y-17431572D01*
X7723571Y-17588714D01*
X7866428Y-17588714D02*
X7866428Y-17388714D01*
X7866428Y-17417286D02*
X7880714Y-17403000D01*
X7909286Y-17388714D01*
X7952143Y-17388714D01*
X7980714Y-17403000D01*
X7995000Y-17431572D01*
X7995000Y-17588714D01*
X7995000Y-17431572D02*
X8009286Y-17403000D01*
X8037857Y-17388714D01*
X8080714Y-17388714D01*
X8109286Y-17403000D01*
X8123571Y-17431572D01*
X8123571Y-17588714D01*
X8709286Y-17274429D02*
X8452143Y-17660143D01*
X9095000Y-17288714D02*
X9123571Y-17288714D01*
X9152143Y-17303000D01*
X9166428Y-17317286D01*
X9180714Y-17345857D01*
X9195000Y-17403000D01*
X9195000Y-17474429D01*
X9180714Y-17531572D01*
X9166428Y-17560143D01*
X9152143Y-17574429D01*
X9123571Y-17588714D01*
X9095000Y-17588714D01*
X9066428Y-17574429D01*
X9052143Y-17560143D01*
X9037857Y-17531572D01*
X9023571Y-17474429D01*
X9023571Y-17403000D01*
X9037857Y-17345857D01*
X9052143Y-17317286D01*
X9066428Y-17303000D01*
X9095000Y-17288714D01*
X9323571Y-17560143D02*
X9337857Y-17574429D01*
X9323571Y-17588714D01*
X9309286Y-17574429D01*
X9323571Y-17560143D01*
X9323571Y-17588714D01*
X9523571Y-17288714D02*
X9552143Y-17288714D01*
X9580714Y-17303000D01*
X9595000Y-17317286D01*
X9609286Y-17345857D01*
X9623571Y-17403000D01*
X9623571Y-17474429D01*
X9609286Y-17531572D01*
X9595000Y-17560143D01*
X9580714Y-17574429D01*
X9552143Y-17588714D01*
X9523571Y-17588714D01*
X9495000Y-17574429D01*
X9480714Y-17560143D01*
X9466428Y-17531572D01*
X9452143Y-17474429D01*
X9452143Y-17403000D01*
X9466428Y-17345857D01*
X9480714Y-17317286D01*
X9495000Y-17303000D01*
X9523571Y-17288714D01*
X9723571Y-17288714D02*
X9909286Y-17288714D01*
X9809286Y-17403000D01*
X9852143Y-17403000D01*
X9880714Y-17417286D01*
X9895000Y-17431572D01*
X9909286Y-17460143D01*
X9909286Y-17531572D01*
X9895000Y-17560143D01*
X9880714Y-17574429D01*
X9852143Y-17588714D01*
X9766428Y-17588714D01*
X9737857Y-17574429D01*
X9723571Y-17560143D01*
X10052143Y-17588714D02*
X10109286Y-17588714D01*
X10137857Y-17574429D01*
X10152143Y-17560143D01*
X10180714Y-17517286D01*
X10195000Y-17460143D01*
X10195000Y-17345857D01*
X10180714Y-17317286D01*
X10166428Y-17303000D01*
X10137857Y-17288714D01*
X10080714Y-17288714D01*
X10052143Y-17303000D01*
X10037857Y-17317286D01*
X10023571Y-17345857D01*
X10023571Y-17417286D01*
X10037857Y-17445857D01*
X10052143Y-17460143D01*
X10080714Y-17474429D01*
X10137857Y-17474429D01*
X10166428Y-17460143D01*
X10180714Y-17445857D01*
X10195000Y-17417286D01*
X10309286Y-17288714D02*
X10309286Y-17345857D01*
X10423571Y-17288714D02*
X10423571Y-17345857D01*
X10866428Y-17703000D02*
X10852143Y-17688714D01*
X10823571Y-17645857D01*
X10809286Y-17617286D01*
X10795000Y-17574429D01*
X10780714Y-17503000D01*
X10780714Y-17445857D01*
X10795000Y-17374429D01*
X10809286Y-17331572D01*
X10823571Y-17303000D01*
X10852143Y-17260143D01*
X10866428Y-17245857D01*
X10966428Y-17317286D02*
X10980714Y-17303000D01*
X11009286Y-17288714D01*
X11080714Y-17288714D01*
X11109286Y-17303000D01*
X11123571Y-17317286D01*
X11137857Y-17345857D01*
X11137857Y-17374429D01*
X11123571Y-17417286D01*
X10952143Y-17588714D01*
X11137857Y-17588714D01*
X11323571Y-17288714D02*
X11352143Y-17288714D01*
X11380714Y-17303000D01*
X11395000Y-17317286D01*
X11409285Y-17345857D01*
X11423571Y-17403000D01*
X11423571Y-17474429D01*
X11409285Y-17531572D01*
X11395000Y-17560143D01*
X11380714Y-17574429D01*
X11352143Y-17588714D01*
X11323571Y-17588714D01*
X11295000Y-17574429D01*
X11280714Y-17560143D01*
X11266428Y-17531572D01*
X11252143Y-17474429D01*
X11252143Y-17403000D01*
X11266428Y-17345857D01*
X11280714Y-17317286D01*
X11295000Y-17303000D01*
X11323571Y-17288714D01*
X11780714Y-17588714D02*
X11780714Y-17288714D01*
X11909285Y-17588714D02*
X11909285Y-17431572D01*
X11895000Y-17403000D01*
X11866428Y-17388714D01*
X11823571Y-17388714D01*
X11795000Y-17403000D01*
X11780714Y-17417286D01*
X12095000Y-17588714D02*
X12066428Y-17574429D01*
X12052143Y-17560143D01*
X12037857Y-17531572D01*
X12037857Y-17445857D01*
X12052143Y-17417286D01*
X12066428Y-17403000D01*
X12095000Y-17388714D01*
X12137857Y-17388714D01*
X12166428Y-17403000D01*
X12180714Y-17417286D01*
X12195000Y-17445857D01*
X12195000Y-17531572D01*
X12180714Y-17560143D01*
X12166428Y-17574429D01*
X12137857Y-17588714D01*
X12095000Y-17588714D01*
X12366428Y-17588714D02*
X12337857Y-17574429D01*
X12323571Y-17545857D01*
X12323571Y-17288714D01*
X12595000Y-17574429D02*
X12566428Y-17588714D01*
X12509286Y-17588714D01*
X12480714Y-17574429D01*
X12466428Y-17545857D01*
X12466428Y-17431572D01*
X12480714Y-17403000D01*
X12509286Y-17388714D01*
X12566428Y-17388714D01*
X12595000Y-17403000D01*
X12609286Y-17431572D01*
X12609286Y-17460143D01*
X12466428Y-17488714D01*
X12723571Y-17574429D02*
X12752143Y-17588714D01*
X12809286Y-17588714D01*
X12837857Y-17574429D01*
X12852143Y-17545857D01*
X12852143Y-17531572D01*
X12837857Y-17503000D01*
X12809286Y-17488714D01*
X12766428Y-17488714D01*
X12737857Y-17474429D01*
X12723571Y-17445857D01*
X12723571Y-17431572D01*
X12737857Y-17403000D01*
X12766428Y-17388714D01*
X12809286Y-17388714D01*
X12837857Y-17403000D01*
X12952143Y-17703000D02*
X12966428Y-17688714D01*
X12995000Y-17645857D01*
X13009286Y-17617286D01*
X13023571Y-17574429D01*
X13037857Y-17503000D01*
X13037857Y-17445857D01*
X13023571Y-17374429D01*
X13009286Y-17331572D01*
X12995000Y-17303000D01*
X12966428Y-17260143D01*
X12952143Y-17245857D01*
X6144962Y-17899038D02*
X6195000Y-17849000D01*
X6144962Y-17798962D01*
X6094924Y-17849000D01*
X6144962Y-17899038D01*
X6623571Y-17984714D02*
X6452143Y-17984714D01*
X6537857Y-17984714D02*
X6537857Y-17684714D01*
X6509286Y-17727572D01*
X6480714Y-17756143D01*
X6452143Y-17770429D01*
X6752143Y-17956143D02*
X6766428Y-17970429D01*
X6752143Y-17984714D01*
X6737857Y-17970429D01*
X6752143Y-17956143D01*
X6752143Y-17984714D01*
X6952143Y-17684714D02*
X6980714Y-17684714D01*
X7009286Y-17699000D01*
X7023571Y-17713286D01*
X7037857Y-17741857D01*
X7052143Y-17799000D01*
X7052143Y-17870429D01*
X7037857Y-17927572D01*
X7023571Y-17956143D01*
X7009286Y-17970429D01*
X6980714Y-17984714D01*
X6952143Y-17984714D01*
X6923571Y-17970429D01*
X6909286Y-17956143D01*
X6895000Y-17927572D01*
X6880714Y-17870429D01*
X6880714Y-17799000D01*
X6895000Y-17741857D01*
X6909286Y-17713286D01*
X6923571Y-17699000D01*
X6952143Y-17684714D01*
X7237857Y-17684714D02*
X7266428Y-17684714D01*
X7295000Y-17699000D01*
X7309286Y-17713286D01*
X7323571Y-17741857D01*
X7337857Y-17799000D01*
X7337857Y-17870429D01*
X7323571Y-17927572D01*
X7309286Y-17956143D01*
X7295000Y-17970429D01*
X7266428Y-17984714D01*
X7237857Y-17984714D01*
X7209286Y-17970429D01*
X7195000Y-17956143D01*
X7180714Y-17927572D01*
X7166428Y-17870429D01*
X7166428Y-17799000D01*
X7180714Y-17741857D01*
X7195000Y-17713286D01*
X7209286Y-17699000D01*
X7237857Y-17684714D01*
X7466428Y-17984714D02*
X7466428Y-17784714D01*
X7466428Y-17813286D02*
X7480714Y-17799000D01*
X7509286Y-17784714D01*
X7552143Y-17784714D01*
X7580714Y-17799000D01*
X7595000Y-17827572D01*
X7595000Y-17984714D01*
X7595000Y-17827572D02*
X7609286Y-17799000D01*
X7637857Y-17784714D01*
X7680714Y-17784714D01*
X7709286Y-17799000D01*
X7723571Y-17827572D01*
X7723571Y-17984714D01*
X7866428Y-17984714D02*
X7866428Y-17784714D01*
X7866428Y-17813286D02*
X7880714Y-17799000D01*
X7909286Y-17784714D01*
X7952143Y-17784714D01*
X7980714Y-17799000D01*
X7995000Y-17827572D01*
X7995000Y-17984714D01*
X7995000Y-17827572D02*
X8009286Y-17799000D01*
X8037857Y-17784714D01*
X8080714Y-17784714D01*
X8109286Y-17799000D01*
X8123571Y-17827572D01*
X8123571Y-17984714D01*
X8709286Y-17670429D02*
X8452143Y-18056143D01*
X9095000Y-17684714D02*
X9123571Y-17684714D01*
X9152143Y-17699000D01*
X9166428Y-17713286D01*
X9180714Y-17741857D01*
X9195000Y-17799000D01*
X9195000Y-17870429D01*
X9180714Y-17927572D01*
X9166428Y-17956143D01*
X9152143Y-17970429D01*
X9123571Y-17984714D01*
X9095000Y-17984714D01*
X9066428Y-17970429D01*
X9052143Y-17956143D01*
X9037857Y-17927572D01*
X9023571Y-17870429D01*
X9023571Y-17799000D01*
X9037857Y-17741857D01*
X9052143Y-17713286D01*
X9066428Y-17699000D01*
X9095000Y-17684714D01*
X9323571Y-17956143D02*
X9337857Y-17970429D01*
X9323571Y-17984714D01*
X9309286Y-17970429D01*
X9323571Y-17956143D01*
X9323571Y-17984714D01*
X9523571Y-17684714D02*
X9552143Y-17684714D01*
X9580714Y-17699000D01*
X9595000Y-17713286D01*
X9609286Y-17741857D01*
X9623571Y-17799000D01*
X9623571Y-17870429D01*
X9609286Y-17927572D01*
X9595000Y-17956143D01*
X9580714Y-17970429D01*
X9552143Y-17984714D01*
X9523571Y-17984714D01*
X9495000Y-17970429D01*
X9480714Y-17956143D01*
X9466428Y-17927572D01*
X9452143Y-17870429D01*
X9452143Y-17799000D01*
X9466428Y-17741857D01*
X9480714Y-17713286D01*
X9495000Y-17699000D01*
X9523571Y-17684714D01*
X9723571Y-17684714D02*
X9909286Y-17684714D01*
X9809286Y-17799000D01*
X9852143Y-17799000D01*
X9880714Y-17813286D01*
X9895000Y-17827572D01*
X9909286Y-17856143D01*
X9909286Y-17927572D01*
X9895000Y-17956143D01*
X9880714Y-17970429D01*
X9852143Y-17984714D01*
X9766428Y-17984714D01*
X9737857Y-17970429D01*
X9723571Y-17956143D01*
X10052143Y-17984714D02*
X10109286Y-17984714D01*
X10137857Y-17970429D01*
X10152143Y-17956143D01*
X10180714Y-17913286D01*
X10195000Y-17856143D01*
X10195000Y-17741857D01*
X10180714Y-17713286D01*
X10166428Y-17699000D01*
X10137857Y-17684714D01*
X10080714Y-17684714D01*
X10052143Y-17699000D01*
X10037857Y-17713286D01*
X10023571Y-17741857D01*
X10023571Y-17813286D01*
X10037857Y-17841857D01*
X10052143Y-17856143D01*
X10080714Y-17870429D01*
X10137857Y-17870429D01*
X10166428Y-17856143D01*
X10180714Y-17841857D01*
X10195000Y-17813286D01*
X10309286Y-17684714D02*
X10309286Y-17741857D01*
X10423571Y-17684714D02*
X10423571Y-17741857D01*
X10866428Y-18099000D02*
X10852143Y-18084714D01*
X10823571Y-18041857D01*
X10809286Y-18013286D01*
X10795000Y-17970429D01*
X10780714Y-17899000D01*
X10780714Y-17841857D01*
X10795000Y-17770429D01*
X10809286Y-17727572D01*
X10823571Y-17699000D01*
X10852143Y-17656143D01*
X10866428Y-17641857D01*
X10952143Y-17684714D02*
X11152143Y-17684714D01*
X11023571Y-17984714D01*
X11252143Y-17713286D02*
X11266428Y-17699000D01*
X11295000Y-17684714D01*
X11366428Y-17684714D01*
X11395000Y-17699000D01*
X11409285Y-17713286D01*
X11423571Y-17741857D01*
X11423571Y-17770429D01*
X11409285Y-17813286D01*
X11237857Y-17984714D01*
X11423571Y-17984714D01*
X11780714Y-17984714D02*
X11780714Y-17684714D01*
X11909285Y-17984714D02*
X11909285Y-17827572D01*
X11895000Y-17799000D01*
X11866428Y-17784714D01*
X11823571Y-17784714D01*
X11795000Y-17799000D01*
X11780714Y-17813286D01*
X12095000Y-17984714D02*
X12066428Y-17970429D01*
X12052143Y-17956143D01*
X12037857Y-17927572D01*
X12037857Y-17841857D01*
X12052143Y-17813286D01*
X12066428Y-17799000D01*
X12095000Y-17784714D01*
X12137857Y-17784714D01*
X12166428Y-17799000D01*
X12180714Y-17813286D01*
X12195000Y-17841857D01*
X12195000Y-17927572D01*
X12180714Y-17956143D01*
X12166428Y-17970429D01*
X12137857Y-17984714D01*
X12095000Y-17984714D01*
X12366428Y-17984714D02*
X12337857Y-17970429D01*
X12323571Y-17941857D01*
X12323571Y-17684714D01*
X12595000Y-17970429D02*
X12566428Y-17984714D01*
X12509286Y-17984714D01*
X12480714Y-17970429D01*
X12466428Y-17941857D01*
X12466428Y-17827572D01*
X12480714Y-17799000D01*
X12509286Y-17784714D01*
X12566428Y-17784714D01*
X12595000Y-17799000D01*
X12609286Y-17827572D01*
X12609286Y-17856143D01*
X12466428Y-17884714D01*
X12723571Y-17970429D02*
X12752143Y-17984714D01*
X12809286Y-17984714D01*
X12837857Y-17970429D01*
X12852143Y-17941857D01*
X12852143Y-17927572D01*
X12837857Y-17899000D01*
X12809286Y-17884714D01*
X12766428Y-17884714D01*
X12737857Y-17870429D01*
X12723571Y-17841857D01*
X12723571Y-17827572D01*
X12737857Y-17799000D01*
X12766428Y-17784714D01*
X12809286Y-17784714D01*
X12837857Y-17799000D01*
X13209286Y-17870429D02*
X13437857Y-17870429D01*
X13323571Y-17984714D02*
X13323571Y-17756143D01*
X13780714Y-17684714D02*
X13966428Y-17684714D01*
X13866428Y-17799000D01*
X13909286Y-17799000D01*
X13937857Y-17813286D01*
X13952143Y-17827572D01*
X13966428Y-17856143D01*
X13966428Y-17927572D01*
X13952143Y-17956143D01*
X13937857Y-17970429D01*
X13909286Y-17984714D01*
X13823571Y-17984714D01*
X13795000Y-17970429D01*
X13780714Y-17956143D01*
X14309286Y-17970429D02*
X14337857Y-17984714D01*
X14395000Y-17984714D01*
X14423571Y-17970429D01*
X14437857Y-17941857D01*
X14437857Y-17927572D01*
X14423571Y-17899000D01*
X14395000Y-17884714D01*
X14352143Y-17884714D01*
X14323571Y-17870429D01*
X14309286Y-17841857D01*
X14309286Y-17827572D01*
X14323571Y-17799000D01*
X14352143Y-17784714D01*
X14395000Y-17784714D01*
X14423571Y-17799000D01*
X14609285Y-17984714D02*
X14580714Y-17970429D01*
X14566428Y-17941857D01*
X14566428Y-17684714D01*
X14766428Y-17984714D02*
X14737857Y-17970429D01*
X14723571Y-17956143D01*
X14709286Y-17927572D01*
X14709286Y-17841857D01*
X14723571Y-17813286D01*
X14737857Y-17799000D01*
X14766428Y-17784714D01*
X14809286Y-17784714D01*
X14837857Y-17799000D01*
X14852143Y-17813286D01*
X14866428Y-17841857D01*
X14866428Y-17927572D01*
X14852143Y-17956143D01*
X14837857Y-17970429D01*
X14809286Y-17984714D01*
X14766428Y-17984714D01*
X14952143Y-17784714D02*
X15066428Y-17784714D01*
X14995000Y-17684714D02*
X14995000Y-17941857D01*
X15009286Y-17970429D01*
X15037857Y-17984714D01*
X15066428Y-17984714D01*
X15152143Y-17970429D02*
X15180714Y-17984714D01*
X15237857Y-17984714D01*
X15266428Y-17970429D01*
X15280714Y-17941857D01*
X15280714Y-17927572D01*
X15266428Y-17899000D01*
X15237857Y-17884714D01*
X15195000Y-17884714D01*
X15166428Y-17870429D01*
X15152143Y-17841857D01*
X15152143Y-17827572D01*
X15166428Y-17799000D01*
X15195000Y-17784714D01*
X15237857Y-17784714D01*
X15266428Y-17799000D01*
X15380714Y-18099000D02*
X15395000Y-18084714D01*
X15423571Y-18041857D01*
X15437857Y-18013286D01*
X15452143Y-17970429D01*
X15466428Y-17899000D01*
X15466428Y-17841857D01*
X15452143Y-17770429D01*
X15437857Y-17727572D01*
X15423571Y-17699000D01*
X15395000Y-17656143D01*
X15380714Y-17641857D01*
X6085000Y-18190000D02*
X6195000Y-18300000D01*
X6195000Y-18190000D02*
X6085000Y-18300000D01*
X6195000Y-18245000D02*
G75*
G03X6195000Y-18245000I-55000J0D01*
G01*
X6623571Y-18380714D02*
X6452143Y-18380714D01*
X6537857Y-18380714D02*
X6537857Y-18080714D01*
X6509286Y-18123572D01*
X6480714Y-18152143D01*
X6452143Y-18166429D01*
X6752143Y-18352143D02*
X6766428Y-18366429D01*
X6752143Y-18380714D01*
X6737857Y-18366429D01*
X6752143Y-18352143D01*
X6752143Y-18380714D01*
X7052143Y-18380714D02*
X6880714Y-18380714D01*
X6966428Y-18380714D02*
X6966428Y-18080714D01*
X6937857Y-18123572D01*
X6909286Y-18152143D01*
X6880714Y-18166429D01*
X7237857Y-18080714D02*
X7266428Y-18080714D01*
X7295000Y-18095000D01*
X7309286Y-18109286D01*
X7323571Y-18137857D01*
X7337857Y-18195000D01*
X7337857Y-18266429D01*
X7323571Y-18323572D01*
X7309286Y-18352143D01*
X7295000Y-18366429D01*
X7266428Y-18380714D01*
X7237857Y-18380714D01*
X7209286Y-18366429D01*
X7195000Y-18352143D01*
X7180714Y-18323572D01*
X7166428Y-18266429D01*
X7166428Y-18195000D01*
X7180714Y-18137857D01*
X7195000Y-18109286D01*
X7209286Y-18095000D01*
X7237857Y-18080714D01*
X7466428Y-18380714D02*
X7466428Y-18180714D01*
X7466428Y-18209286D02*
X7480714Y-18195000D01*
X7509286Y-18180714D01*
X7552143Y-18180714D01*
X7580714Y-18195000D01*
X7595000Y-18223572D01*
X7595000Y-18380714D01*
X7595000Y-18223572D02*
X7609286Y-18195000D01*
X7637857Y-18180714D01*
X7680714Y-18180714D01*
X7709286Y-18195000D01*
X7723571Y-18223572D01*
X7723571Y-18380714D01*
X7866428Y-18380714D02*
X7866428Y-18180714D01*
X7866428Y-18209286D02*
X7880714Y-18195000D01*
X7909286Y-18180714D01*
X7952143Y-18180714D01*
X7980714Y-18195000D01*
X7995000Y-18223572D01*
X7995000Y-18380714D01*
X7995000Y-18223572D02*
X8009286Y-18195000D01*
X8037857Y-18180714D01*
X8080714Y-18180714D01*
X8109286Y-18195000D01*
X8123571Y-18223572D01*
X8123571Y-18380714D01*
X8709286Y-18066429D02*
X8452143Y-18452143D01*
X9095000Y-18080714D02*
X9123571Y-18080714D01*
X9152143Y-18095000D01*
X9166428Y-18109286D01*
X9180714Y-18137857D01*
X9195000Y-18195000D01*
X9195000Y-18266429D01*
X9180714Y-18323572D01*
X9166428Y-18352143D01*
X9152143Y-18366429D01*
X9123571Y-18380714D01*
X9095000Y-18380714D01*
X9066428Y-18366429D01*
X9052143Y-18352143D01*
X9037857Y-18323572D01*
X9023571Y-18266429D01*
X9023571Y-18195000D01*
X9037857Y-18137857D01*
X9052143Y-18109286D01*
X9066428Y-18095000D01*
X9095000Y-18080714D01*
X9323571Y-18352143D02*
X9337857Y-18366429D01*
X9323571Y-18380714D01*
X9309286Y-18366429D01*
X9323571Y-18352143D01*
X9323571Y-18380714D01*
X9523571Y-18080714D02*
X9552143Y-18080714D01*
X9580714Y-18095000D01*
X9595000Y-18109286D01*
X9609286Y-18137857D01*
X9623571Y-18195000D01*
X9623571Y-18266429D01*
X9609286Y-18323572D01*
X9595000Y-18352143D01*
X9580714Y-18366429D01*
X9552143Y-18380714D01*
X9523571Y-18380714D01*
X9495000Y-18366429D01*
X9480714Y-18352143D01*
X9466428Y-18323572D01*
X9452143Y-18266429D01*
X9452143Y-18195000D01*
X9466428Y-18137857D01*
X9480714Y-18109286D01*
X9495000Y-18095000D01*
X9523571Y-18080714D01*
X9880714Y-18180714D02*
X9880714Y-18380714D01*
X9809286Y-18066429D02*
X9737857Y-18280714D01*
X9923571Y-18280714D01*
X10009286Y-18080714D02*
X10195000Y-18080714D01*
X10095000Y-18195000D01*
X10137857Y-18195000D01*
X10166428Y-18209286D01*
X10180714Y-18223572D01*
X10195000Y-18252143D01*
X10195000Y-18323572D01*
X10180714Y-18352143D01*
X10166428Y-18366429D01*
X10137857Y-18380714D01*
X10052143Y-18380714D01*
X10023571Y-18366429D01*
X10009286Y-18352143D01*
X10309286Y-18080714D02*
X10309286Y-18137857D01*
X10423571Y-18080714D02*
X10423571Y-18137857D01*
X10866428Y-18495000D02*
X10852143Y-18480714D01*
X10823571Y-18437857D01*
X10809286Y-18409286D01*
X10795000Y-18366429D01*
X10780714Y-18295000D01*
X10780714Y-18237857D01*
X10795000Y-18166429D01*
X10809286Y-18123572D01*
X10823571Y-18095000D01*
X10852143Y-18052143D01*
X10866428Y-18037857D01*
X10966428Y-18109286D02*
X10980714Y-18095000D01*
X11009286Y-18080714D01*
X11080714Y-18080714D01*
X11109286Y-18095000D01*
X11123571Y-18109286D01*
X11137857Y-18137857D01*
X11137857Y-18166429D01*
X11123571Y-18209286D01*
X10952143Y-18380714D01*
X11137857Y-18380714D01*
X11495000Y-18380714D02*
X11495000Y-18080714D01*
X11623571Y-18380714D02*
X11623571Y-18223572D01*
X11609285Y-18195000D01*
X11580714Y-18180714D01*
X11537857Y-18180714D01*
X11509285Y-18195000D01*
X11495000Y-18209286D01*
X11809285Y-18380714D02*
X11780714Y-18366429D01*
X11766428Y-18352143D01*
X11752143Y-18323572D01*
X11752143Y-18237857D01*
X11766428Y-18209286D01*
X11780714Y-18195000D01*
X11809285Y-18180714D01*
X11852143Y-18180714D01*
X11880714Y-18195000D01*
X11895000Y-18209286D01*
X11909285Y-18237857D01*
X11909285Y-18323572D01*
X11895000Y-18352143D01*
X11880714Y-18366429D01*
X11852143Y-18380714D01*
X11809285Y-18380714D01*
X12080714Y-18380714D02*
X12052143Y-18366429D01*
X12037857Y-18337857D01*
X12037857Y-18080714D01*
X12309286Y-18366429D02*
X12280714Y-18380714D01*
X12223571Y-18380714D01*
X12195000Y-18366429D01*
X12180714Y-18337857D01*
X12180714Y-18223572D01*
X12195000Y-18195000D01*
X12223571Y-18180714D01*
X12280714Y-18180714D01*
X12309286Y-18195000D01*
X12323571Y-18223572D01*
X12323571Y-18252143D01*
X12180714Y-18280714D01*
X12437857Y-18366429D02*
X12466428Y-18380714D01*
X12523571Y-18380714D01*
X12552143Y-18366429D01*
X12566428Y-18337857D01*
X12566428Y-18323572D01*
X12552143Y-18295000D01*
X12523571Y-18280714D01*
X12480714Y-18280714D01*
X12452143Y-18266429D01*
X12437857Y-18237857D01*
X12437857Y-18223572D01*
X12452143Y-18195000D01*
X12480714Y-18180714D01*
X12523571Y-18180714D01*
X12552143Y-18195000D01*
X12666428Y-18495000D02*
X12680714Y-18480714D01*
X12709286Y-18437857D01*
X12723571Y-18409286D01*
X12737857Y-18366429D01*
X12752143Y-18295000D01*
X12752143Y-18237857D01*
X12737857Y-18166429D01*
X12723571Y-18123572D01*
X12709286Y-18095000D01*
X12680714Y-18052143D01*
X12666428Y-18037857D01*
X6035000Y-18561000D02*
X6195000Y-18721000D01*
X6195000Y-18561000D02*
X6035000Y-18721000D01*
X6115000Y-18561000D02*
X6115000Y-18721000D01*
X6035000Y-18641000D02*
X6195000Y-18641000D01*
X6623571Y-18776714D02*
X6452143Y-18776714D01*
X6537857Y-18776714D02*
X6537857Y-18476714D01*
X6509286Y-18519572D01*
X6480714Y-18548143D01*
X6452143Y-18562429D01*
X6752143Y-18748143D02*
X6766428Y-18762429D01*
X6752143Y-18776714D01*
X6737857Y-18762429D01*
X6752143Y-18748143D01*
X6752143Y-18776714D01*
X7023571Y-18476714D02*
X6966428Y-18476714D01*
X6937857Y-18491000D01*
X6923571Y-18505286D01*
X6895000Y-18548143D01*
X6880714Y-18605286D01*
X6880714Y-18719572D01*
X6895000Y-18748143D01*
X6909286Y-18762429D01*
X6937857Y-18776714D01*
X6995000Y-18776714D01*
X7023571Y-18762429D01*
X7037857Y-18748143D01*
X7052143Y-18719572D01*
X7052143Y-18648143D01*
X7037857Y-18619572D01*
X7023571Y-18605286D01*
X6995000Y-18591000D01*
X6937857Y-18591000D01*
X6909286Y-18605286D01*
X6895000Y-18619572D01*
X6880714Y-18648143D01*
X7237857Y-18476714D02*
X7266428Y-18476714D01*
X7295000Y-18491000D01*
X7309286Y-18505286D01*
X7323571Y-18533857D01*
X7337857Y-18591000D01*
X7337857Y-18662429D01*
X7323571Y-18719572D01*
X7309286Y-18748143D01*
X7295000Y-18762429D01*
X7266428Y-18776714D01*
X7237857Y-18776714D01*
X7209286Y-18762429D01*
X7195000Y-18748143D01*
X7180714Y-18719572D01*
X7166428Y-18662429D01*
X7166428Y-18591000D01*
X7180714Y-18533857D01*
X7195000Y-18505286D01*
X7209286Y-18491000D01*
X7237857Y-18476714D01*
X7466428Y-18776714D02*
X7466428Y-18576714D01*
X7466428Y-18605286D02*
X7480714Y-18591000D01*
X7509286Y-18576714D01*
X7552143Y-18576714D01*
X7580714Y-18591000D01*
X7595000Y-18619572D01*
X7595000Y-18776714D01*
X7595000Y-18619572D02*
X7609286Y-18591000D01*
X7637857Y-18576714D01*
X7680714Y-18576714D01*
X7709286Y-18591000D01*
X7723571Y-18619572D01*
X7723571Y-18776714D01*
X7866428Y-18776714D02*
X7866428Y-18576714D01*
X7866428Y-18605286D02*
X7880714Y-18591000D01*
X7909286Y-18576714D01*
X7952143Y-18576714D01*
X7980714Y-18591000D01*
X7995000Y-18619572D01*
X7995000Y-18776714D01*
X7995000Y-18619572D02*
X8009286Y-18591000D01*
X8037857Y-18576714D01*
X8080714Y-18576714D01*
X8109286Y-18591000D01*
X8123571Y-18619572D01*
X8123571Y-18776714D01*
X8709286Y-18462429D02*
X8452143Y-18848143D01*
X9095000Y-18476714D02*
X9123571Y-18476714D01*
X9152143Y-18491000D01*
X9166428Y-18505286D01*
X9180714Y-18533857D01*
X9195000Y-18591000D01*
X9195000Y-18662429D01*
X9180714Y-18719572D01*
X9166428Y-18748143D01*
X9152143Y-18762429D01*
X9123571Y-18776714D01*
X9095000Y-18776714D01*
X9066428Y-18762429D01*
X9052143Y-18748143D01*
X9037857Y-18719572D01*
X9023571Y-18662429D01*
X9023571Y-18591000D01*
X9037857Y-18533857D01*
X9052143Y-18505286D01*
X9066428Y-18491000D01*
X9095000Y-18476714D01*
X9323571Y-18748143D02*
X9337857Y-18762429D01*
X9323571Y-18776714D01*
X9309286Y-18762429D01*
X9323571Y-18748143D01*
X9323571Y-18776714D01*
X9523571Y-18476714D02*
X9552143Y-18476714D01*
X9580714Y-18491000D01*
X9595000Y-18505286D01*
X9609286Y-18533857D01*
X9623571Y-18591000D01*
X9623571Y-18662429D01*
X9609286Y-18719572D01*
X9595000Y-18748143D01*
X9580714Y-18762429D01*
X9552143Y-18776714D01*
X9523571Y-18776714D01*
X9495000Y-18762429D01*
X9480714Y-18748143D01*
X9466428Y-18719572D01*
X9452143Y-18662429D01*
X9452143Y-18591000D01*
X9466428Y-18533857D01*
X9480714Y-18505286D01*
X9495000Y-18491000D01*
X9523571Y-18476714D01*
X9880714Y-18476714D02*
X9823571Y-18476714D01*
X9795000Y-18491000D01*
X9780714Y-18505286D01*
X9752143Y-18548143D01*
X9737857Y-18605286D01*
X9737857Y-18719572D01*
X9752143Y-18748143D01*
X9766428Y-18762429D01*
X9795000Y-18776714D01*
X9852143Y-18776714D01*
X9880714Y-18762429D01*
X9895000Y-18748143D01*
X9909286Y-18719572D01*
X9909286Y-18648143D01*
X9895000Y-18619572D01*
X9880714Y-18605286D01*
X9852143Y-18591000D01*
X9795000Y-18591000D01*
X9766428Y-18605286D01*
X9752143Y-18619572D01*
X9737857Y-18648143D01*
X10009286Y-18476714D02*
X10195000Y-18476714D01*
X10095000Y-18591000D01*
X10137857Y-18591000D01*
X10166428Y-18605286D01*
X10180714Y-18619572D01*
X10195000Y-18648143D01*
X10195000Y-18719572D01*
X10180714Y-18748143D01*
X10166428Y-18762429D01*
X10137857Y-18776714D01*
X10052143Y-18776714D01*
X10023571Y-18762429D01*
X10009286Y-18748143D01*
X10309286Y-18476714D02*
X10309286Y-18533857D01*
X10423571Y-18476714D02*
X10423571Y-18533857D01*
X10866428Y-18891000D02*
X10852143Y-18876714D01*
X10823571Y-18833857D01*
X10809286Y-18805286D01*
X10795000Y-18762429D01*
X10780714Y-18691000D01*
X10780714Y-18633857D01*
X10795000Y-18562429D01*
X10809286Y-18519572D01*
X10823571Y-18491000D01*
X10852143Y-18448143D01*
X10866428Y-18433857D01*
X11123571Y-18476714D02*
X10980714Y-18476714D01*
X10966428Y-18619572D01*
X10980714Y-18605286D01*
X11009286Y-18591000D01*
X11080714Y-18591000D01*
X11109286Y-18605286D01*
X11123571Y-18619572D01*
X11137857Y-18648143D01*
X11137857Y-18719572D01*
X11123571Y-18748143D01*
X11109286Y-18762429D01*
X11080714Y-18776714D01*
X11009286Y-18776714D01*
X10980714Y-18762429D01*
X10966428Y-18748143D01*
X11495000Y-18776714D02*
X11495000Y-18476714D01*
X11623571Y-18776714D02*
X11623571Y-18619572D01*
X11609285Y-18591000D01*
X11580714Y-18576714D01*
X11537857Y-18576714D01*
X11509285Y-18591000D01*
X11495000Y-18605286D01*
X11809285Y-18776714D02*
X11780714Y-18762429D01*
X11766428Y-18748143D01*
X11752143Y-18719572D01*
X11752143Y-18633857D01*
X11766428Y-18605286D01*
X11780714Y-18591000D01*
X11809285Y-18576714D01*
X11852143Y-18576714D01*
X11880714Y-18591000D01*
X11895000Y-18605286D01*
X11909285Y-18633857D01*
X11909285Y-18719572D01*
X11895000Y-18748143D01*
X11880714Y-18762429D01*
X11852143Y-18776714D01*
X11809285Y-18776714D01*
X12080714Y-18776714D02*
X12052143Y-18762429D01*
X12037857Y-18733857D01*
X12037857Y-18476714D01*
X12309286Y-18762429D02*
X12280714Y-18776714D01*
X12223571Y-18776714D01*
X12195000Y-18762429D01*
X12180714Y-18733857D01*
X12180714Y-18619572D01*
X12195000Y-18591000D01*
X12223571Y-18576714D01*
X12280714Y-18576714D01*
X12309286Y-18591000D01*
X12323571Y-18619572D01*
X12323571Y-18648143D01*
X12180714Y-18676714D01*
X12437857Y-18762429D02*
X12466428Y-18776714D01*
X12523571Y-18776714D01*
X12552143Y-18762429D01*
X12566428Y-18733857D01*
X12566428Y-18719572D01*
X12552143Y-18691000D01*
X12523571Y-18676714D01*
X12480714Y-18676714D01*
X12452143Y-18662429D01*
X12437857Y-18633857D01*
X12437857Y-18619572D01*
X12452143Y-18591000D01*
X12480714Y-18576714D01*
X12523571Y-18576714D01*
X12552143Y-18591000D01*
X12666428Y-18891000D02*
X12680714Y-18876714D01*
X12709286Y-18833857D01*
X12723571Y-18805286D01*
X12737857Y-18762429D01*
X12752143Y-18691000D01*
X12752143Y-18633857D01*
X12737857Y-18562429D01*
X12723571Y-18519572D01*
X12709286Y-18491000D01*
X12680714Y-18448143D01*
X12666428Y-18433857D01*
X6015000Y-18947000D02*
X6195000Y-19127000D01*
X6195000Y-18947000D02*
X6015000Y-19127000D01*
X6168640Y-19100640D02*
X6168640Y-18973360D01*
X6041360Y-18973360D01*
X6041360Y-19100640D01*
X6168640Y-19100640D01*
X6623571Y-19172714D02*
X6452143Y-19172714D01*
X6537857Y-19172714D02*
X6537857Y-18872714D01*
X6509286Y-18915572D01*
X6480714Y-18944143D01*
X6452143Y-18958429D01*
X6752143Y-19144143D02*
X6766428Y-19158429D01*
X6752143Y-19172714D01*
X6737857Y-19158429D01*
X6752143Y-19144143D01*
X6752143Y-19172714D01*
X6937857Y-19001286D02*
X6909286Y-18987000D01*
X6895000Y-18972714D01*
X6880714Y-18944143D01*
X6880714Y-18929857D01*
X6895000Y-18901286D01*
X6909286Y-18887000D01*
X6937857Y-18872714D01*
X6995000Y-18872714D01*
X7023571Y-18887000D01*
X7037857Y-18901286D01*
X7052143Y-18929857D01*
X7052143Y-18944143D01*
X7037857Y-18972714D01*
X7023571Y-18987000D01*
X6995000Y-19001286D01*
X6937857Y-19001286D01*
X6909286Y-19015572D01*
X6895000Y-19029857D01*
X6880714Y-19058429D01*
X6880714Y-19115572D01*
X6895000Y-19144143D01*
X6909286Y-19158429D01*
X6937857Y-19172714D01*
X6995000Y-19172714D01*
X7023571Y-19158429D01*
X7037857Y-19144143D01*
X7052143Y-19115572D01*
X7052143Y-19058429D01*
X7037857Y-19029857D01*
X7023571Y-19015572D01*
X6995000Y-19001286D01*
X7237857Y-18872714D02*
X7266428Y-18872714D01*
X7295000Y-18887000D01*
X7309286Y-18901286D01*
X7323571Y-18929857D01*
X7337857Y-18987000D01*
X7337857Y-19058429D01*
X7323571Y-19115572D01*
X7309286Y-19144143D01*
X7295000Y-19158429D01*
X7266428Y-19172714D01*
X7237857Y-19172714D01*
X7209286Y-19158429D01*
X7195000Y-19144143D01*
X7180714Y-19115572D01*
X7166428Y-19058429D01*
X7166428Y-18987000D01*
X7180714Y-18929857D01*
X7195000Y-18901286D01*
X7209286Y-18887000D01*
X7237857Y-18872714D01*
X7466428Y-19172714D02*
X7466428Y-18972714D01*
X7466428Y-19001286D02*
X7480714Y-18987000D01*
X7509286Y-18972714D01*
X7552143Y-18972714D01*
X7580714Y-18987000D01*
X7595000Y-19015572D01*
X7595000Y-19172714D01*
X7595000Y-19015572D02*
X7609286Y-18987000D01*
X7637857Y-18972714D01*
X7680714Y-18972714D01*
X7709286Y-18987000D01*
X7723571Y-19015572D01*
X7723571Y-19172714D01*
X7866428Y-19172714D02*
X7866428Y-18972714D01*
X7866428Y-19001286D02*
X7880714Y-18987000D01*
X7909286Y-18972714D01*
X7952143Y-18972714D01*
X7980714Y-18987000D01*
X7995000Y-19015572D01*
X7995000Y-19172714D01*
X7995000Y-19015572D02*
X8009286Y-18987000D01*
X8037857Y-18972714D01*
X8080714Y-18972714D01*
X8109286Y-18987000D01*
X8123571Y-19015572D01*
X8123571Y-19172714D01*
X8709286Y-18858429D02*
X8452143Y-19244143D01*
X9095000Y-18872714D02*
X9123571Y-18872714D01*
X9152143Y-18887000D01*
X9166428Y-18901286D01*
X9180714Y-18929857D01*
X9195000Y-18987000D01*
X9195000Y-19058429D01*
X9180714Y-19115572D01*
X9166428Y-19144143D01*
X9152143Y-19158429D01*
X9123571Y-19172714D01*
X9095000Y-19172714D01*
X9066428Y-19158429D01*
X9052143Y-19144143D01*
X9037857Y-19115572D01*
X9023571Y-19058429D01*
X9023571Y-18987000D01*
X9037857Y-18929857D01*
X9052143Y-18901286D01*
X9066428Y-18887000D01*
X9095000Y-18872714D01*
X9323571Y-19144143D02*
X9337857Y-19158429D01*
X9323571Y-19172714D01*
X9309286Y-19158429D01*
X9323571Y-19144143D01*
X9323571Y-19172714D01*
X9523571Y-18872714D02*
X9552143Y-18872714D01*
X9580714Y-18887000D01*
X9595000Y-18901286D01*
X9609286Y-18929857D01*
X9623571Y-18987000D01*
X9623571Y-19058429D01*
X9609286Y-19115572D01*
X9595000Y-19144143D01*
X9580714Y-19158429D01*
X9552143Y-19172714D01*
X9523571Y-19172714D01*
X9495000Y-19158429D01*
X9480714Y-19144143D01*
X9466428Y-19115572D01*
X9452143Y-19058429D01*
X9452143Y-18987000D01*
X9466428Y-18929857D01*
X9480714Y-18901286D01*
X9495000Y-18887000D01*
X9523571Y-18872714D01*
X9723571Y-18872714D02*
X9923571Y-18872714D01*
X9795000Y-19172714D01*
X10195000Y-19172714D02*
X10023571Y-19172714D01*
X10109286Y-19172714D02*
X10109286Y-18872714D01*
X10080714Y-18915572D01*
X10052143Y-18944143D01*
X10023571Y-18958429D01*
X10309286Y-18872714D02*
X10309286Y-18929857D01*
X10423571Y-18872714D02*
X10423571Y-18929857D01*
X10866428Y-19287000D02*
X10852143Y-19272714D01*
X10823571Y-19229857D01*
X10809286Y-19201286D01*
X10795000Y-19158429D01*
X10780714Y-19087000D01*
X10780714Y-19029857D01*
X10795000Y-18958429D01*
X10809286Y-18915572D01*
X10823571Y-18887000D01*
X10852143Y-18844143D01*
X10866428Y-18829857D01*
X11123571Y-18872714D02*
X10980714Y-18872714D01*
X10966428Y-19015572D01*
X10980714Y-19001286D01*
X11009286Y-18987000D01*
X11080714Y-18987000D01*
X11109286Y-19001286D01*
X11123571Y-19015572D01*
X11137857Y-19044143D01*
X11137857Y-19115572D01*
X11123571Y-19144143D01*
X11109286Y-19158429D01*
X11080714Y-19172714D01*
X11009286Y-19172714D01*
X10980714Y-19158429D01*
X10966428Y-19144143D01*
X11495000Y-19172714D02*
X11495000Y-18872714D01*
X11623571Y-19172714D02*
X11623571Y-19015572D01*
X11609285Y-18987000D01*
X11580714Y-18972714D01*
X11537857Y-18972714D01*
X11509285Y-18987000D01*
X11495000Y-19001286D01*
X11809285Y-19172714D02*
X11780714Y-19158429D01*
X11766428Y-19144143D01*
X11752143Y-19115572D01*
X11752143Y-19029857D01*
X11766428Y-19001286D01*
X11780714Y-18987000D01*
X11809285Y-18972714D01*
X11852143Y-18972714D01*
X11880714Y-18987000D01*
X11895000Y-19001286D01*
X11909285Y-19029857D01*
X11909285Y-19115572D01*
X11895000Y-19144143D01*
X11880714Y-19158429D01*
X11852143Y-19172714D01*
X11809285Y-19172714D01*
X12080714Y-19172714D02*
X12052143Y-19158429D01*
X12037857Y-19129857D01*
X12037857Y-18872714D01*
X12309286Y-19158429D02*
X12280714Y-19172714D01*
X12223571Y-19172714D01*
X12195000Y-19158429D01*
X12180714Y-19129857D01*
X12180714Y-19015572D01*
X12195000Y-18987000D01*
X12223571Y-18972714D01*
X12280714Y-18972714D01*
X12309286Y-18987000D01*
X12323571Y-19015572D01*
X12323571Y-19044143D01*
X12180714Y-19072714D01*
X12437857Y-19158429D02*
X12466428Y-19172714D01*
X12523571Y-19172714D01*
X12552143Y-19158429D01*
X12566428Y-19129857D01*
X12566428Y-19115572D01*
X12552143Y-19087000D01*
X12523571Y-19072714D01*
X12480714Y-19072714D01*
X12452143Y-19058429D01*
X12437857Y-19029857D01*
X12437857Y-19015572D01*
X12452143Y-18987000D01*
X12480714Y-18972714D01*
X12523571Y-18972714D01*
X12552143Y-18987000D01*
X12666428Y-19287000D02*
X12680714Y-19272714D01*
X12709286Y-19229857D01*
X12723571Y-19201286D01*
X12737857Y-19158429D01*
X12752143Y-19087000D01*
X12752143Y-19029857D01*
X12737857Y-18958429D01*
X12723571Y-18915572D01*
X12709286Y-18887000D01*
X12680714Y-18844143D01*
X12666428Y-18829857D01*
X6005000Y-19338000D02*
X6195000Y-19528000D01*
X6195000Y-19338000D02*
X6005000Y-19528000D01*
X6100000Y-19528000D02*
X6195000Y-19433000D01*
X6100000Y-19338000D01*
X6005000Y-19433000D01*
X6100000Y-19528000D01*
X6623571Y-19568714D02*
X6452143Y-19568714D01*
X6537857Y-19568714D02*
X6537857Y-19268714D01*
X6509286Y-19311572D01*
X6480714Y-19340143D01*
X6452143Y-19354429D01*
X6752143Y-19540143D02*
X6766428Y-19554429D01*
X6752143Y-19568714D01*
X6737857Y-19554429D01*
X6752143Y-19540143D01*
X6752143Y-19568714D01*
X6909286Y-19568714D02*
X6966428Y-19568714D01*
X6995000Y-19554429D01*
X7009286Y-19540143D01*
X7037857Y-19497286D01*
X7052143Y-19440143D01*
X7052143Y-19325857D01*
X7037857Y-19297286D01*
X7023571Y-19283000D01*
X6995000Y-19268714D01*
X6937857Y-19268714D01*
X6909286Y-19283000D01*
X6895000Y-19297286D01*
X6880714Y-19325857D01*
X6880714Y-19397286D01*
X6895000Y-19425857D01*
X6909286Y-19440143D01*
X6937857Y-19454429D01*
X6995000Y-19454429D01*
X7023571Y-19440143D01*
X7037857Y-19425857D01*
X7052143Y-19397286D01*
X7237857Y-19268714D02*
X7266428Y-19268714D01*
X7295000Y-19283000D01*
X7309286Y-19297286D01*
X7323571Y-19325857D01*
X7337857Y-19383000D01*
X7337857Y-19454429D01*
X7323571Y-19511572D01*
X7309286Y-19540143D01*
X7295000Y-19554429D01*
X7266428Y-19568714D01*
X7237857Y-19568714D01*
X7209286Y-19554429D01*
X7195000Y-19540143D01*
X7180714Y-19511572D01*
X7166428Y-19454429D01*
X7166428Y-19383000D01*
X7180714Y-19325857D01*
X7195000Y-19297286D01*
X7209286Y-19283000D01*
X7237857Y-19268714D01*
X7466428Y-19568714D02*
X7466428Y-19368714D01*
X7466428Y-19397286D02*
X7480714Y-19383000D01*
X7509286Y-19368714D01*
X7552143Y-19368714D01*
X7580714Y-19383000D01*
X7595000Y-19411572D01*
X7595000Y-19568714D01*
X7595000Y-19411572D02*
X7609286Y-19383000D01*
X7637857Y-19368714D01*
X7680714Y-19368714D01*
X7709286Y-19383000D01*
X7723571Y-19411572D01*
X7723571Y-19568714D01*
X7866428Y-19568714D02*
X7866428Y-19368714D01*
X7866428Y-19397286D02*
X7880714Y-19383000D01*
X7909286Y-19368714D01*
X7952143Y-19368714D01*
X7980714Y-19383000D01*
X7995000Y-19411572D01*
X7995000Y-19568714D01*
X7995000Y-19411572D02*
X8009286Y-19383000D01*
X8037857Y-19368714D01*
X8080714Y-19368714D01*
X8109286Y-19383000D01*
X8123571Y-19411572D01*
X8123571Y-19568714D01*
X8709286Y-19254429D02*
X8452143Y-19640143D01*
X9095000Y-19268714D02*
X9123571Y-19268714D01*
X9152143Y-19283000D01*
X9166428Y-19297286D01*
X9180714Y-19325857D01*
X9195000Y-19383000D01*
X9195000Y-19454429D01*
X9180714Y-19511572D01*
X9166428Y-19540143D01*
X9152143Y-19554429D01*
X9123571Y-19568714D01*
X9095000Y-19568714D01*
X9066428Y-19554429D01*
X9052143Y-19540143D01*
X9037857Y-19511572D01*
X9023571Y-19454429D01*
X9023571Y-19383000D01*
X9037857Y-19325857D01*
X9052143Y-19297286D01*
X9066428Y-19283000D01*
X9095000Y-19268714D01*
X9323571Y-19540143D02*
X9337857Y-19554429D01*
X9323571Y-19568714D01*
X9309286Y-19554429D01*
X9323571Y-19540143D01*
X9323571Y-19568714D01*
X9523571Y-19268714D02*
X9552143Y-19268714D01*
X9580714Y-19283000D01*
X9595000Y-19297286D01*
X9609286Y-19325857D01*
X9623571Y-19383000D01*
X9623571Y-19454429D01*
X9609286Y-19511572D01*
X9595000Y-19540143D01*
X9580714Y-19554429D01*
X9552143Y-19568714D01*
X9523571Y-19568714D01*
X9495000Y-19554429D01*
X9480714Y-19540143D01*
X9466428Y-19511572D01*
X9452143Y-19454429D01*
X9452143Y-19383000D01*
X9466428Y-19325857D01*
X9480714Y-19297286D01*
X9495000Y-19283000D01*
X9523571Y-19268714D01*
X9723571Y-19268714D02*
X9923571Y-19268714D01*
X9795000Y-19568714D01*
X10180714Y-19268714D02*
X10037857Y-19268714D01*
X10023571Y-19411572D01*
X10037857Y-19397286D01*
X10066428Y-19383000D01*
X10137857Y-19383000D01*
X10166428Y-19397286D01*
X10180714Y-19411572D01*
X10195000Y-19440143D01*
X10195000Y-19511572D01*
X10180714Y-19540143D01*
X10166428Y-19554429D01*
X10137857Y-19568714D01*
X10066428Y-19568714D01*
X10037857Y-19554429D01*
X10023571Y-19540143D01*
X10309286Y-19268714D02*
X10309286Y-19325857D01*
X10423571Y-19268714D02*
X10423571Y-19325857D01*
X10866428Y-19683000D02*
X10852143Y-19668714D01*
X10823571Y-19625857D01*
X10809286Y-19597286D01*
X10795000Y-19554429D01*
X10780714Y-19483000D01*
X10780714Y-19425857D01*
X10795000Y-19354429D01*
X10809286Y-19311572D01*
X10823571Y-19283000D01*
X10852143Y-19240143D01*
X10866428Y-19225857D01*
X11037857Y-19268714D02*
X11066428Y-19268714D01*
X11095000Y-19283000D01*
X11109286Y-19297286D01*
X11123571Y-19325857D01*
X11137857Y-19383000D01*
X11137857Y-19454429D01*
X11123571Y-19511572D01*
X11109286Y-19540143D01*
X11095000Y-19554429D01*
X11066428Y-19568714D01*
X11037857Y-19568714D01*
X11009286Y-19554429D01*
X10995000Y-19540143D01*
X10980714Y-19511572D01*
X10966428Y-19454429D01*
X10966428Y-19383000D01*
X10980714Y-19325857D01*
X10995000Y-19297286D01*
X11009286Y-19283000D01*
X11037857Y-19268714D01*
X11495000Y-19568714D02*
X11495000Y-19268714D01*
X11623571Y-19568714D02*
X11623571Y-19411572D01*
X11609285Y-19383000D01*
X11580714Y-19368714D01*
X11537857Y-19368714D01*
X11509285Y-19383000D01*
X11495000Y-19397286D01*
X11809285Y-19568714D02*
X11780714Y-19554429D01*
X11766428Y-19540143D01*
X11752143Y-19511572D01*
X11752143Y-19425857D01*
X11766428Y-19397286D01*
X11780714Y-19383000D01*
X11809285Y-19368714D01*
X11852143Y-19368714D01*
X11880714Y-19383000D01*
X11895000Y-19397286D01*
X11909285Y-19425857D01*
X11909285Y-19511572D01*
X11895000Y-19540143D01*
X11880714Y-19554429D01*
X11852143Y-19568714D01*
X11809285Y-19568714D01*
X12080714Y-19568714D02*
X12052143Y-19554429D01*
X12037857Y-19525857D01*
X12037857Y-19268714D01*
X12309286Y-19554429D02*
X12280714Y-19568714D01*
X12223571Y-19568714D01*
X12195000Y-19554429D01*
X12180714Y-19525857D01*
X12180714Y-19411572D01*
X12195000Y-19383000D01*
X12223571Y-19368714D01*
X12280714Y-19368714D01*
X12309286Y-19383000D01*
X12323571Y-19411572D01*
X12323571Y-19440143D01*
X12180714Y-19468714D01*
X12437857Y-19554429D02*
X12466428Y-19568714D01*
X12523571Y-19568714D01*
X12552143Y-19554429D01*
X12566428Y-19525857D01*
X12566428Y-19511572D01*
X12552143Y-19483000D01*
X12523571Y-19468714D01*
X12480714Y-19468714D01*
X12452143Y-19454429D01*
X12437857Y-19425857D01*
X12437857Y-19411572D01*
X12452143Y-19383000D01*
X12480714Y-19368714D01*
X12523571Y-19368714D01*
X12552143Y-19383000D01*
X12923571Y-19454429D02*
X13152143Y-19454429D01*
X13037857Y-19568714D02*
X13037857Y-19340143D01*
X13509286Y-19297286D02*
X13523571Y-19283000D01*
X13552143Y-19268714D01*
X13623571Y-19268714D01*
X13652143Y-19283000D01*
X13666428Y-19297286D01*
X13680714Y-19325857D01*
X13680714Y-19354429D01*
X13666428Y-19397286D01*
X13495000Y-19568714D01*
X13680714Y-19568714D01*
X14023571Y-19554429D02*
X14052143Y-19568714D01*
X14109285Y-19568714D01*
X14137857Y-19554429D01*
X14152143Y-19525857D01*
X14152143Y-19511572D01*
X14137857Y-19483000D01*
X14109285Y-19468714D01*
X14066428Y-19468714D01*
X14037857Y-19454429D01*
X14023571Y-19425857D01*
X14023571Y-19411572D01*
X14037857Y-19383000D01*
X14066428Y-19368714D01*
X14109285Y-19368714D01*
X14137857Y-19383000D01*
X14323571Y-19568714D02*
X14295000Y-19554429D01*
X14280714Y-19525857D01*
X14280714Y-19268714D01*
X14480714Y-19568714D02*
X14452143Y-19554429D01*
X14437857Y-19540143D01*
X14423571Y-19511572D01*
X14423571Y-19425857D01*
X14437857Y-19397286D01*
X14452143Y-19383000D01*
X14480714Y-19368714D01*
X14523571Y-19368714D01*
X14552143Y-19383000D01*
X14566428Y-19397286D01*
X14580714Y-19425857D01*
X14580714Y-19511572D01*
X14566428Y-19540143D01*
X14552143Y-19554429D01*
X14523571Y-19568714D01*
X14480714Y-19568714D01*
X14666428Y-19368714D02*
X14780714Y-19368714D01*
X14709286Y-19268714D02*
X14709286Y-19525857D01*
X14723571Y-19554429D01*
X14752143Y-19568714D01*
X14780714Y-19568714D01*
X14866428Y-19554429D02*
X14895000Y-19568714D01*
X14952143Y-19568714D01*
X14980714Y-19554429D01*
X14995000Y-19525857D01*
X14995000Y-19511572D01*
X14980714Y-19483000D01*
X14952143Y-19468714D01*
X14909286Y-19468714D01*
X14880714Y-19454429D01*
X14866428Y-19425857D01*
X14866428Y-19411572D01*
X14880714Y-19383000D01*
X14909286Y-19368714D01*
X14952143Y-19368714D01*
X14980714Y-19383000D01*
X15095000Y-19683000D02*
X15109286Y-19668714D01*
X15137857Y-19625857D01*
X15152143Y-19597286D01*
X15166428Y-19554429D01*
X15180714Y-19483000D01*
X15180714Y-19425857D01*
X15166428Y-19354429D01*
X15152143Y-19311572D01*
X15137857Y-19283000D01*
X15109286Y-19240143D01*
X15095000Y-19225857D01*
X6070000Y-19704000D02*
X6070000Y-19954000D01*
X5945000Y-19829000D02*
X6195000Y-19829000D01*
X6195000Y-19829000D02*
G75*
G03X6195000Y-19829000I-125000J0D01*
G01*
X6452143Y-19693286D02*
X6466428Y-19679000D01*
X6495000Y-19664714D01*
X6566428Y-19664714D01*
X6595000Y-19679000D01*
X6609286Y-19693286D01*
X6623571Y-19721857D01*
X6623571Y-19750429D01*
X6609286Y-19793286D01*
X6437857Y-19964714D01*
X6623571Y-19964714D01*
X6752143Y-19936143D02*
X6766428Y-19950429D01*
X6752143Y-19964714D01*
X6737857Y-19950429D01*
X6752143Y-19936143D01*
X6752143Y-19964714D01*
X7037857Y-19664714D02*
X6895000Y-19664714D01*
X6880714Y-19807572D01*
X6895000Y-19793286D01*
X6923571Y-19779000D01*
X6995000Y-19779000D01*
X7023571Y-19793286D01*
X7037857Y-19807572D01*
X7052143Y-19836143D01*
X7052143Y-19907572D01*
X7037857Y-19936143D01*
X7023571Y-19950429D01*
X6995000Y-19964714D01*
X6923571Y-19964714D01*
X6895000Y-19950429D01*
X6880714Y-19936143D01*
X7237857Y-19664714D02*
X7266428Y-19664714D01*
X7295000Y-19679000D01*
X7309286Y-19693286D01*
X7323571Y-19721857D01*
X7337857Y-19779000D01*
X7337857Y-19850429D01*
X7323571Y-19907572D01*
X7309286Y-19936143D01*
X7295000Y-19950429D01*
X7266428Y-19964714D01*
X7237857Y-19964714D01*
X7209286Y-19950429D01*
X7195000Y-19936143D01*
X7180714Y-19907572D01*
X7166428Y-19850429D01*
X7166428Y-19779000D01*
X7180714Y-19721857D01*
X7195000Y-19693286D01*
X7209286Y-19679000D01*
X7237857Y-19664714D01*
X7466428Y-19964714D02*
X7466428Y-19764714D01*
X7466428Y-19793286D02*
X7480714Y-19779000D01*
X7509286Y-19764714D01*
X7552143Y-19764714D01*
X7580714Y-19779000D01*
X7595000Y-19807572D01*
X7595000Y-19964714D01*
X7595000Y-19807572D02*
X7609286Y-19779000D01*
X7637857Y-19764714D01*
X7680714Y-19764714D01*
X7709286Y-19779000D01*
X7723571Y-19807572D01*
X7723571Y-19964714D01*
X7866428Y-19964714D02*
X7866428Y-19764714D01*
X7866428Y-19793286D02*
X7880714Y-19779000D01*
X7909286Y-19764714D01*
X7952143Y-19764714D01*
X7980714Y-19779000D01*
X7995000Y-19807572D01*
X7995000Y-19964714D01*
X7995000Y-19807572D02*
X8009286Y-19779000D01*
X8037857Y-19764714D01*
X8080714Y-19764714D01*
X8109286Y-19779000D01*
X8123571Y-19807572D01*
X8123571Y-19964714D01*
X8709286Y-19650429D02*
X8452143Y-20036143D01*
X9095000Y-19664714D02*
X9123571Y-19664714D01*
X9152143Y-19679000D01*
X9166428Y-19693286D01*
X9180714Y-19721857D01*
X9195000Y-19779000D01*
X9195000Y-19850429D01*
X9180714Y-19907572D01*
X9166428Y-19936143D01*
X9152143Y-19950429D01*
X9123571Y-19964714D01*
X9095000Y-19964714D01*
X9066428Y-19950429D01*
X9052143Y-19936143D01*
X9037857Y-19907572D01*
X9023571Y-19850429D01*
X9023571Y-19779000D01*
X9037857Y-19721857D01*
X9052143Y-19693286D01*
X9066428Y-19679000D01*
X9095000Y-19664714D01*
X9323571Y-19936143D02*
X9337857Y-19950429D01*
X9323571Y-19964714D01*
X9309286Y-19950429D01*
X9323571Y-19936143D01*
X9323571Y-19964714D01*
X9523571Y-19664714D02*
X9552143Y-19664714D01*
X9580714Y-19679000D01*
X9595000Y-19693286D01*
X9609286Y-19721857D01*
X9623571Y-19779000D01*
X9623571Y-19850429D01*
X9609286Y-19907572D01*
X9595000Y-19936143D01*
X9580714Y-19950429D01*
X9552143Y-19964714D01*
X9523571Y-19964714D01*
X9495000Y-19950429D01*
X9480714Y-19936143D01*
X9466428Y-19907572D01*
X9452143Y-19850429D01*
X9452143Y-19779000D01*
X9466428Y-19721857D01*
X9480714Y-19693286D01*
X9495000Y-19679000D01*
X9523571Y-19664714D01*
X9766428Y-19964714D02*
X9823571Y-19964714D01*
X9852143Y-19950429D01*
X9866428Y-19936143D01*
X9895000Y-19893286D01*
X9909286Y-19836143D01*
X9909286Y-19721857D01*
X9895000Y-19693286D01*
X9880714Y-19679000D01*
X9852143Y-19664714D01*
X9795000Y-19664714D01*
X9766428Y-19679000D01*
X9752143Y-19693286D01*
X9737857Y-19721857D01*
X9737857Y-19793286D01*
X9752143Y-19821857D01*
X9766428Y-19836143D01*
X9795000Y-19850429D01*
X9852143Y-19850429D01*
X9880714Y-19836143D01*
X9895000Y-19821857D01*
X9909286Y-19793286D01*
X10080714Y-19793286D02*
X10052143Y-19779000D01*
X10037857Y-19764714D01*
X10023571Y-19736143D01*
X10023571Y-19721857D01*
X10037857Y-19693286D01*
X10052143Y-19679000D01*
X10080714Y-19664714D01*
X10137857Y-19664714D01*
X10166428Y-19679000D01*
X10180714Y-19693286D01*
X10195000Y-19721857D01*
X10195000Y-19736143D01*
X10180714Y-19764714D01*
X10166428Y-19779000D01*
X10137857Y-19793286D01*
X10080714Y-19793286D01*
X10052143Y-19807572D01*
X10037857Y-19821857D01*
X10023571Y-19850429D01*
X10023571Y-19907572D01*
X10037857Y-19936143D01*
X10052143Y-19950429D01*
X10080714Y-19964714D01*
X10137857Y-19964714D01*
X10166428Y-19950429D01*
X10180714Y-19936143D01*
X10195000Y-19907572D01*
X10195000Y-19850429D01*
X10180714Y-19821857D01*
X10166428Y-19807572D01*
X10137857Y-19793286D01*
X10309286Y-19664714D02*
X10309286Y-19721857D01*
X10423571Y-19664714D02*
X10423571Y-19721857D01*
X10866428Y-20079000D02*
X10852143Y-20064714D01*
X10823571Y-20021857D01*
X10809286Y-19993286D01*
X10795000Y-19950429D01*
X10780714Y-19879000D01*
X10780714Y-19821857D01*
X10795000Y-19750429D01*
X10809286Y-19707572D01*
X10823571Y-19679000D01*
X10852143Y-19636143D01*
X10866428Y-19621857D01*
X10966428Y-19693286D02*
X10980714Y-19679000D01*
X11009286Y-19664714D01*
X11080714Y-19664714D01*
X11109286Y-19679000D01*
X11123571Y-19693286D01*
X11137857Y-19721857D01*
X11137857Y-19750429D01*
X11123571Y-19793286D01*
X10952143Y-19964714D01*
X11137857Y-19964714D01*
X11495000Y-19964714D02*
X11495000Y-19664714D01*
X11623571Y-19964714D02*
X11623571Y-19807572D01*
X11609285Y-19779000D01*
X11580714Y-19764714D01*
X11537857Y-19764714D01*
X11509285Y-19779000D01*
X11495000Y-19793286D01*
X11809285Y-19964714D02*
X11780714Y-19950429D01*
X11766428Y-19936143D01*
X11752143Y-19907572D01*
X11752143Y-19821857D01*
X11766428Y-19793286D01*
X11780714Y-19779000D01*
X11809285Y-19764714D01*
X11852143Y-19764714D01*
X11880714Y-19779000D01*
X11895000Y-19793286D01*
X11909285Y-19821857D01*
X11909285Y-19907572D01*
X11895000Y-19936143D01*
X11880714Y-19950429D01*
X11852143Y-19964714D01*
X11809285Y-19964714D01*
X12080714Y-19964714D02*
X12052143Y-19950429D01*
X12037857Y-19921857D01*
X12037857Y-19664714D01*
X12309286Y-19950429D02*
X12280714Y-19964714D01*
X12223571Y-19964714D01*
X12195000Y-19950429D01*
X12180714Y-19921857D01*
X12180714Y-19807572D01*
X12195000Y-19779000D01*
X12223571Y-19764714D01*
X12280714Y-19764714D01*
X12309286Y-19779000D01*
X12323571Y-19807572D01*
X12323571Y-19836143D01*
X12180714Y-19864714D01*
X12437857Y-19950429D02*
X12466428Y-19964714D01*
X12523571Y-19964714D01*
X12552143Y-19950429D01*
X12566428Y-19921857D01*
X12566428Y-19907572D01*
X12552143Y-19879000D01*
X12523571Y-19864714D01*
X12480714Y-19864714D01*
X12452143Y-19850429D01*
X12437857Y-19821857D01*
X12437857Y-19807572D01*
X12452143Y-19779000D01*
X12480714Y-19764714D01*
X12523571Y-19764714D01*
X12552143Y-19779000D01*
X12666428Y-20079000D02*
X12680714Y-20064714D01*
X12709286Y-20021857D01*
X12723571Y-19993286D01*
X12737857Y-19950429D01*
X12752143Y-19879000D01*
X12752143Y-19821857D01*
X12737857Y-19750429D01*
X12723571Y-19707572D01*
X12709286Y-19679000D01*
X12680714Y-19636143D01*
X12666428Y-19621857D01*
X6151067Y-20331067D02*
X6151067Y-20118933D01*
X5938933Y-20118933D01*
X5938933Y-20331067D01*
X6151067Y-20331067D01*
X6195000Y-20225000D02*
G75*
G03X6195000Y-20225000I-150000J0D01*
G01*
X6437857Y-20060714D02*
X6623571Y-20060714D01*
X6523571Y-20175000D01*
X6566428Y-20175000D01*
X6595000Y-20189286D01*
X6609286Y-20203572D01*
X6623571Y-20232143D01*
X6623571Y-20303572D01*
X6609286Y-20332143D01*
X6595000Y-20346429D01*
X6566428Y-20360714D01*
X6480714Y-20360714D01*
X6452143Y-20346429D01*
X6437857Y-20332143D01*
X6752143Y-20332143D02*
X6766428Y-20346429D01*
X6752143Y-20360714D01*
X6737857Y-20346429D01*
X6752143Y-20332143D01*
X6752143Y-20360714D01*
X6952143Y-20060714D02*
X6980714Y-20060714D01*
X7009286Y-20075000D01*
X7023571Y-20089286D01*
X7037857Y-20117857D01*
X7052143Y-20175000D01*
X7052143Y-20246429D01*
X7037857Y-20303572D01*
X7023571Y-20332143D01*
X7009286Y-20346429D01*
X6980714Y-20360714D01*
X6952143Y-20360714D01*
X6923571Y-20346429D01*
X6909286Y-20332143D01*
X6895000Y-20303572D01*
X6880714Y-20246429D01*
X6880714Y-20175000D01*
X6895000Y-20117857D01*
X6909286Y-20089286D01*
X6923571Y-20075000D01*
X6952143Y-20060714D01*
X7237857Y-20060714D02*
X7266428Y-20060714D01*
X7295000Y-20075000D01*
X7309286Y-20089286D01*
X7323571Y-20117857D01*
X7337857Y-20175000D01*
X7337857Y-20246429D01*
X7323571Y-20303572D01*
X7309286Y-20332143D01*
X7295000Y-20346429D01*
X7266428Y-20360714D01*
X7237857Y-20360714D01*
X7209286Y-20346429D01*
X7195000Y-20332143D01*
X7180714Y-20303572D01*
X7166428Y-20246429D01*
X7166428Y-20175000D01*
X7180714Y-20117857D01*
X7195000Y-20089286D01*
X7209286Y-20075000D01*
X7237857Y-20060714D01*
X7466428Y-20360714D02*
X7466428Y-20160714D01*
X7466428Y-20189286D02*
X7480714Y-20175000D01*
X7509286Y-20160714D01*
X7552143Y-20160714D01*
X7580714Y-20175000D01*
X7595000Y-20203572D01*
X7595000Y-20360714D01*
X7595000Y-20203572D02*
X7609286Y-20175000D01*
X7637857Y-20160714D01*
X7680714Y-20160714D01*
X7709286Y-20175000D01*
X7723571Y-20203572D01*
X7723571Y-20360714D01*
X7866428Y-20360714D02*
X7866428Y-20160714D01*
X7866428Y-20189286D02*
X7880714Y-20175000D01*
X7909286Y-20160714D01*
X7952143Y-20160714D01*
X7980714Y-20175000D01*
X7995000Y-20203572D01*
X7995000Y-20360714D01*
X7995000Y-20203572D02*
X8009286Y-20175000D01*
X8037857Y-20160714D01*
X8080714Y-20160714D01*
X8109286Y-20175000D01*
X8123571Y-20203572D01*
X8123571Y-20360714D01*
X8709286Y-20046429D02*
X8452143Y-20432143D01*
X9095000Y-20060714D02*
X9123571Y-20060714D01*
X9152143Y-20075000D01*
X9166428Y-20089286D01*
X9180714Y-20117857D01*
X9195000Y-20175000D01*
X9195000Y-20246429D01*
X9180714Y-20303572D01*
X9166428Y-20332143D01*
X9152143Y-20346429D01*
X9123571Y-20360714D01*
X9095000Y-20360714D01*
X9066428Y-20346429D01*
X9052143Y-20332143D01*
X9037857Y-20303572D01*
X9023571Y-20246429D01*
X9023571Y-20175000D01*
X9037857Y-20117857D01*
X9052143Y-20089286D01*
X9066428Y-20075000D01*
X9095000Y-20060714D01*
X9323571Y-20332143D02*
X9337857Y-20346429D01*
X9323571Y-20360714D01*
X9309286Y-20346429D01*
X9323571Y-20332143D01*
X9323571Y-20360714D01*
X9623571Y-20360714D02*
X9452143Y-20360714D01*
X9537857Y-20360714D02*
X9537857Y-20060714D01*
X9509286Y-20103572D01*
X9480714Y-20132143D01*
X9452143Y-20146429D01*
X9909286Y-20360714D02*
X9737857Y-20360714D01*
X9823571Y-20360714D02*
X9823571Y-20060714D01*
X9795000Y-20103572D01*
X9766428Y-20132143D01*
X9737857Y-20146429D01*
X10080714Y-20189286D02*
X10052143Y-20175000D01*
X10037857Y-20160714D01*
X10023571Y-20132143D01*
X10023571Y-20117857D01*
X10037857Y-20089286D01*
X10052143Y-20075000D01*
X10080714Y-20060714D01*
X10137857Y-20060714D01*
X10166428Y-20075000D01*
X10180714Y-20089286D01*
X10195000Y-20117857D01*
X10195000Y-20132143D01*
X10180714Y-20160714D01*
X10166428Y-20175000D01*
X10137857Y-20189286D01*
X10080714Y-20189286D01*
X10052143Y-20203572D01*
X10037857Y-20217857D01*
X10023571Y-20246429D01*
X10023571Y-20303572D01*
X10037857Y-20332143D01*
X10052143Y-20346429D01*
X10080714Y-20360714D01*
X10137857Y-20360714D01*
X10166428Y-20346429D01*
X10180714Y-20332143D01*
X10195000Y-20303572D01*
X10195000Y-20246429D01*
X10180714Y-20217857D01*
X10166428Y-20203572D01*
X10137857Y-20189286D01*
X10309286Y-20060714D02*
X10309286Y-20117857D01*
X10423571Y-20060714D02*
X10423571Y-20117857D01*
X10866428Y-20475000D02*
X10852143Y-20460714D01*
X10823571Y-20417857D01*
X10809286Y-20389286D01*
X10795000Y-20346429D01*
X10780714Y-20275000D01*
X10780714Y-20217857D01*
X10795000Y-20146429D01*
X10809286Y-20103572D01*
X10823571Y-20075000D01*
X10852143Y-20032143D01*
X10866428Y-20017857D01*
X11137857Y-20360714D02*
X10966428Y-20360714D01*
X11052143Y-20360714D02*
X11052143Y-20060714D01*
X11023571Y-20103572D01*
X10995000Y-20132143D01*
X10966428Y-20146429D01*
X11495000Y-20360714D02*
X11495000Y-20060714D01*
X11623571Y-20360714D02*
X11623571Y-20203572D01*
X11609285Y-20175000D01*
X11580714Y-20160714D01*
X11537857Y-20160714D01*
X11509285Y-20175000D01*
X11495000Y-20189286D01*
X11809285Y-20360714D02*
X11780714Y-20346429D01*
X11766428Y-20332143D01*
X11752143Y-20303572D01*
X11752143Y-20217857D01*
X11766428Y-20189286D01*
X11780714Y-20175000D01*
X11809285Y-20160714D01*
X11852143Y-20160714D01*
X11880714Y-20175000D01*
X11895000Y-20189286D01*
X11909285Y-20217857D01*
X11909285Y-20303572D01*
X11895000Y-20332143D01*
X11880714Y-20346429D01*
X11852143Y-20360714D01*
X11809285Y-20360714D01*
X12080714Y-20360714D02*
X12052143Y-20346429D01*
X12037857Y-20317857D01*
X12037857Y-20060714D01*
X12309286Y-20346429D02*
X12280714Y-20360714D01*
X12223571Y-20360714D01*
X12195000Y-20346429D01*
X12180714Y-20317857D01*
X12180714Y-20203572D01*
X12195000Y-20175000D01*
X12223571Y-20160714D01*
X12280714Y-20160714D01*
X12309286Y-20175000D01*
X12323571Y-20203572D01*
X12323571Y-20232143D01*
X12180714Y-20260714D01*
X12423571Y-20475000D02*
X12437857Y-20460714D01*
X12466428Y-20417857D01*
X12480714Y-20389286D01*
X12495000Y-20346429D01*
X12509286Y-20275000D01*
X12509286Y-20217857D01*
X12495000Y-20146429D01*
X12480714Y-20103572D01*
X12466428Y-20075000D01*
X12437857Y-20032143D01*
X12423571Y-20017857D01*
X5985000Y-20865000D02*
X6195000Y-20655000D01*
X5985000Y-20445000D01*
X5775000Y-20655000D01*
X5985000Y-20865000D01*
X6195000Y-20655000D02*
G75*
G03X6195000Y-20655000I-210000J0D01*
G01*
X6595000Y-20590714D02*
X6595000Y-20790714D01*
X6523571Y-20476429D02*
X6452143Y-20690714D01*
X6637857Y-20690714D01*
X6752143Y-20762143D02*
X6766428Y-20776429D01*
X6752143Y-20790714D01*
X6737857Y-20776429D01*
X6752143Y-20762143D01*
X6752143Y-20790714D01*
X6880714Y-20519286D02*
X6895000Y-20505000D01*
X6923571Y-20490714D01*
X6995000Y-20490714D01*
X7023571Y-20505000D01*
X7037857Y-20519286D01*
X7052143Y-20547857D01*
X7052143Y-20576429D01*
X7037857Y-20619286D01*
X6866428Y-20790714D01*
X7052143Y-20790714D01*
X7237857Y-20490714D02*
X7266428Y-20490714D01*
X7295000Y-20505000D01*
X7309286Y-20519286D01*
X7323571Y-20547857D01*
X7337857Y-20605000D01*
X7337857Y-20676429D01*
X7323571Y-20733572D01*
X7309286Y-20762143D01*
X7295000Y-20776429D01*
X7266428Y-20790714D01*
X7237857Y-20790714D01*
X7209286Y-20776429D01*
X7195000Y-20762143D01*
X7180714Y-20733572D01*
X7166428Y-20676429D01*
X7166428Y-20605000D01*
X7180714Y-20547857D01*
X7195000Y-20519286D01*
X7209286Y-20505000D01*
X7237857Y-20490714D01*
X7466428Y-20790714D02*
X7466428Y-20590714D01*
X7466428Y-20619286D02*
X7480714Y-20605000D01*
X7509286Y-20590714D01*
X7552143Y-20590714D01*
X7580714Y-20605000D01*
X7595000Y-20633572D01*
X7595000Y-20790714D01*
X7595000Y-20633572D02*
X7609286Y-20605000D01*
X7637857Y-20590714D01*
X7680714Y-20590714D01*
X7709286Y-20605000D01*
X7723571Y-20633572D01*
X7723571Y-20790714D01*
X7866428Y-20790714D02*
X7866428Y-20590714D01*
X7866428Y-20619286D02*
X7880714Y-20605000D01*
X7909286Y-20590714D01*
X7952143Y-20590714D01*
X7980714Y-20605000D01*
X7995000Y-20633572D01*
X7995000Y-20790714D01*
X7995000Y-20633572D02*
X8009286Y-20605000D01*
X8037857Y-20590714D01*
X8080714Y-20590714D01*
X8109286Y-20605000D01*
X8123571Y-20633572D01*
X8123571Y-20790714D01*
X8709286Y-20476429D02*
X8452143Y-20862143D01*
X9095000Y-20490714D02*
X9123571Y-20490714D01*
X9152143Y-20505000D01*
X9166428Y-20519286D01*
X9180714Y-20547857D01*
X9195000Y-20605000D01*
X9195000Y-20676429D01*
X9180714Y-20733572D01*
X9166428Y-20762143D01*
X9152143Y-20776429D01*
X9123571Y-20790714D01*
X9095000Y-20790714D01*
X9066428Y-20776429D01*
X9052143Y-20762143D01*
X9037857Y-20733572D01*
X9023571Y-20676429D01*
X9023571Y-20605000D01*
X9037857Y-20547857D01*
X9052143Y-20519286D01*
X9066428Y-20505000D01*
X9095000Y-20490714D01*
X9323571Y-20762143D02*
X9337857Y-20776429D01*
X9323571Y-20790714D01*
X9309286Y-20776429D01*
X9323571Y-20762143D01*
X9323571Y-20790714D01*
X9623571Y-20790714D02*
X9452143Y-20790714D01*
X9537857Y-20790714D02*
X9537857Y-20490714D01*
X9509286Y-20533572D01*
X9480714Y-20562143D01*
X9452143Y-20576429D01*
X9880714Y-20490714D02*
X9823571Y-20490714D01*
X9795000Y-20505000D01*
X9780714Y-20519286D01*
X9752143Y-20562143D01*
X9737857Y-20619286D01*
X9737857Y-20733572D01*
X9752143Y-20762143D01*
X9766428Y-20776429D01*
X9795000Y-20790714D01*
X9852143Y-20790714D01*
X9880714Y-20776429D01*
X9895000Y-20762143D01*
X9909286Y-20733572D01*
X9909286Y-20662143D01*
X9895000Y-20633572D01*
X9880714Y-20619286D01*
X9852143Y-20605000D01*
X9795000Y-20605000D01*
X9766428Y-20619286D01*
X9752143Y-20633572D01*
X9737857Y-20662143D01*
X10180714Y-20490714D02*
X10037857Y-20490714D01*
X10023571Y-20633572D01*
X10037857Y-20619286D01*
X10066428Y-20605000D01*
X10137857Y-20605000D01*
X10166428Y-20619286D01*
X10180714Y-20633572D01*
X10195000Y-20662143D01*
X10195000Y-20733572D01*
X10180714Y-20762143D01*
X10166428Y-20776429D01*
X10137857Y-20790714D01*
X10066428Y-20790714D01*
X10037857Y-20776429D01*
X10023571Y-20762143D01*
X10309286Y-20490714D02*
X10309286Y-20547857D01*
X10423571Y-20490714D02*
X10423571Y-20547857D01*
X10866428Y-20905000D02*
X10852143Y-20890714D01*
X10823571Y-20847857D01*
X10809286Y-20819286D01*
X10795000Y-20776429D01*
X10780714Y-20705000D01*
X10780714Y-20647857D01*
X10795000Y-20576429D01*
X10809286Y-20533572D01*
X10823571Y-20505000D01*
X10852143Y-20462143D01*
X10866428Y-20447857D01*
X10952143Y-20490714D02*
X11137857Y-20490714D01*
X11037857Y-20605000D01*
X11080714Y-20605000D01*
X11109286Y-20619286D01*
X11123571Y-20633572D01*
X11137857Y-20662143D01*
X11137857Y-20733572D01*
X11123571Y-20762143D01*
X11109286Y-20776429D01*
X11080714Y-20790714D01*
X10995000Y-20790714D01*
X10966428Y-20776429D01*
X10952143Y-20762143D01*
X11495000Y-20790714D02*
X11495000Y-20490714D01*
X11623571Y-20790714D02*
X11623571Y-20633572D01*
X11609285Y-20605000D01*
X11580714Y-20590714D01*
X11537857Y-20590714D01*
X11509285Y-20605000D01*
X11495000Y-20619286D01*
X11809285Y-20790714D02*
X11780714Y-20776429D01*
X11766428Y-20762143D01*
X11752143Y-20733572D01*
X11752143Y-20647857D01*
X11766428Y-20619286D01*
X11780714Y-20605000D01*
X11809285Y-20590714D01*
X11852143Y-20590714D01*
X11880714Y-20605000D01*
X11895000Y-20619286D01*
X11909285Y-20647857D01*
X11909285Y-20733572D01*
X11895000Y-20762143D01*
X11880714Y-20776429D01*
X11852143Y-20790714D01*
X11809285Y-20790714D01*
X12080714Y-20790714D02*
X12052143Y-20776429D01*
X12037857Y-20747857D01*
X12037857Y-20490714D01*
X12309286Y-20776429D02*
X12280714Y-20790714D01*
X12223571Y-20790714D01*
X12195000Y-20776429D01*
X12180714Y-20747857D01*
X12180714Y-20633572D01*
X12195000Y-20605000D01*
X12223571Y-20590714D01*
X12280714Y-20590714D01*
X12309286Y-20605000D01*
X12323571Y-20633572D01*
X12323571Y-20662143D01*
X12180714Y-20690714D01*
X12437857Y-20776429D02*
X12466428Y-20790714D01*
X12523571Y-20790714D01*
X12552143Y-20776429D01*
X12566428Y-20747857D01*
X12566428Y-20733572D01*
X12552143Y-20705000D01*
X12523571Y-20690714D01*
X12480714Y-20690714D01*
X12452143Y-20676429D01*
X12437857Y-20647857D01*
X12437857Y-20633572D01*
X12452143Y-20605000D01*
X12480714Y-20590714D01*
X12523571Y-20590714D01*
X12552143Y-20605000D01*
X12666428Y-20905000D02*
X12680714Y-20890714D01*
X12709286Y-20847857D01*
X12723571Y-20819286D01*
X12737857Y-20776429D01*
X12752143Y-20705000D01*
X12752143Y-20647857D01*
X12737857Y-20576429D01*
X12723571Y-20533572D01*
X12709286Y-20505000D01*
X12680714Y-20462143D01*
X12666428Y-20447857D01*
M02*
