M48
;DRILL file {KiCad (2015-10-27 BZR 6284, Git 48df08c)-product} date Sun 29 Nov 2015 07:35:52 PM CET
;FORMAT={-:-/ absolute / metric / decimal}
FMAT,2
METRIC,TZ
T1C0.500
T2C0.800
T3C0.813
T4C1.000
T5C1.001
T6C1.100
T7C1.600
T8C1.800
T9C2.500
T10C3.000
T11C3.048
%
G90
G05
M71
T1
X70.485Y-100.33
X73.025Y-89.535
X74.93Y-89.535
X75.565Y-49.53
X75.565Y-62.23
X76.835Y-89.535
X79.375Y-101.653
X82.804Y-114.3
X85.09Y-127.
X87.884Y-118.364
X93.616Y-104.14
X94.488Y-97.805
X111.76Y-114.767
X113.03Y-90.17
X113.284Y-123.444
X113.792Y-113.284
X115.57Y-90.17
X115.57Y-126.617
X115.57Y-128.905
X124.062Y-64.626
X125.73Y-113.665
X125.73Y-116.334
X125.73Y-118.745
X128.016Y-98.552
X132.08Y-116.337
X132.225Y-113.126
X133.096Y-128.524
X133.985Y-112.395
X134.078Y-119.867
X136.017Y-109.331
X139.7Y-118.11
X140.206Y-108.913
X142.24Y-113.03
T2
X120.523Y-124.968
X125.603Y-124.968
T3
X116.205Y-114.3
X116.205Y-119.38
T4
X68.58Y-62.23
X68.58Y-64.77
X68.58Y-67.31
X68.58Y-69.85
X68.58Y-72.39
X71.12Y-62.23
X71.12Y-64.77
X71.12Y-67.31
X71.12Y-69.85
X71.12Y-72.39
X95.25Y-126.365
X95.25Y-128.905
X97.79Y-126.365
X97.79Y-128.905
X100.33Y-126.365
X100.33Y-128.905
X102.87Y-126.365
X102.87Y-128.905
X105.41Y-126.365
X105.41Y-128.905
T5
X67.945Y-90.805
X67.945Y-93.345
X67.945Y-95.885
X67.945Y-98.425
X67.945Y-106.045
X67.945Y-108.585
X67.945Y-111.125
X67.945Y-113.665
X67.945Y-116.205
X67.945Y-118.745
X70.485Y-46.99
X73.025Y-46.99
X81.915Y-99.695
X81.915Y-108.585
X84.455Y-99.695
X84.455Y-108.585
X86.995Y-99.695
X86.995Y-108.585
X89.535Y-99.695
X89.535Y-108.585
X92.71Y-139.065
X95.25Y-139.065
X97.79Y-139.065
X97.841Y-113.03
X100.33Y-139.065
X100.381Y-113.03
X102.87Y-139.065
X102.921Y-113.03
X105.41Y-139.065
X105.461Y-113.03
X116.205Y-147.955
X118.745Y-147.955
X121.285Y-147.955
X123.825Y-147.955
X126.365Y-147.955
X128.905Y-147.955
X136.525Y-139.065
X139.065Y-139.065
X141.605Y-139.065
X144.145Y-139.065
X146.685Y-139.065
X149.225Y-139.065
X170.18Y-102.235
X170.18Y-104.775
X170.18Y-107.315
X170.18Y-109.855
X170.18Y-112.395
X170.18Y-114.935
X171.45Y-83.185
X171.45Y-85.725
X171.45Y-88.265
X171.45Y-90.805
X171.45Y-93.345
X171.45Y-95.885
X174.625Y-83.185
X174.625Y-85.725
X174.625Y-88.265
X174.625Y-90.805
X174.625Y-93.345
X174.625Y-95.885
X177.8Y-83.185
X177.8Y-85.725
X177.8Y-88.265
X177.8Y-90.805
X177.8Y-93.345
X177.8Y-95.885
X179.07Y-102.235
X179.07Y-104.775
X179.07Y-107.315
X179.07Y-109.855
X179.07Y-112.395
X179.07Y-114.935
T6
X132.485Y-74.12
X139.085Y-66.62
T7
X172.717Y-122.936
X172.717Y-127.635
X172.72Y-132.334
X182.245Y-121.039
X182.245Y-134.231
T8
X108.565Y-83.185
X114.065Y-83.185
X128.885Y-67.12
X128.885Y-75.12
X131.885Y-67.12
T9
X125.095Y-53.38
X125.095Y-58.38
T10
X101.265Y-83.185
T11
X65.Y-46.
X86.Y-140.
X138.Y-46.
X167.513Y-133.
X186.Y-64.
T5
X155.595Y-139.164G85X158.095Y-139.164
G05
X155.846Y-145.166G85X157.844Y-145.166
G05
X162.146Y-140.915G85X162.146Y-142.914
G05
T8
X130.048Y-49.434G85X130.048Y-50.134
G05
X130.048Y-61.626G85X130.048Y-62.326
G05
T0
M30
